%TF.GenerationSoftware,KiCad,Pcbnew,(6.0.11)*%
%TF.CreationDate,2023-06-06T08:43:58+02:00*%
%TF.ProjectId,DIN41612-ISA,44494e34-3136-4313-922d-4953412e6b69,rev?*%
%TF.SameCoordinates,Original*%
%TF.FileFunction,Drillmap*%
%TF.FilePolarity,Positive*%
%FSLAX45Y45*%
G04 Gerber Fmt 4.5, Leading zero omitted, Abs format (unit mm)*
G04 Created by KiCad (PCBNEW (6.0.11)) date 2023-06-06 08:43:58*
%MOMM*%
%LPD*%
G01*
G04 APERTURE LIST*
%ADD10C,0.100000*%
%ADD11C,0.200000*%
%ADD12C,0.285000*%
G04 APERTURE END LIST*
D10*
X23609300Y-14250000D02*
X21247100Y-14250000D01*
X21247100Y-15164400D01*
X13119100Y-15164400D01*
X13119100Y-14377000D01*
X12611100Y-14377000D01*
X12611100Y-15164400D01*
X7734300Y-15164400D01*
X7734300Y-11772900D01*
X12331700Y-4140800D01*
X23609300Y-4140800D01*
X23609300Y-14250000D01*
D11*
D12*
X12443200Y-4277700D02*
X12728200Y-4562700D01*
X12728200Y-4277700D02*
X12443200Y-4562700D01*
X21333200Y-4277700D02*
X21618200Y-4562700D01*
X21618200Y-4277700D02*
X21333200Y-4562700D01*
D11*
X7986919Y-15479876D02*
X7986919Y-15279876D01*
X8034538Y-15279876D01*
X8063109Y-15289400D01*
X8082157Y-15308448D01*
X8091681Y-15327495D01*
X8101205Y-15365590D01*
X8101205Y-15394162D01*
X8091681Y-15432257D01*
X8082157Y-15451305D01*
X8063109Y-15470352D01*
X8034538Y-15479876D01*
X7986919Y-15479876D01*
X8186919Y-15479876D02*
X8186919Y-15346543D01*
X8186919Y-15384638D02*
X8196443Y-15365590D01*
X8205967Y-15356067D01*
X8225014Y-15346543D01*
X8244062Y-15346543D01*
X8310728Y-15479876D02*
X8310728Y-15346543D01*
X8310728Y-15279876D02*
X8301205Y-15289400D01*
X8310728Y-15298924D01*
X8320252Y-15289400D01*
X8310728Y-15279876D01*
X8310728Y-15298924D01*
X8434538Y-15479876D02*
X8415490Y-15470352D01*
X8405967Y-15451305D01*
X8405967Y-15279876D01*
X8539300Y-15479876D02*
X8520252Y-15470352D01*
X8510729Y-15451305D01*
X8510729Y-15279876D01*
X8767871Y-15479876D02*
X8767871Y-15279876D01*
X8834538Y-15422733D01*
X8901205Y-15279876D01*
X8901205Y-15479876D01*
X9082157Y-15479876D02*
X9082157Y-15375114D01*
X9072633Y-15356067D01*
X9053586Y-15346543D01*
X9015490Y-15346543D01*
X8996443Y-15356067D01*
X9082157Y-15470352D02*
X9063110Y-15479876D01*
X9015490Y-15479876D01*
X8996443Y-15470352D01*
X8986919Y-15451305D01*
X8986919Y-15432257D01*
X8996443Y-15413209D01*
X9015490Y-15403686D01*
X9063110Y-15403686D01*
X9082157Y-15394162D01*
X9177395Y-15346543D02*
X9177395Y-15546543D01*
X9177395Y-15356067D02*
X9196443Y-15346543D01*
X9234538Y-15346543D01*
X9253586Y-15356067D01*
X9263110Y-15365590D01*
X9272633Y-15384638D01*
X9272633Y-15441781D01*
X9263110Y-15460828D01*
X9253586Y-15470352D01*
X9234538Y-15479876D01*
X9196443Y-15479876D01*
X9177395Y-15470352D01*
X9358348Y-15460828D02*
X9367871Y-15470352D01*
X9358348Y-15479876D01*
X9348824Y-15470352D01*
X9358348Y-15460828D01*
X9358348Y-15479876D01*
X9358348Y-15356067D02*
X9367871Y-15365590D01*
X9358348Y-15375114D01*
X9348824Y-15365590D01*
X9358348Y-15356067D01*
X9358348Y-15375114D01*
X7529300Y-15709400D02*
X7729300Y-15909400D01*
X7729300Y-15709400D02*
X7529300Y-15909400D01*
X7977395Y-15718924D02*
X7986919Y-15709400D01*
X8005967Y-15699876D01*
X8053586Y-15699876D01*
X8072633Y-15709400D01*
X8082157Y-15718924D01*
X8091681Y-15737971D01*
X8091681Y-15757019D01*
X8082157Y-15785590D01*
X7967871Y-15899876D01*
X8091681Y-15899876D01*
X8177395Y-15880828D02*
X8186919Y-15890352D01*
X8177395Y-15899876D01*
X8167871Y-15890352D01*
X8177395Y-15880828D01*
X8177395Y-15899876D01*
X8301205Y-15785590D02*
X8282157Y-15776067D01*
X8272633Y-15766543D01*
X8263109Y-15747495D01*
X8263109Y-15737971D01*
X8272633Y-15718924D01*
X8282157Y-15709400D01*
X8301205Y-15699876D01*
X8339300Y-15699876D01*
X8358348Y-15709400D01*
X8367871Y-15718924D01*
X8377395Y-15737971D01*
X8377395Y-15747495D01*
X8367871Y-15766543D01*
X8358348Y-15776067D01*
X8339300Y-15785590D01*
X8301205Y-15785590D01*
X8282157Y-15795114D01*
X8272633Y-15804638D01*
X8263109Y-15823686D01*
X8263109Y-15861781D01*
X8272633Y-15880828D01*
X8282157Y-15890352D01*
X8301205Y-15899876D01*
X8339300Y-15899876D01*
X8358348Y-15890352D01*
X8367871Y-15880828D01*
X8377395Y-15861781D01*
X8377395Y-15823686D01*
X8367871Y-15804638D01*
X8358348Y-15795114D01*
X8339300Y-15785590D01*
X8558348Y-15699876D02*
X8463110Y-15699876D01*
X8453586Y-15795114D01*
X8463110Y-15785590D01*
X8482157Y-15776067D01*
X8529776Y-15776067D01*
X8548824Y-15785590D01*
X8558348Y-15795114D01*
X8567871Y-15814162D01*
X8567871Y-15861781D01*
X8558348Y-15880828D01*
X8548824Y-15890352D01*
X8529776Y-15899876D01*
X8482157Y-15899876D01*
X8463110Y-15890352D01*
X8453586Y-15880828D01*
X8691681Y-15699876D02*
X8710729Y-15699876D01*
X8729776Y-15709400D01*
X8739300Y-15718924D01*
X8748824Y-15737971D01*
X8758348Y-15776067D01*
X8758348Y-15823686D01*
X8748824Y-15861781D01*
X8739300Y-15880828D01*
X8729776Y-15890352D01*
X8710729Y-15899876D01*
X8691681Y-15899876D01*
X8672633Y-15890352D01*
X8663110Y-15880828D01*
X8653586Y-15861781D01*
X8644062Y-15823686D01*
X8644062Y-15776067D01*
X8653586Y-15737971D01*
X8663110Y-15718924D01*
X8672633Y-15709400D01*
X8691681Y-15699876D01*
X8844062Y-15899876D02*
X8844062Y-15766543D01*
X8844062Y-15785590D02*
X8853586Y-15776067D01*
X8872633Y-15766543D01*
X8901205Y-15766543D01*
X8920252Y-15776067D01*
X8929776Y-15795114D01*
X8929776Y-15899876D01*
X8929776Y-15795114D02*
X8939300Y-15776067D01*
X8958348Y-15766543D01*
X8986919Y-15766543D01*
X9005967Y-15776067D01*
X9015490Y-15795114D01*
X9015490Y-15899876D01*
X9110729Y-15899876D02*
X9110729Y-15766543D01*
X9110729Y-15785590D02*
X9120252Y-15776067D01*
X9139300Y-15766543D01*
X9167871Y-15766543D01*
X9186919Y-15776067D01*
X9196443Y-15795114D01*
X9196443Y-15899876D01*
X9196443Y-15795114D02*
X9205967Y-15776067D01*
X9225014Y-15766543D01*
X9253586Y-15766543D01*
X9272633Y-15776067D01*
X9282157Y-15795114D01*
X9282157Y-15899876D01*
X9672633Y-15690352D02*
X9501205Y-15947495D01*
X9929776Y-15699876D02*
X9948824Y-15699876D01*
X9967871Y-15709400D01*
X9977395Y-15718924D01*
X9986919Y-15737971D01*
X9996443Y-15776067D01*
X9996443Y-15823686D01*
X9986919Y-15861781D01*
X9977395Y-15880828D01*
X9967871Y-15890352D01*
X9948824Y-15899876D01*
X9929776Y-15899876D01*
X9910729Y-15890352D01*
X9901205Y-15880828D01*
X9891681Y-15861781D01*
X9882157Y-15823686D01*
X9882157Y-15776067D01*
X9891681Y-15737971D01*
X9901205Y-15718924D01*
X9910729Y-15709400D01*
X9929776Y-15699876D01*
X10082157Y-15880828D02*
X10091681Y-15890352D01*
X10082157Y-15899876D01*
X10072633Y-15890352D01*
X10082157Y-15880828D01*
X10082157Y-15899876D01*
X10282157Y-15899876D02*
X10167871Y-15899876D01*
X10225014Y-15899876D02*
X10225014Y-15699876D01*
X10205967Y-15728448D01*
X10186919Y-15747495D01*
X10167871Y-15757019D01*
X10472633Y-15899876D02*
X10358348Y-15899876D01*
X10415490Y-15899876D02*
X10415490Y-15699876D01*
X10396443Y-15728448D01*
X10377395Y-15747495D01*
X10358348Y-15757019D01*
X10548824Y-15718924D02*
X10558348Y-15709400D01*
X10577395Y-15699876D01*
X10625014Y-15699876D01*
X10644062Y-15709400D01*
X10653586Y-15718924D01*
X10663110Y-15737971D01*
X10663110Y-15757019D01*
X10653586Y-15785590D01*
X10539300Y-15899876D01*
X10663110Y-15899876D01*
X10739300Y-15718924D02*
X10748824Y-15709400D01*
X10767871Y-15699876D01*
X10815490Y-15699876D01*
X10834538Y-15709400D01*
X10844062Y-15718924D01*
X10853586Y-15737971D01*
X10853586Y-15757019D01*
X10844062Y-15785590D01*
X10729776Y-15899876D01*
X10853586Y-15899876D01*
X10929776Y-15699876D02*
X10929776Y-15737971D01*
X11005967Y-15699876D02*
X11005967Y-15737971D01*
X11301205Y-15976067D02*
X11291681Y-15966543D01*
X11272633Y-15937971D01*
X11263109Y-15918924D01*
X11253586Y-15890352D01*
X11244062Y-15842733D01*
X11244062Y-15804638D01*
X11253586Y-15757019D01*
X11263109Y-15728448D01*
X11272633Y-15709400D01*
X11291681Y-15680828D01*
X11301205Y-15671305D01*
X11367871Y-15718924D02*
X11377395Y-15709400D01*
X11396443Y-15699876D01*
X11444062Y-15699876D01*
X11463109Y-15709400D01*
X11472633Y-15718924D01*
X11482157Y-15737971D01*
X11482157Y-15757019D01*
X11472633Y-15785590D01*
X11358348Y-15899876D01*
X11482157Y-15899876D01*
X11720252Y-15899876D02*
X11720252Y-15699876D01*
X11805967Y-15899876D02*
X11805967Y-15795114D01*
X11796443Y-15776067D01*
X11777395Y-15766543D01*
X11748824Y-15766543D01*
X11729776Y-15776067D01*
X11720252Y-15785590D01*
X11929776Y-15899876D02*
X11910728Y-15890352D01*
X11901205Y-15880828D01*
X11891681Y-15861781D01*
X11891681Y-15804638D01*
X11901205Y-15785590D01*
X11910728Y-15776067D01*
X11929776Y-15766543D01*
X11958348Y-15766543D01*
X11977395Y-15776067D01*
X11986919Y-15785590D01*
X11996443Y-15804638D01*
X11996443Y-15861781D01*
X11986919Y-15880828D01*
X11977395Y-15890352D01*
X11958348Y-15899876D01*
X11929776Y-15899876D01*
X12110728Y-15899876D02*
X12091681Y-15890352D01*
X12082157Y-15871305D01*
X12082157Y-15699876D01*
X12263109Y-15890352D02*
X12244062Y-15899876D01*
X12205967Y-15899876D01*
X12186919Y-15890352D01*
X12177395Y-15871305D01*
X12177395Y-15795114D01*
X12186919Y-15776067D01*
X12205967Y-15766543D01*
X12244062Y-15766543D01*
X12263109Y-15776067D01*
X12272633Y-15795114D01*
X12272633Y-15814162D01*
X12177395Y-15833209D01*
X12348824Y-15890352D02*
X12367871Y-15899876D01*
X12405967Y-15899876D01*
X12425014Y-15890352D01*
X12434538Y-15871305D01*
X12434538Y-15861781D01*
X12425014Y-15842733D01*
X12405967Y-15833209D01*
X12377395Y-15833209D01*
X12358348Y-15823686D01*
X12348824Y-15804638D01*
X12348824Y-15795114D01*
X12358348Y-15776067D01*
X12377395Y-15766543D01*
X12405967Y-15766543D01*
X12425014Y-15776067D01*
X12501205Y-15976067D02*
X12510728Y-15966543D01*
X12529776Y-15937971D01*
X12539300Y-15918924D01*
X12548824Y-15890352D01*
X12558348Y-15842733D01*
X12558348Y-15804638D01*
X12548824Y-15757019D01*
X12539300Y-15728448D01*
X12529776Y-15709400D01*
X12510728Y-15680828D01*
X12501205Y-15671305D01*
X12863109Y-15976067D02*
X12853586Y-15966543D01*
X12834538Y-15937971D01*
X12825014Y-15918924D01*
X12815490Y-15890352D01*
X12805967Y-15842733D01*
X12805967Y-15804638D01*
X12815490Y-15757019D01*
X12825014Y-15728448D01*
X12834538Y-15709400D01*
X12853586Y-15680828D01*
X12863109Y-15671305D01*
X12939300Y-15766543D02*
X12939300Y-15899876D01*
X12939300Y-15785590D02*
X12948824Y-15776067D01*
X12967871Y-15766543D01*
X12996443Y-15766543D01*
X13015490Y-15776067D01*
X13025014Y-15795114D01*
X13025014Y-15899876D01*
X13148824Y-15899876D02*
X13129776Y-15890352D01*
X13120252Y-15880828D01*
X13110728Y-15861781D01*
X13110728Y-15804638D01*
X13120252Y-15785590D01*
X13129776Y-15776067D01*
X13148824Y-15766543D01*
X13177395Y-15766543D01*
X13196443Y-15776067D01*
X13205967Y-15785590D01*
X13215490Y-15804638D01*
X13215490Y-15861781D01*
X13205967Y-15880828D01*
X13196443Y-15890352D01*
X13177395Y-15899876D01*
X13148824Y-15899876D01*
X13272633Y-15766543D02*
X13348824Y-15766543D01*
X13301205Y-15699876D02*
X13301205Y-15871305D01*
X13310728Y-15890352D01*
X13329776Y-15899876D01*
X13348824Y-15899876D01*
X13567871Y-15766543D02*
X13567871Y-15966543D01*
X13567871Y-15776067D02*
X13586919Y-15766543D01*
X13625014Y-15766543D01*
X13644062Y-15776067D01*
X13653586Y-15785590D01*
X13663109Y-15804638D01*
X13663109Y-15861781D01*
X13653586Y-15880828D01*
X13644062Y-15890352D01*
X13625014Y-15899876D01*
X13586919Y-15899876D01*
X13567871Y-15890352D01*
X13777395Y-15899876D02*
X13758348Y-15890352D01*
X13748824Y-15871305D01*
X13748824Y-15699876D01*
X13939300Y-15899876D02*
X13939300Y-15795114D01*
X13929776Y-15776067D01*
X13910728Y-15766543D01*
X13872633Y-15766543D01*
X13853586Y-15776067D01*
X13939300Y-15890352D02*
X13920252Y-15899876D01*
X13872633Y-15899876D01*
X13853586Y-15890352D01*
X13844062Y-15871305D01*
X13844062Y-15852257D01*
X13853586Y-15833209D01*
X13872633Y-15823686D01*
X13920252Y-15823686D01*
X13939300Y-15814162D01*
X14005967Y-15766543D02*
X14082157Y-15766543D01*
X14034538Y-15699876D02*
X14034538Y-15871305D01*
X14044062Y-15890352D01*
X14063109Y-15899876D01*
X14082157Y-15899876D01*
X14225014Y-15890352D02*
X14205967Y-15899876D01*
X14167871Y-15899876D01*
X14148824Y-15890352D01*
X14139300Y-15871305D01*
X14139300Y-15795114D01*
X14148824Y-15776067D01*
X14167871Y-15766543D01*
X14205967Y-15766543D01*
X14225014Y-15776067D01*
X14234538Y-15795114D01*
X14234538Y-15814162D01*
X14139300Y-15833209D01*
X14405967Y-15899876D02*
X14405967Y-15699876D01*
X14405967Y-15890352D02*
X14386919Y-15899876D01*
X14348824Y-15899876D01*
X14329776Y-15890352D01*
X14320252Y-15880828D01*
X14310728Y-15861781D01*
X14310728Y-15804638D01*
X14320252Y-15785590D01*
X14329776Y-15776067D01*
X14348824Y-15766543D01*
X14386919Y-15766543D01*
X14405967Y-15776067D01*
X14482157Y-15976067D02*
X14491681Y-15966543D01*
X14510728Y-15937971D01*
X14520252Y-15918924D01*
X14529776Y-15890352D01*
X14539300Y-15842733D01*
X14539300Y-15804638D01*
X14529776Y-15757019D01*
X14520252Y-15728448D01*
X14510728Y-15709400D01*
X14491681Y-15680828D01*
X14482157Y-15671305D01*
M02*
