M48
; DRILL file {KiCad (6.0.11)} date Tue Jun  6 08:43:54 2023
; FORMAT={-:-/ absolute / inch / decimal}
; #@! TF.CreationDate,2023-06-06T08:43:54+02:00
; #@! TF.GenerationSoftware,Kicad,Pcbnew,(6.0.11)
; #@! TF.FileFunction,Plated,1,2,PTH
FMAT,2
INCH
; #@! TA.AperFunction,Plated,PTH,ViaDrill
T1C0.0157
; #@! TA.AperFunction,Plated,PTH,ComponentDrill
T2C0.0394
; #@! TA.AperFunction,Plated,PTH,ComponentDrill
T3C0.0433
; #@! TA.AperFunction,Plated,PTH,ComponentDrill
T4C0.1181
%
G90
G05
T1
X3.705Y-5.015
X3.895Y-4.825
X4.19Y-4.89
X4.225Y-4.25
X4.225Y-4.405
X4.4Y-4.325
X4.43Y-4.355
X4.465Y-4.38
X4.51Y-4.405
X4.555Y-4.425
X4.655Y-4.455
X4.755Y-4.6325
X4.925Y-4.325
X5.03Y-4.32
X5.03Y-5.255
X5.255Y-4.275
X5.255Y-4.78
X5.355Y-4.275
X5.355Y-4.78
X5.455Y-4.275
X5.455Y-4.78
X5.505Y-4.675
X5.555Y-4.275
X5.555Y-4.78
X5.655Y-4.275
X5.655Y-4.78
X5.755Y-4.275
X5.755Y-4.78
X5.855Y-4.275
X5.855Y-4.78
X5.955Y-4.36
X5.955Y-4.78
X6.055Y-4.36
X6.055Y-4.78
X6.155Y-4.36
X6.155Y-4.78
X6.255Y-4.36
X6.255Y-4.78
X6.355Y-4.36
X6.355Y-4.78
X6.455Y-4.36
X6.455Y-4.78
X6.555Y-4.36
X6.555Y-4.78
X6.655Y-4.36
X6.655Y-4.78
X6.755Y-4.36
X6.755Y-4.78
X6.855Y-4.36
X6.855Y-4.78
X6.955Y-4.36
X6.955Y-4.78
X7.055Y-4.36
X7.055Y-4.78
X7.155Y-4.36
X7.155Y-4.78
X7.255Y-4.36
X7.255Y-4.78
X7.355Y-4.36
X7.355Y-4.78
X7.455Y-4.36
X7.455Y-4.78
X7.555Y-4.36
X7.555Y-4.78
X7.655Y-4.36
X7.655Y-4.78
X7.755Y-4.36
X7.755Y-4.78
X7.855Y-4.5
X7.855Y-4.78
X7.955Y-4.5
X7.955Y-4.78
X8.055Y-4.5
X8.055Y-4.78
X8.155Y-4.5
X8.155Y-4.78
X8.255Y-4.5
X8.255Y-4.78
T2
X3.155Y-5.1831
X3.155Y-5.2831
X3.255Y-5.1831
X3.255Y-5.2831
X3.355Y-5.1831
X3.355Y-5.2831
X3.455Y-5.1831
X3.455Y-5.2831
X3.555Y-5.1831
X3.555Y-5.2831
X3.655Y-5.1831
X3.655Y-5.2831
X3.755Y-5.1831
X3.755Y-5.2831
X3.855Y-5.1831
X3.855Y-5.2831
X3.955Y-5.1831
X3.955Y-5.2831
X4.055Y-5.1831
X4.055Y-5.2831
X4.155Y-5.1831
X4.155Y-5.2831
X4.255Y-5.1831
X4.255Y-5.2831
X4.355Y-5.1831
X4.355Y-5.2831
X4.455Y-5.1831
X4.455Y-5.2831
X4.555Y-5.1831
X4.555Y-5.2831
X4.655Y-5.1831
X4.655Y-5.2831
X4.755Y-5.1831
X4.755Y-5.2831
X4.855Y-5.1831
X4.855Y-5.2831
X5.255Y-5.1831
X5.255Y-5.2831
X5.355Y-5.1831
X5.355Y-5.2831
X5.455Y-5.1831
X5.455Y-5.2831
X5.555Y-5.1831
X5.555Y-5.2831
X5.655Y-5.1831
X5.655Y-5.2831
X5.755Y-5.1831
X5.755Y-5.2831
X5.855Y-5.1831
X5.855Y-5.2831
X5.955Y-5.1831
X5.955Y-5.2831
X6.055Y-5.1831
X6.055Y-5.2831
X6.155Y-5.1831
X6.155Y-5.2831
X6.255Y-5.1831
X6.255Y-5.2831
X6.355Y-5.1831
X6.355Y-5.2831
X6.455Y-5.1831
X6.455Y-5.2831
X6.555Y-5.1831
X6.555Y-5.2831
X6.655Y-5.1831
X6.655Y-5.2831
X6.755Y-5.1831
X6.755Y-5.2831
X6.855Y-5.1831
X6.855Y-5.2831
X6.955Y-5.1831
X6.955Y-5.2831
X7.055Y-5.1831
X7.055Y-5.2831
X7.155Y-5.1831
X7.155Y-5.2831
X7.255Y-5.1831
X7.255Y-5.2831
X7.355Y-5.1831
X7.355Y-5.2831
X7.455Y-5.1831
X7.455Y-5.2831
X7.555Y-5.1831
X7.555Y-5.2831
X7.655Y-5.1831
X7.655Y-5.2831
X7.755Y-5.1831
X7.755Y-5.2831
X7.855Y-5.1831
X7.855Y-5.2831
X7.955Y-5.1831
X7.955Y-5.2831
X8.055Y-5.1831
X8.055Y-5.2831
X8.155Y-5.1831
X8.155Y-5.2831
X8.255Y-5.1831
X8.255Y-5.2831
T3
X5.155Y-1.8402
X5.155Y-1.9402
X5.155Y-2.0402
X5.255Y-1.8402
X5.255Y-1.9402
X5.255Y-2.0402
X5.355Y-1.8402
X5.355Y-1.9402
X5.355Y-2.0402
X5.455Y-1.8402
X5.455Y-1.9402
X5.455Y-2.0402
X5.555Y-1.8402
X5.555Y-1.9402
X5.555Y-2.0402
X5.655Y-1.8402
X5.655Y-1.9402
X5.655Y-2.0402
X5.755Y-1.8402
X5.755Y-1.9402
X5.755Y-2.0402
X5.855Y-1.8402
X5.855Y-1.9402
X5.855Y-2.0402
X5.955Y-1.8402
X5.955Y-1.9402
X5.955Y-2.0402
X6.055Y-1.8402
X6.055Y-1.9402
X6.055Y-2.0402
X6.155Y-1.8402
X6.155Y-1.9402
X6.155Y-2.0402
X6.255Y-1.8402
X6.255Y-1.9402
X6.255Y-2.0402
X6.355Y-1.8402
X6.355Y-1.9402
X6.355Y-2.0402
X6.455Y-1.8402
X6.455Y-1.9402
X6.455Y-2.0402
X6.555Y-1.8402
X6.555Y-1.9402
X6.555Y-2.0402
X6.655Y-1.8402
X6.655Y-1.9402
X6.655Y-2.0402
X6.755Y-1.8402
X6.755Y-1.9402
X6.755Y-2.0402
X6.855Y-1.8402
X6.855Y-1.9402
X6.855Y-2.0402
X6.955Y-1.8402
X6.955Y-1.9402
X6.955Y-2.0402
X7.055Y-1.8402
X7.055Y-1.9402
X7.055Y-2.0402
X7.155Y-1.8402
X7.155Y-1.9402
X7.155Y-2.0402
X7.255Y-1.8402
X7.255Y-1.9402
X7.255Y-2.0402
X7.355Y-1.8402
X7.355Y-1.9402
X7.355Y-2.0402
X7.455Y-1.8402
X7.455Y-1.9402
X7.455Y-2.0402
X7.555Y-1.8402
X7.555Y-1.9402
X7.555Y-2.0402
X7.655Y-1.8402
X7.655Y-1.9402
X7.655Y-2.0402
X7.755Y-1.8402
X7.755Y-1.9402
X7.755Y-2.0402
X7.855Y-1.8402
X7.855Y-1.9402
X7.855Y-2.0402
X7.955Y-1.8402
X7.955Y-1.9402
X7.955Y-2.0402
X8.055Y-1.8402
X8.055Y-1.9402
X8.055Y-2.0402
X8.155Y-1.8402
X8.155Y-1.9402
X8.155Y-2.0402
X8.255Y-1.8402
X8.255Y-1.9402
X8.255Y-2.0402
T4
X9.115Y-3.2252
X9.115Y-3.2252
X9.115Y-5.4502
X9.115Y-5.4502
T0
M30
