%TF.GenerationSoftware,KiCad,Pcbnew,(6.0.11)*%
%TF.CreationDate,2023-06-06T08:43:51+02:00*%
%TF.ProjectId,DIN41612-ISA,44494e34-3136-4313-922d-4953412e6b69,rev?*%
%TF.SameCoordinates,Original*%
%TF.FileFunction,Legend,Top*%
%TF.FilePolarity,Positive*%
%FSLAX46Y46*%
G04 Gerber Fmt 4.6, Leading zero omitted, Abs format (unit mm)*
G04 Created by KiCad (PCBNEW (6.0.11)) date 2023-06-06 08:43:51*
%MOMM*%
%LPD*%
G01*
G04 APERTURE LIST*
%ADD10C,0.150000*%
%ADD11C,0.300000*%
%ADD12C,0.120000*%
G04 APERTURE END LIST*
D10*
X218947999Y-69468999D02*
G75*
G03*
X214884000Y-48895000I-4180629J9862579D01*
G01*
X218947974Y-62610975D02*
G75*
G03*
X214503000Y-50546000I-5078774J4980175D01*
G01*
X151328428Y-55046666D02*
X151280809Y-55189523D01*
X151233190Y-55237142D01*
X151137952Y-55284761D01*
X150995095Y-55284761D01*
X150899857Y-55237142D01*
X150852238Y-55189523D01*
X150804619Y-55094285D01*
X150804619Y-54713333D01*
X151804619Y-54713333D01*
X151804619Y-55046666D01*
X151757000Y-55141904D01*
X151709380Y-55189523D01*
X151614142Y-55237142D01*
X151518904Y-55237142D01*
X151423666Y-55189523D01*
X151376047Y-55141904D01*
X151328428Y-55046666D01*
X151328428Y-54713333D01*
X151090333Y-55665714D02*
X151090333Y-56141904D01*
X150804619Y-55570476D02*
X151804619Y-55903809D01*
X150804619Y-56237142D01*
X151804619Y-56475238D02*
X151804619Y-57141904D01*
X150804619Y-56713333D01*
X199445571Y-68437285D02*
X199445571Y-69199190D01*
X200064619Y-70151571D02*
X200064619Y-69675380D01*
X199588428Y-69627761D01*
X199636047Y-69675380D01*
X199683666Y-69770619D01*
X199683666Y-70008714D01*
X199636047Y-70103952D01*
X199588428Y-70151571D01*
X199493190Y-70199190D01*
X199255095Y-70199190D01*
X199159857Y-70151571D01*
X199112238Y-70103952D01*
X199064619Y-70008714D01*
X199064619Y-69770619D01*
X199112238Y-69675380D01*
X199159857Y-69627761D01*
X200064619Y-70484904D02*
X199064619Y-70818238D01*
X200064619Y-71151571D01*
X189285571Y-67961095D02*
X189285571Y-68723000D01*
X188904619Y-68342047D02*
X189666523Y-68342047D01*
X188904619Y-69723000D02*
X188904619Y-69151571D01*
X188904619Y-69437285D02*
X189904619Y-69437285D01*
X189761761Y-69342047D01*
X189666523Y-69246809D01*
X189618904Y-69151571D01*
X189809380Y-70103952D02*
X189857000Y-70151571D01*
X189904619Y-70246809D01*
X189904619Y-70484904D01*
X189857000Y-70580142D01*
X189809380Y-70627761D01*
X189714142Y-70675380D01*
X189618904Y-70675380D01*
X189476047Y-70627761D01*
X188904619Y-70056333D01*
X188904619Y-70675380D01*
X189904619Y-70961095D02*
X188904619Y-71294428D01*
X189904619Y-71627761D01*
X144184619Y-68937285D02*
X144184619Y-69508714D01*
X143184619Y-69223000D02*
X144184619Y-69223000D01*
X143279857Y-70413476D02*
X143232238Y-70365857D01*
X143184619Y-70223000D01*
X143184619Y-70127761D01*
X143232238Y-69984904D01*
X143327476Y-69889666D01*
X143422714Y-69842047D01*
X143613190Y-69794428D01*
X143756047Y-69794428D01*
X143946523Y-69842047D01*
X144041761Y-69889666D01*
X144137000Y-69984904D01*
X144184619Y-70127761D01*
X144184619Y-70223000D01*
X144137000Y-70365857D01*
X144089380Y-70413476D01*
X171648428Y-137247476D02*
X171600809Y-137390333D01*
X171553190Y-137437952D01*
X171457952Y-137485571D01*
X171315095Y-137485571D01*
X171219857Y-137437952D01*
X171172238Y-137390333D01*
X171124619Y-137295095D01*
X171124619Y-136914142D01*
X172124619Y-136914142D01*
X172124619Y-137247476D01*
X172077000Y-137342714D01*
X172029380Y-137390333D01*
X171934142Y-137437952D01*
X171838904Y-137437952D01*
X171743666Y-137390333D01*
X171696047Y-137342714D01*
X171648428Y-137247476D01*
X171648428Y-136914142D01*
X171410333Y-137866523D02*
X171410333Y-138342714D01*
X171124619Y-137771285D02*
X172124619Y-138104619D01*
X171124619Y-138437952D01*
X171124619Y-139295095D02*
X171124619Y-138723666D01*
X171124619Y-139009380D02*
X172124619Y-139009380D01*
X171981761Y-138914142D01*
X171886523Y-138818904D01*
X171838904Y-138723666D01*
X172124619Y-140199857D02*
X172124619Y-139723666D01*
X171648428Y-139676047D01*
X171696047Y-139723666D01*
X171743666Y-139818904D01*
X171743666Y-140057000D01*
X171696047Y-140152238D01*
X171648428Y-140199857D01*
X171553190Y-140247476D01*
X171315095Y-140247476D01*
X171219857Y-140199857D01*
X171172238Y-140152238D01*
X171124619Y-140057000D01*
X171124619Y-139818904D01*
X171172238Y-139723666D01*
X171219857Y-139676047D01*
X155884619Y-124484000D02*
X156884619Y-124484000D01*
X155884619Y-125531619D02*
X156360809Y-125198285D01*
X155884619Y-124960190D02*
X156884619Y-124960190D01*
X156884619Y-125341142D01*
X156837000Y-125436380D01*
X156789380Y-125484000D01*
X156694142Y-125531619D01*
X156551285Y-125531619D01*
X156456047Y-125484000D01*
X156408428Y-125436380D01*
X156360809Y-125341142D01*
X156360809Y-124960190D01*
X155789380Y-126626857D02*
X155837000Y-126531619D01*
X155932238Y-126436380D01*
X156075095Y-126293523D01*
X156122714Y-126198285D01*
X156122714Y-126103047D01*
X155884619Y-126150666D02*
X155932238Y-126055428D01*
X156027476Y-125960190D01*
X156217952Y-125912571D01*
X156551285Y-125912571D01*
X156741761Y-125960190D01*
X156837000Y-126055428D01*
X156884619Y-126150666D01*
X156884619Y-126341142D01*
X156837000Y-126436380D01*
X156741761Y-126531619D01*
X156551285Y-126579238D01*
X156217952Y-126579238D01*
X156027476Y-126531619D01*
X155932238Y-126436380D01*
X155884619Y-126341142D01*
X155884619Y-126150666D01*
X156884619Y-127436380D02*
X156884619Y-127245904D01*
X156837000Y-127150666D01*
X156789380Y-127103047D01*
X156646523Y-127007809D01*
X156456047Y-126960190D01*
X156075095Y-126960190D01*
X155979857Y-127007809D01*
X155932238Y-127055428D01*
X155884619Y-127150666D01*
X155884619Y-127341142D01*
X155932238Y-127436380D01*
X155979857Y-127484000D01*
X156075095Y-127531619D01*
X156313190Y-127531619D01*
X156408428Y-127484000D01*
X156456047Y-127436380D01*
X156503666Y-127341142D01*
X156503666Y-127150666D01*
X156456047Y-127055428D01*
X156408428Y-127007809D01*
X156313190Y-126960190D01*
X133977000Y-125222095D02*
X134024619Y-125126857D01*
X134024619Y-124984000D01*
X133977000Y-124841142D01*
X133881761Y-124745904D01*
X133786523Y-124698285D01*
X133596047Y-124650666D01*
X133453190Y-124650666D01*
X133262714Y-124698285D01*
X133167476Y-124745904D01*
X133072238Y-124841142D01*
X133024619Y-124984000D01*
X133024619Y-125079238D01*
X133072238Y-125222095D01*
X133119857Y-125269714D01*
X133453190Y-125269714D01*
X133453190Y-125079238D01*
X133024619Y-125698285D02*
X134024619Y-125698285D01*
X133024619Y-126269714D01*
X134024619Y-126269714D01*
X133024619Y-126745904D02*
X134024619Y-126745904D01*
X134024619Y-126984000D01*
X133977000Y-127126857D01*
X133881761Y-127222095D01*
X133786523Y-127269714D01*
X133596047Y-127317333D01*
X133453190Y-127317333D01*
X133262714Y-127269714D01*
X133167476Y-127222095D01*
X133072238Y-127126857D01*
X133024619Y-126984000D01*
X133024619Y-126745904D01*
X120324619Y-123531619D02*
X121324619Y-123531619D01*
X121324619Y-124198285D02*
X121324619Y-124388761D01*
X121277000Y-124484000D01*
X121181761Y-124579238D01*
X120991285Y-124626857D01*
X120657952Y-124626857D01*
X120467476Y-124579238D01*
X120372238Y-124484000D01*
X120324619Y-124388761D01*
X120324619Y-124198285D01*
X120372238Y-124103047D01*
X120467476Y-124007809D01*
X120657952Y-123960190D01*
X120991285Y-123960190D01*
X121181761Y-124007809D01*
X121277000Y-124103047D01*
X121324619Y-124198285D01*
X120419857Y-125626857D02*
X120372238Y-125579238D01*
X120324619Y-125436380D01*
X120324619Y-125341142D01*
X120372238Y-125198285D01*
X120467476Y-125103047D01*
X120562714Y-125055428D01*
X120753190Y-125007809D01*
X120896047Y-125007809D01*
X121086523Y-125055428D01*
X121181761Y-125103047D01*
X121277000Y-125198285D01*
X121324619Y-125341142D01*
X121324619Y-125436380D01*
X121277000Y-125579238D01*
X121229380Y-125626857D01*
X120372238Y-126007809D02*
X120324619Y-126150666D01*
X120324619Y-126388761D01*
X120372238Y-126484000D01*
X120419857Y-126531619D01*
X120515095Y-126579238D01*
X120610333Y-126579238D01*
X120705571Y-126531619D01*
X120753190Y-126484000D01*
X120800809Y-126388761D01*
X120848428Y-126198285D01*
X120896047Y-126103047D01*
X120943666Y-126055428D01*
X121038904Y-126007809D01*
X121134142Y-126007809D01*
X121229380Y-126055428D01*
X121277000Y-126103047D01*
X121324619Y-126198285D01*
X121324619Y-126436380D01*
X121277000Y-126579238D01*
X120324619Y-127531619D02*
X120324619Y-126960190D01*
X120324619Y-127245904D02*
X121324619Y-127245904D01*
X121181761Y-127150666D01*
X121086523Y-127055428D01*
X121038904Y-126960190D01*
X121324619Y-128388761D02*
X121324619Y-128198285D01*
X121277000Y-128103047D01*
X121229380Y-128055428D01*
X121086523Y-127960190D01*
X120896047Y-127912571D01*
X120515095Y-127912571D01*
X120419857Y-127960190D01*
X120372238Y-128007809D01*
X120324619Y-128103047D01*
X120324619Y-128293523D01*
X120372238Y-128388761D01*
X120419857Y-128436380D01*
X120515095Y-128484000D01*
X120753190Y-128484000D01*
X120848428Y-128436380D01*
X120896047Y-128388761D01*
X120943666Y-128293523D01*
X120943666Y-128103047D01*
X120896047Y-128007809D01*
X120848428Y-127960190D01*
X120753190Y-127912571D01*
X201604619Y-68223000D02*
X202604619Y-68223000D01*
X201604619Y-69270619D02*
X202080809Y-68937285D01*
X201604619Y-68699190D02*
X202604619Y-68699190D01*
X202604619Y-69080142D01*
X202557000Y-69175380D01*
X202509380Y-69223000D01*
X202414142Y-69270619D01*
X202271285Y-69270619D01*
X202176047Y-69223000D01*
X202128428Y-69175380D01*
X202080809Y-69080142D01*
X202080809Y-68699190D01*
X201509380Y-70365857D02*
X201557000Y-70270619D01*
X201652238Y-70175380D01*
X201795095Y-70032523D01*
X201842714Y-69937285D01*
X201842714Y-69842047D01*
X201604619Y-69889666D02*
X201652238Y-69794428D01*
X201747476Y-69699190D01*
X201937952Y-69651571D01*
X202271285Y-69651571D01*
X202461761Y-69699190D01*
X202557000Y-69794428D01*
X202604619Y-69889666D01*
X202604619Y-70080142D01*
X202557000Y-70175380D01*
X202461761Y-70270619D01*
X202271285Y-70318238D01*
X201937952Y-70318238D01*
X201747476Y-70270619D01*
X201652238Y-70175380D01*
X201604619Y-70080142D01*
X201604619Y-69889666D01*
X202509380Y-70699190D02*
X202557000Y-70746809D01*
X202604619Y-70842047D01*
X202604619Y-71080142D01*
X202557000Y-71175380D01*
X202509380Y-71223000D01*
X202414142Y-71270619D01*
X202318904Y-71270619D01*
X202176047Y-71223000D01*
X201604619Y-70651571D01*
X201604619Y-71270619D01*
X153344619Y-124484000D02*
X154344619Y-124484000D01*
X153344619Y-125531619D02*
X153820809Y-125198285D01*
X153344619Y-124960190D02*
X154344619Y-124960190D01*
X154344619Y-125341142D01*
X154297000Y-125436380D01*
X154249380Y-125484000D01*
X154154142Y-125531619D01*
X154011285Y-125531619D01*
X153916047Y-125484000D01*
X153868428Y-125436380D01*
X153820809Y-125341142D01*
X153820809Y-124960190D01*
X153249380Y-126626857D02*
X153297000Y-126531619D01*
X153392238Y-126436380D01*
X153535095Y-126293523D01*
X153582714Y-126198285D01*
X153582714Y-126103047D01*
X153344619Y-126150666D02*
X153392238Y-126055428D01*
X153487476Y-125960190D01*
X153677952Y-125912571D01*
X154011285Y-125912571D01*
X154201761Y-125960190D01*
X154297000Y-126055428D01*
X154344619Y-126150666D01*
X154344619Y-126341142D01*
X154297000Y-126436380D01*
X154201761Y-126531619D01*
X154011285Y-126579238D01*
X153677952Y-126579238D01*
X153487476Y-126531619D01*
X153392238Y-126436380D01*
X153344619Y-126341142D01*
X153344619Y-126150666D01*
X154344619Y-127484000D02*
X154344619Y-127007809D01*
X153868428Y-126960190D01*
X153916047Y-127007809D01*
X153963666Y-127103047D01*
X153963666Y-127341142D01*
X153916047Y-127436380D01*
X153868428Y-127484000D01*
X153773190Y-127531619D01*
X153535095Y-127531619D01*
X153439857Y-127484000D01*
X153392238Y-127436380D01*
X153344619Y-127341142D01*
X153344619Y-127103047D01*
X153392238Y-127007809D01*
X153439857Y-126960190D01*
X163504619Y-123460190D02*
X163980809Y-123126857D01*
X163504619Y-122888761D02*
X164504619Y-122888761D01*
X164504619Y-123269714D01*
X164457000Y-123364952D01*
X164409380Y-123412571D01*
X164314142Y-123460190D01*
X164171285Y-123460190D01*
X164076047Y-123412571D01*
X164028428Y-123364952D01*
X163980809Y-123269714D01*
X163980809Y-122888761D01*
X164028428Y-123888761D02*
X164028428Y-124222095D01*
X163504619Y-124364952D02*
X163504619Y-123888761D01*
X164504619Y-123888761D01*
X164504619Y-124364952D01*
X164028428Y-125126857D02*
X164028428Y-124793523D01*
X163504619Y-124793523D02*
X164504619Y-124793523D01*
X164504619Y-125269714D01*
X163504619Y-126222095D02*
X163980809Y-125888761D01*
X163504619Y-125650666D02*
X164504619Y-125650666D01*
X164504619Y-126031619D01*
X164457000Y-126126857D01*
X164409380Y-126174476D01*
X164314142Y-126222095D01*
X164171285Y-126222095D01*
X164076047Y-126174476D01*
X164028428Y-126126857D01*
X163980809Y-126031619D01*
X163980809Y-125650666D01*
X164028428Y-126650666D02*
X164028428Y-126984000D01*
X163504619Y-127126857D02*
X163504619Y-126650666D01*
X164504619Y-126650666D01*
X164504619Y-127126857D01*
X163552238Y-127507809D02*
X163504619Y-127650666D01*
X163504619Y-127888761D01*
X163552238Y-127984000D01*
X163599857Y-128031619D01*
X163695095Y-128079238D01*
X163790333Y-128079238D01*
X163885571Y-128031619D01*
X163933190Y-127984000D01*
X163980809Y-127888761D01*
X164028428Y-127698285D01*
X164076047Y-127603047D01*
X164123666Y-127555428D01*
X164218904Y-127507809D01*
X164314142Y-127507809D01*
X164409380Y-127555428D01*
X164457000Y-127603047D01*
X164504619Y-127698285D01*
X164504619Y-127936380D01*
X164457000Y-128079238D01*
X163504619Y-128507809D02*
X164504619Y-128507809D01*
X164028428Y-128507809D02*
X164028428Y-129079238D01*
X163504619Y-129079238D02*
X164504619Y-129079238D01*
X151328428Y-137723666D02*
X151280809Y-137866523D01*
X151233190Y-137914142D01*
X151137952Y-137961761D01*
X150995095Y-137961761D01*
X150899857Y-137914142D01*
X150852238Y-137866523D01*
X150804619Y-137771285D01*
X150804619Y-137390333D01*
X151804619Y-137390333D01*
X151804619Y-137723666D01*
X151757000Y-137818904D01*
X151709380Y-137866523D01*
X151614142Y-137914142D01*
X151518904Y-137914142D01*
X151423666Y-137866523D01*
X151376047Y-137818904D01*
X151328428Y-137723666D01*
X151328428Y-137390333D01*
X151090333Y-138342714D02*
X151090333Y-138818904D01*
X150804619Y-138247476D02*
X151804619Y-138580809D01*
X150804619Y-138914142D01*
X151804619Y-139152238D02*
X151804619Y-139818904D01*
X150804619Y-139390333D01*
X196524619Y-137318904D02*
X197524619Y-137318904D01*
X197524619Y-137557000D01*
X197477000Y-137699857D01*
X197381761Y-137795095D01*
X197286523Y-137842714D01*
X197096047Y-137890333D01*
X196953190Y-137890333D01*
X196762714Y-137842714D01*
X196667476Y-137795095D01*
X196572238Y-137699857D01*
X196524619Y-137557000D01*
X196524619Y-137318904D01*
X197048428Y-138652238D02*
X197000809Y-138795095D01*
X196953190Y-138842714D01*
X196857952Y-138890333D01*
X196715095Y-138890333D01*
X196619857Y-138842714D01*
X196572238Y-138795095D01*
X196524619Y-138699857D01*
X196524619Y-138318904D01*
X197524619Y-138318904D01*
X197524619Y-138652238D01*
X197477000Y-138747476D01*
X197429380Y-138795095D01*
X197334142Y-138842714D01*
X197238904Y-138842714D01*
X197143666Y-138795095D01*
X197096047Y-138747476D01*
X197048428Y-138652238D01*
X197048428Y-138318904D01*
X197524619Y-139223666D02*
X197524619Y-139842714D01*
X197143666Y-139509380D01*
X197143666Y-139652238D01*
X197096047Y-139747476D01*
X197048428Y-139795095D01*
X196953190Y-139842714D01*
X196715095Y-139842714D01*
X196619857Y-139795095D01*
X196572238Y-139747476D01*
X196524619Y-139652238D01*
X196524619Y-139366523D01*
X196572238Y-139271285D01*
X196619857Y-139223666D01*
X176204619Y-124960190D02*
X177204619Y-124960190D01*
X177204619Y-125626857D02*
X177204619Y-125817333D01*
X177157000Y-125912571D01*
X177061761Y-126007809D01*
X176871285Y-126055428D01*
X176537952Y-126055428D01*
X176347476Y-126007809D01*
X176252238Y-125912571D01*
X176204619Y-125817333D01*
X176204619Y-125626857D01*
X176252238Y-125531619D01*
X176347476Y-125436380D01*
X176537952Y-125388761D01*
X176871285Y-125388761D01*
X177061761Y-125436380D01*
X177157000Y-125531619D01*
X177204619Y-125626857D01*
X176204619Y-127055428D02*
X176680809Y-126722095D01*
X176204619Y-126484000D02*
X177204619Y-126484000D01*
X177204619Y-126864952D01*
X177157000Y-126960190D01*
X177109380Y-127007809D01*
X177014142Y-127055428D01*
X176871285Y-127055428D01*
X176776047Y-127007809D01*
X176728428Y-126960190D01*
X176680809Y-126864952D01*
X176680809Y-126484000D01*
X196524619Y-124222095D02*
X197524619Y-124222095D01*
X197524619Y-124460190D01*
X197477000Y-124603047D01*
X197381761Y-124698285D01*
X197286523Y-124745904D01*
X197096047Y-124793523D01*
X196953190Y-124793523D01*
X196762714Y-124745904D01*
X196667476Y-124698285D01*
X196572238Y-124603047D01*
X196524619Y-124460190D01*
X196524619Y-124222095D01*
X196524619Y-125793523D02*
X197000809Y-125460190D01*
X196524619Y-125222095D02*
X197524619Y-125222095D01*
X197524619Y-125603047D01*
X197477000Y-125698285D01*
X197429380Y-125745904D01*
X197334142Y-125793523D01*
X197191285Y-125793523D01*
X197096047Y-125745904D01*
X197048428Y-125698285D01*
X197000809Y-125603047D01*
X197000809Y-125222095D01*
X196429380Y-126888761D02*
X196477000Y-126793523D01*
X196572238Y-126698285D01*
X196715095Y-126555428D01*
X196762714Y-126460190D01*
X196762714Y-126364952D01*
X196524619Y-126412571D02*
X196572238Y-126317333D01*
X196667476Y-126222095D01*
X196857952Y-126174476D01*
X197191285Y-126174476D01*
X197381761Y-126222095D01*
X197477000Y-126317333D01*
X197524619Y-126412571D01*
X197524619Y-126603047D01*
X197477000Y-126698285D01*
X197381761Y-126793523D01*
X197191285Y-126841142D01*
X196857952Y-126841142D01*
X196667476Y-126793523D01*
X196572238Y-126698285D01*
X196524619Y-126603047D01*
X196524619Y-126412571D01*
X197429380Y-127222095D02*
X197477000Y-127269714D01*
X197524619Y-127364952D01*
X197524619Y-127603047D01*
X197477000Y-127698285D01*
X197429380Y-127745904D01*
X197334142Y-127793523D01*
X197238904Y-127793523D01*
X197096047Y-127745904D01*
X196524619Y-127174476D01*
X196524619Y-127793523D01*
X140930333Y-124888761D02*
X140930333Y-125364952D01*
X140644619Y-124793523D02*
X141644619Y-125126857D01*
X140644619Y-125460190D01*
X140644619Y-126269714D02*
X140644619Y-125793523D01*
X141644619Y-125793523D01*
X141168428Y-126603047D02*
X141168428Y-126936380D01*
X140644619Y-127079238D02*
X140644619Y-126603047D01*
X141644619Y-126603047D01*
X141644619Y-127079238D01*
X217574619Y-55427619D02*
X217907952Y-55903809D01*
X218146047Y-55427619D02*
X218146047Y-56427619D01*
X217765095Y-56427619D01*
X217669857Y-56380000D01*
X217622238Y-56332380D01*
X217574619Y-56237142D01*
X217574619Y-56094285D01*
X217622238Y-55999047D01*
X217669857Y-55951428D01*
X217765095Y-55903809D01*
X218146047Y-55903809D01*
X217003190Y-55427619D02*
X217098428Y-55475238D01*
X217146047Y-55522857D01*
X217193666Y-55618095D01*
X217193666Y-55903809D01*
X217146047Y-55999047D01*
X217098428Y-56046666D01*
X217003190Y-56094285D01*
X216860333Y-56094285D01*
X216765095Y-56046666D01*
X216717476Y-55999047D01*
X216669857Y-55903809D01*
X216669857Y-55618095D01*
X216717476Y-55522857D01*
X216765095Y-55475238D01*
X216860333Y-55427619D01*
X217003190Y-55427619D01*
X216336523Y-56094285D02*
X216146047Y-55427619D01*
X215955571Y-55903809D01*
X215765095Y-55427619D01*
X215574619Y-56094285D01*
X213860333Y-55522857D02*
X213907952Y-55475238D01*
X214050809Y-55427619D01*
X214146047Y-55427619D01*
X214288904Y-55475238D01*
X214384142Y-55570476D01*
X214431761Y-55665714D01*
X214479380Y-55856190D01*
X214479380Y-55999047D01*
X214431761Y-56189523D01*
X214384142Y-56284761D01*
X214288904Y-56380000D01*
X214146047Y-56427619D01*
X214050809Y-56427619D01*
X213907952Y-56380000D01*
X213860333Y-56332380D01*
X136564619Y-68651571D02*
X136564619Y-68842047D01*
X136517000Y-68937285D01*
X136421761Y-69032523D01*
X136231285Y-69080142D01*
X135897952Y-69080142D01*
X135707476Y-69032523D01*
X135612238Y-68937285D01*
X135564619Y-68842047D01*
X135564619Y-68651571D01*
X135612238Y-68556333D01*
X135707476Y-68461095D01*
X135897952Y-68413476D01*
X136231285Y-68413476D01*
X136421761Y-68461095D01*
X136517000Y-68556333D01*
X136564619Y-68651571D01*
X135612238Y-69461095D02*
X135564619Y-69603952D01*
X135564619Y-69842047D01*
X135612238Y-69937285D01*
X135659857Y-69984904D01*
X135755095Y-70032523D01*
X135850333Y-70032523D01*
X135945571Y-69984904D01*
X135993190Y-69937285D01*
X136040809Y-69842047D01*
X136088428Y-69651571D01*
X136136047Y-69556333D01*
X136183666Y-69508714D01*
X136278904Y-69461095D01*
X136374142Y-69461095D01*
X136469380Y-69508714D01*
X136517000Y-69556333D01*
X136564619Y-69651571D01*
X136564619Y-69889666D01*
X136517000Y-70032523D01*
X135659857Y-71032523D02*
X135612238Y-70984904D01*
X135564619Y-70842047D01*
X135564619Y-70746809D01*
X135612238Y-70603952D01*
X135707476Y-70508714D01*
X135802714Y-70461095D01*
X135993190Y-70413476D01*
X136136047Y-70413476D01*
X136326523Y-70461095D01*
X136421761Y-70508714D01*
X136517000Y-70603952D01*
X136564619Y-70746809D01*
X136564619Y-70842047D01*
X136517000Y-70984904D01*
X136469380Y-71032523D01*
X92384619Y-124222095D02*
X93384619Y-124222095D01*
X93384619Y-124460190D01*
X93337000Y-124603047D01*
X93241761Y-124698285D01*
X93146523Y-124745904D01*
X92956047Y-124793523D01*
X92813190Y-124793523D01*
X92622714Y-124745904D01*
X92527476Y-124698285D01*
X92432238Y-124603047D01*
X92384619Y-124460190D01*
X92384619Y-124222095D01*
X92384619Y-125793523D02*
X92860809Y-125460190D01*
X92384619Y-125222095D02*
X93384619Y-125222095D01*
X93384619Y-125603047D01*
X93337000Y-125698285D01*
X93289380Y-125745904D01*
X93194142Y-125793523D01*
X93051285Y-125793523D01*
X92956047Y-125745904D01*
X92908428Y-125698285D01*
X92860809Y-125603047D01*
X92860809Y-125222095D01*
X92289380Y-126888761D02*
X92337000Y-126793523D01*
X92432238Y-126698285D01*
X92575095Y-126555428D01*
X92622714Y-126460190D01*
X92622714Y-126364952D01*
X92384619Y-126412571D02*
X92432238Y-126317333D01*
X92527476Y-126222095D01*
X92717952Y-126174476D01*
X93051285Y-126174476D01*
X93241761Y-126222095D01*
X93337000Y-126317333D01*
X93384619Y-126412571D01*
X93384619Y-126603047D01*
X93337000Y-126698285D01*
X93241761Y-126793523D01*
X93051285Y-126841142D01*
X92717952Y-126841142D01*
X92527476Y-126793523D01*
X92432238Y-126698285D01*
X92384619Y-126603047D01*
X92384619Y-126412571D01*
X93384619Y-127698285D02*
X93384619Y-127507809D01*
X93337000Y-127412571D01*
X93289380Y-127364952D01*
X93146523Y-127269714D01*
X92956047Y-127222095D01*
X92575095Y-127222095D01*
X92479857Y-127269714D01*
X92432238Y-127317333D01*
X92384619Y-127412571D01*
X92384619Y-127603047D01*
X92432238Y-127698285D01*
X92479857Y-127745904D01*
X92575095Y-127793523D01*
X92813190Y-127793523D01*
X92908428Y-127745904D01*
X92956047Y-127698285D01*
X93003666Y-127603047D01*
X93003666Y-127412571D01*
X92956047Y-127317333D01*
X92908428Y-127269714D01*
X92813190Y-127222095D01*
X186364619Y-136604619D02*
X187364619Y-136604619D01*
X187364619Y-137271285D02*
X187364619Y-137461761D01*
X187317000Y-137557000D01*
X187221761Y-137652238D01*
X187031285Y-137699857D01*
X186697952Y-137699857D01*
X186507476Y-137652238D01*
X186412238Y-137557000D01*
X186364619Y-137461761D01*
X186364619Y-137271285D01*
X186412238Y-137176047D01*
X186507476Y-137080809D01*
X186697952Y-137033190D01*
X187031285Y-137033190D01*
X187221761Y-137080809D01*
X187317000Y-137176047D01*
X187364619Y-137271285D01*
X186364619Y-138699857D02*
X186840809Y-138366523D01*
X186364619Y-138128428D02*
X187364619Y-138128428D01*
X187364619Y-138509380D01*
X187317000Y-138604619D01*
X187269380Y-138652238D01*
X187174142Y-138699857D01*
X187031285Y-138699857D01*
X186936047Y-138652238D01*
X186888428Y-138604619D01*
X186840809Y-138509380D01*
X186840809Y-138128428D01*
X186364619Y-139128428D02*
X187364619Y-139128428D01*
X187364619Y-139366523D01*
X187317000Y-139509380D01*
X187221761Y-139604619D01*
X187126523Y-139652238D01*
X186936047Y-139699857D01*
X186793190Y-139699857D01*
X186602714Y-139652238D01*
X186507476Y-139604619D01*
X186412238Y-139509380D01*
X186364619Y-139366523D01*
X186364619Y-139128428D01*
X186840809Y-140318904D02*
X186364619Y-140318904D01*
X187364619Y-139985571D02*
X186840809Y-140318904D01*
X187364619Y-140652238D01*
X212859904Y-135609619D02*
X212859904Y-136133428D01*
X212907523Y-136228666D01*
X213002761Y-136276285D01*
X213193238Y-136276285D01*
X213288476Y-136228666D01*
X212859904Y-135657238D02*
X212955142Y-135609619D01*
X213193238Y-135609619D01*
X213288476Y-135657238D01*
X213336095Y-135752476D01*
X213336095Y-135847714D01*
X213288476Y-135942952D01*
X213193238Y-135990571D01*
X212955142Y-135990571D01*
X212859904Y-136038190D01*
X211859904Y-135609619D02*
X212431333Y-135609619D01*
X212145619Y-135609619D02*
X212145619Y-136609619D01*
X212240857Y-136466761D01*
X212336095Y-136371523D01*
X212431333Y-136323904D01*
X213288476Y-129169619D02*
X213288476Y-130169619D01*
X213288476Y-129788666D02*
X213193238Y-129836285D01*
X213002761Y-129836285D01*
X212907523Y-129788666D01*
X212859904Y-129741047D01*
X212812285Y-129645809D01*
X212812285Y-129360095D01*
X212859904Y-129264857D01*
X212907523Y-129217238D01*
X213002761Y-129169619D01*
X213193238Y-129169619D01*
X213288476Y-129217238D01*
X211859904Y-129169619D02*
X212431333Y-129169619D01*
X212145619Y-129169619D02*
X212145619Y-130169619D01*
X212240857Y-130026761D01*
X212336095Y-129931523D01*
X212431333Y-129883904D01*
X122864619Y-122698285D02*
X123864619Y-122698285D01*
X123150333Y-123031619D01*
X123864619Y-123364952D01*
X122864619Y-123364952D01*
X123388428Y-123841142D02*
X123388428Y-124174476D01*
X122864619Y-124317333D02*
X122864619Y-123841142D01*
X123864619Y-123841142D01*
X123864619Y-124317333D01*
X122864619Y-124745904D02*
X123864619Y-124745904D01*
X123150333Y-125079238D01*
X123864619Y-125412571D01*
X122864619Y-125412571D01*
X122959857Y-126460190D02*
X122912238Y-126412571D01*
X122864619Y-126269714D01*
X122864619Y-126174476D01*
X122912238Y-126031619D01*
X123007476Y-125936380D01*
X123102714Y-125888761D01*
X123293190Y-125841142D01*
X123436047Y-125841142D01*
X123626523Y-125888761D01*
X123721761Y-125936380D01*
X123817000Y-126031619D01*
X123864619Y-126174476D01*
X123864619Y-126269714D01*
X123817000Y-126412571D01*
X123769380Y-126460190D01*
X122912238Y-126841142D02*
X122864619Y-126984000D01*
X122864619Y-127222095D01*
X122912238Y-127317333D01*
X122959857Y-127364952D01*
X123055095Y-127412571D01*
X123150333Y-127412571D01*
X123245571Y-127364952D01*
X123293190Y-127317333D01*
X123340809Y-127222095D01*
X123388428Y-127031619D01*
X123436047Y-126936380D01*
X123483666Y-126888761D01*
X123578904Y-126841142D01*
X123674142Y-126841142D01*
X123769380Y-126888761D01*
X123817000Y-126936380D01*
X123864619Y-127031619D01*
X123864619Y-127269714D01*
X123817000Y-127412571D01*
X122864619Y-128364952D02*
X122864619Y-127793523D01*
X122864619Y-128079238D02*
X123864619Y-128079238D01*
X123721761Y-127984000D01*
X123626523Y-127888761D01*
X123578904Y-127793523D01*
X123864619Y-129222095D02*
X123864619Y-129031619D01*
X123817000Y-128936380D01*
X123769380Y-128888761D01*
X123626523Y-128793523D01*
X123436047Y-128745904D01*
X123055095Y-128745904D01*
X122959857Y-128793523D01*
X122912238Y-128841142D01*
X122864619Y-128936380D01*
X122864619Y-129126857D01*
X122912238Y-129222095D01*
X122959857Y-129269714D01*
X123055095Y-129317333D01*
X123293190Y-129317333D01*
X123388428Y-129269714D01*
X123436047Y-129222095D01*
X123483666Y-129126857D01*
X123483666Y-128936380D01*
X123436047Y-128841142D01*
X123388428Y-128793523D01*
X123293190Y-128745904D01*
X97464619Y-137318904D02*
X98464619Y-137318904D01*
X98464619Y-137557000D01*
X98417000Y-137699857D01*
X98321761Y-137795095D01*
X98226523Y-137842714D01*
X98036047Y-137890333D01*
X97893190Y-137890333D01*
X97702714Y-137842714D01*
X97607476Y-137795095D01*
X97512238Y-137699857D01*
X97464619Y-137557000D01*
X97464619Y-137318904D01*
X97988428Y-138652238D02*
X97940809Y-138795095D01*
X97893190Y-138842714D01*
X97797952Y-138890333D01*
X97655095Y-138890333D01*
X97559857Y-138842714D01*
X97512238Y-138795095D01*
X97464619Y-138699857D01*
X97464619Y-138318904D01*
X98464619Y-138318904D01*
X98464619Y-138652238D01*
X98417000Y-138747476D01*
X98369380Y-138795095D01*
X98274142Y-138842714D01*
X98178904Y-138842714D01*
X98083666Y-138795095D01*
X98036047Y-138747476D01*
X97988428Y-138652238D01*
X97988428Y-138318904D01*
X98036047Y-139461761D02*
X98083666Y-139366523D01*
X98131285Y-139318904D01*
X98226523Y-139271285D01*
X98274142Y-139271285D01*
X98369380Y-139318904D01*
X98417000Y-139366523D01*
X98464619Y-139461761D01*
X98464619Y-139652238D01*
X98417000Y-139747476D01*
X98369380Y-139795095D01*
X98274142Y-139842714D01*
X98226523Y-139842714D01*
X98131285Y-139795095D01*
X98083666Y-139747476D01*
X98036047Y-139652238D01*
X98036047Y-139461761D01*
X97988428Y-139366523D01*
X97940809Y-139318904D01*
X97845571Y-139271285D01*
X97655095Y-139271285D01*
X97559857Y-139318904D01*
X97512238Y-139366523D01*
X97464619Y-139461761D01*
X97464619Y-139652238D01*
X97512238Y-139747476D01*
X97559857Y-139795095D01*
X97655095Y-139842714D01*
X97845571Y-139842714D01*
X97940809Y-139795095D01*
X97988428Y-139747476D01*
X98036047Y-139652238D01*
X217574619Y-62158619D02*
X217907952Y-62634809D01*
X218146047Y-62158619D02*
X218146047Y-63158619D01*
X217765095Y-63158619D01*
X217669857Y-63111000D01*
X217622238Y-63063380D01*
X217574619Y-62968142D01*
X217574619Y-62825285D01*
X217622238Y-62730047D01*
X217669857Y-62682428D01*
X217765095Y-62634809D01*
X218146047Y-62634809D01*
X217003190Y-62158619D02*
X217098428Y-62206238D01*
X217146047Y-62253857D01*
X217193666Y-62349095D01*
X217193666Y-62634809D01*
X217146047Y-62730047D01*
X217098428Y-62777666D01*
X217003190Y-62825285D01*
X216860333Y-62825285D01*
X216765095Y-62777666D01*
X216717476Y-62730047D01*
X216669857Y-62634809D01*
X216669857Y-62349095D01*
X216717476Y-62253857D01*
X216765095Y-62206238D01*
X216860333Y-62158619D01*
X217003190Y-62158619D01*
X216336523Y-62825285D02*
X216146047Y-62158619D01*
X215955571Y-62634809D01*
X215765095Y-62158619D01*
X215574619Y-62825285D01*
X214098428Y-62682428D02*
X213955571Y-62634809D01*
X213907952Y-62587190D01*
X213860333Y-62491952D01*
X213860333Y-62349095D01*
X213907952Y-62253857D01*
X213955571Y-62206238D01*
X214050809Y-62158619D01*
X214431761Y-62158619D01*
X214431761Y-63158619D01*
X214098428Y-63158619D01*
X214003190Y-63111000D01*
X213955571Y-63063380D01*
X213907952Y-62968142D01*
X213907952Y-62872904D01*
X213955571Y-62777666D01*
X214003190Y-62730047D01*
X214098428Y-62682428D01*
X214431761Y-62682428D01*
X209224619Y-59777666D02*
X210224619Y-59777666D01*
X210224619Y-60444333D02*
X210224619Y-60634809D01*
X210177000Y-60730047D01*
X210081761Y-60825285D01*
X209891285Y-60872904D01*
X209557952Y-60872904D01*
X209367476Y-60825285D01*
X209272238Y-60730047D01*
X209224619Y-60634809D01*
X209224619Y-60444333D01*
X209272238Y-60349095D01*
X209367476Y-60253857D01*
X209557952Y-60206238D01*
X209891285Y-60206238D01*
X210081761Y-60253857D01*
X210177000Y-60349095D01*
X210224619Y-60444333D01*
X209319857Y-61872904D02*
X209272238Y-61825285D01*
X209224619Y-61682428D01*
X209224619Y-61587190D01*
X209272238Y-61444333D01*
X209367476Y-61349095D01*
X209462714Y-61301476D01*
X209653190Y-61253857D01*
X209796047Y-61253857D01*
X209986523Y-61301476D01*
X210081761Y-61349095D01*
X210177000Y-61444333D01*
X210224619Y-61587190D01*
X210224619Y-61682428D01*
X210177000Y-61825285D01*
X210129380Y-61872904D01*
X209272238Y-62253857D02*
X209224619Y-62396714D01*
X209224619Y-62634809D01*
X209272238Y-62730047D01*
X209319857Y-62777666D01*
X209415095Y-62825285D01*
X209510333Y-62825285D01*
X209605571Y-62777666D01*
X209653190Y-62730047D01*
X209700809Y-62634809D01*
X209748428Y-62444333D01*
X209796047Y-62349095D01*
X209843666Y-62301476D01*
X209938904Y-62253857D01*
X210034142Y-62253857D01*
X210129380Y-62301476D01*
X210177000Y-62349095D01*
X210224619Y-62444333D01*
X210224619Y-62682428D01*
X210177000Y-62825285D01*
X209224619Y-63777666D02*
X209224619Y-63206238D01*
X209224619Y-63491952D02*
X210224619Y-63491952D01*
X210081761Y-63396714D01*
X209986523Y-63301476D01*
X209938904Y-63206238D01*
X210224619Y-64634809D02*
X210224619Y-64444333D01*
X210177000Y-64349095D01*
X210129380Y-64301476D01*
X209986523Y-64206238D01*
X209796047Y-64158619D01*
X209415095Y-64158619D01*
X209319857Y-64206238D01*
X209272238Y-64253857D01*
X209224619Y-64349095D01*
X209224619Y-64539571D01*
X209272238Y-64634809D01*
X209319857Y-64682428D01*
X209415095Y-64730047D01*
X209653190Y-64730047D01*
X209748428Y-64682428D01*
X209796047Y-64634809D01*
X209843666Y-64539571D01*
X209843666Y-64349095D01*
X209796047Y-64253857D01*
X209748428Y-64206238D01*
X209653190Y-64158619D01*
X210224619Y-65301476D02*
X209986523Y-65301476D01*
X210081761Y-65063380D02*
X209986523Y-65301476D01*
X210081761Y-65539571D01*
X209796047Y-65158619D02*
X209986523Y-65301476D01*
X209796047Y-65444333D01*
X194365571Y-67961095D02*
X194365571Y-68723000D01*
X193984619Y-69723000D02*
X193984619Y-69151571D01*
X193984619Y-69437285D02*
X194984619Y-69437285D01*
X194841761Y-69342047D01*
X194746523Y-69246809D01*
X194698904Y-69151571D01*
X194889380Y-70103952D02*
X194937000Y-70151571D01*
X194984619Y-70246809D01*
X194984619Y-70484904D01*
X194937000Y-70580142D01*
X194889380Y-70627761D01*
X194794142Y-70675380D01*
X194698904Y-70675380D01*
X194556047Y-70627761D01*
X193984619Y-70056333D01*
X193984619Y-70675380D01*
X194984619Y-70961095D02*
X193984619Y-71294428D01*
X194984619Y-71627761D01*
X158424619Y-68223000D02*
X159424619Y-68223000D01*
X158424619Y-69270619D02*
X158900809Y-68937285D01*
X158424619Y-68699190D02*
X159424619Y-68699190D01*
X159424619Y-69080142D01*
X159377000Y-69175380D01*
X159329380Y-69223000D01*
X159234142Y-69270619D01*
X159091285Y-69270619D01*
X158996047Y-69223000D01*
X158948428Y-69175380D01*
X158900809Y-69080142D01*
X158900809Y-68699190D01*
X158329380Y-70365857D02*
X158377000Y-70270619D01*
X158472238Y-70175380D01*
X158615095Y-70032523D01*
X158662714Y-69937285D01*
X158662714Y-69842047D01*
X158424619Y-69889666D02*
X158472238Y-69794428D01*
X158567476Y-69699190D01*
X158757952Y-69651571D01*
X159091285Y-69651571D01*
X159281761Y-69699190D01*
X159377000Y-69794428D01*
X159424619Y-69889666D01*
X159424619Y-70080142D01*
X159377000Y-70175380D01*
X159281761Y-70270619D01*
X159091285Y-70318238D01*
X158757952Y-70318238D01*
X158567476Y-70270619D01*
X158472238Y-70175380D01*
X158424619Y-70080142D01*
X158424619Y-69889666D01*
X159424619Y-70651571D02*
X159424619Y-71318238D01*
X158424619Y-70889666D01*
X150804619Y-68223000D02*
X151804619Y-68223000D01*
X150804619Y-69270619D02*
X151280809Y-68937285D01*
X150804619Y-68699190D02*
X151804619Y-68699190D01*
X151804619Y-69080142D01*
X151757000Y-69175380D01*
X151709380Y-69223000D01*
X151614142Y-69270619D01*
X151471285Y-69270619D01*
X151376047Y-69223000D01*
X151328428Y-69175380D01*
X151280809Y-69080142D01*
X151280809Y-68699190D01*
X150709380Y-70365857D02*
X150757000Y-70270619D01*
X150852238Y-70175380D01*
X150995095Y-70032523D01*
X151042714Y-69937285D01*
X151042714Y-69842047D01*
X150804619Y-69889666D02*
X150852238Y-69794428D01*
X150947476Y-69699190D01*
X151137952Y-69651571D01*
X151471285Y-69651571D01*
X151661761Y-69699190D01*
X151757000Y-69794428D01*
X151804619Y-69889666D01*
X151804619Y-70080142D01*
X151757000Y-70175380D01*
X151661761Y-70270619D01*
X151471285Y-70318238D01*
X151137952Y-70318238D01*
X150947476Y-70270619D01*
X150852238Y-70175380D01*
X150804619Y-70080142D01*
X150804619Y-69889666D01*
X151471285Y-71175380D02*
X150804619Y-71175380D01*
X151852238Y-70937285D02*
X151137952Y-70699190D01*
X151137952Y-71318238D01*
X131595666Y-135609619D02*
X131595666Y-136609619D01*
X131595666Y-136228666D02*
X131500428Y-136276285D01*
X131309952Y-136276285D01*
X131214714Y-136228666D01*
X131167095Y-136181047D01*
X131119476Y-136085809D01*
X131119476Y-135800095D01*
X131167095Y-135704857D01*
X131214714Y-135657238D01*
X131309952Y-135609619D01*
X131500428Y-135609619D01*
X131595666Y-135657238D01*
X130786142Y-136609619D02*
X130167095Y-136609619D01*
X130500428Y-136228666D01*
X130357571Y-136228666D01*
X130262333Y-136181047D01*
X130214714Y-136133428D01*
X130167095Y-136038190D01*
X130167095Y-135800095D01*
X130214714Y-135704857D01*
X130262333Y-135657238D01*
X130357571Y-135609619D01*
X130643285Y-135609619D01*
X130738523Y-135657238D01*
X130786142Y-135704857D01*
X129214714Y-135609619D02*
X129786142Y-135609619D01*
X129500428Y-135609619D02*
X129500428Y-136609619D01*
X129595666Y-136466761D01*
X129690904Y-136371523D01*
X129786142Y-136323904D01*
X131167095Y-129169619D02*
X131167095Y-129693428D01*
X131214714Y-129788666D01*
X131309952Y-129836285D01*
X131500428Y-129836285D01*
X131595666Y-129788666D01*
X131167095Y-129217238D02*
X131262333Y-129169619D01*
X131500428Y-129169619D01*
X131595666Y-129217238D01*
X131643285Y-129312476D01*
X131643285Y-129407714D01*
X131595666Y-129502952D01*
X131500428Y-129550571D01*
X131262333Y-129550571D01*
X131167095Y-129598190D01*
X130786142Y-130169619D02*
X130167095Y-130169619D01*
X130500428Y-129788666D01*
X130357571Y-129788666D01*
X130262333Y-129741047D01*
X130214714Y-129693428D01*
X130167095Y-129598190D01*
X130167095Y-129360095D01*
X130214714Y-129264857D01*
X130262333Y-129217238D01*
X130357571Y-129169619D01*
X130643285Y-129169619D01*
X130738523Y-129217238D01*
X130786142Y-129264857D01*
X129214714Y-129169619D02*
X129786142Y-129169619D01*
X129500428Y-129169619D02*
X129500428Y-130169619D01*
X129595666Y-130026761D01*
X129690904Y-129931523D01*
X129786142Y-129883904D01*
X178744619Y-68627761D02*
X179744619Y-68627761D01*
X179744619Y-69294428D02*
X179744619Y-69484904D01*
X179697000Y-69580142D01*
X179601761Y-69675380D01*
X179411285Y-69723000D01*
X179077952Y-69723000D01*
X178887476Y-69675380D01*
X178792238Y-69580142D01*
X178744619Y-69484904D01*
X178744619Y-69294428D01*
X178792238Y-69199190D01*
X178887476Y-69103952D01*
X179077952Y-69056333D01*
X179411285Y-69056333D01*
X179601761Y-69103952D01*
X179697000Y-69199190D01*
X179744619Y-69294428D01*
X179744619Y-70056333D02*
X178744619Y-70294428D01*
X179458904Y-70484904D01*
X178744619Y-70675380D01*
X179744619Y-70913476D01*
X171124619Y-124222095D02*
X172124619Y-124222095D01*
X172124619Y-124460190D01*
X172077000Y-124603047D01*
X171981761Y-124698285D01*
X171886523Y-124745904D01*
X171696047Y-124793523D01*
X171553190Y-124793523D01*
X171362714Y-124745904D01*
X171267476Y-124698285D01*
X171172238Y-124603047D01*
X171124619Y-124460190D01*
X171124619Y-124222095D01*
X171124619Y-125793523D02*
X171600809Y-125460190D01*
X171124619Y-125222095D02*
X172124619Y-125222095D01*
X172124619Y-125603047D01*
X172077000Y-125698285D01*
X172029380Y-125745904D01*
X171934142Y-125793523D01*
X171791285Y-125793523D01*
X171696047Y-125745904D01*
X171648428Y-125698285D01*
X171600809Y-125603047D01*
X171600809Y-125222095D01*
X171029380Y-126888761D02*
X171077000Y-126793523D01*
X171172238Y-126698285D01*
X171315095Y-126555428D01*
X171362714Y-126460190D01*
X171362714Y-126364952D01*
X171124619Y-126412571D02*
X171172238Y-126317333D01*
X171267476Y-126222095D01*
X171457952Y-126174476D01*
X171791285Y-126174476D01*
X171981761Y-126222095D01*
X172077000Y-126317333D01*
X172124619Y-126412571D01*
X172124619Y-126603047D01*
X172077000Y-126698285D01*
X171981761Y-126793523D01*
X171791285Y-126841142D01*
X171457952Y-126841142D01*
X171267476Y-126793523D01*
X171172238Y-126698285D01*
X171124619Y-126603047D01*
X171124619Y-126412571D01*
X172124619Y-127174476D02*
X172124619Y-127793523D01*
X171743666Y-127460190D01*
X171743666Y-127603047D01*
X171696047Y-127698285D01*
X171648428Y-127745904D01*
X171553190Y-127793523D01*
X171315095Y-127793523D01*
X171219857Y-127745904D01*
X171172238Y-127698285D01*
X171124619Y-127603047D01*
X171124619Y-127317333D01*
X171172238Y-127222095D01*
X171219857Y-127174476D01*
X128730285Y-51878238D02*
X128825523Y-51830619D01*
X129016000Y-51830619D01*
X129111238Y-51878238D01*
X129158857Y-51925857D01*
X129206476Y-52021095D01*
X129206476Y-52306809D01*
X129158857Y-52402047D01*
X129111238Y-52449666D01*
X129016000Y-52497285D01*
X128825523Y-52497285D01*
X128730285Y-52449666D01*
X128396952Y-52830619D02*
X127777904Y-52830619D01*
X128111238Y-52449666D01*
X127968380Y-52449666D01*
X127873142Y-52402047D01*
X127825523Y-52354428D01*
X127777904Y-52259190D01*
X127777904Y-52021095D01*
X127825523Y-51925857D01*
X127873142Y-51878238D01*
X127968380Y-51830619D01*
X128254095Y-51830619D01*
X128349333Y-51878238D01*
X128396952Y-51925857D01*
X127396952Y-52735380D02*
X127349333Y-52783000D01*
X127254095Y-52830619D01*
X127016000Y-52830619D01*
X126920761Y-52783000D01*
X126873142Y-52735380D01*
X126825523Y-52640142D01*
X126825523Y-52544904D01*
X126873142Y-52402047D01*
X127444571Y-51830619D01*
X126825523Y-51830619D01*
X129182666Y-50220619D02*
X129182666Y-51220619D01*
X129182666Y-50839666D02*
X129087428Y-50887285D01*
X128896952Y-50887285D01*
X128801714Y-50839666D01*
X128754095Y-50792047D01*
X128706476Y-50696809D01*
X128706476Y-50411095D01*
X128754095Y-50315857D01*
X128801714Y-50268238D01*
X128896952Y-50220619D01*
X129087428Y-50220619D01*
X129182666Y-50268238D01*
X128373142Y-51220619D02*
X127754095Y-51220619D01*
X128087428Y-50839666D01*
X127944571Y-50839666D01*
X127849333Y-50792047D01*
X127801714Y-50744428D01*
X127754095Y-50649190D01*
X127754095Y-50411095D01*
X127801714Y-50315857D01*
X127849333Y-50268238D01*
X127944571Y-50220619D01*
X128230285Y-50220619D01*
X128325523Y-50268238D01*
X128373142Y-50315857D01*
X127373142Y-51125380D02*
X127325523Y-51173000D01*
X127230285Y-51220619D01*
X126992190Y-51220619D01*
X126896952Y-51173000D01*
X126849333Y-51125380D01*
X126801714Y-51030142D01*
X126801714Y-50934904D01*
X126849333Y-50792047D01*
X127420761Y-50220619D01*
X126801714Y-50220619D01*
X128754095Y-48610619D02*
X128754095Y-49134428D01*
X128801714Y-49229666D01*
X128896952Y-49277285D01*
X129087428Y-49277285D01*
X129182666Y-49229666D01*
X128754095Y-48658238D02*
X128849333Y-48610619D01*
X129087428Y-48610619D01*
X129182666Y-48658238D01*
X129230285Y-48753476D01*
X129230285Y-48848714D01*
X129182666Y-48943952D01*
X129087428Y-48991571D01*
X128849333Y-48991571D01*
X128754095Y-49039190D01*
X128373142Y-49610619D02*
X127754095Y-49610619D01*
X128087428Y-49229666D01*
X127944571Y-49229666D01*
X127849333Y-49182047D01*
X127801714Y-49134428D01*
X127754095Y-49039190D01*
X127754095Y-48801095D01*
X127801714Y-48705857D01*
X127849333Y-48658238D01*
X127944571Y-48610619D01*
X128230285Y-48610619D01*
X128325523Y-48658238D01*
X128373142Y-48705857D01*
X127373142Y-49515380D02*
X127325523Y-49563000D01*
X127230285Y-49610619D01*
X126992190Y-49610619D01*
X126896952Y-49563000D01*
X126849333Y-49515380D01*
X126801714Y-49420142D01*
X126801714Y-49324904D01*
X126849333Y-49182047D01*
X127420761Y-48610619D01*
X126801714Y-48610619D01*
X138485571Y-68437285D02*
X138485571Y-69199190D01*
X138104619Y-68818238D02*
X138866523Y-68818238D01*
X139104619Y-70151571D02*
X139104619Y-69675380D01*
X138628428Y-69627761D01*
X138676047Y-69675380D01*
X138723666Y-69770619D01*
X138723666Y-70008714D01*
X138676047Y-70103952D01*
X138628428Y-70151571D01*
X138533190Y-70199190D01*
X138295095Y-70199190D01*
X138199857Y-70151571D01*
X138152238Y-70103952D01*
X138104619Y-70008714D01*
X138104619Y-69770619D01*
X138152238Y-69675380D01*
X138199857Y-69627761D01*
X139104619Y-70484904D02*
X138104619Y-70818238D01*
X139104619Y-71151571D01*
X89844619Y-123341142D02*
X90844619Y-123341142D01*
X90844619Y-123579238D01*
X90797000Y-123722095D01*
X90701761Y-123817333D01*
X90606523Y-123864952D01*
X90416047Y-123912571D01*
X90273190Y-123912571D01*
X90082714Y-123864952D01*
X89987476Y-123817333D01*
X89892238Y-123722095D01*
X89844619Y-123579238D01*
X89844619Y-123341142D01*
X90130333Y-124293523D02*
X90130333Y-124769714D01*
X89844619Y-124198285D02*
X90844619Y-124531619D01*
X89844619Y-124864952D01*
X89939857Y-125769714D02*
X89892238Y-125722095D01*
X89844619Y-125579238D01*
X89844619Y-125484000D01*
X89892238Y-125341142D01*
X89987476Y-125245904D01*
X90082714Y-125198285D01*
X90273190Y-125150666D01*
X90416047Y-125150666D01*
X90606523Y-125198285D01*
X90701761Y-125245904D01*
X90797000Y-125341142D01*
X90844619Y-125484000D01*
X90844619Y-125579238D01*
X90797000Y-125722095D01*
X90749380Y-125769714D01*
X89844619Y-126198285D02*
X90844619Y-126198285D01*
X89844619Y-126769714D02*
X90416047Y-126341142D01*
X90844619Y-126769714D02*
X90273190Y-126198285D01*
X90844619Y-127388761D02*
X90844619Y-127484000D01*
X90797000Y-127579238D01*
X90749380Y-127626857D01*
X90654142Y-127674476D01*
X90463666Y-127722095D01*
X90225571Y-127722095D01*
X90035095Y-127674476D01*
X89939857Y-127626857D01*
X89892238Y-127579238D01*
X89844619Y-127484000D01*
X89844619Y-127388761D01*
X89892238Y-127293523D01*
X89939857Y-127245904D01*
X90035095Y-127198285D01*
X90225571Y-127150666D01*
X90463666Y-127150666D01*
X90654142Y-127198285D01*
X90749380Y-127245904D01*
X90797000Y-127293523D01*
X90844619Y-127388761D01*
X90844619Y-128055428D02*
X90844619Y-128722095D01*
X89844619Y-128293523D01*
X97464619Y-124222095D02*
X98464619Y-124222095D01*
X98464619Y-124460190D01*
X98417000Y-124603047D01*
X98321761Y-124698285D01*
X98226523Y-124745904D01*
X98036047Y-124793523D01*
X97893190Y-124793523D01*
X97702714Y-124745904D01*
X97607476Y-124698285D01*
X97512238Y-124603047D01*
X97464619Y-124460190D01*
X97464619Y-124222095D01*
X97464619Y-125793523D02*
X97940809Y-125460190D01*
X97464619Y-125222095D02*
X98464619Y-125222095D01*
X98464619Y-125603047D01*
X98417000Y-125698285D01*
X98369380Y-125745904D01*
X98274142Y-125793523D01*
X98131285Y-125793523D01*
X98036047Y-125745904D01*
X97988428Y-125698285D01*
X97940809Y-125603047D01*
X97940809Y-125222095D01*
X97369380Y-126888761D02*
X97417000Y-126793523D01*
X97512238Y-126698285D01*
X97655095Y-126555428D01*
X97702714Y-126460190D01*
X97702714Y-126364952D01*
X97464619Y-126412571D02*
X97512238Y-126317333D01*
X97607476Y-126222095D01*
X97797952Y-126174476D01*
X98131285Y-126174476D01*
X98321761Y-126222095D01*
X98417000Y-126317333D01*
X98464619Y-126412571D01*
X98464619Y-126603047D01*
X98417000Y-126698285D01*
X98321761Y-126793523D01*
X98131285Y-126841142D01*
X97797952Y-126841142D01*
X97607476Y-126793523D01*
X97512238Y-126698285D01*
X97464619Y-126603047D01*
X97464619Y-126412571D01*
X98464619Y-127745904D02*
X98464619Y-127269714D01*
X97988428Y-127222095D01*
X98036047Y-127269714D01*
X98083666Y-127364952D01*
X98083666Y-127603047D01*
X98036047Y-127698285D01*
X97988428Y-127745904D01*
X97893190Y-127793523D01*
X97655095Y-127793523D01*
X97559857Y-127745904D01*
X97512238Y-127698285D01*
X97464619Y-127603047D01*
X97464619Y-127364952D01*
X97512238Y-127269714D01*
X97559857Y-127222095D01*
X100004619Y-136628428D02*
X101004619Y-136628428D01*
X100290333Y-136961761D01*
X101004619Y-137295095D01*
X100004619Y-137295095D01*
X100528428Y-137771285D02*
X100528428Y-138104619D01*
X100004619Y-138247476D02*
X100004619Y-137771285D01*
X101004619Y-137771285D01*
X101004619Y-138247476D01*
X100004619Y-138676047D02*
X101004619Y-138676047D01*
X100290333Y-139009380D01*
X101004619Y-139342714D01*
X100004619Y-139342714D01*
X101004619Y-139723666D02*
X100004619Y-139961761D01*
X100718904Y-140152238D01*
X100004619Y-140342714D01*
X101004619Y-140580809D01*
X87304619Y-124222095D02*
X88304619Y-124222095D01*
X88304619Y-124460190D01*
X88257000Y-124603047D01*
X88161761Y-124698285D01*
X88066523Y-124745904D01*
X87876047Y-124793523D01*
X87733190Y-124793523D01*
X87542714Y-124745904D01*
X87447476Y-124698285D01*
X87352238Y-124603047D01*
X87304619Y-124460190D01*
X87304619Y-124222095D01*
X87304619Y-125793523D02*
X87780809Y-125460190D01*
X87304619Y-125222095D02*
X88304619Y-125222095D01*
X88304619Y-125603047D01*
X88257000Y-125698285D01*
X88209380Y-125745904D01*
X88114142Y-125793523D01*
X87971285Y-125793523D01*
X87876047Y-125745904D01*
X87828428Y-125698285D01*
X87780809Y-125603047D01*
X87780809Y-125222095D01*
X87209380Y-126888761D02*
X87257000Y-126793523D01*
X87352238Y-126698285D01*
X87495095Y-126555428D01*
X87542714Y-126460190D01*
X87542714Y-126364952D01*
X87304619Y-126412571D02*
X87352238Y-126317333D01*
X87447476Y-126222095D01*
X87637952Y-126174476D01*
X87971285Y-126174476D01*
X88161761Y-126222095D01*
X88257000Y-126317333D01*
X88304619Y-126412571D01*
X88304619Y-126603047D01*
X88257000Y-126698285D01*
X88161761Y-126793523D01*
X87971285Y-126841142D01*
X87637952Y-126841142D01*
X87447476Y-126793523D01*
X87352238Y-126698285D01*
X87304619Y-126603047D01*
X87304619Y-126412571D01*
X88304619Y-127174476D02*
X88304619Y-127841142D01*
X87304619Y-127412571D01*
X210087714Y-77566238D02*
X209909142Y-77566238D01*
X209980571Y-77328142D02*
X209909142Y-77566238D01*
X209980571Y-77804333D01*
X209766285Y-77423380D02*
X209909142Y-77566238D01*
X209766285Y-77709095D01*
X209337714Y-79090047D02*
X209373428Y-78994809D01*
X209409142Y-78947190D01*
X209480571Y-78899571D01*
X209694857Y-78899571D01*
X209766285Y-78947190D01*
X209802000Y-78994809D01*
X209837714Y-79090047D01*
X209837714Y-79232904D01*
X209802000Y-79328142D01*
X209766285Y-79375761D01*
X209694857Y-79423380D01*
X209480571Y-79423380D01*
X209409142Y-79375761D01*
X209373428Y-79328142D01*
X209337714Y-79232904D01*
X209337714Y-79090047D01*
X209837714Y-79851952D02*
X209087714Y-79851952D01*
X209802000Y-79851952D02*
X209837714Y-79947190D01*
X209837714Y-80137666D01*
X209802000Y-80232904D01*
X209766285Y-80280523D01*
X209694857Y-80328142D01*
X209480571Y-80328142D01*
X209409142Y-80280523D01*
X209373428Y-80232904D01*
X209337714Y-80137666D01*
X209337714Y-79947190D01*
X209373428Y-79851952D01*
X209837714Y-80613857D02*
X209837714Y-80994809D01*
X210087714Y-80756714D02*
X209444857Y-80756714D01*
X209373428Y-80804333D01*
X209337714Y-80899571D01*
X209337714Y-80994809D01*
X209337714Y-81328142D02*
X209837714Y-81328142D01*
X210087714Y-81328142D02*
X210052000Y-81280523D01*
X210016285Y-81328142D01*
X210052000Y-81375761D01*
X210087714Y-81328142D01*
X210016285Y-81328142D01*
X209337714Y-81947190D02*
X209373428Y-81851952D01*
X209409142Y-81804333D01*
X209480571Y-81756714D01*
X209694857Y-81756714D01*
X209766285Y-81804333D01*
X209802000Y-81851952D01*
X209837714Y-81947190D01*
X209837714Y-82090047D01*
X209802000Y-82185285D01*
X209766285Y-82232904D01*
X209694857Y-82280523D01*
X209480571Y-82280523D01*
X209409142Y-82232904D01*
X209373428Y-82185285D01*
X209337714Y-82090047D01*
X209337714Y-81947190D01*
X209837714Y-82709095D02*
X209337714Y-82709095D01*
X209766285Y-82709095D02*
X209802000Y-82756714D01*
X209837714Y-82851952D01*
X209837714Y-82994809D01*
X209802000Y-83090047D01*
X209730571Y-83137666D01*
X209337714Y-83137666D01*
X209337714Y-84042428D02*
X209730571Y-84042428D01*
X209802000Y-83994809D01*
X209837714Y-83899571D01*
X209837714Y-83709095D01*
X209802000Y-83613857D01*
X209373428Y-84042428D02*
X209337714Y-83947190D01*
X209337714Y-83709095D01*
X209373428Y-83613857D01*
X209444857Y-83566238D01*
X209516285Y-83566238D01*
X209587714Y-83613857D01*
X209623428Y-83709095D01*
X209623428Y-83947190D01*
X209659142Y-84042428D01*
X209337714Y-84661476D02*
X209373428Y-84566238D01*
X209444857Y-84518619D01*
X210087714Y-84518619D01*
X210087714Y-85661476D02*
X210087714Y-86232904D01*
X209337714Y-85947190D02*
X210087714Y-85947190D01*
X209337714Y-86566238D02*
X209837714Y-86566238D01*
X209694857Y-86566238D02*
X209766285Y-86613857D01*
X209802000Y-86661476D01*
X209837714Y-86756714D01*
X209837714Y-86851952D01*
X209337714Y-87328142D02*
X209373428Y-87232904D01*
X209409142Y-87185285D01*
X209480571Y-87137666D01*
X209694857Y-87137666D01*
X209766285Y-87185285D01*
X209802000Y-87232904D01*
X209837714Y-87328142D01*
X209837714Y-87471000D01*
X209802000Y-87566238D01*
X209766285Y-87613857D01*
X209694857Y-87661476D01*
X209480571Y-87661476D01*
X209409142Y-87613857D01*
X209373428Y-87566238D01*
X209337714Y-87471000D01*
X209337714Y-87328142D01*
X209837714Y-88090047D02*
X209337714Y-88090047D01*
X209766285Y-88090047D02*
X209802000Y-88137666D01*
X209837714Y-88232904D01*
X209837714Y-88375761D01*
X209802000Y-88471000D01*
X209730571Y-88518619D01*
X209337714Y-88518619D01*
X209337714Y-88994809D02*
X209837714Y-88994809D01*
X210087714Y-88994809D02*
X210052000Y-88947190D01*
X210016285Y-88994809D01*
X210052000Y-89042428D01*
X210087714Y-88994809D01*
X210016285Y-88994809D01*
X209337714Y-89375761D02*
X209837714Y-89899571D01*
X209837714Y-89375761D02*
X209337714Y-89899571D01*
X209337714Y-91042428D02*
X210087714Y-91042428D01*
X209552000Y-91375761D01*
X210087714Y-91709095D01*
X209337714Y-91709095D01*
X209337714Y-92328142D02*
X209373428Y-92232904D01*
X209409142Y-92185285D01*
X209480571Y-92137666D01*
X209694857Y-92137666D01*
X209766285Y-92185285D01*
X209802000Y-92232904D01*
X209837714Y-92328142D01*
X209837714Y-92471000D01*
X209802000Y-92566238D01*
X209766285Y-92613857D01*
X209694857Y-92661476D01*
X209480571Y-92661476D01*
X209409142Y-92613857D01*
X209373428Y-92566238D01*
X209337714Y-92471000D01*
X209337714Y-92328142D01*
X209337714Y-93518619D02*
X210087714Y-93518619D01*
X209373428Y-93518619D02*
X209337714Y-93423380D01*
X209337714Y-93232904D01*
X209373428Y-93137666D01*
X209409142Y-93090047D01*
X209480571Y-93042428D01*
X209694857Y-93042428D01*
X209766285Y-93090047D01*
X209802000Y-93137666D01*
X209837714Y-93232904D01*
X209837714Y-93423380D01*
X209802000Y-93518619D01*
X158424619Y-60761809D02*
X159424619Y-60761809D01*
X158424619Y-61809428D02*
X158900809Y-61476095D01*
X158424619Y-61238000D02*
X159424619Y-61238000D01*
X159424619Y-61618952D01*
X159377000Y-61714190D01*
X159329380Y-61761809D01*
X159234142Y-61809428D01*
X159091285Y-61809428D01*
X158996047Y-61761809D01*
X158948428Y-61714190D01*
X158900809Y-61618952D01*
X158900809Y-61238000D01*
X158329380Y-62904666D02*
X158377000Y-62809428D01*
X158472238Y-62714190D01*
X158615095Y-62571333D01*
X158662714Y-62476095D01*
X158662714Y-62380857D01*
X158424619Y-62428476D02*
X158472238Y-62333238D01*
X158567476Y-62238000D01*
X158757952Y-62190380D01*
X159091285Y-62190380D01*
X159281761Y-62238000D01*
X159377000Y-62333238D01*
X159424619Y-62428476D01*
X159424619Y-62618952D01*
X159377000Y-62714190D01*
X159281761Y-62809428D01*
X159091285Y-62857047D01*
X158757952Y-62857047D01*
X158567476Y-62809428D01*
X158472238Y-62714190D01*
X158424619Y-62618952D01*
X158424619Y-62428476D01*
X158424619Y-63809428D02*
X158424619Y-63238000D01*
X158424619Y-63523714D02*
X159424619Y-63523714D01*
X159281761Y-63428476D01*
X159186523Y-63333238D01*
X159138904Y-63238000D01*
X159424619Y-64428476D02*
X159424619Y-64523714D01*
X159377000Y-64618952D01*
X159329380Y-64666571D01*
X159234142Y-64714190D01*
X159043666Y-64761809D01*
X158805571Y-64761809D01*
X158615095Y-64714190D01*
X158519857Y-64666571D01*
X158472238Y-64618952D01*
X158424619Y-64523714D01*
X158424619Y-64428476D01*
X158472238Y-64333238D01*
X158519857Y-64285619D01*
X158615095Y-64238000D01*
X158805571Y-64190380D01*
X159043666Y-64190380D01*
X159234142Y-64238000D01*
X159329380Y-64285619D01*
X159377000Y-64333238D01*
X159424619Y-64428476D01*
X217503190Y-69270619D02*
X217836523Y-69746809D01*
X218074619Y-69270619D02*
X218074619Y-70270619D01*
X217693666Y-70270619D01*
X217598428Y-70223000D01*
X217550809Y-70175380D01*
X217503190Y-70080142D01*
X217503190Y-69937285D01*
X217550809Y-69842047D01*
X217598428Y-69794428D01*
X217693666Y-69746809D01*
X218074619Y-69746809D01*
X216931761Y-69270619D02*
X217027000Y-69318238D01*
X217074619Y-69365857D01*
X217122238Y-69461095D01*
X217122238Y-69746809D01*
X217074619Y-69842047D01*
X217027000Y-69889666D01*
X216931761Y-69937285D01*
X216788904Y-69937285D01*
X216693666Y-69889666D01*
X216646047Y-69842047D01*
X216598428Y-69746809D01*
X216598428Y-69461095D01*
X216646047Y-69365857D01*
X216693666Y-69318238D01*
X216788904Y-69270619D01*
X216931761Y-69270619D01*
X216265095Y-69937285D02*
X216074619Y-69270619D01*
X215884142Y-69746809D01*
X215693666Y-69270619D01*
X215503190Y-69937285D01*
X214407952Y-69556333D02*
X213931761Y-69556333D01*
X214503190Y-69270619D02*
X214169857Y-70270619D01*
X213836523Y-69270619D01*
X150804619Y-60761809D02*
X151804619Y-60761809D01*
X150804619Y-61809428D02*
X151280809Y-61476095D01*
X150804619Y-61238000D02*
X151804619Y-61238000D01*
X151804619Y-61618952D01*
X151757000Y-61714190D01*
X151709380Y-61761809D01*
X151614142Y-61809428D01*
X151471285Y-61809428D01*
X151376047Y-61761809D01*
X151328428Y-61714190D01*
X151280809Y-61618952D01*
X151280809Y-61238000D01*
X150709380Y-62904666D02*
X150757000Y-62809428D01*
X150852238Y-62714190D01*
X150995095Y-62571333D01*
X151042714Y-62476095D01*
X151042714Y-62380857D01*
X150804619Y-62428476D02*
X150852238Y-62333238D01*
X150947476Y-62238000D01*
X151137952Y-62190380D01*
X151471285Y-62190380D01*
X151661761Y-62238000D01*
X151757000Y-62333238D01*
X151804619Y-62428476D01*
X151804619Y-62618952D01*
X151757000Y-62714190D01*
X151661761Y-62809428D01*
X151471285Y-62857047D01*
X151137952Y-62857047D01*
X150947476Y-62809428D01*
X150852238Y-62714190D01*
X150804619Y-62618952D01*
X150804619Y-62428476D01*
X150804619Y-63809428D02*
X150804619Y-63238000D01*
X150804619Y-63523714D02*
X151804619Y-63523714D01*
X151661761Y-63428476D01*
X151566523Y-63333238D01*
X151518904Y-63238000D01*
X151804619Y-64714190D02*
X151804619Y-64238000D01*
X151328428Y-64190380D01*
X151376047Y-64238000D01*
X151423666Y-64333238D01*
X151423666Y-64571333D01*
X151376047Y-64666571D01*
X151328428Y-64714190D01*
X151233190Y-64761809D01*
X150995095Y-64761809D01*
X150899857Y-64714190D01*
X150852238Y-64666571D01*
X150804619Y-64571333D01*
X150804619Y-64333238D01*
X150852238Y-64238000D01*
X150899857Y-64190380D01*
X206684619Y-137318904D02*
X207684619Y-137318904D01*
X207684619Y-137557000D01*
X207637000Y-137699857D01*
X207541761Y-137795095D01*
X207446523Y-137842714D01*
X207256047Y-137890333D01*
X207113190Y-137890333D01*
X206922714Y-137842714D01*
X206827476Y-137795095D01*
X206732238Y-137699857D01*
X206684619Y-137557000D01*
X206684619Y-137318904D01*
X207208428Y-138652238D02*
X207160809Y-138795095D01*
X207113190Y-138842714D01*
X207017952Y-138890333D01*
X206875095Y-138890333D01*
X206779857Y-138842714D01*
X206732238Y-138795095D01*
X206684619Y-138699857D01*
X206684619Y-138318904D01*
X207684619Y-138318904D01*
X207684619Y-138652238D01*
X207637000Y-138747476D01*
X207589380Y-138795095D01*
X207494142Y-138842714D01*
X207398904Y-138842714D01*
X207303666Y-138795095D01*
X207256047Y-138747476D01*
X207208428Y-138652238D01*
X207208428Y-138318904D01*
X207684619Y-139223666D02*
X207684619Y-139890333D01*
X206684619Y-139461761D01*
X164402238Y-43521380D02*
X164402238Y-44235666D01*
X164354619Y-44378523D01*
X164259380Y-44473761D01*
X164116523Y-44521380D01*
X164021285Y-44521380D01*
X165354619Y-44521380D02*
X164878428Y-44521380D01*
X164878428Y-43521380D01*
X166259380Y-44426142D02*
X166211761Y-44473761D01*
X166068904Y-44521380D01*
X165973666Y-44521380D01*
X165830809Y-44473761D01*
X165735571Y-44378523D01*
X165687952Y-44283285D01*
X165640333Y-44092809D01*
X165640333Y-43949952D01*
X165687952Y-43759476D01*
X165735571Y-43664238D01*
X165830809Y-43569000D01*
X165973666Y-43521380D01*
X166068904Y-43521380D01*
X166211761Y-43569000D01*
X166259380Y-43616619D01*
X166973666Y-43521380D02*
X166973666Y-44235666D01*
X166926047Y-44378523D01*
X166830809Y-44473761D01*
X166687952Y-44521380D01*
X166592714Y-44521380D01*
X167926047Y-44521380D02*
X167449857Y-44521380D01*
X167449857Y-43521380D01*
X168830809Y-44426142D02*
X168783190Y-44473761D01*
X168640333Y-44521380D01*
X168545095Y-44521380D01*
X168402238Y-44473761D01*
X168307000Y-44378523D01*
X168259380Y-44283285D01*
X168211761Y-44092809D01*
X168211761Y-43949952D01*
X168259380Y-43759476D01*
X168307000Y-43664238D01*
X168402238Y-43569000D01*
X168545095Y-43521380D01*
X168640333Y-43521380D01*
X168783190Y-43569000D01*
X168830809Y-43616619D01*
X169545095Y-43521380D02*
X169545095Y-44235666D01*
X169497476Y-44378523D01*
X169402238Y-44473761D01*
X169259380Y-44521380D01*
X169164142Y-44521380D01*
X170497476Y-44521380D02*
X170021285Y-44521380D01*
X170021285Y-43521380D01*
X171402238Y-44426142D02*
X171354619Y-44473761D01*
X171211761Y-44521380D01*
X171116523Y-44521380D01*
X170973666Y-44473761D01*
X170878428Y-44378523D01*
X170830809Y-44283285D01*
X170783190Y-44092809D01*
X170783190Y-43949952D01*
X170830809Y-43759476D01*
X170878428Y-43664238D01*
X170973666Y-43569000D01*
X171116523Y-43521380D01*
X171211761Y-43521380D01*
X171354619Y-43569000D01*
X171402238Y-43616619D01*
X172116523Y-43521380D02*
X172116523Y-44235666D01*
X172068904Y-44378523D01*
X171973666Y-44473761D01*
X171830809Y-44521380D01*
X171735571Y-44521380D01*
X173068904Y-44521380D02*
X172592714Y-44521380D01*
X172592714Y-43521380D01*
X173973666Y-44426142D02*
X173926047Y-44473761D01*
X173783190Y-44521380D01*
X173687952Y-44521380D01*
X173545095Y-44473761D01*
X173449857Y-44378523D01*
X173402238Y-44283285D01*
X173354619Y-44092809D01*
X173354619Y-43949952D01*
X173402238Y-43759476D01*
X173449857Y-43664238D01*
X173545095Y-43569000D01*
X173687952Y-43521380D01*
X173783190Y-43521380D01*
X173926047Y-43569000D01*
X173973666Y-43616619D01*
X174687952Y-43521380D02*
X174687952Y-44235666D01*
X174640333Y-44378523D01*
X174545095Y-44473761D01*
X174402238Y-44521380D01*
X174307000Y-44521380D01*
X175640333Y-44521380D02*
X175164142Y-44521380D01*
X175164142Y-43521380D01*
X176545095Y-44426142D02*
X176497476Y-44473761D01*
X176354619Y-44521380D01*
X176259380Y-44521380D01*
X176116523Y-44473761D01*
X176021285Y-44378523D01*
X175973666Y-44283285D01*
X175926047Y-44092809D01*
X175926047Y-43949952D01*
X175973666Y-43759476D01*
X176021285Y-43664238D01*
X176116523Y-43569000D01*
X176259380Y-43521380D01*
X176354619Y-43521380D01*
X176497476Y-43569000D01*
X176545095Y-43616619D01*
X181808428Y-54570476D02*
X181760809Y-54713333D01*
X181713190Y-54760952D01*
X181617952Y-54808571D01*
X181475095Y-54808571D01*
X181379857Y-54760952D01*
X181332238Y-54713333D01*
X181284619Y-54618095D01*
X181284619Y-54237142D01*
X182284619Y-54237142D01*
X182284619Y-54570476D01*
X182237000Y-54665714D01*
X182189380Y-54713333D01*
X182094142Y-54760952D01*
X181998904Y-54760952D01*
X181903666Y-54713333D01*
X181856047Y-54665714D01*
X181808428Y-54570476D01*
X181808428Y-54237142D01*
X181570333Y-55189523D02*
X181570333Y-55665714D01*
X181284619Y-55094285D02*
X182284619Y-55427619D01*
X181284619Y-55760952D01*
X181284619Y-56618095D02*
X181284619Y-56046666D01*
X181284619Y-56332380D02*
X182284619Y-56332380D01*
X182141761Y-56237142D01*
X182046523Y-56141904D01*
X181998904Y-56046666D01*
X181284619Y-57094285D02*
X181284619Y-57284761D01*
X181332238Y-57380000D01*
X181379857Y-57427619D01*
X181522714Y-57522857D01*
X181713190Y-57570476D01*
X182094142Y-57570476D01*
X182189380Y-57522857D01*
X182237000Y-57475238D01*
X182284619Y-57380000D01*
X182284619Y-57189523D01*
X182237000Y-57094285D01*
X182189380Y-57046666D01*
X182094142Y-56999047D01*
X181856047Y-56999047D01*
X181760809Y-57046666D01*
X181713190Y-57094285D01*
X181665571Y-57189523D01*
X181665571Y-57380000D01*
X181713190Y-57475238D01*
X181760809Y-57522857D01*
X181856047Y-57570476D01*
X110164619Y-124007809D02*
X111164619Y-124007809D01*
X110164619Y-125055428D02*
X110640809Y-124722095D01*
X110164619Y-124484000D02*
X111164619Y-124484000D01*
X111164619Y-124864952D01*
X111117000Y-124960190D01*
X111069380Y-125007809D01*
X110974142Y-125055428D01*
X110831285Y-125055428D01*
X110736047Y-125007809D01*
X110688428Y-124960190D01*
X110640809Y-124864952D01*
X110640809Y-124484000D01*
X110069380Y-126150666D02*
X110117000Y-126055428D01*
X110212238Y-125960190D01*
X110355095Y-125817333D01*
X110402714Y-125722095D01*
X110402714Y-125626857D01*
X110164619Y-125674476D02*
X110212238Y-125579238D01*
X110307476Y-125484000D01*
X110497952Y-125436380D01*
X110831285Y-125436380D01*
X111021761Y-125484000D01*
X111117000Y-125579238D01*
X111164619Y-125674476D01*
X111164619Y-125864952D01*
X111117000Y-125960190D01*
X111021761Y-126055428D01*
X110831285Y-126103047D01*
X110497952Y-126103047D01*
X110307476Y-126055428D01*
X110212238Y-125960190D01*
X110164619Y-125864952D01*
X110164619Y-125674476D01*
X110164619Y-127055428D02*
X110164619Y-126484000D01*
X110164619Y-126769714D02*
X111164619Y-126769714D01*
X111021761Y-126674476D01*
X110926523Y-126579238D01*
X110878904Y-126484000D01*
X111164619Y-127960190D02*
X111164619Y-127484000D01*
X110688428Y-127436380D01*
X110736047Y-127484000D01*
X110783666Y-127579238D01*
X110783666Y-127817333D01*
X110736047Y-127912571D01*
X110688428Y-127960190D01*
X110593190Y-128007809D01*
X110355095Y-128007809D01*
X110259857Y-127960190D01*
X110212238Y-127912571D01*
X110164619Y-127817333D01*
X110164619Y-127579238D01*
X110212238Y-127484000D01*
X110259857Y-127436380D01*
X112704619Y-137485571D02*
X112704619Y-137009380D01*
X113704619Y-137009380D01*
X112990333Y-137771285D02*
X112990333Y-138247476D01*
X112704619Y-137676047D02*
X113704619Y-138009380D01*
X112704619Y-138342714D01*
X113609380Y-138628428D02*
X113657000Y-138676047D01*
X113704619Y-138771285D01*
X113704619Y-139009380D01*
X113657000Y-139104619D01*
X113609380Y-139152238D01*
X113514142Y-139199857D01*
X113418904Y-139199857D01*
X113276047Y-139152238D01*
X112704619Y-138580809D01*
X112704619Y-139199857D01*
X113704619Y-139818904D02*
X113704619Y-139914142D01*
X113657000Y-140009380D01*
X113609380Y-140057000D01*
X113514142Y-140104619D01*
X113323666Y-140152238D01*
X113085571Y-140152238D01*
X112895095Y-140104619D01*
X112799857Y-140057000D01*
X112752238Y-140009380D01*
X112704619Y-139914142D01*
X112704619Y-139818904D01*
X112752238Y-139723666D01*
X112799857Y-139676047D01*
X112895095Y-139628428D01*
X113085571Y-139580809D01*
X113323666Y-139580809D01*
X113514142Y-139628428D01*
X113609380Y-139676047D01*
X113657000Y-139723666D01*
X113704619Y-139818904D01*
X163504619Y-67199190D02*
X163980809Y-66865857D01*
X163504619Y-66627761D02*
X164504619Y-66627761D01*
X164504619Y-67008714D01*
X164457000Y-67103952D01*
X164409380Y-67151571D01*
X164314142Y-67199190D01*
X164171285Y-67199190D01*
X164076047Y-67151571D01*
X164028428Y-67103952D01*
X163980809Y-67008714D01*
X163980809Y-66627761D01*
X164028428Y-67627761D02*
X164028428Y-67961095D01*
X163504619Y-68103952D02*
X163504619Y-67627761D01*
X164504619Y-67627761D01*
X164504619Y-68103952D01*
X164028428Y-68865857D02*
X164028428Y-68532523D01*
X163504619Y-68532523D02*
X164504619Y-68532523D01*
X164504619Y-69008714D01*
X163504619Y-69961095D02*
X163980809Y-69627761D01*
X163504619Y-69389666D02*
X164504619Y-69389666D01*
X164504619Y-69770619D01*
X164457000Y-69865857D01*
X164409380Y-69913476D01*
X164314142Y-69961095D01*
X164171285Y-69961095D01*
X164076047Y-69913476D01*
X164028428Y-69865857D01*
X163980809Y-69770619D01*
X163980809Y-69389666D01*
X164028428Y-70389666D02*
X164028428Y-70723000D01*
X163504619Y-70865857D02*
X163504619Y-70389666D01*
X164504619Y-70389666D01*
X164504619Y-70865857D01*
X163552238Y-71246809D02*
X163504619Y-71389666D01*
X163504619Y-71627761D01*
X163552238Y-71723000D01*
X163599857Y-71770619D01*
X163695095Y-71818238D01*
X163790333Y-71818238D01*
X163885571Y-71770619D01*
X163933190Y-71723000D01*
X163980809Y-71627761D01*
X164028428Y-71437285D01*
X164076047Y-71342047D01*
X164123666Y-71294428D01*
X164218904Y-71246809D01*
X164314142Y-71246809D01*
X164409380Y-71294428D01*
X164457000Y-71342047D01*
X164504619Y-71437285D01*
X164504619Y-71675380D01*
X164457000Y-71818238D01*
X163504619Y-72246809D02*
X164504619Y-72246809D01*
X164028428Y-72246809D02*
X164028428Y-72818238D01*
X163504619Y-72818238D02*
X164504619Y-72818238D01*
X196524619Y-67961095D02*
X197524619Y-67961095D01*
X197524619Y-68199190D01*
X197477000Y-68342047D01*
X197381761Y-68437285D01*
X197286523Y-68484904D01*
X197096047Y-68532523D01*
X196953190Y-68532523D01*
X196762714Y-68484904D01*
X196667476Y-68437285D01*
X196572238Y-68342047D01*
X196524619Y-68199190D01*
X196524619Y-67961095D01*
X196524619Y-69532523D02*
X197000809Y-69199190D01*
X196524619Y-68961095D02*
X197524619Y-68961095D01*
X197524619Y-69342047D01*
X197477000Y-69437285D01*
X197429380Y-69484904D01*
X197334142Y-69532523D01*
X197191285Y-69532523D01*
X197096047Y-69484904D01*
X197048428Y-69437285D01*
X197000809Y-69342047D01*
X197000809Y-68961095D01*
X196429380Y-70627761D02*
X196477000Y-70532523D01*
X196572238Y-70437285D01*
X196715095Y-70294428D01*
X196762714Y-70199190D01*
X196762714Y-70103952D01*
X196524619Y-70151571D02*
X196572238Y-70056333D01*
X196667476Y-69961095D01*
X196857952Y-69913476D01*
X197191285Y-69913476D01*
X197381761Y-69961095D01*
X197477000Y-70056333D01*
X197524619Y-70151571D01*
X197524619Y-70342047D01*
X197477000Y-70437285D01*
X197381761Y-70532523D01*
X197191285Y-70580142D01*
X196857952Y-70580142D01*
X196667476Y-70532523D01*
X196572238Y-70437285D01*
X196524619Y-70342047D01*
X196524619Y-70151571D01*
X197429380Y-70961095D02*
X197477000Y-71008714D01*
X197524619Y-71103952D01*
X197524619Y-71342047D01*
X197477000Y-71437285D01*
X197429380Y-71484904D01*
X197334142Y-71532523D01*
X197238904Y-71532523D01*
X197096047Y-71484904D01*
X196524619Y-70913476D01*
X196524619Y-71532523D01*
X161488428Y-137247476D02*
X161440809Y-137390333D01*
X161393190Y-137437952D01*
X161297952Y-137485571D01*
X161155095Y-137485571D01*
X161059857Y-137437952D01*
X161012238Y-137390333D01*
X160964619Y-137295095D01*
X160964619Y-136914142D01*
X161964619Y-136914142D01*
X161964619Y-137247476D01*
X161917000Y-137342714D01*
X161869380Y-137390333D01*
X161774142Y-137437952D01*
X161678904Y-137437952D01*
X161583666Y-137390333D01*
X161536047Y-137342714D01*
X161488428Y-137247476D01*
X161488428Y-136914142D01*
X161250333Y-137866523D02*
X161250333Y-138342714D01*
X160964619Y-137771285D02*
X161964619Y-138104619D01*
X160964619Y-138437952D01*
X160964619Y-139295095D02*
X160964619Y-138723666D01*
X160964619Y-139009380D02*
X161964619Y-139009380D01*
X161821761Y-138914142D01*
X161726523Y-138818904D01*
X161678904Y-138723666D01*
X160964619Y-140247476D02*
X160964619Y-139676047D01*
X160964619Y-139961761D02*
X161964619Y-139961761D01*
X161821761Y-139866523D01*
X161726523Y-139771285D01*
X161678904Y-139676047D01*
X183824619Y-124055428D02*
X184824619Y-124055428D01*
X184110333Y-124388761D01*
X184824619Y-124722095D01*
X183824619Y-124722095D01*
X184348428Y-125198285D02*
X184348428Y-125531619D01*
X183824619Y-125674476D02*
X183824619Y-125198285D01*
X184824619Y-125198285D01*
X184824619Y-125674476D01*
X183824619Y-126103047D02*
X184824619Y-126103047D01*
X184110333Y-126436380D01*
X184824619Y-126769714D01*
X183824619Y-126769714D01*
X184824619Y-127150666D02*
X183824619Y-127388761D01*
X184538904Y-127579238D01*
X183824619Y-127769714D01*
X184824619Y-128007809D01*
X176204619Y-68699190D02*
X177204619Y-68699190D01*
X177204619Y-69365857D02*
X177204619Y-69556333D01*
X177157000Y-69651571D01*
X177061761Y-69746809D01*
X176871285Y-69794428D01*
X176537952Y-69794428D01*
X176347476Y-69746809D01*
X176252238Y-69651571D01*
X176204619Y-69556333D01*
X176204619Y-69365857D01*
X176252238Y-69270619D01*
X176347476Y-69175380D01*
X176537952Y-69127761D01*
X176871285Y-69127761D01*
X177061761Y-69175380D01*
X177157000Y-69270619D01*
X177204619Y-69365857D01*
X176204619Y-70794428D02*
X176680809Y-70461095D01*
X176204619Y-70223000D02*
X177204619Y-70223000D01*
X177204619Y-70603952D01*
X177157000Y-70699190D01*
X177109380Y-70746809D01*
X177014142Y-70794428D01*
X176871285Y-70794428D01*
X176776047Y-70746809D01*
X176728428Y-70699190D01*
X176680809Y-70603952D01*
X176680809Y-70223000D01*
X178744619Y-124888761D02*
X179744619Y-124888761D01*
X179744619Y-125555428D02*
X179744619Y-125745904D01*
X179697000Y-125841142D01*
X179601761Y-125936380D01*
X179411285Y-125984000D01*
X179077952Y-125984000D01*
X178887476Y-125936380D01*
X178792238Y-125841142D01*
X178744619Y-125745904D01*
X178744619Y-125555428D01*
X178792238Y-125460190D01*
X178887476Y-125364952D01*
X179077952Y-125317333D01*
X179411285Y-125317333D01*
X179601761Y-125364952D01*
X179697000Y-125460190D01*
X179744619Y-125555428D01*
X179744619Y-126317333D02*
X178744619Y-126555428D01*
X179458904Y-126745904D01*
X178744619Y-126936380D01*
X179744619Y-127174476D01*
X145724619Y-67556333D02*
X146724619Y-67556333D01*
X146724619Y-67794428D01*
X146677000Y-67937285D01*
X146581761Y-68032523D01*
X146486523Y-68080142D01*
X146296047Y-68127761D01*
X146153190Y-68127761D01*
X145962714Y-68080142D01*
X145867476Y-68032523D01*
X145772238Y-67937285D01*
X145724619Y-67794428D01*
X145724619Y-67556333D01*
X146010333Y-68508714D02*
X146010333Y-68984904D01*
X145724619Y-68413476D02*
X146724619Y-68746809D01*
X145724619Y-69080142D01*
X145819857Y-69984904D02*
X145772238Y-69937285D01*
X145724619Y-69794428D01*
X145724619Y-69699190D01*
X145772238Y-69556333D01*
X145867476Y-69461095D01*
X145962714Y-69413476D01*
X146153190Y-69365857D01*
X146296047Y-69365857D01*
X146486523Y-69413476D01*
X146581761Y-69461095D01*
X146677000Y-69556333D01*
X146724619Y-69699190D01*
X146724619Y-69794428D01*
X146677000Y-69937285D01*
X146629380Y-69984904D01*
X145724619Y-70413476D02*
X146724619Y-70413476D01*
X145724619Y-70984904D02*
X146296047Y-70556333D01*
X146724619Y-70984904D02*
X146153190Y-70413476D01*
X146629380Y-71365857D02*
X146677000Y-71413476D01*
X146724619Y-71508714D01*
X146724619Y-71746809D01*
X146677000Y-71842047D01*
X146629380Y-71889666D01*
X146534142Y-71937285D01*
X146438904Y-71937285D01*
X146296047Y-71889666D01*
X145724619Y-71318238D01*
X145724619Y-71937285D01*
X209224619Y-53832380D02*
X210224619Y-53832380D01*
X210224619Y-54499047D02*
X210224619Y-54689523D01*
X210177000Y-54784761D01*
X210081761Y-54880000D01*
X209891285Y-54927619D01*
X209557952Y-54927619D01*
X209367476Y-54880000D01*
X209272238Y-54784761D01*
X209224619Y-54689523D01*
X209224619Y-54499047D01*
X209272238Y-54403809D01*
X209367476Y-54308571D01*
X209557952Y-54260952D01*
X209891285Y-54260952D01*
X210081761Y-54308571D01*
X210177000Y-54403809D01*
X210224619Y-54499047D01*
X209319857Y-55927619D02*
X209272238Y-55880000D01*
X209224619Y-55737142D01*
X209224619Y-55641904D01*
X209272238Y-55499047D01*
X209367476Y-55403809D01*
X209462714Y-55356190D01*
X209653190Y-55308571D01*
X209796047Y-55308571D01*
X209986523Y-55356190D01*
X210081761Y-55403809D01*
X210177000Y-55499047D01*
X210224619Y-55641904D01*
X210224619Y-55737142D01*
X210177000Y-55880000D01*
X210129380Y-55927619D01*
X209224619Y-56356190D02*
X210224619Y-56356190D01*
X209748428Y-56356190D02*
X209748428Y-56927619D01*
X209224619Y-56927619D02*
X210224619Y-56927619D01*
X209224619Y-57403809D02*
X210224619Y-57403809D01*
X209224619Y-57975238D02*
X209796047Y-57546666D01*
X210224619Y-57975238D02*
X209653190Y-57403809D01*
X133548428Y-137723666D02*
X133500809Y-137866523D01*
X133453190Y-137914142D01*
X133357952Y-137961761D01*
X133215095Y-137961761D01*
X133119857Y-137914142D01*
X133072238Y-137866523D01*
X133024619Y-137771285D01*
X133024619Y-137390333D01*
X134024619Y-137390333D01*
X134024619Y-137723666D01*
X133977000Y-137818904D01*
X133929380Y-137866523D01*
X133834142Y-137914142D01*
X133738904Y-137914142D01*
X133643666Y-137866523D01*
X133596047Y-137818904D01*
X133548428Y-137723666D01*
X133548428Y-137390333D01*
X133310333Y-138342714D02*
X133310333Y-138818904D01*
X133024619Y-138247476D02*
X134024619Y-138580809D01*
X133024619Y-138914142D01*
X134024619Y-139437952D02*
X134024619Y-139533190D01*
X133977000Y-139628428D01*
X133929380Y-139676047D01*
X133834142Y-139723666D01*
X133643666Y-139771285D01*
X133405571Y-139771285D01*
X133215095Y-139723666D01*
X133119857Y-139676047D01*
X133072238Y-139628428D01*
X133024619Y-139533190D01*
X133024619Y-139437952D01*
X133072238Y-139342714D01*
X133119857Y-139295095D01*
X133215095Y-139247476D01*
X133405571Y-139199857D01*
X133643666Y-139199857D01*
X133834142Y-139247476D01*
X133929380Y-139295095D01*
X133977000Y-139342714D01*
X134024619Y-139437952D01*
X148264619Y-124484000D02*
X149264619Y-124484000D01*
X148264619Y-125531619D02*
X148740809Y-125198285D01*
X148264619Y-124960190D02*
X149264619Y-124960190D01*
X149264619Y-125341142D01*
X149217000Y-125436380D01*
X149169380Y-125484000D01*
X149074142Y-125531619D01*
X148931285Y-125531619D01*
X148836047Y-125484000D01*
X148788428Y-125436380D01*
X148740809Y-125341142D01*
X148740809Y-124960190D01*
X148169380Y-126626857D02*
X148217000Y-126531619D01*
X148312238Y-126436380D01*
X148455095Y-126293523D01*
X148502714Y-126198285D01*
X148502714Y-126103047D01*
X148264619Y-126150666D02*
X148312238Y-126055428D01*
X148407476Y-125960190D01*
X148597952Y-125912571D01*
X148931285Y-125912571D01*
X149121761Y-125960190D01*
X149217000Y-126055428D01*
X149264619Y-126150666D01*
X149264619Y-126341142D01*
X149217000Y-126436380D01*
X149121761Y-126531619D01*
X148931285Y-126579238D01*
X148597952Y-126579238D01*
X148407476Y-126531619D01*
X148312238Y-126436380D01*
X148264619Y-126341142D01*
X148264619Y-126150666D01*
X149264619Y-126912571D02*
X149264619Y-127531619D01*
X148883666Y-127198285D01*
X148883666Y-127341142D01*
X148836047Y-127436380D01*
X148788428Y-127484000D01*
X148693190Y-127531619D01*
X148455095Y-127531619D01*
X148359857Y-127484000D01*
X148312238Y-127436380D01*
X148264619Y-127341142D01*
X148264619Y-127055428D01*
X148312238Y-126960190D01*
X148359857Y-126912571D01*
X150804619Y-124484000D02*
X151804619Y-124484000D01*
X150804619Y-125531619D02*
X151280809Y-125198285D01*
X150804619Y-124960190D02*
X151804619Y-124960190D01*
X151804619Y-125341142D01*
X151757000Y-125436380D01*
X151709380Y-125484000D01*
X151614142Y-125531619D01*
X151471285Y-125531619D01*
X151376047Y-125484000D01*
X151328428Y-125436380D01*
X151280809Y-125341142D01*
X151280809Y-124960190D01*
X150709380Y-126626857D02*
X150757000Y-126531619D01*
X150852238Y-126436380D01*
X150995095Y-126293523D01*
X151042714Y-126198285D01*
X151042714Y-126103047D01*
X150804619Y-126150666D02*
X150852238Y-126055428D01*
X150947476Y-125960190D01*
X151137952Y-125912571D01*
X151471285Y-125912571D01*
X151661761Y-125960190D01*
X151757000Y-126055428D01*
X151804619Y-126150666D01*
X151804619Y-126341142D01*
X151757000Y-126436380D01*
X151661761Y-126531619D01*
X151471285Y-126579238D01*
X151137952Y-126579238D01*
X150947476Y-126531619D01*
X150852238Y-126436380D01*
X150804619Y-126341142D01*
X150804619Y-126150666D01*
X151471285Y-127436380D02*
X150804619Y-127436380D01*
X151852238Y-127198285D02*
X151137952Y-126960190D01*
X151137952Y-127579238D01*
D11*
X124928428Y-73197142D02*
X126428428Y-73197142D01*
X124999857Y-73840000D02*
X124928428Y-74054285D01*
X124928428Y-74411428D01*
X124999857Y-74554285D01*
X125071285Y-74625714D01*
X125214142Y-74697142D01*
X125357000Y-74697142D01*
X125499857Y-74625714D01*
X125571285Y-74554285D01*
X125642714Y-74411428D01*
X125714142Y-74125714D01*
X125785571Y-73982857D01*
X125857000Y-73911428D01*
X125999857Y-73840000D01*
X126142714Y-73840000D01*
X126285571Y-73911428D01*
X126357000Y-73982857D01*
X126428428Y-74125714D01*
X126428428Y-74482857D01*
X126357000Y-74697142D01*
X125357000Y-75268571D02*
X125357000Y-75982857D01*
X124928428Y-75125714D02*
X126428428Y-75625714D01*
X124928428Y-76125714D01*
X125714142Y-78268571D02*
X125642714Y-78482857D01*
X125571285Y-78554285D01*
X125428428Y-78625714D01*
X125214142Y-78625714D01*
X125071285Y-78554285D01*
X124999857Y-78482857D01*
X124928428Y-78340000D01*
X124928428Y-77768571D01*
X126428428Y-77768571D01*
X126428428Y-78268571D01*
X126357000Y-78411428D01*
X126285571Y-78482857D01*
X126142714Y-78554285D01*
X125999857Y-78554285D01*
X125857000Y-78482857D01*
X125785571Y-78411428D01*
X125714142Y-78268571D01*
X125714142Y-77768571D01*
X126428428Y-79268571D02*
X125214142Y-79268571D01*
X125071285Y-79340000D01*
X124999857Y-79411428D01*
X124928428Y-79554285D01*
X124928428Y-79840000D01*
X124999857Y-79982857D01*
X125071285Y-80054285D01*
X125214142Y-80125714D01*
X126428428Y-80125714D01*
X124999857Y-80768571D02*
X124928428Y-80982857D01*
X124928428Y-81340000D01*
X124999857Y-81482857D01*
X125071285Y-81554285D01*
X125214142Y-81625714D01*
X125357000Y-81625714D01*
X125499857Y-81554285D01*
X125571285Y-81482857D01*
X125642714Y-81340000D01*
X125714142Y-81054285D01*
X125785571Y-80911428D01*
X125857000Y-80840000D01*
X125999857Y-80768571D01*
X126142714Y-80768571D01*
X126285571Y-80840000D01*
X126357000Y-80911428D01*
X126428428Y-81054285D01*
X126428428Y-81411428D01*
X126357000Y-81625714D01*
X125928428Y-83197142D02*
X125928428Y-83768571D01*
X126428428Y-83411428D02*
X125142714Y-83411428D01*
X124999857Y-83482857D01*
X124928428Y-83625714D01*
X124928428Y-83768571D01*
X124928428Y-84482857D02*
X124999857Y-84340000D01*
X125071285Y-84268571D01*
X125214142Y-84197142D01*
X125642714Y-84197142D01*
X125785571Y-84268571D01*
X125857000Y-84340000D01*
X125928428Y-84482857D01*
X125928428Y-84697142D01*
X125857000Y-84840000D01*
X125785571Y-84911428D01*
X125642714Y-84982857D01*
X125214142Y-84982857D01*
X125071285Y-84911428D01*
X124999857Y-84840000D01*
X124928428Y-84697142D01*
X124928428Y-84482857D01*
X124928428Y-86768571D02*
X126428428Y-86768571D01*
X126428428Y-87125714D01*
X126357000Y-87340000D01*
X126214142Y-87482857D01*
X126071285Y-87554285D01*
X125785571Y-87625714D01*
X125571285Y-87625714D01*
X125285571Y-87554285D01*
X125142714Y-87482857D01*
X124999857Y-87340000D01*
X124928428Y-87125714D01*
X124928428Y-86768571D01*
X124928428Y-88268571D02*
X126428428Y-88268571D01*
X124928428Y-88982857D02*
X126428428Y-88982857D01*
X124928428Y-89840000D01*
X126428428Y-89840000D01*
X125928428Y-91197142D02*
X124928428Y-91197142D01*
X126499857Y-90840000D02*
X125428428Y-90482857D01*
X125428428Y-91411428D01*
X124928428Y-92768571D02*
X124928428Y-91911428D01*
X124928428Y-92340000D02*
X126428428Y-92340000D01*
X126214142Y-92197142D01*
X126071285Y-92054285D01*
X125999857Y-91911428D01*
X126428428Y-94054285D02*
X126428428Y-93768571D01*
X126357000Y-93625714D01*
X126285571Y-93554285D01*
X126071285Y-93411428D01*
X125785571Y-93340000D01*
X125214142Y-93340000D01*
X125071285Y-93411428D01*
X124999857Y-93482857D01*
X124928428Y-93625714D01*
X124928428Y-93911428D01*
X124999857Y-94054285D01*
X125071285Y-94125714D01*
X125214142Y-94197142D01*
X125571285Y-94197142D01*
X125714142Y-94125714D01*
X125785571Y-94054285D01*
X125857000Y-93911428D01*
X125857000Y-93625714D01*
X125785571Y-93482857D01*
X125714142Y-93411428D01*
X125571285Y-93340000D01*
X124928428Y-95625714D02*
X124928428Y-94768571D01*
X124928428Y-95197142D02*
X126428428Y-95197142D01*
X126214142Y-95054285D01*
X126071285Y-94911428D01*
X125999857Y-94768571D01*
X126285571Y-96197142D02*
X126357000Y-96268571D01*
X126428428Y-96411428D01*
X126428428Y-96768571D01*
X126357000Y-96911428D01*
X126285571Y-96982857D01*
X126142714Y-97054285D01*
X125999857Y-97054285D01*
X125785571Y-96982857D01*
X124928428Y-96125714D01*
X124928428Y-97054285D01*
X122942000Y-80590000D02*
X122942000Y-81304285D01*
X122513428Y-80447142D02*
X124013428Y-80947142D01*
X122513428Y-81447142D01*
X122513428Y-81947142D02*
X124013428Y-81947142D01*
X124013428Y-82304285D01*
X123942000Y-82518571D01*
X123799142Y-82661428D01*
X123656285Y-82732857D01*
X123370571Y-82804285D01*
X123156285Y-82804285D01*
X122870571Y-82732857D01*
X122727714Y-82661428D01*
X122584857Y-82518571D01*
X122513428Y-82304285D01*
X122513428Y-81947142D01*
X122942000Y-83375714D02*
X122942000Y-84090000D01*
X122513428Y-83232857D02*
X124013428Y-83732857D01*
X122513428Y-84232857D01*
X122513428Y-84732857D02*
X124013428Y-84732857D01*
X124013428Y-85304285D01*
X123942000Y-85447142D01*
X123870571Y-85518571D01*
X123727714Y-85590000D01*
X123513428Y-85590000D01*
X123370571Y-85518571D01*
X123299142Y-85447142D01*
X123227714Y-85304285D01*
X123227714Y-84732857D01*
X124013428Y-86018571D02*
X124013428Y-86875714D01*
X122513428Y-86447142D02*
X124013428Y-86447142D01*
X123299142Y-87375714D02*
X123299142Y-87875714D01*
X122513428Y-88090000D02*
X122513428Y-87375714D01*
X124013428Y-87375714D01*
X124013428Y-88090000D01*
X122513428Y-89590000D02*
X123227714Y-89090000D01*
X122513428Y-88732857D02*
X124013428Y-88732857D01*
X124013428Y-89304285D01*
X123942000Y-89447142D01*
X123870571Y-89518571D01*
X123727714Y-89590000D01*
X123513428Y-89590000D01*
X123370571Y-89518571D01*
X123299142Y-89447142D01*
X123227714Y-89304285D01*
X123227714Y-88732857D01*
X117826285Y-70840000D02*
X117754857Y-70768571D01*
X117683428Y-70554285D01*
X117683428Y-70411428D01*
X117754857Y-70197142D01*
X117897714Y-70054285D01*
X118040571Y-69982857D01*
X118326285Y-69911428D01*
X118540571Y-69911428D01*
X118826285Y-69982857D01*
X118969142Y-70054285D01*
X119112000Y-70197142D01*
X119183428Y-70411428D01*
X119183428Y-70554285D01*
X119112000Y-70768571D01*
X119040571Y-70840000D01*
X117683428Y-71697142D02*
X117754857Y-71554285D01*
X117826285Y-71482857D01*
X117969142Y-71411428D01*
X118397714Y-71411428D01*
X118540571Y-71482857D01*
X118612000Y-71554285D01*
X118683428Y-71697142D01*
X118683428Y-71911428D01*
X118612000Y-72054285D01*
X118540571Y-72125714D01*
X118397714Y-72197142D01*
X117969142Y-72197142D01*
X117826285Y-72125714D01*
X117754857Y-72054285D01*
X117683428Y-71911428D01*
X117683428Y-71697142D01*
X118683428Y-72840000D02*
X117183428Y-72840000D01*
X118612000Y-72840000D02*
X118683428Y-72982857D01*
X118683428Y-73268571D01*
X118612000Y-73411428D01*
X118540571Y-73482857D01*
X118397714Y-73554285D01*
X117969142Y-73554285D01*
X117826285Y-73482857D01*
X117754857Y-73411428D01*
X117683428Y-73268571D01*
X117683428Y-72982857D01*
X117754857Y-72840000D01*
X118683428Y-74054285D02*
X117683428Y-74411428D01*
X118683428Y-74768571D02*
X117683428Y-74411428D01*
X117326285Y-74268571D01*
X117254857Y-74197142D01*
X117183428Y-74054285D01*
X117683428Y-75340000D02*
X118683428Y-75340000D01*
X118397714Y-75340000D02*
X118540571Y-75411428D01*
X118612000Y-75482857D01*
X118683428Y-75625714D01*
X118683428Y-75768571D01*
X117683428Y-76268571D02*
X118683428Y-76268571D01*
X119183428Y-76268571D02*
X119112000Y-76197142D01*
X119040571Y-76268571D01*
X119112000Y-76340000D01*
X119183428Y-76268571D01*
X119040571Y-76268571D01*
X118683428Y-77625714D02*
X117469142Y-77625714D01*
X117326285Y-77554285D01*
X117254857Y-77482857D01*
X117183428Y-77340000D01*
X117183428Y-77125714D01*
X117254857Y-76982857D01*
X117754857Y-77625714D02*
X117683428Y-77482857D01*
X117683428Y-77197142D01*
X117754857Y-77054285D01*
X117826285Y-76982857D01*
X117969142Y-76911428D01*
X118397714Y-76911428D01*
X118540571Y-76982857D01*
X118612000Y-77054285D01*
X118683428Y-77197142D01*
X118683428Y-77482857D01*
X118612000Y-77625714D01*
X117683428Y-78340000D02*
X119183428Y-78340000D01*
X117683428Y-78982857D02*
X118469142Y-78982857D01*
X118612000Y-78911428D01*
X118683428Y-78768571D01*
X118683428Y-78554285D01*
X118612000Y-78411428D01*
X118540571Y-78340000D01*
X118683428Y-79482857D02*
X118683428Y-80054285D01*
X119183428Y-79697142D02*
X117897714Y-79697142D01*
X117754857Y-79768571D01*
X117683428Y-79911428D01*
X117683428Y-80054285D01*
X117112000Y-82125714D02*
X117183428Y-82054285D01*
X117397714Y-81911428D01*
X117540571Y-81840000D01*
X117754857Y-81768571D01*
X118112000Y-81697142D01*
X118397714Y-81697142D01*
X118754857Y-81768571D01*
X118969142Y-81840000D01*
X119112000Y-81911428D01*
X119326285Y-82054285D01*
X119397714Y-82125714D01*
X117754857Y-83340000D02*
X117683428Y-83197142D01*
X117683428Y-82911428D01*
X117754857Y-82768571D01*
X117826285Y-82697142D01*
X117969142Y-82625714D01*
X118397714Y-82625714D01*
X118540571Y-82697142D01*
X118612000Y-82768571D01*
X118683428Y-82911428D01*
X118683428Y-83197142D01*
X118612000Y-83340000D01*
X117112000Y-83840000D02*
X117183428Y-83911428D01*
X117397714Y-84054285D01*
X117540571Y-84125714D01*
X117754857Y-84197142D01*
X118112000Y-84268571D01*
X118397714Y-84268571D01*
X118754857Y-84197142D01*
X118969142Y-84125714D01*
X119112000Y-84054285D01*
X119326285Y-83911428D01*
X119397714Y-83840000D01*
X117683428Y-86125714D02*
X119183428Y-86125714D01*
X118112000Y-86625714D01*
X119183428Y-87125714D01*
X117683428Y-87125714D01*
X117683428Y-88482857D02*
X118469142Y-88482857D01*
X118612000Y-88411428D01*
X118683428Y-88268571D01*
X118683428Y-87982857D01*
X118612000Y-87840000D01*
X117754857Y-88482857D02*
X117683428Y-88340000D01*
X117683428Y-87982857D01*
X117754857Y-87840000D01*
X117897714Y-87768571D01*
X118040571Y-87768571D01*
X118183428Y-87840000D01*
X118254857Y-87982857D01*
X118254857Y-88340000D01*
X118326285Y-88482857D01*
X117683428Y-89197142D02*
X118683428Y-89197142D01*
X118397714Y-89197142D02*
X118540571Y-89268571D01*
X118612000Y-89340000D01*
X118683428Y-89482857D01*
X118683428Y-89625714D01*
X117683428Y-90125714D02*
X118683428Y-90125714D01*
X119183428Y-90125714D02*
X119112000Y-90054285D01*
X119040571Y-90125714D01*
X119112000Y-90197142D01*
X119183428Y-90125714D01*
X119040571Y-90125714D01*
X117683428Y-91054285D02*
X117754857Y-90911428D01*
X117826285Y-90840000D01*
X117969142Y-90768571D01*
X118397714Y-90768571D01*
X118540571Y-90840000D01*
X118612000Y-90911428D01*
X118683428Y-91054285D01*
X118683428Y-91268571D01*
X118612000Y-91411428D01*
X118540571Y-91482857D01*
X118397714Y-91554285D01*
X117969142Y-91554285D01*
X117826285Y-91482857D01*
X117754857Y-91411428D01*
X117683428Y-91268571D01*
X117683428Y-91054285D01*
X119112000Y-94125714D02*
X119183428Y-93982857D01*
X119183428Y-93768571D01*
X119112000Y-93554285D01*
X118969142Y-93411428D01*
X118826285Y-93340000D01*
X118540571Y-93268571D01*
X118326285Y-93268571D01*
X118040571Y-93340000D01*
X117897714Y-93411428D01*
X117754857Y-93554285D01*
X117683428Y-93768571D01*
X117683428Y-93911428D01*
X117754857Y-94125714D01*
X117826285Y-94197142D01*
X118326285Y-94197142D01*
X118326285Y-93911428D01*
X117683428Y-95054285D02*
X117754857Y-94911428D01*
X117826285Y-94840000D01*
X117969142Y-94768571D01*
X118397714Y-94768571D01*
X118540571Y-94840000D01*
X118612000Y-94911428D01*
X118683428Y-95054285D01*
X118683428Y-95268571D01*
X118612000Y-95411428D01*
X118540571Y-95482857D01*
X118397714Y-95554285D01*
X117969142Y-95554285D01*
X117826285Y-95482857D01*
X117754857Y-95411428D01*
X117683428Y-95268571D01*
X117683428Y-95054285D01*
X117754857Y-96768571D02*
X117683428Y-96625714D01*
X117683428Y-96340000D01*
X117754857Y-96197142D01*
X117897714Y-96125714D01*
X118469142Y-96125714D01*
X118612000Y-96197142D01*
X118683428Y-96340000D01*
X118683428Y-96625714D01*
X118612000Y-96768571D01*
X118469142Y-96840000D01*
X118326285Y-96840000D01*
X118183428Y-96125714D01*
X118683428Y-98125714D02*
X117469142Y-98125714D01*
X117326285Y-98054285D01*
X117254857Y-97982857D01*
X117183428Y-97840000D01*
X117183428Y-97625714D01*
X117254857Y-97482857D01*
X117754857Y-98125714D02*
X117683428Y-97982857D01*
X117683428Y-97697142D01*
X117754857Y-97554285D01*
X117826285Y-97482857D01*
X117969142Y-97411428D01*
X118397714Y-97411428D01*
X118540571Y-97482857D01*
X118612000Y-97554285D01*
X118683428Y-97697142D01*
X118683428Y-97982857D01*
X118612000Y-98125714D01*
X117754857Y-99411428D02*
X117683428Y-99268571D01*
X117683428Y-98982857D01*
X117754857Y-98840000D01*
X117897714Y-98768571D01*
X118469142Y-98768571D01*
X118612000Y-98840000D01*
X118683428Y-98982857D01*
X118683428Y-99268571D01*
X118612000Y-99411428D01*
X118469142Y-99482857D01*
X118326285Y-99482857D01*
X118183428Y-98768571D01*
X117683428Y-100340000D02*
X117754857Y-100197142D01*
X117897714Y-100125714D01*
X119183428Y-100125714D01*
X116625571Y-82518571D02*
X116697000Y-82590000D01*
X116768428Y-82732857D01*
X116768428Y-83090000D01*
X116697000Y-83232857D01*
X116625571Y-83304285D01*
X116482714Y-83375714D01*
X116339857Y-83375714D01*
X116125571Y-83304285D01*
X115268428Y-82447142D01*
X115268428Y-83375714D01*
X116768428Y-84304285D02*
X116768428Y-84447142D01*
X116697000Y-84590000D01*
X116625571Y-84661428D01*
X116482714Y-84732857D01*
X116197000Y-84804285D01*
X115839857Y-84804285D01*
X115554142Y-84732857D01*
X115411285Y-84661428D01*
X115339857Y-84590000D01*
X115268428Y-84447142D01*
X115268428Y-84304285D01*
X115339857Y-84161428D01*
X115411285Y-84090000D01*
X115554142Y-84018571D01*
X115839857Y-83947142D01*
X116197000Y-83947142D01*
X116482714Y-84018571D01*
X116625571Y-84090000D01*
X116697000Y-84161428D01*
X116768428Y-84304285D01*
X116625571Y-85375714D02*
X116697000Y-85447142D01*
X116768428Y-85590000D01*
X116768428Y-85947142D01*
X116697000Y-86090000D01*
X116625571Y-86161428D01*
X116482714Y-86232857D01*
X116339857Y-86232857D01*
X116125571Y-86161428D01*
X115268428Y-85304285D01*
X115268428Y-86232857D01*
X116768428Y-86732857D02*
X116768428Y-87661428D01*
X116197000Y-87161428D01*
X116197000Y-87375714D01*
X116125571Y-87518571D01*
X116054142Y-87590000D01*
X115911285Y-87661428D01*
X115554142Y-87661428D01*
X115411285Y-87590000D01*
X115339857Y-87518571D01*
X115268428Y-87375714D01*
X115268428Y-86947142D01*
X115339857Y-86804285D01*
X115411285Y-86732857D01*
D10*
X189285571Y-124222095D02*
X189285571Y-124984000D01*
X188904619Y-124603047D02*
X189666523Y-124603047D01*
X188904619Y-125984000D02*
X188904619Y-125412571D01*
X188904619Y-125698285D02*
X189904619Y-125698285D01*
X189761761Y-125603047D01*
X189666523Y-125507809D01*
X189618904Y-125412571D01*
X189809380Y-126364952D02*
X189857000Y-126412571D01*
X189904619Y-126507809D01*
X189904619Y-126745904D01*
X189857000Y-126841142D01*
X189809380Y-126888761D01*
X189714142Y-126936380D01*
X189618904Y-126936380D01*
X189476047Y-126888761D01*
X188904619Y-126317333D01*
X188904619Y-126936380D01*
X189904619Y-127222095D02*
X188904619Y-127555428D01*
X189904619Y-127888761D01*
X166044619Y-124222095D02*
X167044619Y-124222095D01*
X167044619Y-124460190D01*
X166997000Y-124603047D01*
X166901761Y-124698285D01*
X166806523Y-124745904D01*
X166616047Y-124793523D01*
X166473190Y-124793523D01*
X166282714Y-124745904D01*
X166187476Y-124698285D01*
X166092238Y-124603047D01*
X166044619Y-124460190D01*
X166044619Y-124222095D01*
X166044619Y-125793523D02*
X166520809Y-125460190D01*
X166044619Y-125222095D02*
X167044619Y-125222095D01*
X167044619Y-125603047D01*
X166997000Y-125698285D01*
X166949380Y-125745904D01*
X166854142Y-125793523D01*
X166711285Y-125793523D01*
X166616047Y-125745904D01*
X166568428Y-125698285D01*
X166520809Y-125603047D01*
X166520809Y-125222095D01*
X165949380Y-126888761D02*
X165997000Y-126793523D01*
X166092238Y-126698285D01*
X166235095Y-126555428D01*
X166282714Y-126460190D01*
X166282714Y-126364952D01*
X166044619Y-126412571D02*
X166092238Y-126317333D01*
X166187476Y-126222095D01*
X166377952Y-126174476D01*
X166711285Y-126174476D01*
X166901761Y-126222095D01*
X166997000Y-126317333D01*
X167044619Y-126412571D01*
X167044619Y-126603047D01*
X166997000Y-126698285D01*
X166901761Y-126793523D01*
X166711285Y-126841142D01*
X166377952Y-126841142D01*
X166187476Y-126793523D01*
X166092238Y-126698285D01*
X166044619Y-126603047D01*
X166044619Y-126412571D01*
X166044619Y-127793523D02*
X166044619Y-127222095D01*
X166044619Y-127507809D02*
X167044619Y-127507809D01*
X166901761Y-127412571D01*
X166806523Y-127317333D01*
X166758904Y-127222095D01*
X173664619Y-123817333D02*
X174664619Y-123817333D01*
X174664619Y-124055428D01*
X174617000Y-124198285D01*
X174521761Y-124293523D01*
X174426523Y-124341142D01*
X174236047Y-124388761D01*
X174093190Y-124388761D01*
X173902714Y-124341142D01*
X173807476Y-124293523D01*
X173712238Y-124198285D01*
X173664619Y-124055428D01*
X173664619Y-123817333D01*
X173950333Y-124769714D02*
X173950333Y-125245904D01*
X173664619Y-124674476D02*
X174664619Y-125007809D01*
X173664619Y-125341142D01*
X173759857Y-126245904D02*
X173712238Y-126198285D01*
X173664619Y-126055428D01*
X173664619Y-125960190D01*
X173712238Y-125817333D01*
X173807476Y-125722095D01*
X173902714Y-125674476D01*
X174093190Y-125626857D01*
X174236047Y-125626857D01*
X174426523Y-125674476D01*
X174521761Y-125722095D01*
X174617000Y-125817333D01*
X174664619Y-125960190D01*
X174664619Y-126055428D01*
X174617000Y-126198285D01*
X174569380Y-126245904D01*
X173664619Y-126674476D02*
X174664619Y-126674476D01*
X173664619Y-127245904D02*
X174236047Y-126817333D01*
X174664619Y-127245904D02*
X174093190Y-126674476D01*
X174664619Y-127579238D02*
X174664619Y-128198285D01*
X174283666Y-127864952D01*
X174283666Y-128007809D01*
X174236047Y-128103047D01*
X174188428Y-128150666D01*
X174093190Y-128198285D01*
X173855095Y-128198285D01*
X173759857Y-128150666D01*
X173712238Y-128103047D01*
X173664619Y-128007809D01*
X173664619Y-127722095D01*
X173712238Y-127626857D01*
X173759857Y-127579238D01*
X141168428Y-137723666D02*
X141120809Y-137866523D01*
X141073190Y-137914142D01*
X140977952Y-137961761D01*
X140835095Y-137961761D01*
X140739857Y-137914142D01*
X140692238Y-137866523D01*
X140644619Y-137771285D01*
X140644619Y-137390333D01*
X141644619Y-137390333D01*
X141644619Y-137723666D01*
X141597000Y-137818904D01*
X141549380Y-137866523D01*
X141454142Y-137914142D01*
X141358904Y-137914142D01*
X141263666Y-137866523D01*
X141216047Y-137818904D01*
X141168428Y-137723666D01*
X141168428Y-137390333D01*
X140930333Y-138342714D02*
X140930333Y-138818904D01*
X140644619Y-138247476D02*
X141644619Y-138580809D01*
X140644619Y-138914142D01*
X141644619Y-139152238D02*
X141644619Y-139771285D01*
X141263666Y-139437952D01*
X141263666Y-139580809D01*
X141216047Y-139676047D01*
X141168428Y-139723666D01*
X141073190Y-139771285D01*
X140835095Y-139771285D01*
X140739857Y-139723666D01*
X140692238Y-139676047D01*
X140644619Y-139580809D01*
X140644619Y-139295095D01*
X140692238Y-139199857D01*
X140739857Y-139152238D01*
X115244619Y-124007809D02*
X116244619Y-124007809D01*
X115244619Y-125055428D02*
X115720809Y-124722095D01*
X115244619Y-124484000D02*
X116244619Y-124484000D01*
X116244619Y-124864952D01*
X116197000Y-124960190D01*
X116149380Y-125007809D01*
X116054142Y-125055428D01*
X115911285Y-125055428D01*
X115816047Y-125007809D01*
X115768428Y-124960190D01*
X115720809Y-124864952D01*
X115720809Y-124484000D01*
X115149380Y-126150666D02*
X115197000Y-126055428D01*
X115292238Y-125960190D01*
X115435095Y-125817333D01*
X115482714Y-125722095D01*
X115482714Y-125626857D01*
X115244619Y-125674476D02*
X115292238Y-125579238D01*
X115387476Y-125484000D01*
X115577952Y-125436380D01*
X115911285Y-125436380D01*
X116101761Y-125484000D01*
X116197000Y-125579238D01*
X116244619Y-125674476D01*
X116244619Y-125864952D01*
X116197000Y-125960190D01*
X116101761Y-126055428D01*
X115911285Y-126103047D01*
X115577952Y-126103047D01*
X115387476Y-126055428D01*
X115292238Y-125960190D01*
X115244619Y-125864952D01*
X115244619Y-125674476D01*
X115244619Y-127055428D02*
X115244619Y-126484000D01*
X115244619Y-126769714D02*
X116244619Y-126769714D01*
X116101761Y-126674476D01*
X116006523Y-126579238D01*
X115958904Y-126484000D01*
X115244619Y-128007809D02*
X115244619Y-127436380D01*
X115244619Y-127722095D02*
X116244619Y-127722095D01*
X116101761Y-127626857D01*
X116006523Y-127531619D01*
X115958904Y-127436380D01*
X168584619Y-123817333D02*
X169584619Y-123817333D01*
X169584619Y-124055428D01*
X169537000Y-124198285D01*
X169441761Y-124293523D01*
X169346523Y-124341142D01*
X169156047Y-124388761D01*
X169013190Y-124388761D01*
X168822714Y-124341142D01*
X168727476Y-124293523D01*
X168632238Y-124198285D01*
X168584619Y-124055428D01*
X168584619Y-123817333D01*
X168870333Y-124769714D02*
X168870333Y-125245904D01*
X168584619Y-124674476D02*
X169584619Y-125007809D01*
X168584619Y-125341142D01*
X168679857Y-126245904D02*
X168632238Y-126198285D01*
X168584619Y-126055428D01*
X168584619Y-125960190D01*
X168632238Y-125817333D01*
X168727476Y-125722095D01*
X168822714Y-125674476D01*
X169013190Y-125626857D01*
X169156047Y-125626857D01*
X169346523Y-125674476D01*
X169441761Y-125722095D01*
X169537000Y-125817333D01*
X169584619Y-125960190D01*
X169584619Y-126055428D01*
X169537000Y-126198285D01*
X169489380Y-126245904D01*
X168584619Y-126674476D02*
X169584619Y-126674476D01*
X168584619Y-127245904D02*
X169156047Y-126817333D01*
X169584619Y-127245904D02*
X169013190Y-126674476D01*
X168584619Y-128198285D02*
X168584619Y-127626857D01*
X168584619Y-127912571D02*
X169584619Y-127912571D01*
X169441761Y-127817333D01*
X169346523Y-127722095D01*
X169298904Y-127626857D01*
X194365571Y-124222095D02*
X194365571Y-124984000D01*
X193984619Y-125984000D02*
X193984619Y-125412571D01*
X193984619Y-125698285D02*
X194984619Y-125698285D01*
X194841761Y-125603047D01*
X194746523Y-125507809D01*
X194698904Y-125412571D01*
X194889380Y-126364952D02*
X194937000Y-126412571D01*
X194984619Y-126507809D01*
X194984619Y-126745904D01*
X194937000Y-126841142D01*
X194889380Y-126888761D01*
X194794142Y-126936380D01*
X194698904Y-126936380D01*
X194556047Y-126888761D01*
X193984619Y-126317333D01*
X193984619Y-126936380D01*
X194984619Y-127222095D02*
X193984619Y-127555428D01*
X194984619Y-127888761D01*
X181808428Y-137247476D02*
X181760809Y-137390333D01*
X181713190Y-137437952D01*
X181617952Y-137485571D01*
X181475095Y-137485571D01*
X181379857Y-137437952D01*
X181332238Y-137390333D01*
X181284619Y-137295095D01*
X181284619Y-136914142D01*
X182284619Y-136914142D01*
X182284619Y-137247476D01*
X182237000Y-137342714D01*
X182189380Y-137390333D01*
X182094142Y-137437952D01*
X181998904Y-137437952D01*
X181903666Y-137390333D01*
X181856047Y-137342714D01*
X181808428Y-137247476D01*
X181808428Y-136914142D01*
X181570333Y-137866523D02*
X181570333Y-138342714D01*
X181284619Y-137771285D02*
X182284619Y-138104619D01*
X181284619Y-138437952D01*
X181284619Y-139295095D02*
X181284619Y-138723666D01*
X181284619Y-139009380D02*
X182284619Y-139009380D01*
X182141761Y-138914142D01*
X182046523Y-138818904D01*
X181998904Y-138723666D01*
X181284619Y-139771285D02*
X181284619Y-139961761D01*
X181332238Y-140057000D01*
X181379857Y-140104619D01*
X181522714Y-140199857D01*
X181713190Y-140247476D01*
X182094142Y-140247476D01*
X182189380Y-140199857D01*
X182237000Y-140152238D01*
X182284619Y-140057000D01*
X182284619Y-139866523D01*
X182237000Y-139771285D01*
X182189380Y-139723666D01*
X182094142Y-139676047D01*
X181856047Y-139676047D01*
X181760809Y-139723666D01*
X181713190Y-139771285D01*
X181665571Y-139866523D01*
X181665571Y-140057000D01*
X181713190Y-140152238D01*
X181760809Y-140199857D01*
X181856047Y-140247476D01*
X183824619Y-67794428D02*
X184824619Y-67794428D01*
X184110333Y-68127761D01*
X184824619Y-68461095D01*
X183824619Y-68461095D01*
X184348428Y-68937285D02*
X184348428Y-69270619D01*
X183824619Y-69413476D02*
X183824619Y-68937285D01*
X184824619Y-68937285D01*
X184824619Y-69413476D01*
X183824619Y-69842047D02*
X184824619Y-69842047D01*
X184110333Y-70175380D01*
X184824619Y-70508714D01*
X183824619Y-70508714D01*
X184824619Y-70889666D02*
X183824619Y-71127761D01*
X184538904Y-71318238D01*
X183824619Y-71508714D01*
X184824619Y-71746809D01*
X210177000Y-68961095D02*
X210224619Y-68865857D01*
X210224619Y-68723000D01*
X210177000Y-68580142D01*
X210081761Y-68484904D01*
X209986523Y-68437285D01*
X209796047Y-68389666D01*
X209653190Y-68389666D01*
X209462714Y-68437285D01*
X209367476Y-68484904D01*
X209272238Y-68580142D01*
X209224619Y-68723000D01*
X209224619Y-68818238D01*
X209272238Y-68961095D01*
X209319857Y-69008714D01*
X209653190Y-69008714D01*
X209653190Y-68818238D01*
X209224619Y-69437285D02*
X210224619Y-69437285D01*
X209224619Y-70008714D01*
X210224619Y-70008714D01*
X209224619Y-70484904D02*
X210224619Y-70484904D01*
X210224619Y-70723000D01*
X210177000Y-70865857D01*
X210081761Y-70961095D01*
X209986523Y-71008714D01*
X209796047Y-71056333D01*
X209653190Y-71056333D01*
X209462714Y-71008714D01*
X209367476Y-70961095D01*
X209272238Y-70865857D01*
X209224619Y-70723000D01*
X209224619Y-70484904D01*
X102544619Y-136699857D02*
X103544619Y-136699857D01*
X102830333Y-137033190D01*
X103544619Y-137366523D01*
X102544619Y-137366523D01*
X103068428Y-137842714D02*
X103068428Y-138176047D01*
X102544619Y-138318904D02*
X102544619Y-137842714D01*
X103544619Y-137842714D01*
X103544619Y-138318904D01*
X102544619Y-138747476D02*
X103544619Y-138747476D01*
X102830333Y-139080809D01*
X103544619Y-139414142D01*
X102544619Y-139414142D01*
X102544619Y-140461761D02*
X103020809Y-140128428D01*
X102544619Y-139890333D02*
X103544619Y-139890333D01*
X103544619Y-140271285D01*
X103497000Y-140366523D01*
X103449380Y-140414142D01*
X103354142Y-140461761D01*
X103211285Y-140461761D01*
X103116047Y-140414142D01*
X103068428Y-140366523D01*
X103020809Y-140271285D01*
X103020809Y-139890333D01*
X204525571Y-124698285D02*
X204525571Y-125460190D01*
X204144619Y-125079238D02*
X204906523Y-125079238D01*
X205144619Y-126412571D02*
X205144619Y-125936380D01*
X204668428Y-125888761D01*
X204716047Y-125936380D01*
X204763666Y-126031619D01*
X204763666Y-126269714D01*
X204716047Y-126364952D01*
X204668428Y-126412571D01*
X204573190Y-126460190D01*
X204335095Y-126460190D01*
X204239857Y-126412571D01*
X204192238Y-126364952D01*
X204144619Y-126269714D01*
X204144619Y-126031619D01*
X204192238Y-125936380D01*
X204239857Y-125888761D01*
X205144619Y-126745904D02*
X204144619Y-127079238D01*
X205144619Y-127412571D01*
X166044619Y-67961095D02*
X167044619Y-67961095D01*
X167044619Y-68199190D01*
X166997000Y-68342047D01*
X166901761Y-68437285D01*
X166806523Y-68484904D01*
X166616047Y-68532523D01*
X166473190Y-68532523D01*
X166282714Y-68484904D01*
X166187476Y-68437285D01*
X166092238Y-68342047D01*
X166044619Y-68199190D01*
X166044619Y-67961095D01*
X166044619Y-69532523D02*
X166520809Y-69199190D01*
X166044619Y-68961095D02*
X167044619Y-68961095D01*
X167044619Y-69342047D01*
X166997000Y-69437285D01*
X166949380Y-69484904D01*
X166854142Y-69532523D01*
X166711285Y-69532523D01*
X166616047Y-69484904D01*
X166568428Y-69437285D01*
X166520809Y-69342047D01*
X166520809Y-68961095D01*
X165949380Y-70627761D02*
X165997000Y-70532523D01*
X166092238Y-70437285D01*
X166235095Y-70294428D01*
X166282714Y-70199190D01*
X166282714Y-70103952D01*
X166044619Y-70151571D02*
X166092238Y-70056333D01*
X166187476Y-69961095D01*
X166377952Y-69913476D01*
X166711285Y-69913476D01*
X166901761Y-69961095D01*
X166997000Y-70056333D01*
X167044619Y-70151571D01*
X167044619Y-70342047D01*
X166997000Y-70437285D01*
X166901761Y-70532523D01*
X166711285Y-70580142D01*
X166377952Y-70580142D01*
X166187476Y-70532523D01*
X166092238Y-70437285D01*
X166044619Y-70342047D01*
X166044619Y-70151571D01*
X166044619Y-71532523D02*
X166044619Y-70961095D01*
X166044619Y-71246809D02*
X167044619Y-71246809D01*
X166901761Y-71151571D01*
X166806523Y-71056333D01*
X166758904Y-70961095D01*
X117784619Y-124007809D02*
X118784619Y-124007809D01*
X117784619Y-125055428D02*
X118260809Y-124722095D01*
X117784619Y-124484000D02*
X118784619Y-124484000D01*
X118784619Y-124864952D01*
X118737000Y-124960190D01*
X118689380Y-125007809D01*
X118594142Y-125055428D01*
X118451285Y-125055428D01*
X118356047Y-125007809D01*
X118308428Y-124960190D01*
X118260809Y-124864952D01*
X118260809Y-124484000D01*
X117689380Y-126150666D02*
X117737000Y-126055428D01*
X117832238Y-125960190D01*
X117975095Y-125817333D01*
X118022714Y-125722095D01*
X118022714Y-125626857D01*
X117784619Y-125674476D02*
X117832238Y-125579238D01*
X117927476Y-125484000D01*
X118117952Y-125436380D01*
X118451285Y-125436380D01*
X118641761Y-125484000D01*
X118737000Y-125579238D01*
X118784619Y-125674476D01*
X118784619Y-125864952D01*
X118737000Y-125960190D01*
X118641761Y-126055428D01*
X118451285Y-126103047D01*
X118117952Y-126103047D01*
X117927476Y-126055428D01*
X117832238Y-125960190D01*
X117784619Y-125864952D01*
X117784619Y-125674476D01*
X117784619Y-127055428D02*
X117784619Y-126484000D01*
X117784619Y-126769714D02*
X118784619Y-126769714D01*
X118641761Y-126674476D01*
X118546523Y-126579238D01*
X118498904Y-126484000D01*
X118784619Y-127674476D02*
X118784619Y-127769714D01*
X118737000Y-127864952D01*
X118689380Y-127912571D01*
X118594142Y-127960190D01*
X118403666Y-128007809D01*
X118165571Y-128007809D01*
X117975095Y-127960190D01*
X117879857Y-127912571D01*
X117832238Y-127864952D01*
X117784619Y-127769714D01*
X117784619Y-127674476D01*
X117832238Y-127579238D01*
X117879857Y-127531619D01*
X117975095Y-127484000D01*
X118165571Y-127436380D01*
X118403666Y-127436380D01*
X118594142Y-127484000D01*
X118689380Y-127531619D01*
X118737000Y-127579238D01*
X118784619Y-127674476D01*
X155884619Y-68223000D02*
X156884619Y-68223000D01*
X155884619Y-69270619D02*
X156360809Y-68937285D01*
X155884619Y-68699190D02*
X156884619Y-68699190D01*
X156884619Y-69080142D01*
X156837000Y-69175380D01*
X156789380Y-69223000D01*
X156694142Y-69270619D01*
X156551285Y-69270619D01*
X156456047Y-69223000D01*
X156408428Y-69175380D01*
X156360809Y-69080142D01*
X156360809Y-68699190D01*
X155789380Y-70365857D02*
X155837000Y-70270619D01*
X155932238Y-70175380D01*
X156075095Y-70032523D01*
X156122714Y-69937285D01*
X156122714Y-69842047D01*
X155884619Y-69889666D02*
X155932238Y-69794428D01*
X156027476Y-69699190D01*
X156217952Y-69651571D01*
X156551285Y-69651571D01*
X156741761Y-69699190D01*
X156837000Y-69794428D01*
X156884619Y-69889666D01*
X156884619Y-70080142D01*
X156837000Y-70175380D01*
X156741761Y-70270619D01*
X156551285Y-70318238D01*
X156217952Y-70318238D01*
X156027476Y-70270619D01*
X155932238Y-70175380D01*
X155884619Y-70080142D01*
X155884619Y-69889666D01*
X156884619Y-71175380D02*
X156884619Y-70984904D01*
X156837000Y-70889666D01*
X156789380Y-70842047D01*
X156646523Y-70746809D01*
X156456047Y-70699190D01*
X156075095Y-70699190D01*
X155979857Y-70746809D01*
X155932238Y-70794428D01*
X155884619Y-70889666D01*
X155884619Y-71080142D01*
X155932238Y-71175380D01*
X155979857Y-71223000D01*
X156075095Y-71270619D01*
X156313190Y-71270619D01*
X156408428Y-71223000D01*
X156456047Y-71175380D01*
X156503666Y-71080142D01*
X156503666Y-70889666D01*
X156456047Y-70794428D01*
X156408428Y-70746809D01*
X156313190Y-70699190D01*
X204525571Y-68437285D02*
X204525571Y-69199190D01*
X204144619Y-68818238D02*
X204906523Y-68818238D01*
X205144619Y-70151571D02*
X205144619Y-69675380D01*
X204668428Y-69627761D01*
X204716047Y-69675380D01*
X204763666Y-69770619D01*
X204763666Y-70008714D01*
X204716047Y-70103952D01*
X204668428Y-70151571D01*
X204573190Y-70199190D01*
X204335095Y-70199190D01*
X204239857Y-70151571D01*
X204192238Y-70103952D01*
X204144619Y-70008714D01*
X204144619Y-69770619D01*
X204192238Y-69675380D01*
X204239857Y-69627761D01*
X205144619Y-70484904D02*
X204144619Y-70818238D01*
X205144619Y-71151571D01*
X188904619Y-54641904D02*
X189904619Y-54641904D01*
X189904619Y-54880000D01*
X189857000Y-55022857D01*
X189761761Y-55118095D01*
X189666523Y-55165714D01*
X189476047Y-55213333D01*
X189333190Y-55213333D01*
X189142714Y-55165714D01*
X189047476Y-55118095D01*
X188952238Y-55022857D01*
X188904619Y-54880000D01*
X188904619Y-54641904D01*
X189428428Y-55975238D02*
X189380809Y-56118095D01*
X189333190Y-56165714D01*
X189237952Y-56213333D01*
X189095095Y-56213333D01*
X188999857Y-56165714D01*
X188952238Y-56118095D01*
X188904619Y-56022857D01*
X188904619Y-55641904D01*
X189904619Y-55641904D01*
X189904619Y-55975238D01*
X189857000Y-56070476D01*
X189809380Y-56118095D01*
X189714142Y-56165714D01*
X189618904Y-56165714D01*
X189523666Y-56118095D01*
X189476047Y-56070476D01*
X189428428Y-55975238D01*
X189428428Y-55641904D01*
X189904619Y-56832380D02*
X189904619Y-56927619D01*
X189857000Y-57022857D01*
X189809380Y-57070476D01*
X189714142Y-57118095D01*
X189523666Y-57165714D01*
X189285571Y-57165714D01*
X189095095Y-57118095D01*
X188999857Y-57070476D01*
X188952238Y-57022857D01*
X188904619Y-56927619D01*
X188904619Y-56832380D01*
X188952238Y-56737142D01*
X188999857Y-56689523D01*
X189095095Y-56641904D01*
X189285571Y-56594285D01*
X189523666Y-56594285D01*
X189714142Y-56641904D01*
X189809380Y-56689523D01*
X189857000Y-56737142D01*
X189904619Y-56832380D01*
X105084619Y-137485571D02*
X105084619Y-137009380D01*
X106084619Y-137009380D01*
X105370333Y-137771285D02*
X105370333Y-138247476D01*
X105084619Y-137676047D02*
X106084619Y-138009380D01*
X105084619Y-138342714D01*
X105084619Y-139199857D02*
X105084619Y-138628428D01*
X105084619Y-138914142D02*
X106084619Y-138914142D01*
X105941761Y-138818904D01*
X105846523Y-138723666D01*
X105798904Y-138628428D01*
X106084619Y-139533190D02*
X106084619Y-140199857D01*
X105084619Y-139771285D01*
X131437000Y-68961095D02*
X131484619Y-68865857D01*
X131484619Y-68723000D01*
X131437000Y-68580142D01*
X131341761Y-68484904D01*
X131246523Y-68437285D01*
X131056047Y-68389666D01*
X130913190Y-68389666D01*
X130722714Y-68437285D01*
X130627476Y-68484904D01*
X130532238Y-68580142D01*
X130484619Y-68723000D01*
X130484619Y-68818238D01*
X130532238Y-68961095D01*
X130579857Y-69008714D01*
X130913190Y-69008714D01*
X130913190Y-68818238D01*
X130484619Y-69437285D02*
X131484619Y-69437285D01*
X130484619Y-70008714D01*
X131484619Y-70008714D01*
X130484619Y-70484904D02*
X131484619Y-70484904D01*
X131484619Y-70723000D01*
X131437000Y-70865857D01*
X131341761Y-70961095D01*
X131246523Y-71008714D01*
X131056047Y-71056333D01*
X130913190Y-71056333D01*
X130722714Y-71008714D01*
X130627476Y-70961095D01*
X130532238Y-70865857D01*
X130484619Y-70723000D01*
X130484619Y-70484904D01*
X171124619Y-67961095D02*
X172124619Y-67961095D01*
X172124619Y-68199190D01*
X172077000Y-68342047D01*
X171981761Y-68437285D01*
X171886523Y-68484904D01*
X171696047Y-68532523D01*
X171553190Y-68532523D01*
X171362714Y-68484904D01*
X171267476Y-68437285D01*
X171172238Y-68342047D01*
X171124619Y-68199190D01*
X171124619Y-67961095D01*
X171124619Y-69532523D02*
X171600809Y-69199190D01*
X171124619Y-68961095D02*
X172124619Y-68961095D01*
X172124619Y-69342047D01*
X172077000Y-69437285D01*
X172029380Y-69484904D01*
X171934142Y-69532523D01*
X171791285Y-69532523D01*
X171696047Y-69484904D01*
X171648428Y-69437285D01*
X171600809Y-69342047D01*
X171600809Y-68961095D01*
X171029380Y-70627761D02*
X171077000Y-70532523D01*
X171172238Y-70437285D01*
X171315095Y-70294428D01*
X171362714Y-70199190D01*
X171362714Y-70103952D01*
X171124619Y-70151571D02*
X171172238Y-70056333D01*
X171267476Y-69961095D01*
X171457952Y-69913476D01*
X171791285Y-69913476D01*
X171981761Y-69961095D01*
X172077000Y-70056333D01*
X172124619Y-70151571D01*
X172124619Y-70342047D01*
X172077000Y-70437285D01*
X171981761Y-70532523D01*
X171791285Y-70580142D01*
X171457952Y-70580142D01*
X171267476Y-70532523D01*
X171172238Y-70437285D01*
X171124619Y-70342047D01*
X171124619Y-70151571D01*
X172124619Y-70913476D02*
X172124619Y-71532523D01*
X171743666Y-71199190D01*
X171743666Y-71342047D01*
X171696047Y-71437285D01*
X171648428Y-71484904D01*
X171553190Y-71532523D01*
X171315095Y-71532523D01*
X171219857Y-71484904D01*
X171172238Y-71437285D01*
X171124619Y-71342047D01*
X171124619Y-71056333D01*
X171172238Y-70961095D01*
X171219857Y-70913476D01*
X135945571Y-61452285D02*
X135945571Y-62214190D01*
X135564619Y-61833238D02*
X136326523Y-61833238D01*
X136564619Y-63166571D02*
X136564619Y-62690380D01*
X136088428Y-62642761D01*
X136136047Y-62690380D01*
X136183666Y-62785619D01*
X136183666Y-63023714D01*
X136136047Y-63118952D01*
X136088428Y-63166571D01*
X135993190Y-63214190D01*
X135755095Y-63214190D01*
X135659857Y-63166571D01*
X135612238Y-63118952D01*
X135564619Y-63023714D01*
X135564619Y-62785619D01*
X135612238Y-62690380D01*
X135659857Y-62642761D01*
X136564619Y-63499904D02*
X135564619Y-63833238D01*
X136564619Y-64166571D01*
X80637000Y-125222095D02*
X80684619Y-125126857D01*
X80684619Y-124984000D01*
X80637000Y-124841142D01*
X80541761Y-124745904D01*
X80446523Y-124698285D01*
X80256047Y-124650666D01*
X80113190Y-124650666D01*
X79922714Y-124698285D01*
X79827476Y-124745904D01*
X79732238Y-124841142D01*
X79684619Y-124984000D01*
X79684619Y-125079238D01*
X79732238Y-125222095D01*
X79779857Y-125269714D01*
X80113190Y-125269714D01*
X80113190Y-125079238D01*
X79684619Y-125698285D02*
X80684619Y-125698285D01*
X79684619Y-126269714D01*
X80684619Y-126269714D01*
X79684619Y-126745904D02*
X80684619Y-126745904D01*
X80684619Y-126984000D01*
X80637000Y-127126857D01*
X80541761Y-127222095D01*
X80446523Y-127269714D01*
X80256047Y-127317333D01*
X80113190Y-127317333D01*
X79922714Y-127269714D01*
X79827476Y-127222095D01*
X79732238Y-127126857D01*
X79684619Y-126984000D01*
X79684619Y-126745904D01*
X188904619Y-60896714D02*
X189904619Y-60896714D01*
X189904619Y-61134809D01*
X189857000Y-61277666D01*
X189761761Y-61372904D01*
X189666523Y-61420523D01*
X189476047Y-61468142D01*
X189333190Y-61468142D01*
X189142714Y-61420523D01*
X189047476Y-61372904D01*
X188952238Y-61277666D01*
X188904619Y-61134809D01*
X188904619Y-60896714D01*
X189428428Y-62230047D02*
X189380809Y-62372904D01*
X189333190Y-62420523D01*
X189237952Y-62468142D01*
X189095095Y-62468142D01*
X188999857Y-62420523D01*
X188952238Y-62372904D01*
X188904619Y-62277666D01*
X188904619Y-61896714D01*
X189904619Y-61896714D01*
X189904619Y-62230047D01*
X189857000Y-62325285D01*
X189809380Y-62372904D01*
X189714142Y-62420523D01*
X189618904Y-62420523D01*
X189523666Y-62372904D01*
X189476047Y-62325285D01*
X189428428Y-62230047D01*
X189428428Y-61896714D01*
X188904619Y-63420523D02*
X188904619Y-62849095D01*
X188904619Y-63134809D02*
X189904619Y-63134809D01*
X189761761Y-63039571D01*
X189666523Y-62944333D01*
X189618904Y-62849095D01*
X189904619Y-64325285D02*
X189904619Y-63849095D01*
X189428428Y-63801476D01*
X189476047Y-63849095D01*
X189523666Y-63944333D01*
X189523666Y-64182428D01*
X189476047Y-64277666D01*
X189428428Y-64325285D01*
X189333190Y-64372904D01*
X189095095Y-64372904D01*
X188999857Y-64325285D01*
X188952238Y-64277666D01*
X188904619Y-64182428D01*
X188904619Y-63944333D01*
X188952238Y-63849095D01*
X188999857Y-63801476D01*
X181284619Y-67865857D02*
X182284619Y-67865857D01*
X181570333Y-68199190D01*
X182284619Y-68532523D01*
X181284619Y-68532523D01*
X181808428Y-69008714D02*
X181808428Y-69342047D01*
X181284619Y-69484904D02*
X181284619Y-69008714D01*
X182284619Y-69008714D01*
X182284619Y-69484904D01*
X181284619Y-69913476D02*
X182284619Y-69913476D01*
X181570333Y-70246809D01*
X182284619Y-70580142D01*
X181284619Y-70580142D01*
X181284619Y-71627761D02*
X181760809Y-71294428D01*
X181284619Y-71056333D02*
X182284619Y-71056333D01*
X182284619Y-71437285D01*
X182237000Y-71532523D01*
X182189380Y-71580142D01*
X182094142Y-71627761D01*
X181951285Y-71627761D01*
X181856047Y-71580142D01*
X181808428Y-71532523D01*
X181760809Y-71437285D01*
X181760809Y-71056333D01*
X206684619Y-54641904D02*
X207684619Y-54641904D01*
X207684619Y-54880000D01*
X207637000Y-55022857D01*
X207541761Y-55118095D01*
X207446523Y-55165714D01*
X207256047Y-55213333D01*
X207113190Y-55213333D01*
X206922714Y-55165714D01*
X206827476Y-55118095D01*
X206732238Y-55022857D01*
X206684619Y-54880000D01*
X206684619Y-54641904D01*
X207208428Y-55975238D02*
X207160809Y-56118095D01*
X207113190Y-56165714D01*
X207017952Y-56213333D01*
X206875095Y-56213333D01*
X206779857Y-56165714D01*
X206732238Y-56118095D01*
X206684619Y-56022857D01*
X206684619Y-55641904D01*
X207684619Y-55641904D01*
X207684619Y-55975238D01*
X207637000Y-56070476D01*
X207589380Y-56118095D01*
X207494142Y-56165714D01*
X207398904Y-56165714D01*
X207303666Y-56118095D01*
X207256047Y-56070476D01*
X207208428Y-55975238D01*
X207208428Y-55641904D01*
X207684619Y-56546666D02*
X207684619Y-57213333D01*
X206684619Y-56784761D01*
X161488428Y-54570476D02*
X161440809Y-54713333D01*
X161393190Y-54760952D01*
X161297952Y-54808571D01*
X161155095Y-54808571D01*
X161059857Y-54760952D01*
X161012238Y-54713333D01*
X160964619Y-54618095D01*
X160964619Y-54237142D01*
X161964619Y-54237142D01*
X161964619Y-54570476D01*
X161917000Y-54665714D01*
X161869380Y-54713333D01*
X161774142Y-54760952D01*
X161678904Y-54760952D01*
X161583666Y-54713333D01*
X161536047Y-54665714D01*
X161488428Y-54570476D01*
X161488428Y-54237142D01*
X161250333Y-55189523D02*
X161250333Y-55665714D01*
X160964619Y-55094285D02*
X161964619Y-55427619D01*
X160964619Y-55760952D01*
X160964619Y-56618095D02*
X160964619Y-56046666D01*
X160964619Y-56332380D02*
X161964619Y-56332380D01*
X161821761Y-56237142D01*
X161726523Y-56141904D01*
X161678904Y-56046666D01*
X160964619Y-57570476D02*
X160964619Y-56999047D01*
X160964619Y-57284761D02*
X161964619Y-57284761D01*
X161821761Y-57189523D01*
X161726523Y-57094285D01*
X161678904Y-56999047D01*
D11*
X105096142Y-104604428D02*
X105096142Y-105604428D01*
X105096142Y-105318714D02*
X105024714Y-105461571D01*
X104953285Y-105533000D01*
X104810428Y-105604428D01*
X104667571Y-105604428D01*
X103596142Y-104675857D02*
X103739000Y-104604428D01*
X104024714Y-104604428D01*
X104167571Y-104675857D01*
X104239000Y-104818714D01*
X104239000Y-105390142D01*
X104167571Y-105533000D01*
X104024714Y-105604428D01*
X103739000Y-105604428D01*
X103596142Y-105533000D01*
X103524714Y-105390142D01*
X103524714Y-105247285D01*
X104239000Y-105104428D01*
X103024714Y-105604428D02*
X102667571Y-104604428D01*
X102310428Y-105604428D01*
X99810428Y-104604428D02*
X100667571Y-104604428D01*
X100239000Y-104604428D02*
X100239000Y-106104428D01*
X100381857Y-105890142D01*
X100524714Y-105747285D01*
X100667571Y-105675857D01*
D10*
X199064619Y-60896714D02*
X200064619Y-60896714D01*
X200064619Y-61134809D01*
X200017000Y-61277666D01*
X199921761Y-61372904D01*
X199826523Y-61420523D01*
X199636047Y-61468142D01*
X199493190Y-61468142D01*
X199302714Y-61420523D01*
X199207476Y-61372904D01*
X199112238Y-61277666D01*
X199064619Y-61134809D01*
X199064619Y-60896714D01*
X199588428Y-62230047D02*
X199540809Y-62372904D01*
X199493190Y-62420523D01*
X199397952Y-62468142D01*
X199255095Y-62468142D01*
X199159857Y-62420523D01*
X199112238Y-62372904D01*
X199064619Y-62277666D01*
X199064619Y-61896714D01*
X200064619Y-61896714D01*
X200064619Y-62230047D01*
X200017000Y-62325285D01*
X199969380Y-62372904D01*
X199874142Y-62420523D01*
X199778904Y-62420523D01*
X199683666Y-62372904D01*
X199636047Y-62325285D01*
X199588428Y-62230047D01*
X199588428Y-61896714D01*
X199064619Y-63420523D02*
X199064619Y-62849095D01*
X199064619Y-63134809D02*
X200064619Y-63134809D01*
X199921761Y-63039571D01*
X199826523Y-62944333D01*
X199778904Y-62849095D01*
X199064619Y-64372904D02*
X199064619Y-63801476D01*
X199064619Y-64087190D02*
X200064619Y-64087190D01*
X199921761Y-63991952D01*
X199826523Y-63896714D01*
X199778904Y-63801476D01*
X173664619Y-67556333D02*
X174664619Y-67556333D01*
X174664619Y-67794428D01*
X174617000Y-67937285D01*
X174521761Y-68032523D01*
X174426523Y-68080142D01*
X174236047Y-68127761D01*
X174093190Y-68127761D01*
X173902714Y-68080142D01*
X173807476Y-68032523D01*
X173712238Y-67937285D01*
X173664619Y-67794428D01*
X173664619Y-67556333D01*
X173950333Y-68508714D02*
X173950333Y-68984904D01*
X173664619Y-68413476D02*
X174664619Y-68746809D01*
X173664619Y-69080142D01*
X173759857Y-69984904D02*
X173712238Y-69937285D01*
X173664619Y-69794428D01*
X173664619Y-69699190D01*
X173712238Y-69556333D01*
X173807476Y-69461095D01*
X173902714Y-69413476D01*
X174093190Y-69365857D01*
X174236047Y-69365857D01*
X174426523Y-69413476D01*
X174521761Y-69461095D01*
X174617000Y-69556333D01*
X174664619Y-69699190D01*
X174664619Y-69794428D01*
X174617000Y-69937285D01*
X174569380Y-69984904D01*
X173664619Y-70413476D02*
X174664619Y-70413476D01*
X173664619Y-70984904D02*
X174236047Y-70556333D01*
X174664619Y-70984904D02*
X174093190Y-70413476D01*
X174664619Y-71318238D02*
X174664619Y-71937285D01*
X174283666Y-71603952D01*
X174283666Y-71746809D01*
X174236047Y-71842047D01*
X174188428Y-71889666D01*
X174093190Y-71937285D01*
X173855095Y-71937285D01*
X173759857Y-71889666D01*
X173712238Y-71842047D01*
X173664619Y-71746809D01*
X173664619Y-71461095D01*
X173712238Y-71365857D01*
X173759857Y-71318238D01*
X148264619Y-60761809D02*
X149264619Y-60761809D01*
X148264619Y-61809428D02*
X148740809Y-61476095D01*
X148264619Y-61238000D02*
X149264619Y-61238000D01*
X149264619Y-61618952D01*
X149217000Y-61714190D01*
X149169380Y-61761809D01*
X149074142Y-61809428D01*
X148931285Y-61809428D01*
X148836047Y-61761809D01*
X148788428Y-61714190D01*
X148740809Y-61618952D01*
X148740809Y-61238000D01*
X148169380Y-62904666D02*
X148217000Y-62809428D01*
X148312238Y-62714190D01*
X148455095Y-62571333D01*
X148502714Y-62476095D01*
X148502714Y-62380857D01*
X148264619Y-62428476D02*
X148312238Y-62333238D01*
X148407476Y-62238000D01*
X148597952Y-62190380D01*
X148931285Y-62190380D01*
X149121761Y-62238000D01*
X149217000Y-62333238D01*
X149264619Y-62428476D01*
X149264619Y-62618952D01*
X149217000Y-62714190D01*
X149121761Y-62809428D01*
X148931285Y-62857047D01*
X148597952Y-62857047D01*
X148407476Y-62809428D01*
X148312238Y-62714190D01*
X148264619Y-62618952D01*
X148264619Y-62428476D01*
X148264619Y-63809428D02*
X148264619Y-63238000D01*
X148264619Y-63523714D02*
X149264619Y-63523714D01*
X149121761Y-63428476D01*
X149026523Y-63333238D01*
X148978904Y-63238000D01*
X148931285Y-64666571D02*
X148264619Y-64666571D01*
X149312238Y-64428476D02*
X148597952Y-64190380D01*
X148597952Y-64809428D01*
X107624619Y-124007809D02*
X108624619Y-124007809D01*
X107624619Y-125055428D02*
X108100809Y-124722095D01*
X107624619Y-124484000D02*
X108624619Y-124484000D01*
X108624619Y-124864952D01*
X108577000Y-124960190D01*
X108529380Y-125007809D01*
X108434142Y-125055428D01*
X108291285Y-125055428D01*
X108196047Y-125007809D01*
X108148428Y-124960190D01*
X108100809Y-124864952D01*
X108100809Y-124484000D01*
X107529380Y-126150666D02*
X107577000Y-126055428D01*
X107672238Y-125960190D01*
X107815095Y-125817333D01*
X107862714Y-125722095D01*
X107862714Y-125626857D01*
X107624619Y-125674476D02*
X107672238Y-125579238D01*
X107767476Y-125484000D01*
X107957952Y-125436380D01*
X108291285Y-125436380D01*
X108481761Y-125484000D01*
X108577000Y-125579238D01*
X108624619Y-125674476D01*
X108624619Y-125864952D01*
X108577000Y-125960190D01*
X108481761Y-126055428D01*
X108291285Y-126103047D01*
X107957952Y-126103047D01*
X107767476Y-126055428D01*
X107672238Y-125960190D01*
X107624619Y-125864952D01*
X107624619Y-125674476D01*
X107624619Y-127055428D02*
X107624619Y-126484000D01*
X107624619Y-126769714D02*
X108624619Y-126769714D01*
X108481761Y-126674476D01*
X108386523Y-126579238D01*
X108338904Y-126484000D01*
X108291285Y-127912571D02*
X107624619Y-127912571D01*
X108672238Y-127674476D02*
X107957952Y-127436380D01*
X107957952Y-128055428D01*
X102544619Y-124222095D02*
X103544619Y-124222095D01*
X103544619Y-124460190D01*
X103497000Y-124603047D01*
X103401761Y-124698285D01*
X103306523Y-124745904D01*
X103116047Y-124793523D01*
X102973190Y-124793523D01*
X102782714Y-124745904D01*
X102687476Y-124698285D01*
X102592238Y-124603047D01*
X102544619Y-124460190D01*
X102544619Y-124222095D01*
X102544619Y-125793523D02*
X103020809Y-125460190D01*
X102544619Y-125222095D02*
X103544619Y-125222095D01*
X103544619Y-125603047D01*
X103497000Y-125698285D01*
X103449380Y-125745904D01*
X103354142Y-125793523D01*
X103211285Y-125793523D01*
X103116047Y-125745904D01*
X103068428Y-125698285D01*
X103020809Y-125603047D01*
X103020809Y-125222095D01*
X102449380Y-126888761D02*
X102497000Y-126793523D01*
X102592238Y-126698285D01*
X102735095Y-126555428D01*
X102782714Y-126460190D01*
X102782714Y-126364952D01*
X102544619Y-126412571D02*
X102592238Y-126317333D01*
X102687476Y-126222095D01*
X102877952Y-126174476D01*
X103211285Y-126174476D01*
X103401761Y-126222095D01*
X103497000Y-126317333D01*
X103544619Y-126412571D01*
X103544619Y-126603047D01*
X103497000Y-126698285D01*
X103401761Y-126793523D01*
X103211285Y-126841142D01*
X102877952Y-126841142D01*
X102687476Y-126793523D01*
X102592238Y-126698285D01*
X102544619Y-126603047D01*
X102544619Y-126412571D01*
X103544619Y-127460190D02*
X103544619Y-127555428D01*
X103497000Y-127650666D01*
X103449380Y-127698285D01*
X103354142Y-127745904D01*
X103163666Y-127793523D01*
X102925571Y-127793523D01*
X102735095Y-127745904D01*
X102639857Y-127698285D01*
X102592238Y-127650666D01*
X102544619Y-127555428D01*
X102544619Y-127460190D01*
X102592238Y-127364952D01*
X102639857Y-127317333D01*
X102735095Y-127269714D01*
X102925571Y-127222095D01*
X103163666Y-127222095D01*
X103354142Y-127269714D01*
X103449380Y-127317333D01*
X103497000Y-127364952D01*
X103544619Y-127460190D01*
X187317000Y-68961095D02*
X187364619Y-68865857D01*
X187364619Y-68723000D01*
X187317000Y-68580142D01*
X187221761Y-68484904D01*
X187126523Y-68437285D01*
X186936047Y-68389666D01*
X186793190Y-68389666D01*
X186602714Y-68437285D01*
X186507476Y-68484904D01*
X186412238Y-68580142D01*
X186364619Y-68723000D01*
X186364619Y-68818238D01*
X186412238Y-68961095D01*
X186459857Y-69008714D01*
X186793190Y-69008714D01*
X186793190Y-68818238D01*
X186364619Y-69437285D02*
X187364619Y-69437285D01*
X186364619Y-70008714D01*
X187364619Y-70008714D01*
X186364619Y-70484904D02*
X187364619Y-70484904D01*
X187364619Y-70723000D01*
X187317000Y-70865857D01*
X187221761Y-70961095D01*
X187126523Y-71008714D01*
X186936047Y-71056333D01*
X186793190Y-71056333D01*
X186602714Y-71008714D01*
X186507476Y-70961095D01*
X186412238Y-70865857D01*
X186364619Y-70723000D01*
X186364619Y-70484904D01*
X100004619Y-123817333D02*
X101004619Y-123817333D01*
X101004619Y-124055428D01*
X100957000Y-124198285D01*
X100861761Y-124293523D01*
X100766523Y-124341142D01*
X100576047Y-124388761D01*
X100433190Y-124388761D01*
X100242714Y-124341142D01*
X100147476Y-124293523D01*
X100052238Y-124198285D01*
X100004619Y-124055428D01*
X100004619Y-123817333D01*
X100290333Y-124769714D02*
X100290333Y-125245904D01*
X100004619Y-124674476D02*
X101004619Y-125007809D01*
X100004619Y-125341142D01*
X100099857Y-126245904D02*
X100052238Y-126198285D01*
X100004619Y-126055428D01*
X100004619Y-125960190D01*
X100052238Y-125817333D01*
X100147476Y-125722095D01*
X100242714Y-125674476D01*
X100433190Y-125626857D01*
X100576047Y-125626857D01*
X100766523Y-125674476D01*
X100861761Y-125722095D01*
X100957000Y-125817333D01*
X101004619Y-125960190D01*
X101004619Y-126055428D01*
X100957000Y-126198285D01*
X100909380Y-126245904D01*
X100004619Y-126674476D02*
X101004619Y-126674476D01*
X100004619Y-127245904D02*
X100576047Y-126817333D01*
X101004619Y-127245904D02*
X100433190Y-126674476D01*
X101004619Y-128150666D02*
X101004619Y-127674476D01*
X100528428Y-127626857D01*
X100576047Y-127674476D01*
X100623666Y-127769714D01*
X100623666Y-128007809D01*
X100576047Y-128103047D01*
X100528428Y-128150666D01*
X100433190Y-128198285D01*
X100195095Y-128198285D01*
X100099857Y-128150666D01*
X100052238Y-128103047D01*
X100004619Y-128007809D01*
X100004619Y-127769714D01*
X100052238Y-127674476D01*
X100099857Y-127626857D01*
X133977000Y-68961095D02*
X134024619Y-68865857D01*
X134024619Y-68723000D01*
X133977000Y-68580142D01*
X133881761Y-68484904D01*
X133786523Y-68437285D01*
X133596047Y-68389666D01*
X133453190Y-68389666D01*
X133262714Y-68437285D01*
X133167476Y-68484904D01*
X133072238Y-68580142D01*
X133024619Y-68723000D01*
X133024619Y-68818238D01*
X133072238Y-68961095D01*
X133119857Y-69008714D01*
X133453190Y-69008714D01*
X133453190Y-68818238D01*
X133024619Y-69437285D02*
X134024619Y-69437285D01*
X133024619Y-70008714D01*
X134024619Y-70008714D01*
X133024619Y-70484904D02*
X134024619Y-70484904D01*
X134024619Y-70723000D01*
X133977000Y-70865857D01*
X133881761Y-70961095D01*
X133786523Y-71008714D01*
X133596047Y-71056333D01*
X133453190Y-71056333D01*
X133262714Y-71008714D01*
X133167476Y-70961095D01*
X133072238Y-70865857D01*
X133024619Y-70723000D01*
X133024619Y-70484904D01*
X145724619Y-60166571D02*
X146724619Y-60166571D01*
X146010333Y-60499904D01*
X146724619Y-60833238D01*
X145724619Y-60833238D01*
X146010333Y-61261809D02*
X146010333Y-61738000D01*
X145724619Y-61166571D02*
X146724619Y-61499904D01*
X145724619Y-61833238D01*
X145772238Y-62118952D02*
X145724619Y-62261809D01*
X145724619Y-62499904D01*
X145772238Y-62595142D01*
X145819857Y-62642761D01*
X145915095Y-62690380D01*
X146010333Y-62690380D01*
X146105571Y-62642761D01*
X146153190Y-62595142D01*
X146200809Y-62499904D01*
X146248428Y-62309428D01*
X146296047Y-62214190D01*
X146343666Y-62166571D01*
X146438904Y-62118952D01*
X146534142Y-62118952D01*
X146629380Y-62166571D01*
X146677000Y-62214190D01*
X146724619Y-62309428D01*
X146724619Y-62547523D01*
X146677000Y-62690380D01*
X146724619Y-62976095D02*
X146724619Y-63547523D01*
X145724619Y-63261809D02*
X146724619Y-63261809D01*
X146248428Y-63880857D02*
X146248428Y-64214190D01*
X145724619Y-64357047D02*
X145724619Y-63880857D01*
X146724619Y-63880857D01*
X146724619Y-64357047D01*
X145724619Y-65357047D02*
X146200809Y-65023714D01*
X145724619Y-64785619D02*
X146724619Y-64785619D01*
X146724619Y-65166571D01*
X146677000Y-65261809D01*
X146629380Y-65309428D01*
X146534142Y-65357047D01*
X146391285Y-65357047D01*
X146296047Y-65309428D01*
X146248428Y-65261809D01*
X146200809Y-65166571D01*
X146200809Y-64785619D01*
X213471095Y-51878238D02*
X213566333Y-51830619D01*
X213756809Y-51830619D01*
X213852047Y-51878238D01*
X213899666Y-51925857D01*
X213947285Y-52021095D01*
X213947285Y-52306809D01*
X213899666Y-52402047D01*
X213852047Y-52449666D01*
X213756809Y-52497285D01*
X213566333Y-52497285D01*
X213471095Y-52449666D01*
X212518714Y-51830619D02*
X213090142Y-51830619D01*
X212804428Y-51830619D02*
X212804428Y-52830619D01*
X212899666Y-52687761D01*
X212994904Y-52592523D01*
X213090142Y-52544904D01*
X213923476Y-50220619D02*
X213923476Y-51220619D01*
X213923476Y-50839666D02*
X213828238Y-50887285D01*
X213637761Y-50887285D01*
X213542523Y-50839666D01*
X213494904Y-50792047D01*
X213447285Y-50696809D01*
X213447285Y-50411095D01*
X213494904Y-50315857D01*
X213542523Y-50268238D01*
X213637761Y-50220619D01*
X213828238Y-50220619D01*
X213923476Y-50268238D01*
X212494904Y-50220619D02*
X213066333Y-50220619D01*
X212780619Y-50220619D02*
X212780619Y-51220619D01*
X212875857Y-51077761D01*
X212971095Y-50982523D01*
X213066333Y-50934904D01*
X213494904Y-48610619D02*
X213494904Y-49134428D01*
X213542523Y-49229666D01*
X213637761Y-49277285D01*
X213828238Y-49277285D01*
X213923476Y-49229666D01*
X213494904Y-48658238D02*
X213590142Y-48610619D01*
X213828238Y-48610619D01*
X213923476Y-48658238D01*
X213971095Y-48753476D01*
X213971095Y-48848714D01*
X213923476Y-48943952D01*
X213828238Y-48991571D01*
X213590142Y-48991571D01*
X213494904Y-49039190D01*
X212494904Y-48610619D02*
X213066333Y-48610619D01*
X212780619Y-48610619D02*
X212780619Y-49610619D01*
X212875857Y-49467761D01*
X212971095Y-49372523D01*
X213066333Y-49324904D01*
X206684619Y-61372904D02*
X207684619Y-61372904D01*
X207684619Y-61611000D01*
X207637000Y-61753857D01*
X207541761Y-61849095D01*
X207446523Y-61896714D01*
X207256047Y-61944333D01*
X207113190Y-61944333D01*
X206922714Y-61896714D01*
X206827476Y-61849095D01*
X206732238Y-61753857D01*
X206684619Y-61611000D01*
X206684619Y-61372904D01*
X207208428Y-62706238D02*
X207160809Y-62849095D01*
X207113190Y-62896714D01*
X207017952Y-62944333D01*
X206875095Y-62944333D01*
X206779857Y-62896714D01*
X206732238Y-62849095D01*
X206684619Y-62753857D01*
X206684619Y-62372904D01*
X207684619Y-62372904D01*
X207684619Y-62706238D01*
X207637000Y-62801476D01*
X207589380Y-62849095D01*
X207494142Y-62896714D01*
X207398904Y-62896714D01*
X207303666Y-62849095D01*
X207256047Y-62801476D01*
X207208428Y-62706238D01*
X207208428Y-62372904D01*
X207256047Y-63515761D02*
X207303666Y-63420523D01*
X207351285Y-63372904D01*
X207446523Y-63325285D01*
X207494142Y-63325285D01*
X207589380Y-63372904D01*
X207637000Y-63420523D01*
X207684619Y-63515761D01*
X207684619Y-63706238D01*
X207637000Y-63801476D01*
X207589380Y-63849095D01*
X207494142Y-63896714D01*
X207446523Y-63896714D01*
X207351285Y-63849095D01*
X207303666Y-63801476D01*
X207256047Y-63706238D01*
X207256047Y-63515761D01*
X207208428Y-63420523D01*
X207160809Y-63372904D01*
X207065571Y-63325285D01*
X206875095Y-63325285D01*
X206779857Y-63372904D01*
X206732238Y-63420523D01*
X206684619Y-63515761D01*
X206684619Y-63706238D01*
X206732238Y-63801476D01*
X206779857Y-63849095D01*
X206875095Y-63896714D01*
X207065571Y-63896714D01*
X207160809Y-63849095D01*
X207208428Y-63801476D01*
X207256047Y-63706238D01*
X144184619Y-125198285D02*
X144184619Y-125769714D01*
X143184619Y-125484000D02*
X144184619Y-125484000D01*
X143279857Y-126674476D02*
X143232238Y-126626857D01*
X143184619Y-126484000D01*
X143184619Y-126388761D01*
X143232238Y-126245904D01*
X143327476Y-126150666D01*
X143422714Y-126103047D01*
X143613190Y-126055428D01*
X143756047Y-126055428D01*
X143946523Y-126103047D01*
X144041761Y-126150666D01*
X144137000Y-126245904D01*
X144184619Y-126388761D01*
X144184619Y-126484000D01*
X144137000Y-126626857D01*
X144089380Y-126674476D01*
X196524619Y-54641904D02*
X197524619Y-54641904D01*
X197524619Y-54880000D01*
X197477000Y-55022857D01*
X197381761Y-55118095D01*
X197286523Y-55165714D01*
X197096047Y-55213333D01*
X196953190Y-55213333D01*
X196762714Y-55165714D01*
X196667476Y-55118095D01*
X196572238Y-55022857D01*
X196524619Y-54880000D01*
X196524619Y-54641904D01*
X197048428Y-55975238D02*
X197000809Y-56118095D01*
X196953190Y-56165714D01*
X196857952Y-56213333D01*
X196715095Y-56213333D01*
X196619857Y-56165714D01*
X196572238Y-56118095D01*
X196524619Y-56022857D01*
X196524619Y-55641904D01*
X197524619Y-55641904D01*
X197524619Y-55975238D01*
X197477000Y-56070476D01*
X197429380Y-56118095D01*
X197334142Y-56165714D01*
X197238904Y-56165714D01*
X197143666Y-56118095D01*
X197096047Y-56070476D01*
X197048428Y-55975238D01*
X197048428Y-55641904D01*
X197524619Y-56546666D02*
X197524619Y-57165714D01*
X197143666Y-56832380D01*
X197143666Y-56975238D01*
X197096047Y-57070476D01*
X197048428Y-57118095D01*
X196953190Y-57165714D01*
X196715095Y-57165714D01*
X196619857Y-57118095D01*
X196572238Y-57070476D01*
X196524619Y-56975238D01*
X196524619Y-56689523D01*
X196572238Y-56594285D01*
X196619857Y-56546666D01*
X112704619Y-124007809D02*
X113704619Y-124007809D01*
X112704619Y-125055428D02*
X113180809Y-124722095D01*
X112704619Y-124484000D02*
X113704619Y-124484000D01*
X113704619Y-124864952D01*
X113657000Y-124960190D01*
X113609380Y-125007809D01*
X113514142Y-125055428D01*
X113371285Y-125055428D01*
X113276047Y-125007809D01*
X113228428Y-124960190D01*
X113180809Y-124864952D01*
X113180809Y-124484000D01*
X112609380Y-126150666D02*
X112657000Y-126055428D01*
X112752238Y-125960190D01*
X112895095Y-125817333D01*
X112942714Y-125722095D01*
X112942714Y-125626857D01*
X112704619Y-125674476D02*
X112752238Y-125579238D01*
X112847476Y-125484000D01*
X113037952Y-125436380D01*
X113371285Y-125436380D01*
X113561761Y-125484000D01*
X113657000Y-125579238D01*
X113704619Y-125674476D01*
X113704619Y-125864952D01*
X113657000Y-125960190D01*
X113561761Y-126055428D01*
X113371285Y-126103047D01*
X113037952Y-126103047D01*
X112847476Y-126055428D01*
X112752238Y-125960190D01*
X112704619Y-125864952D01*
X112704619Y-125674476D01*
X112704619Y-127055428D02*
X112704619Y-126484000D01*
X112704619Y-126769714D02*
X113704619Y-126769714D01*
X113561761Y-126674476D01*
X113466523Y-126579238D01*
X113418904Y-126484000D01*
X113609380Y-127436380D02*
X113657000Y-127484000D01*
X113704619Y-127579238D01*
X113704619Y-127817333D01*
X113657000Y-127912571D01*
X113609380Y-127960190D01*
X113514142Y-128007809D01*
X113418904Y-128007809D01*
X113276047Y-127960190D01*
X112704619Y-127388761D01*
X112704619Y-128007809D01*
X184110333Y-54665714D02*
X184110333Y-55141904D01*
X183824619Y-54570476D02*
X184824619Y-54903809D01*
X183824619Y-55237142D01*
X184348428Y-55570476D02*
X184348428Y-55903809D01*
X183824619Y-56046666D02*
X183824619Y-55570476D01*
X184824619Y-55570476D01*
X184824619Y-56046666D01*
X183824619Y-56475238D02*
X184824619Y-56475238D01*
X183824619Y-57046666D01*
X184824619Y-57046666D01*
X161059857Y-69127761D02*
X161012238Y-69080142D01*
X160964619Y-68937285D01*
X160964619Y-68842047D01*
X161012238Y-68699190D01*
X161107476Y-68603952D01*
X161202714Y-68556333D01*
X161393190Y-68508714D01*
X161536047Y-68508714D01*
X161726523Y-68556333D01*
X161821761Y-68603952D01*
X161917000Y-68699190D01*
X161964619Y-68842047D01*
X161964619Y-68937285D01*
X161917000Y-69080142D01*
X161869380Y-69127761D01*
X160964619Y-70032523D02*
X160964619Y-69556333D01*
X161964619Y-69556333D01*
X160964619Y-70365857D02*
X161964619Y-70365857D01*
X160964619Y-70937285D02*
X161536047Y-70508714D01*
X161964619Y-70937285D02*
X161393190Y-70365857D01*
X161059857Y-125388761D02*
X161012238Y-125341142D01*
X160964619Y-125198285D01*
X160964619Y-125103047D01*
X161012238Y-124960190D01*
X161107476Y-124864952D01*
X161202714Y-124817333D01*
X161393190Y-124769714D01*
X161536047Y-124769714D01*
X161726523Y-124817333D01*
X161821761Y-124864952D01*
X161917000Y-124960190D01*
X161964619Y-125103047D01*
X161964619Y-125198285D01*
X161917000Y-125341142D01*
X161869380Y-125388761D01*
X160964619Y-126293523D02*
X160964619Y-125817333D01*
X161964619Y-125817333D01*
X160964619Y-126626857D02*
X161964619Y-126626857D01*
X160964619Y-127198285D02*
X161536047Y-126769714D01*
X161964619Y-127198285D02*
X161393190Y-126626857D01*
X206684619Y-68270619D02*
X207160809Y-67937285D01*
X206684619Y-67699190D02*
X207684619Y-67699190D01*
X207684619Y-68080142D01*
X207637000Y-68175380D01*
X207589380Y-68223000D01*
X207494142Y-68270619D01*
X207351285Y-68270619D01*
X207256047Y-68223000D01*
X207208428Y-68175380D01*
X207160809Y-68080142D01*
X207160809Y-67699190D01*
X207208428Y-68699190D02*
X207208428Y-69032523D01*
X206684619Y-69175380D02*
X206684619Y-68699190D01*
X207684619Y-68699190D01*
X207684619Y-69175380D01*
X206732238Y-69556333D02*
X206684619Y-69699190D01*
X206684619Y-69937285D01*
X206732238Y-70032523D01*
X206779857Y-70080142D01*
X206875095Y-70127761D01*
X206970333Y-70127761D01*
X207065571Y-70080142D01*
X207113190Y-70032523D01*
X207160809Y-69937285D01*
X207208428Y-69746809D01*
X207256047Y-69651571D01*
X207303666Y-69603952D01*
X207398904Y-69556333D01*
X207494142Y-69556333D01*
X207589380Y-69603952D01*
X207637000Y-69651571D01*
X207684619Y-69746809D01*
X207684619Y-69984904D01*
X207637000Y-70127761D01*
X207208428Y-70556333D02*
X207208428Y-70889666D01*
X206684619Y-71032523D02*
X206684619Y-70556333D01*
X207684619Y-70556333D01*
X207684619Y-71032523D01*
X207684619Y-71318238D02*
X207684619Y-71889666D01*
X206684619Y-71603952D02*
X207684619Y-71603952D01*
X136564619Y-124912571D02*
X136564619Y-125103047D01*
X136517000Y-125198285D01*
X136421761Y-125293523D01*
X136231285Y-125341142D01*
X135897952Y-125341142D01*
X135707476Y-125293523D01*
X135612238Y-125198285D01*
X135564619Y-125103047D01*
X135564619Y-124912571D01*
X135612238Y-124817333D01*
X135707476Y-124722095D01*
X135897952Y-124674476D01*
X136231285Y-124674476D01*
X136421761Y-124722095D01*
X136517000Y-124817333D01*
X136564619Y-124912571D01*
X135612238Y-125722095D02*
X135564619Y-125864952D01*
X135564619Y-126103047D01*
X135612238Y-126198285D01*
X135659857Y-126245904D01*
X135755095Y-126293523D01*
X135850333Y-126293523D01*
X135945571Y-126245904D01*
X135993190Y-126198285D01*
X136040809Y-126103047D01*
X136088428Y-125912571D01*
X136136047Y-125817333D01*
X136183666Y-125769714D01*
X136278904Y-125722095D01*
X136374142Y-125722095D01*
X136469380Y-125769714D01*
X136517000Y-125817333D01*
X136564619Y-125912571D01*
X136564619Y-126150666D01*
X136517000Y-126293523D01*
X135659857Y-127293523D02*
X135612238Y-127245904D01*
X135564619Y-127103047D01*
X135564619Y-127007809D01*
X135612238Y-126864952D01*
X135707476Y-126769714D01*
X135802714Y-126722095D01*
X135993190Y-126674476D01*
X136136047Y-126674476D01*
X136326523Y-126722095D01*
X136421761Y-126769714D01*
X136517000Y-126864952D01*
X136564619Y-127007809D01*
X136564619Y-127103047D01*
X136517000Y-127245904D01*
X136469380Y-127293523D01*
X201604619Y-124484000D02*
X202604619Y-124484000D01*
X201604619Y-125531619D02*
X202080809Y-125198285D01*
X201604619Y-124960190D02*
X202604619Y-124960190D01*
X202604619Y-125341142D01*
X202557000Y-125436380D01*
X202509380Y-125484000D01*
X202414142Y-125531619D01*
X202271285Y-125531619D01*
X202176047Y-125484000D01*
X202128428Y-125436380D01*
X202080809Y-125341142D01*
X202080809Y-124960190D01*
X201509380Y-126626857D02*
X201557000Y-126531619D01*
X201652238Y-126436380D01*
X201795095Y-126293523D01*
X201842714Y-126198285D01*
X201842714Y-126103047D01*
X201604619Y-126150666D02*
X201652238Y-126055428D01*
X201747476Y-125960190D01*
X201937952Y-125912571D01*
X202271285Y-125912571D01*
X202461761Y-125960190D01*
X202557000Y-126055428D01*
X202604619Y-126150666D01*
X202604619Y-126341142D01*
X202557000Y-126436380D01*
X202461761Y-126531619D01*
X202271285Y-126579238D01*
X201937952Y-126579238D01*
X201747476Y-126531619D01*
X201652238Y-126436380D01*
X201604619Y-126341142D01*
X201604619Y-126150666D01*
X202509380Y-126960190D02*
X202557000Y-127007809D01*
X202604619Y-127103047D01*
X202604619Y-127341142D01*
X202557000Y-127436380D01*
X202509380Y-127484000D01*
X202414142Y-127531619D01*
X202318904Y-127531619D01*
X202176047Y-127484000D01*
X201604619Y-126912571D01*
X201604619Y-127531619D01*
X158424619Y-124484000D02*
X159424619Y-124484000D01*
X158424619Y-125531619D02*
X158900809Y-125198285D01*
X158424619Y-124960190D02*
X159424619Y-124960190D01*
X159424619Y-125341142D01*
X159377000Y-125436380D01*
X159329380Y-125484000D01*
X159234142Y-125531619D01*
X159091285Y-125531619D01*
X158996047Y-125484000D01*
X158948428Y-125436380D01*
X158900809Y-125341142D01*
X158900809Y-124960190D01*
X158329380Y-126626857D02*
X158377000Y-126531619D01*
X158472238Y-126436380D01*
X158615095Y-126293523D01*
X158662714Y-126198285D01*
X158662714Y-126103047D01*
X158424619Y-126150666D02*
X158472238Y-126055428D01*
X158567476Y-125960190D01*
X158757952Y-125912571D01*
X159091285Y-125912571D01*
X159281761Y-125960190D01*
X159377000Y-126055428D01*
X159424619Y-126150666D01*
X159424619Y-126341142D01*
X159377000Y-126436380D01*
X159281761Y-126531619D01*
X159091285Y-126579238D01*
X158757952Y-126579238D01*
X158567476Y-126531619D01*
X158472238Y-126436380D01*
X158424619Y-126341142D01*
X158424619Y-126150666D01*
X159424619Y-126912571D02*
X159424619Y-127579238D01*
X158424619Y-127150666D01*
X153344619Y-60761809D02*
X154344619Y-60761809D01*
X153344619Y-61809428D02*
X153820809Y-61476095D01*
X153344619Y-61238000D02*
X154344619Y-61238000D01*
X154344619Y-61618952D01*
X154297000Y-61714190D01*
X154249380Y-61761809D01*
X154154142Y-61809428D01*
X154011285Y-61809428D01*
X153916047Y-61761809D01*
X153868428Y-61714190D01*
X153820809Y-61618952D01*
X153820809Y-61238000D01*
X153249380Y-62904666D02*
X153297000Y-62809428D01*
X153392238Y-62714190D01*
X153535095Y-62571333D01*
X153582714Y-62476095D01*
X153582714Y-62380857D01*
X153344619Y-62428476D02*
X153392238Y-62333238D01*
X153487476Y-62238000D01*
X153677952Y-62190380D01*
X154011285Y-62190380D01*
X154201761Y-62238000D01*
X154297000Y-62333238D01*
X154344619Y-62428476D01*
X154344619Y-62618952D01*
X154297000Y-62714190D01*
X154201761Y-62809428D01*
X154011285Y-62857047D01*
X153677952Y-62857047D01*
X153487476Y-62809428D01*
X153392238Y-62714190D01*
X153344619Y-62618952D01*
X153344619Y-62428476D01*
X153344619Y-63809428D02*
X153344619Y-63238000D01*
X153344619Y-63523714D02*
X154344619Y-63523714D01*
X154201761Y-63428476D01*
X154106523Y-63333238D01*
X154058904Y-63238000D01*
X154249380Y-64190380D02*
X154297000Y-64238000D01*
X154344619Y-64333238D01*
X154344619Y-64571333D01*
X154297000Y-64666571D01*
X154249380Y-64714190D01*
X154154142Y-64761809D01*
X154058904Y-64761809D01*
X153916047Y-64714190D01*
X153344619Y-64142761D01*
X153344619Y-64761809D01*
X206684619Y-124531619D02*
X207160809Y-124198285D01*
X206684619Y-123960190D02*
X207684619Y-123960190D01*
X207684619Y-124341142D01*
X207637000Y-124436380D01*
X207589380Y-124484000D01*
X207494142Y-124531619D01*
X207351285Y-124531619D01*
X207256047Y-124484000D01*
X207208428Y-124436380D01*
X207160809Y-124341142D01*
X207160809Y-123960190D01*
X207208428Y-124960190D02*
X207208428Y-125293523D01*
X206684619Y-125436380D02*
X206684619Y-124960190D01*
X207684619Y-124960190D01*
X207684619Y-125436380D01*
X206732238Y-125817333D02*
X206684619Y-125960190D01*
X206684619Y-126198285D01*
X206732238Y-126293523D01*
X206779857Y-126341142D01*
X206875095Y-126388761D01*
X206970333Y-126388761D01*
X207065571Y-126341142D01*
X207113190Y-126293523D01*
X207160809Y-126198285D01*
X207208428Y-126007809D01*
X207256047Y-125912571D01*
X207303666Y-125864952D01*
X207398904Y-125817333D01*
X207494142Y-125817333D01*
X207589380Y-125864952D01*
X207637000Y-125912571D01*
X207684619Y-126007809D01*
X207684619Y-126245904D01*
X207637000Y-126388761D01*
X207208428Y-126817333D02*
X207208428Y-127150666D01*
X206684619Y-127293523D02*
X206684619Y-126817333D01*
X207684619Y-126817333D01*
X207684619Y-127293523D01*
X207684619Y-127579238D02*
X207684619Y-128150666D01*
X206684619Y-127864952D02*
X207684619Y-127864952D01*
X186364619Y-53927619D02*
X187364619Y-53927619D01*
X187364619Y-54594285D02*
X187364619Y-54784761D01*
X187317000Y-54880000D01*
X187221761Y-54975238D01*
X187031285Y-55022857D01*
X186697952Y-55022857D01*
X186507476Y-54975238D01*
X186412238Y-54880000D01*
X186364619Y-54784761D01*
X186364619Y-54594285D01*
X186412238Y-54499047D01*
X186507476Y-54403809D01*
X186697952Y-54356190D01*
X187031285Y-54356190D01*
X187221761Y-54403809D01*
X187317000Y-54499047D01*
X187364619Y-54594285D01*
X186364619Y-56022857D02*
X186840809Y-55689523D01*
X186364619Y-55451428D02*
X187364619Y-55451428D01*
X187364619Y-55832380D01*
X187317000Y-55927619D01*
X187269380Y-55975238D01*
X187174142Y-56022857D01*
X187031285Y-56022857D01*
X186936047Y-55975238D01*
X186888428Y-55927619D01*
X186840809Y-55832380D01*
X186840809Y-55451428D01*
X186364619Y-56451428D02*
X187364619Y-56451428D01*
X187364619Y-56689523D01*
X187317000Y-56832380D01*
X187221761Y-56927619D01*
X187126523Y-56975238D01*
X186936047Y-57022857D01*
X186793190Y-57022857D01*
X186602714Y-56975238D01*
X186507476Y-56927619D01*
X186412238Y-56832380D01*
X186364619Y-56689523D01*
X186364619Y-56451428D01*
X186840809Y-57641904D02*
X186364619Y-57641904D01*
X187364619Y-57308571D02*
X186840809Y-57641904D01*
X187364619Y-57975238D01*
X120324619Y-137485571D02*
X120324619Y-137009380D01*
X121324619Y-137009380D01*
X120610333Y-137771285D02*
X120610333Y-138247476D01*
X120324619Y-137676047D02*
X121324619Y-138009380D01*
X120324619Y-138342714D01*
X121229380Y-138628428D02*
X121277000Y-138676047D01*
X121324619Y-138771285D01*
X121324619Y-139009380D01*
X121277000Y-139104619D01*
X121229380Y-139152238D01*
X121134142Y-139199857D01*
X121038904Y-139199857D01*
X120896047Y-139152238D01*
X120324619Y-138580809D01*
X120324619Y-139199857D01*
X121324619Y-139533190D02*
X121324619Y-140152238D01*
X120943666Y-139818904D01*
X120943666Y-139961761D01*
X120896047Y-140057000D01*
X120848428Y-140104619D01*
X120753190Y-140152238D01*
X120515095Y-140152238D01*
X120419857Y-140104619D01*
X120372238Y-140057000D01*
X120324619Y-139961761D01*
X120324619Y-139676047D01*
X120372238Y-139580809D01*
X120419857Y-139533190D01*
X148264619Y-68223000D02*
X149264619Y-68223000D01*
X148264619Y-69270619D02*
X148740809Y-68937285D01*
X148264619Y-68699190D02*
X149264619Y-68699190D01*
X149264619Y-69080142D01*
X149217000Y-69175380D01*
X149169380Y-69223000D01*
X149074142Y-69270619D01*
X148931285Y-69270619D01*
X148836047Y-69223000D01*
X148788428Y-69175380D01*
X148740809Y-69080142D01*
X148740809Y-68699190D01*
X148169380Y-70365857D02*
X148217000Y-70270619D01*
X148312238Y-70175380D01*
X148455095Y-70032523D01*
X148502714Y-69937285D01*
X148502714Y-69842047D01*
X148264619Y-69889666D02*
X148312238Y-69794428D01*
X148407476Y-69699190D01*
X148597952Y-69651571D01*
X148931285Y-69651571D01*
X149121761Y-69699190D01*
X149217000Y-69794428D01*
X149264619Y-69889666D01*
X149264619Y-70080142D01*
X149217000Y-70175380D01*
X149121761Y-70270619D01*
X148931285Y-70318238D01*
X148597952Y-70318238D01*
X148407476Y-70270619D01*
X148312238Y-70175380D01*
X148264619Y-70080142D01*
X148264619Y-69889666D01*
X149264619Y-70651571D02*
X149264619Y-71270619D01*
X148883666Y-70937285D01*
X148883666Y-71080142D01*
X148836047Y-71175380D01*
X148788428Y-71223000D01*
X148693190Y-71270619D01*
X148455095Y-71270619D01*
X148359857Y-71223000D01*
X148312238Y-71175380D01*
X148264619Y-71080142D01*
X148264619Y-70794428D01*
X148312238Y-70699190D01*
X148359857Y-70651571D01*
X153344619Y-68223000D02*
X154344619Y-68223000D01*
X153344619Y-69270619D02*
X153820809Y-68937285D01*
X153344619Y-68699190D02*
X154344619Y-68699190D01*
X154344619Y-69080142D01*
X154297000Y-69175380D01*
X154249380Y-69223000D01*
X154154142Y-69270619D01*
X154011285Y-69270619D01*
X153916047Y-69223000D01*
X153868428Y-69175380D01*
X153820809Y-69080142D01*
X153820809Y-68699190D01*
X153249380Y-70365857D02*
X153297000Y-70270619D01*
X153392238Y-70175380D01*
X153535095Y-70032523D01*
X153582714Y-69937285D01*
X153582714Y-69842047D01*
X153344619Y-69889666D02*
X153392238Y-69794428D01*
X153487476Y-69699190D01*
X153677952Y-69651571D01*
X154011285Y-69651571D01*
X154201761Y-69699190D01*
X154297000Y-69794428D01*
X154344619Y-69889666D01*
X154344619Y-70080142D01*
X154297000Y-70175380D01*
X154201761Y-70270619D01*
X154011285Y-70318238D01*
X153677952Y-70318238D01*
X153487476Y-70270619D01*
X153392238Y-70175380D01*
X153344619Y-70080142D01*
X153344619Y-69889666D01*
X154344619Y-71223000D02*
X154344619Y-70746809D01*
X153868428Y-70699190D01*
X153916047Y-70746809D01*
X153963666Y-70842047D01*
X153963666Y-71080142D01*
X153916047Y-71175380D01*
X153868428Y-71223000D01*
X153773190Y-71270619D01*
X153535095Y-71270619D01*
X153439857Y-71223000D01*
X153392238Y-71175380D01*
X153344619Y-71080142D01*
X153344619Y-70842047D01*
X153392238Y-70746809D01*
X153439857Y-70699190D01*
X126349095Y-135657238D02*
X126444333Y-135609619D01*
X126634809Y-135609619D01*
X126730047Y-135657238D01*
X126777666Y-135704857D01*
X126825285Y-135800095D01*
X126825285Y-136085809D01*
X126777666Y-136181047D01*
X126730047Y-136228666D01*
X126634809Y-136276285D01*
X126444333Y-136276285D01*
X126349095Y-136228666D01*
X125396714Y-135609619D02*
X125968142Y-135609619D01*
X125682428Y-135609619D02*
X125682428Y-136609619D01*
X125777666Y-136466761D01*
X125872904Y-136371523D01*
X125968142Y-136323904D01*
X126372904Y-129169619D02*
X126372904Y-130169619D01*
X126372904Y-129217238D02*
X126468142Y-129169619D01*
X126658619Y-129169619D01*
X126753857Y-129217238D01*
X126801476Y-129264857D01*
X126849095Y-129360095D01*
X126849095Y-129645809D01*
X126801476Y-129741047D01*
X126753857Y-129788666D01*
X126658619Y-129836285D01*
X126468142Y-129836285D01*
X126372904Y-129788666D01*
X125372904Y-129169619D02*
X125944333Y-129169619D01*
X125658619Y-129169619D02*
X125658619Y-130169619D01*
X125753857Y-130026761D01*
X125849095Y-129931523D01*
X125944333Y-129883904D01*
X105084619Y-123817333D02*
X106084619Y-123817333D01*
X106084619Y-124055428D01*
X106037000Y-124198285D01*
X105941761Y-124293523D01*
X105846523Y-124341142D01*
X105656047Y-124388761D01*
X105513190Y-124388761D01*
X105322714Y-124341142D01*
X105227476Y-124293523D01*
X105132238Y-124198285D01*
X105084619Y-124055428D01*
X105084619Y-123817333D01*
X105370333Y-124769714D02*
X105370333Y-125245904D01*
X105084619Y-124674476D02*
X106084619Y-125007809D01*
X105084619Y-125341142D01*
X105179857Y-126245904D02*
X105132238Y-126198285D01*
X105084619Y-126055428D01*
X105084619Y-125960190D01*
X105132238Y-125817333D01*
X105227476Y-125722095D01*
X105322714Y-125674476D01*
X105513190Y-125626857D01*
X105656047Y-125626857D01*
X105846523Y-125674476D01*
X105941761Y-125722095D01*
X106037000Y-125817333D01*
X106084619Y-125960190D01*
X106084619Y-126055428D01*
X106037000Y-126198285D01*
X105989380Y-126245904D01*
X105084619Y-126674476D02*
X106084619Y-126674476D01*
X105084619Y-127245904D02*
X105656047Y-126817333D01*
X106084619Y-127245904D02*
X105513190Y-126674476D01*
X106084619Y-127864952D02*
X106084619Y-127960190D01*
X106037000Y-128055428D01*
X105989380Y-128103047D01*
X105894142Y-128150666D01*
X105703666Y-128198285D01*
X105465571Y-128198285D01*
X105275095Y-128150666D01*
X105179857Y-128103047D01*
X105132238Y-128055428D01*
X105084619Y-127960190D01*
X105084619Y-127864952D01*
X105132238Y-127769714D01*
X105179857Y-127722095D01*
X105275095Y-127674476D01*
X105465571Y-127626857D01*
X105703666Y-127626857D01*
X105894142Y-127674476D01*
X105989380Y-127722095D01*
X106037000Y-127769714D01*
X106084619Y-127864952D01*
X155884619Y-60761809D02*
X156884619Y-60761809D01*
X155884619Y-61809428D02*
X156360809Y-61476095D01*
X155884619Y-61238000D02*
X156884619Y-61238000D01*
X156884619Y-61618952D01*
X156837000Y-61714190D01*
X156789380Y-61761809D01*
X156694142Y-61809428D01*
X156551285Y-61809428D01*
X156456047Y-61761809D01*
X156408428Y-61714190D01*
X156360809Y-61618952D01*
X156360809Y-61238000D01*
X155789380Y-62904666D02*
X155837000Y-62809428D01*
X155932238Y-62714190D01*
X156075095Y-62571333D01*
X156122714Y-62476095D01*
X156122714Y-62380857D01*
X155884619Y-62428476D02*
X155932238Y-62333238D01*
X156027476Y-62238000D01*
X156217952Y-62190380D01*
X156551285Y-62190380D01*
X156741761Y-62238000D01*
X156837000Y-62333238D01*
X156884619Y-62428476D01*
X156884619Y-62618952D01*
X156837000Y-62714190D01*
X156741761Y-62809428D01*
X156551285Y-62857047D01*
X156217952Y-62857047D01*
X156027476Y-62809428D01*
X155932238Y-62714190D01*
X155884619Y-62618952D01*
X155884619Y-62428476D01*
X155884619Y-63809428D02*
X155884619Y-63238000D01*
X155884619Y-63523714D02*
X156884619Y-63523714D01*
X156741761Y-63428476D01*
X156646523Y-63333238D01*
X156598904Y-63238000D01*
X155884619Y-64761809D02*
X155884619Y-64190380D01*
X155884619Y-64476095D02*
X156884619Y-64476095D01*
X156741761Y-64380857D01*
X156646523Y-64285619D01*
X156598904Y-64190380D01*
X188904619Y-137318904D02*
X189904619Y-137318904D01*
X189904619Y-137557000D01*
X189857000Y-137699857D01*
X189761761Y-137795095D01*
X189666523Y-137842714D01*
X189476047Y-137890333D01*
X189333190Y-137890333D01*
X189142714Y-137842714D01*
X189047476Y-137795095D01*
X188952238Y-137699857D01*
X188904619Y-137557000D01*
X188904619Y-137318904D01*
X189428428Y-138652238D02*
X189380809Y-138795095D01*
X189333190Y-138842714D01*
X189237952Y-138890333D01*
X189095095Y-138890333D01*
X188999857Y-138842714D01*
X188952238Y-138795095D01*
X188904619Y-138699857D01*
X188904619Y-138318904D01*
X189904619Y-138318904D01*
X189904619Y-138652238D01*
X189857000Y-138747476D01*
X189809380Y-138795095D01*
X189714142Y-138842714D01*
X189618904Y-138842714D01*
X189523666Y-138795095D01*
X189476047Y-138747476D01*
X189428428Y-138652238D01*
X189428428Y-138318904D01*
X189904619Y-139509380D02*
X189904619Y-139604619D01*
X189857000Y-139699857D01*
X189809380Y-139747476D01*
X189714142Y-139795095D01*
X189523666Y-139842714D01*
X189285571Y-139842714D01*
X189095095Y-139795095D01*
X188999857Y-139747476D01*
X188952238Y-139699857D01*
X188904619Y-139604619D01*
X188904619Y-139509380D01*
X188952238Y-139414142D01*
X188999857Y-139366523D01*
X189095095Y-139318904D01*
X189285571Y-139271285D01*
X189523666Y-139271285D01*
X189714142Y-139318904D01*
X189809380Y-139366523D01*
X189857000Y-139414142D01*
X189904619Y-139509380D01*
X184110333Y-137342714D02*
X184110333Y-137818904D01*
X183824619Y-137247476D02*
X184824619Y-137580809D01*
X183824619Y-137914142D01*
X184348428Y-138247476D02*
X184348428Y-138580809D01*
X183824619Y-138723666D02*
X183824619Y-138247476D01*
X184824619Y-138247476D01*
X184824619Y-138723666D01*
X183824619Y-139152238D02*
X184824619Y-139152238D01*
X183824619Y-139723666D01*
X184824619Y-139723666D01*
X168584619Y-67556333D02*
X169584619Y-67556333D01*
X169584619Y-67794428D01*
X169537000Y-67937285D01*
X169441761Y-68032523D01*
X169346523Y-68080142D01*
X169156047Y-68127761D01*
X169013190Y-68127761D01*
X168822714Y-68080142D01*
X168727476Y-68032523D01*
X168632238Y-67937285D01*
X168584619Y-67794428D01*
X168584619Y-67556333D01*
X168870333Y-68508714D02*
X168870333Y-68984904D01*
X168584619Y-68413476D02*
X169584619Y-68746809D01*
X168584619Y-69080142D01*
X168679857Y-69984904D02*
X168632238Y-69937285D01*
X168584619Y-69794428D01*
X168584619Y-69699190D01*
X168632238Y-69556333D01*
X168727476Y-69461095D01*
X168822714Y-69413476D01*
X169013190Y-69365857D01*
X169156047Y-69365857D01*
X169346523Y-69413476D01*
X169441761Y-69461095D01*
X169537000Y-69556333D01*
X169584619Y-69699190D01*
X169584619Y-69794428D01*
X169537000Y-69937285D01*
X169489380Y-69984904D01*
X168584619Y-70413476D02*
X169584619Y-70413476D01*
X168584619Y-70984904D02*
X169156047Y-70556333D01*
X169584619Y-70984904D02*
X169013190Y-70413476D01*
X168584619Y-71937285D02*
X168584619Y-71365857D01*
X168584619Y-71651571D02*
X169584619Y-71651571D01*
X169441761Y-71556333D01*
X169346523Y-71461095D01*
X169298904Y-71365857D01*
X130611619Y-59452285D02*
X131611619Y-59452285D01*
X130897333Y-59785619D01*
X131611619Y-60118952D01*
X130611619Y-60118952D01*
X131135428Y-60595142D02*
X131135428Y-60928476D01*
X130611619Y-61071333D02*
X130611619Y-60595142D01*
X131611619Y-60595142D01*
X131611619Y-61071333D01*
X130611619Y-61499904D02*
X131611619Y-61499904D01*
X130897333Y-61833238D01*
X131611619Y-62166571D01*
X130611619Y-62166571D01*
X130706857Y-63214190D02*
X130659238Y-63166571D01*
X130611619Y-63023714D01*
X130611619Y-62928476D01*
X130659238Y-62785619D01*
X130754476Y-62690380D01*
X130849714Y-62642761D01*
X131040190Y-62595142D01*
X131183047Y-62595142D01*
X131373523Y-62642761D01*
X131468761Y-62690380D01*
X131564000Y-62785619D01*
X131611619Y-62928476D01*
X131611619Y-63023714D01*
X131564000Y-63166571D01*
X131516380Y-63214190D01*
X130659238Y-63595142D02*
X130611619Y-63738000D01*
X130611619Y-63976095D01*
X130659238Y-64071333D01*
X130706857Y-64118952D01*
X130802095Y-64166571D01*
X130897333Y-64166571D01*
X130992571Y-64118952D01*
X131040190Y-64071333D01*
X131087809Y-63976095D01*
X131135428Y-63785619D01*
X131183047Y-63690380D01*
X131230666Y-63642761D01*
X131325904Y-63595142D01*
X131421142Y-63595142D01*
X131516380Y-63642761D01*
X131564000Y-63690380D01*
X131611619Y-63785619D01*
X131611619Y-64023714D01*
X131564000Y-64166571D01*
X130611619Y-65118952D02*
X130611619Y-64547523D01*
X130611619Y-64833238D02*
X131611619Y-64833238D01*
X131468761Y-64738000D01*
X131373523Y-64642761D01*
X131325904Y-64547523D01*
X131611619Y-65976095D02*
X131611619Y-65785619D01*
X131564000Y-65690380D01*
X131516380Y-65642761D01*
X131373523Y-65547523D01*
X131183047Y-65499904D01*
X130802095Y-65499904D01*
X130706857Y-65547523D01*
X130659238Y-65595142D01*
X130611619Y-65690380D01*
X130611619Y-65880857D01*
X130659238Y-65976095D01*
X130706857Y-66023714D01*
X130802095Y-66071333D01*
X131040190Y-66071333D01*
X131135428Y-66023714D01*
X131183047Y-65976095D01*
X131230666Y-65880857D01*
X131230666Y-65690380D01*
X131183047Y-65595142D01*
X131135428Y-65547523D01*
X131040190Y-65499904D01*
X187317000Y-125222095D02*
X187364619Y-125126857D01*
X187364619Y-124984000D01*
X187317000Y-124841142D01*
X187221761Y-124745904D01*
X187126523Y-124698285D01*
X186936047Y-124650666D01*
X186793190Y-124650666D01*
X186602714Y-124698285D01*
X186507476Y-124745904D01*
X186412238Y-124841142D01*
X186364619Y-124984000D01*
X186364619Y-125079238D01*
X186412238Y-125222095D01*
X186459857Y-125269714D01*
X186793190Y-125269714D01*
X186793190Y-125079238D01*
X186364619Y-125698285D02*
X187364619Y-125698285D01*
X186364619Y-126269714D01*
X187364619Y-126269714D01*
X186364619Y-126745904D02*
X187364619Y-126745904D01*
X187364619Y-126984000D01*
X187317000Y-127126857D01*
X187221761Y-127222095D01*
X187126523Y-127269714D01*
X186936047Y-127317333D01*
X186793190Y-127317333D01*
X186602714Y-127269714D01*
X186507476Y-127222095D01*
X186412238Y-127126857D01*
X186364619Y-126984000D01*
X186364619Y-126745904D01*
X199445571Y-124698285D02*
X199445571Y-125460190D01*
X200064619Y-126412571D02*
X200064619Y-125936380D01*
X199588428Y-125888761D01*
X199636047Y-125936380D01*
X199683666Y-126031619D01*
X199683666Y-126269714D01*
X199636047Y-126364952D01*
X199588428Y-126412571D01*
X199493190Y-126460190D01*
X199255095Y-126460190D01*
X199159857Y-126412571D01*
X199112238Y-126364952D01*
X199064619Y-126269714D01*
X199064619Y-126031619D01*
X199112238Y-125936380D01*
X199159857Y-125888761D01*
X200064619Y-126745904D02*
X199064619Y-127079238D01*
X200064619Y-127412571D01*
X89844619Y-136842714D02*
X90844619Y-136842714D01*
X90844619Y-137080809D01*
X90797000Y-137223666D01*
X90701761Y-137318904D01*
X90606523Y-137366523D01*
X90416047Y-137414142D01*
X90273190Y-137414142D01*
X90082714Y-137366523D01*
X89987476Y-137318904D01*
X89892238Y-137223666D01*
X89844619Y-137080809D01*
X89844619Y-136842714D01*
X90368428Y-138176047D02*
X90320809Y-138318904D01*
X90273190Y-138366523D01*
X90177952Y-138414142D01*
X90035095Y-138414142D01*
X89939857Y-138366523D01*
X89892238Y-138318904D01*
X89844619Y-138223666D01*
X89844619Y-137842714D01*
X90844619Y-137842714D01*
X90844619Y-138176047D01*
X90797000Y-138271285D01*
X90749380Y-138318904D01*
X90654142Y-138366523D01*
X90558904Y-138366523D01*
X90463666Y-138318904D01*
X90416047Y-138271285D01*
X90368428Y-138176047D01*
X90368428Y-137842714D01*
X89844619Y-139366523D02*
X89844619Y-138795095D01*
X89844619Y-139080809D02*
X90844619Y-139080809D01*
X90701761Y-138985571D01*
X90606523Y-138890333D01*
X90558904Y-138795095D01*
X89844619Y-140318904D02*
X89844619Y-139747476D01*
X89844619Y-140033190D02*
X90844619Y-140033190D01*
X90701761Y-139937952D01*
X90606523Y-139842714D01*
X90558904Y-139747476D01*
X82224619Y-123412571D02*
X83224619Y-123412571D01*
X82510333Y-123745904D01*
X83224619Y-124079238D01*
X82224619Y-124079238D01*
X82510333Y-124507809D02*
X82510333Y-124984000D01*
X82224619Y-124412571D02*
X83224619Y-124745904D01*
X82224619Y-125079238D01*
X82272238Y-125364952D02*
X82224619Y-125507809D01*
X82224619Y-125745904D01*
X82272238Y-125841142D01*
X82319857Y-125888761D01*
X82415095Y-125936380D01*
X82510333Y-125936380D01*
X82605571Y-125888761D01*
X82653190Y-125841142D01*
X82700809Y-125745904D01*
X82748428Y-125555428D01*
X82796047Y-125460190D01*
X82843666Y-125412571D01*
X82938904Y-125364952D01*
X83034142Y-125364952D01*
X83129380Y-125412571D01*
X83177000Y-125460190D01*
X83224619Y-125555428D01*
X83224619Y-125793523D01*
X83177000Y-125936380D01*
X83224619Y-126222095D02*
X83224619Y-126793523D01*
X82224619Y-126507809D02*
X83224619Y-126507809D01*
X82748428Y-127126857D02*
X82748428Y-127460190D01*
X82224619Y-127603047D02*
X82224619Y-127126857D01*
X83224619Y-127126857D01*
X83224619Y-127603047D01*
X82224619Y-128603047D02*
X82700809Y-128269714D01*
X82224619Y-128031619D02*
X83224619Y-128031619D01*
X83224619Y-128412571D01*
X83177000Y-128507809D01*
X83129380Y-128555428D01*
X83034142Y-128603047D01*
X82891285Y-128603047D01*
X82796047Y-128555428D01*
X82748428Y-128507809D01*
X82700809Y-128412571D01*
X82700809Y-128031619D01*
X138485571Y-124698285D02*
X138485571Y-125460190D01*
X138104619Y-125079238D02*
X138866523Y-125079238D01*
X139104619Y-126412571D02*
X139104619Y-125936380D01*
X138628428Y-125888761D01*
X138676047Y-125936380D01*
X138723666Y-126031619D01*
X138723666Y-126269714D01*
X138676047Y-126364952D01*
X138628428Y-126412571D01*
X138533190Y-126460190D01*
X138295095Y-126460190D01*
X138199857Y-126412571D01*
X138152238Y-126364952D01*
X138104619Y-126269714D01*
X138104619Y-126031619D01*
X138152238Y-125936380D01*
X138199857Y-125888761D01*
X139104619Y-126745904D02*
X138104619Y-127079238D01*
X139104619Y-127412571D01*
X140930333Y-68627761D02*
X140930333Y-69103952D01*
X140644619Y-68532523D02*
X141644619Y-68865857D01*
X140644619Y-69199190D01*
X140644619Y-70008714D02*
X140644619Y-69532523D01*
X141644619Y-69532523D01*
X141168428Y-70342047D02*
X141168428Y-70675380D01*
X140644619Y-70818238D02*
X140644619Y-70342047D01*
X141644619Y-70342047D01*
X141644619Y-70818238D01*
X210177000Y-125222095D02*
X210224619Y-125126857D01*
X210224619Y-124984000D01*
X210177000Y-124841142D01*
X210081761Y-124745904D01*
X209986523Y-124698285D01*
X209796047Y-124650666D01*
X209653190Y-124650666D01*
X209462714Y-124698285D01*
X209367476Y-124745904D01*
X209272238Y-124841142D01*
X209224619Y-124984000D01*
X209224619Y-125079238D01*
X209272238Y-125222095D01*
X209319857Y-125269714D01*
X209653190Y-125269714D01*
X209653190Y-125079238D01*
X209224619Y-125698285D02*
X210224619Y-125698285D01*
X209224619Y-126269714D01*
X210224619Y-126269714D01*
X209224619Y-126745904D02*
X210224619Y-126745904D01*
X210224619Y-126984000D01*
X210177000Y-127126857D01*
X210081761Y-127222095D01*
X209986523Y-127269714D01*
X209796047Y-127317333D01*
X209653190Y-127317333D01*
X209462714Y-127269714D01*
X209367476Y-127222095D01*
X209272238Y-127126857D01*
X209224619Y-126984000D01*
X209224619Y-126745904D01*
X131008428Y-54975238D02*
X130960809Y-55118095D01*
X130913190Y-55165714D01*
X130817952Y-55213333D01*
X130675095Y-55213333D01*
X130579857Y-55165714D01*
X130532238Y-55118095D01*
X130484619Y-55022857D01*
X130484619Y-54641904D01*
X131484619Y-54641904D01*
X131484619Y-54975238D01*
X131437000Y-55070476D01*
X131389380Y-55118095D01*
X131294142Y-55165714D01*
X131198904Y-55165714D01*
X131103666Y-55118095D01*
X131056047Y-55070476D01*
X131008428Y-54975238D01*
X131008428Y-54641904D01*
X130484619Y-55641904D02*
X131484619Y-55641904D01*
X131008428Y-55641904D02*
X131008428Y-56213333D01*
X130484619Y-56213333D02*
X131484619Y-56213333D01*
X131008428Y-56689523D02*
X131008428Y-57022857D01*
X130484619Y-57165714D02*
X130484619Y-56689523D01*
X131484619Y-56689523D01*
X131484619Y-57165714D01*
X145724619Y-123817333D02*
X146724619Y-123817333D01*
X146724619Y-124055428D01*
X146677000Y-124198285D01*
X146581761Y-124293523D01*
X146486523Y-124341142D01*
X146296047Y-124388761D01*
X146153190Y-124388761D01*
X145962714Y-124341142D01*
X145867476Y-124293523D01*
X145772238Y-124198285D01*
X145724619Y-124055428D01*
X145724619Y-123817333D01*
X146010333Y-124769714D02*
X146010333Y-125245904D01*
X145724619Y-124674476D02*
X146724619Y-125007809D01*
X145724619Y-125341142D01*
X145819857Y-126245904D02*
X145772238Y-126198285D01*
X145724619Y-126055428D01*
X145724619Y-125960190D01*
X145772238Y-125817333D01*
X145867476Y-125722095D01*
X145962714Y-125674476D01*
X146153190Y-125626857D01*
X146296047Y-125626857D01*
X146486523Y-125674476D01*
X146581761Y-125722095D01*
X146677000Y-125817333D01*
X146724619Y-125960190D01*
X146724619Y-126055428D01*
X146677000Y-126198285D01*
X146629380Y-126245904D01*
X145724619Y-126674476D02*
X146724619Y-126674476D01*
X145724619Y-127245904D02*
X146296047Y-126817333D01*
X146724619Y-127245904D02*
X146153190Y-126674476D01*
X146629380Y-127626857D02*
X146677000Y-127674476D01*
X146724619Y-127769714D01*
X146724619Y-128007809D01*
X146677000Y-128103047D01*
X146629380Y-128150666D01*
X146534142Y-128198285D01*
X146438904Y-128198285D01*
X146296047Y-128150666D01*
X145724619Y-127579238D01*
X145724619Y-128198285D01*
X79684619Y-136842714D02*
X80684619Y-136842714D01*
X80684619Y-137080809D01*
X80637000Y-137223666D01*
X80541761Y-137318904D01*
X80446523Y-137366523D01*
X80256047Y-137414142D01*
X80113190Y-137414142D01*
X79922714Y-137366523D01*
X79827476Y-137318904D01*
X79732238Y-137223666D01*
X79684619Y-137080809D01*
X79684619Y-136842714D01*
X80208428Y-138176047D02*
X80160809Y-138318904D01*
X80113190Y-138366523D01*
X80017952Y-138414142D01*
X79875095Y-138414142D01*
X79779857Y-138366523D01*
X79732238Y-138318904D01*
X79684619Y-138223666D01*
X79684619Y-137842714D01*
X80684619Y-137842714D01*
X80684619Y-138176047D01*
X80637000Y-138271285D01*
X80589380Y-138318904D01*
X80494142Y-138366523D01*
X80398904Y-138366523D01*
X80303666Y-138318904D01*
X80256047Y-138271285D01*
X80208428Y-138176047D01*
X80208428Y-137842714D01*
X79684619Y-139366523D02*
X79684619Y-138795095D01*
X79684619Y-139080809D02*
X80684619Y-139080809D01*
X80541761Y-138985571D01*
X80446523Y-138890333D01*
X80398904Y-138795095D01*
X80684619Y-140271285D02*
X80684619Y-139795095D01*
X80208428Y-139747476D01*
X80256047Y-139795095D01*
X80303666Y-139890333D01*
X80303666Y-140128428D01*
X80256047Y-140223666D01*
X80208428Y-140271285D01*
X80113190Y-140318904D01*
X79875095Y-140318904D01*
X79779857Y-140271285D01*
X79732238Y-140223666D01*
X79684619Y-140128428D01*
X79684619Y-139890333D01*
X79732238Y-139795095D01*
X79779857Y-139747476D01*
X85145571Y-124698285D02*
X85145571Y-125460190D01*
X84764619Y-125079238D02*
X85526523Y-125079238D01*
X85764619Y-126412571D02*
X85764619Y-125936380D01*
X85288428Y-125888761D01*
X85336047Y-125936380D01*
X85383666Y-126031619D01*
X85383666Y-126269714D01*
X85336047Y-126364952D01*
X85288428Y-126412571D01*
X85193190Y-126460190D01*
X84955095Y-126460190D01*
X84859857Y-126412571D01*
X84812238Y-126364952D01*
X84764619Y-126269714D01*
X84764619Y-126031619D01*
X84812238Y-125936380D01*
X84859857Y-125888761D01*
X85764619Y-126745904D02*
X84764619Y-127079238D01*
X85764619Y-127412571D01*
X209224619Y-136509380D02*
X210224619Y-136509380D01*
X210224619Y-137176047D02*
X210224619Y-137366523D01*
X210177000Y-137461761D01*
X210081761Y-137557000D01*
X209891285Y-137604619D01*
X209557952Y-137604619D01*
X209367476Y-137557000D01*
X209272238Y-137461761D01*
X209224619Y-137366523D01*
X209224619Y-137176047D01*
X209272238Y-137080809D01*
X209367476Y-136985571D01*
X209557952Y-136937952D01*
X209891285Y-136937952D01*
X210081761Y-136985571D01*
X210177000Y-137080809D01*
X210224619Y-137176047D01*
X209319857Y-138604619D02*
X209272238Y-138557000D01*
X209224619Y-138414142D01*
X209224619Y-138318904D01*
X209272238Y-138176047D01*
X209367476Y-138080809D01*
X209462714Y-138033190D01*
X209653190Y-137985571D01*
X209796047Y-137985571D01*
X209986523Y-138033190D01*
X210081761Y-138080809D01*
X210177000Y-138176047D01*
X210224619Y-138318904D01*
X210224619Y-138414142D01*
X210177000Y-138557000D01*
X210129380Y-138604619D01*
X209224619Y-139033190D02*
X210224619Y-139033190D01*
X209748428Y-139033190D02*
X209748428Y-139604619D01*
X209224619Y-139604619D02*
X210224619Y-139604619D01*
X209224619Y-140080809D02*
X210224619Y-140080809D01*
X209224619Y-140652238D02*
X209796047Y-140223666D01*
X210224619Y-140652238D02*
X209653190Y-140080809D01*
X141168428Y-55046666D02*
X141120809Y-55189523D01*
X141073190Y-55237142D01*
X140977952Y-55284761D01*
X140835095Y-55284761D01*
X140739857Y-55237142D01*
X140692238Y-55189523D01*
X140644619Y-55094285D01*
X140644619Y-54713333D01*
X141644619Y-54713333D01*
X141644619Y-55046666D01*
X141597000Y-55141904D01*
X141549380Y-55189523D01*
X141454142Y-55237142D01*
X141358904Y-55237142D01*
X141263666Y-55189523D01*
X141216047Y-55141904D01*
X141168428Y-55046666D01*
X141168428Y-54713333D01*
X140930333Y-55665714D02*
X140930333Y-56141904D01*
X140644619Y-55570476D02*
X141644619Y-55903809D01*
X140644619Y-56237142D01*
X141644619Y-56475238D02*
X141644619Y-57094285D01*
X141263666Y-56760952D01*
X141263666Y-56903809D01*
X141216047Y-56999047D01*
X141168428Y-57046666D01*
X141073190Y-57094285D01*
X140835095Y-57094285D01*
X140739857Y-57046666D01*
X140692238Y-56999047D01*
X140644619Y-56903809D01*
X140644619Y-56618095D01*
X140692238Y-56522857D01*
X140739857Y-56475238D01*
X181284619Y-124126857D02*
X182284619Y-124126857D01*
X181570333Y-124460190D01*
X182284619Y-124793523D01*
X181284619Y-124793523D01*
X181808428Y-125269714D02*
X181808428Y-125603047D01*
X181284619Y-125745904D02*
X181284619Y-125269714D01*
X182284619Y-125269714D01*
X182284619Y-125745904D01*
X181284619Y-126174476D02*
X182284619Y-126174476D01*
X181570333Y-126507809D01*
X182284619Y-126841142D01*
X181284619Y-126841142D01*
X181284619Y-127888761D02*
X181760809Y-127555428D01*
X181284619Y-127317333D02*
X182284619Y-127317333D01*
X182284619Y-127698285D01*
X182237000Y-127793523D01*
X182189380Y-127841142D01*
X182094142Y-127888761D01*
X181951285Y-127888761D01*
X181856047Y-127841142D01*
X181808428Y-127793523D01*
X181760809Y-127698285D01*
X181760809Y-127317333D01*
X123388428Y-137652238D02*
X123340809Y-137795095D01*
X123293190Y-137842714D01*
X123197952Y-137890333D01*
X123055095Y-137890333D01*
X122959857Y-137842714D01*
X122912238Y-137795095D01*
X122864619Y-137699857D01*
X122864619Y-137318904D01*
X123864619Y-137318904D01*
X123864619Y-137652238D01*
X123817000Y-137747476D01*
X123769380Y-137795095D01*
X123674142Y-137842714D01*
X123578904Y-137842714D01*
X123483666Y-137795095D01*
X123436047Y-137747476D01*
X123388428Y-137652238D01*
X123388428Y-137318904D01*
X122864619Y-138318904D02*
X123864619Y-138318904D01*
X123388428Y-138318904D02*
X123388428Y-138890333D01*
X122864619Y-138890333D02*
X123864619Y-138890333D01*
X123388428Y-139366523D02*
X123388428Y-139699857D01*
X122864619Y-139842714D02*
X122864619Y-139366523D01*
X123864619Y-139366523D01*
X123864619Y-139842714D01*
X171648428Y-54570476D02*
X171600809Y-54713333D01*
X171553190Y-54760952D01*
X171457952Y-54808571D01*
X171315095Y-54808571D01*
X171219857Y-54760952D01*
X171172238Y-54713333D01*
X171124619Y-54618095D01*
X171124619Y-54237142D01*
X172124619Y-54237142D01*
X172124619Y-54570476D01*
X172077000Y-54665714D01*
X172029380Y-54713333D01*
X171934142Y-54760952D01*
X171838904Y-54760952D01*
X171743666Y-54713333D01*
X171696047Y-54665714D01*
X171648428Y-54570476D01*
X171648428Y-54237142D01*
X171410333Y-55189523D02*
X171410333Y-55665714D01*
X171124619Y-55094285D02*
X172124619Y-55427619D01*
X171124619Y-55760952D01*
X171124619Y-56618095D02*
X171124619Y-56046666D01*
X171124619Y-56332380D02*
X172124619Y-56332380D01*
X171981761Y-56237142D01*
X171886523Y-56141904D01*
X171838904Y-56046666D01*
X172124619Y-57522857D02*
X172124619Y-57046666D01*
X171648428Y-56999047D01*
X171696047Y-57046666D01*
X171743666Y-57141904D01*
X171743666Y-57380000D01*
X171696047Y-57475238D01*
X171648428Y-57522857D01*
X171553190Y-57570476D01*
X171315095Y-57570476D01*
X171219857Y-57522857D01*
X171172238Y-57475238D01*
X171124619Y-57380000D01*
X171124619Y-57141904D01*
X171172238Y-57046666D01*
X171219857Y-56999047D01*
X94924619Y-123817333D02*
X95924619Y-123817333D01*
X95924619Y-124055428D01*
X95877000Y-124198285D01*
X95781761Y-124293523D01*
X95686523Y-124341142D01*
X95496047Y-124388761D01*
X95353190Y-124388761D01*
X95162714Y-124341142D01*
X95067476Y-124293523D01*
X94972238Y-124198285D01*
X94924619Y-124055428D01*
X94924619Y-123817333D01*
X95210333Y-124769714D02*
X95210333Y-125245904D01*
X94924619Y-124674476D02*
X95924619Y-125007809D01*
X94924619Y-125341142D01*
X95019857Y-126245904D02*
X94972238Y-126198285D01*
X94924619Y-126055428D01*
X94924619Y-125960190D01*
X94972238Y-125817333D01*
X95067476Y-125722095D01*
X95162714Y-125674476D01*
X95353190Y-125626857D01*
X95496047Y-125626857D01*
X95686523Y-125674476D01*
X95781761Y-125722095D01*
X95877000Y-125817333D01*
X95924619Y-125960190D01*
X95924619Y-126055428D01*
X95877000Y-126198285D01*
X95829380Y-126245904D01*
X94924619Y-126674476D02*
X95924619Y-126674476D01*
X94924619Y-127245904D02*
X95496047Y-126817333D01*
X95924619Y-127245904D02*
X95353190Y-126674476D01*
X95924619Y-128103047D02*
X95924619Y-127912571D01*
X95877000Y-127817333D01*
X95829380Y-127769714D01*
X95686523Y-127674476D01*
X95496047Y-127626857D01*
X95115095Y-127626857D01*
X95019857Y-127674476D01*
X94972238Y-127722095D01*
X94924619Y-127817333D01*
X94924619Y-128007809D01*
X94972238Y-128103047D01*
X95019857Y-128150666D01*
X95115095Y-128198285D01*
X95353190Y-128198285D01*
X95448428Y-128150666D01*
X95496047Y-128103047D01*
X95543666Y-128007809D01*
X95543666Y-127817333D01*
X95496047Y-127722095D01*
X95448428Y-127674476D01*
X95353190Y-127626857D01*
X133548428Y-55046666D02*
X133500809Y-55189523D01*
X133453190Y-55237142D01*
X133357952Y-55284761D01*
X133215095Y-55284761D01*
X133119857Y-55237142D01*
X133072238Y-55189523D01*
X133024619Y-55094285D01*
X133024619Y-54713333D01*
X134024619Y-54713333D01*
X134024619Y-55046666D01*
X133977000Y-55141904D01*
X133929380Y-55189523D01*
X133834142Y-55237142D01*
X133738904Y-55237142D01*
X133643666Y-55189523D01*
X133596047Y-55141904D01*
X133548428Y-55046666D01*
X133548428Y-54713333D01*
X133310333Y-55665714D02*
X133310333Y-56141904D01*
X133024619Y-55570476D02*
X134024619Y-55903809D01*
X133024619Y-56237142D01*
X134024619Y-56760952D02*
X134024619Y-56856190D01*
X133977000Y-56951428D01*
X133929380Y-56999047D01*
X133834142Y-57046666D01*
X133643666Y-57094285D01*
X133405571Y-57094285D01*
X133215095Y-57046666D01*
X133119857Y-56999047D01*
X133072238Y-56951428D01*
X133024619Y-56856190D01*
X133024619Y-56760952D01*
X133072238Y-56665714D01*
X133119857Y-56618095D01*
X133215095Y-56570476D01*
X133405571Y-56522857D01*
X133643666Y-56522857D01*
X133834142Y-56570476D01*
X133929380Y-56618095D01*
X133977000Y-56665714D01*
X134024619Y-56760952D01*
%TO.C,J4*%
X125099380Y-131983333D02*
X125813666Y-131983333D01*
X125956523Y-132030952D01*
X126051761Y-132126190D01*
X126099380Y-132269047D01*
X126099380Y-132364285D01*
X125432714Y-131078571D02*
X126099380Y-131078571D01*
X125051761Y-131316666D02*
X125766047Y-131554761D01*
X125766047Y-130935714D01*
%TO.C,MNT1*%
X229806714Y-78373380D02*
X229806714Y-77373380D01*
X230140047Y-78087666D01*
X230473380Y-77373380D01*
X230473380Y-78373380D01*
X230949571Y-78373380D02*
X230949571Y-77373380D01*
X231521000Y-78373380D01*
X231521000Y-77373380D01*
X231854333Y-77373380D02*
X232425761Y-77373380D01*
X232140047Y-78373380D02*
X232140047Y-77373380D01*
X233282904Y-78373380D02*
X232711476Y-78373380D01*
X232997190Y-78373380D02*
X232997190Y-77373380D01*
X232901952Y-77516238D01*
X232806714Y-77611476D01*
X232711476Y-77659095D01*
%TO.C,MNT2*%
X229806714Y-134888380D02*
X229806714Y-133888380D01*
X230140047Y-134602666D01*
X230473380Y-133888380D01*
X230473380Y-134888380D01*
X230949571Y-134888380D02*
X230949571Y-133888380D01*
X231521000Y-134888380D01*
X231521000Y-133888380D01*
X231854333Y-133888380D02*
X232425761Y-133888380D01*
X232140047Y-134888380D02*
X232140047Y-133888380D01*
X232711476Y-133983619D02*
X232759095Y-133936000D01*
X232854333Y-133888380D01*
X233092428Y-133888380D01*
X233187666Y-133936000D01*
X233235285Y-133983619D01*
X233282904Y-134078857D01*
X233282904Y-134174095D01*
X233235285Y-134316952D01*
X232663857Y-134888380D01*
X233282904Y-134888380D01*
%TO.C,J2*%
X211459380Y-131983333D02*
X212173666Y-131983333D01*
X212316523Y-132030952D01*
X212411761Y-132126190D01*
X212459380Y-132269047D01*
X212459380Y-132364285D01*
X211554619Y-131554761D02*
X211507000Y-131507142D01*
X211459380Y-131411904D01*
X211459380Y-131173809D01*
X211507000Y-131078571D01*
X211554619Y-131030952D01*
X211649857Y-130983333D01*
X211745095Y-130983333D01*
X211887952Y-131030952D01*
X212459380Y-131602380D01*
X212459380Y-130983333D01*
%TO.C,J3*%
X211459380Y-134523333D02*
X212173666Y-134523333D01*
X212316523Y-134570952D01*
X212411761Y-134666190D01*
X212459380Y-134809047D01*
X212459380Y-134904285D01*
X211459380Y-134142380D02*
X211459380Y-133523333D01*
X211840333Y-133856666D01*
X211840333Y-133713809D01*
X211887952Y-133618571D01*
X211935571Y-133570952D01*
X212030809Y-133523333D01*
X212268904Y-133523333D01*
X212364142Y-133570952D01*
X212411761Y-133618571D01*
X212459380Y-133713809D01*
X212459380Y-133999523D01*
X212411761Y-134094761D01*
X212364142Y-134142380D01*
%TO.C,J5*%
X125099380Y-134523333D02*
X125813666Y-134523333D01*
X125956523Y-134570952D01*
X126051761Y-134666190D01*
X126099380Y-134809047D01*
X126099380Y-134904285D01*
X125099380Y-133570952D02*
X125099380Y-134047142D01*
X125575571Y-134094761D01*
X125527952Y-134047142D01*
X125480333Y-133951904D01*
X125480333Y-133713809D01*
X125527952Y-133618571D01*
X125575571Y-133570952D01*
X125670809Y-133523333D01*
X125908904Y-133523333D01*
X126004142Y-133570952D01*
X126051761Y-133618571D01*
X126099380Y-133713809D01*
X126099380Y-133951904D01*
X126051761Y-134047142D01*
X126004142Y-134094761D01*
D12*
%TO.C,J4*%
X78807000Y-130320000D02*
X78807000Y-132980000D01*
X122047000Y-130320000D02*
X122047000Y-132980000D01*
X122047000Y-132980000D02*
X78807000Y-132980000D01*
X123317000Y-130320000D02*
X124647000Y-130320000D01*
X122047000Y-130320000D02*
X78807000Y-130320000D01*
X124647000Y-130320000D02*
X124647000Y-131650000D01*
%TO.C,J2*%
X209677000Y-130320000D02*
X211007000Y-130320000D01*
X208407000Y-130320000D02*
X132147000Y-130320000D01*
X132147000Y-130320000D02*
X132147000Y-132980000D01*
X208407000Y-130320000D02*
X208407000Y-132980000D01*
X211007000Y-130320000D02*
X211007000Y-131650000D01*
X208407000Y-132980000D02*
X132147000Y-132980000D01*
%TO.C,J1*%
X212277000Y-151430000D02*
X212277000Y-142480000D01*
X77527000Y-142480000D02*
X77127000Y-142480000D01*
X125927000Y-151430000D02*
X125927000Y-143830000D01*
X130877000Y-143830000D02*
X130877000Y-151430000D01*
X125927000Y-143830000D02*
X130877000Y-143830000D01*
X212277000Y-142480000D02*
X212677000Y-142480000D01*
X77527000Y-151430000D02*
X77527000Y-142480000D01*
%TO.C,J3*%
X209677000Y-132860000D02*
X211007000Y-132860000D01*
X211007000Y-132860000D02*
X211007000Y-134190000D01*
X208407000Y-132860000D02*
X132147000Y-132860000D01*
X132147000Y-132860000D02*
X132147000Y-135520000D01*
X208407000Y-132860000D02*
X208407000Y-135520000D01*
X208407000Y-135520000D02*
X132147000Y-135520000D01*
%TO.C,J5*%
X122047000Y-132860000D02*
X122047000Y-135520000D01*
X122047000Y-132860000D02*
X78807000Y-132860000D01*
X122047000Y-135520000D02*
X78807000Y-135520000D01*
X123317000Y-132860000D02*
X124647000Y-132860000D01*
X124647000Y-132860000D02*
X124647000Y-134190000D01*
X78807000Y-132860000D02*
X78807000Y-135520000D01*
%TD*%
M02*
