%TF.GenerationSoftware,KiCad,Pcbnew,(6.0.11)*%
%TF.CreationDate,2023-06-06T08:43:51+02:00*%
%TF.ProjectId,DIN41612-ISA,44494e34-3136-4313-922d-4953412e6b69,rev?*%
%TF.SameCoordinates,Original*%
%TF.FileFunction,Soldermask,Top*%
%TF.FilePolarity,Negative*%
%FSLAX46Y46*%
G04 Gerber Fmt 4.6, Leading zero omitted, Abs format (unit mm)*
G04 Created by KiCad (PCBNEW (6.0.11)) date 2023-06-06 08:43:51*
%MOMM*%
%LPD*%
G01*
G04 APERTURE LIST*
G04 Aperture macros list*
%AMRoundRect*
0 Rectangle with rounded corners*
0 $1 Rounding radius*
0 $2 $3 $4 $5 $6 $7 $8 $9 X,Y pos of 4 corners*
0 Add a 4 corners polygon primitive as box body*
4,1,4,$2,$3,$4,$5,$6,$7,$8,$9,$2,$3,0*
0 Add four circle primitives for the rounded corners*
1,1,$1+$1,$2,$3*
1,1,$1+$1,$4,$5*
1,1,$1+$1,$6,$7*
1,1,$1+$1,$8,$9*
0 Add four rect primitives between the rounded corners*
20,1,$1+$1,$2,$3,$4,$5,0*
20,1,$1+$1,$4,$5,$6,$7,0*
20,1,$1+$1,$6,$7,$8,$9,0*
20,1,$1+$1,$8,$9,$2,$3,0*%
G04 Aperture macros list end*
%ADD10R,1.700000X1.700000*%
%ADD11O,1.700000X1.700000*%
%ADD12C,4.064000*%
%ADD13R,1.780000X7.620000*%
%ADD14C,2.850000*%
%ADD15RoundRect,0.249999X0.525001X0.525001X-0.525001X0.525001X-0.525001X-0.525001X0.525001X-0.525001X0*%
%ADD16C,1.550000*%
G04 APERTURE END LIST*
D10*
%TO.C,J4*%
X123317000Y-131650000D03*
D11*
X120777000Y-131650000D03*
X118237000Y-131650000D03*
X115697000Y-131650000D03*
X113157000Y-131650000D03*
X110617000Y-131650000D03*
X108077000Y-131650000D03*
X105537000Y-131650000D03*
X102997000Y-131650000D03*
X100457000Y-131650000D03*
X97917000Y-131650000D03*
X95377000Y-131650000D03*
X92837000Y-131650000D03*
X90297000Y-131650000D03*
X87757000Y-131650000D03*
X85217000Y-131650000D03*
X82677000Y-131650000D03*
X80137000Y-131650000D03*
%TD*%
D12*
%TO.C,MNT1*%
X231521000Y-81921000D03*
X231521000Y-81921000D03*
%TD*%
%TO.C,MNT2*%
X231521000Y-138436000D03*
X231521000Y-138436000D03*
%TD*%
D10*
%TO.C,J2*%
X209677000Y-131650000D03*
D11*
X207137000Y-131650000D03*
X204597000Y-131650000D03*
X202057000Y-131650000D03*
X199517000Y-131650000D03*
X196977000Y-131650000D03*
X194437000Y-131650000D03*
X191897000Y-131650000D03*
X189357000Y-131650000D03*
X186817000Y-131650000D03*
X184277000Y-131650000D03*
X181737000Y-131650000D03*
X179197000Y-131650000D03*
X176657000Y-131650000D03*
X174117000Y-131650000D03*
X171577000Y-131650000D03*
X169037000Y-131650000D03*
X166497000Y-131650000D03*
X163957000Y-131650000D03*
X161417000Y-131650000D03*
X158877000Y-131650000D03*
X156337000Y-131650000D03*
X153797000Y-131650000D03*
X151257000Y-131650000D03*
X148717000Y-131650000D03*
X146177000Y-131650000D03*
X143637000Y-131650000D03*
X141097000Y-131650000D03*
X138557000Y-131650000D03*
X136017000Y-131650000D03*
X133477000Y-131650000D03*
%TD*%
D13*
%TO.C,J1*%
X209677000Y-147580000D03*
X207137000Y-147580000D03*
X204597000Y-147580000D03*
X202057000Y-147580000D03*
X199517000Y-147580000D03*
X196977000Y-147580000D03*
X194437000Y-147580000D03*
X191897000Y-147580000D03*
X189357000Y-147580000D03*
X186817000Y-147580000D03*
X184277000Y-147580000D03*
X181737000Y-147580000D03*
X179197000Y-147580000D03*
X176657000Y-147580000D03*
X174117000Y-147580000D03*
X171577000Y-147580000D03*
X169037000Y-147580000D03*
X166497000Y-147580000D03*
X163957000Y-147580000D03*
X161417000Y-147580000D03*
X158877000Y-147580000D03*
X156337000Y-147580000D03*
X153797000Y-147580000D03*
X151257000Y-147580000D03*
X148717000Y-147580000D03*
X146177000Y-147580000D03*
X143637000Y-147580000D03*
X141097000Y-147580000D03*
X138557000Y-147580000D03*
X136017000Y-147580000D03*
X133477000Y-147580000D03*
X123317000Y-147580000D03*
X120777000Y-147580000D03*
X118237000Y-147580000D03*
X115697000Y-147580000D03*
X113157000Y-147580000D03*
X110617000Y-147580000D03*
X108077000Y-147580000D03*
X105537000Y-147580000D03*
X102997000Y-147580000D03*
X100457000Y-147580000D03*
X97917000Y-147580000D03*
X95377000Y-147580000D03*
X92837000Y-147580000D03*
X90297000Y-147580000D03*
X87757000Y-147580000D03*
X85217000Y-147580000D03*
X82677000Y-147580000D03*
X80137000Y-147580000D03*
%TD*%
D10*
%TO.C,J3*%
X209677000Y-134190000D03*
D11*
X207137000Y-134190000D03*
X204597000Y-134190000D03*
X202057000Y-134190000D03*
X199517000Y-134190000D03*
X196977000Y-134190000D03*
X194437000Y-134190000D03*
X191897000Y-134190000D03*
X189357000Y-134190000D03*
X186817000Y-134190000D03*
X184277000Y-134190000D03*
X181737000Y-134190000D03*
X179197000Y-134190000D03*
X176657000Y-134190000D03*
X174117000Y-134190000D03*
X171577000Y-134190000D03*
X169037000Y-134190000D03*
X166497000Y-134190000D03*
X163957000Y-134190000D03*
X161417000Y-134190000D03*
X158877000Y-134190000D03*
X156337000Y-134190000D03*
X153797000Y-134190000D03*
X151257000Y-134190000D03*
X148717000Y-134190000D03*
X146177000Y-134190000D03*
X143637000Y-134190000D03*
X141097000Y-134190000D03*
X138557000Y-134190000D03*
X136017000Y-134190000D03*
X133477000Y-134190000D03*
%TD*%
D10*
%TO.C,J5*%
X123317000Y-134190000D03*
D11*
X120777000Y-134190000D03*
X118237000Y-134190000D03*
X115697000Y-134190000D03*
X113157000Y-134190000D03*
X110617000Y-134190000D03*
X108077000Y-134190000D03*
X105537000Y-134190000D03*
X102997000Y-134190000D03*
X100457000Y-134190000D03*
X97917000Y-134190000D03*
X95377000Y-134190000D03*
X92837000Y-134190000D03*
X90297000Y-134190000D03*
X87757000Y-134190000D03*
X85217000Y-134190000D03*
X82677000Y-134190000D03*
X80137000Y-134190000D03*
%TD*%
D14*
%TO.C,U1*%
X214757000Y-44202000D03*
X125857000Y-44202000D03*
D15*
X209677000Y-46742000D03*
D16*
X207137000Y-46742000D03*
X204597000Y-46742000D03*
X202057000Y-46742000D03*
X199517000Y-46742000D03*
X196977000Y-46742000D03*
X194437000Y-46742000D03*
X191897000Y-46742000D03*
X189357000Y-46742000D03*
X186817000Y-46742000D03*
X184277000Y-46742000D03*
X181737000Y-46742000D03*
X179197000Y-46742000D03*
X176657000Y-46742000D03*
X174117000Y-46742000D03*
X171577000Y-46742000D03*
X169037000Y-46742000D03*
X166497000Y-46742000D03*
X163957000Y-46742000D03*
X161417000Y-46742000D03*
X158877000Y-46742000D03*
X156337000Y-46742000D03*
X153797000Y-46742000D03*
X151257000Y-46742000D03*
X148717000Y-46742000D03*
X146177000Y-46742000D03*
X143637000Y-46742000D03*
X141097000Y-46742000D03*
X138557000Y-46742000D03*
X136017000Y-46742000D03*
X133477000Y-46742000D03*
X130937000Y-46742000D03*
X209677000Y-49282000D03*
X207137000Y-49282000D03*
X204597000Y-49282000D03*
X202057000Y-49282000D03*
X199517000Y-49282000D03*
X196977000Y-49282000D03*
X194437000Y-49282000D03*
X191897000Y-49282000D03*
X189357000Y-49282000D03*
X186817000Y-49282000D03*
X184277000Y-49282000D03*
X181737000Y-49282000D03*
X179197000Y-49282000D03*
X176657000Y-49282000D03*
X174117000Y-49282000D03*
X171577000Y-49282000D03*
X169037000Y-49282000D03*
X166497000Y-49282000D03*
X163957000Y-49282000D03*
X161417000Y-49282000D03*
X158877000Y-49282000D03*
X156337000Y-49282000D03*
X153797000Y-49282000D03*
X151257000Y-49282000D03*
X148717000Y-49282000D03*
X146177000Y-49282000D03*
X143637000Y-49282000D03*
X141097000Y-49282000D03*
X138557000Y-49282000D03*
X136017000Y-49282000D03*
X133477000Y-49282000D03*
X130937000Y-49282000D03*
X209677000Y-51822000D03*
X207137000Y-51822000D03*
X204597000Y-51822000D03*
X202057000Y-51822000D03*
X199517000Y-51822000D03*
X196977000Y-51822000D03*
X194437000Y-51822000D03*
X191897000Y-51822000D03*
X189357000Y-51822000D03*
X186817000Y-51822000D03*
X184277000Y-51822000D03*
X181737000Y-51822000D03*
X179197000Y-51822000D03*
X176657000Y-51822000D03*
X174117000Y-51822000D03*
X171577000Y-51822000D03*
X169037000Y-51822000D03*
X166497000Y-51822000D03*
X163957000Y-51822000D03*
X161417000Y-51822000D03*
X158877000Y-51822000D03*
X156337000Y-51822000D03*
X153797000Y-51822000D03*
X151257000Y-51822000D03*
X148717000Y-51822000D03*
X146177000Y-51822000D03*
X143637000Y-51822000D03*
X141097000Y-51822000D03*
X138557000Y-51822000D03*
X136017000Y-51822000D03*
X133477000Y-51822000D03*
X130937000Y-51822000D03*
%TD*%
M02*
