%TF.GenerationSoftware,KiCad,Pcbnew,(6.0.11)*%
%TF.CreationDate,2023-06-06T08:43:50+02:00*%
%TF.ProjectId,DIN41612-ISA,44494e34-3136-4313-922d-4953412e6b69,rev?*%
%TF.SameCoordinates,Original*%
%TF.FileFunction,Copper,L2,Bot*%
%TF.FilePolarity,Positive*%
%FSLAX46Y46*%
G04 Gerber Fmt 4.6, Leading zero omitted, Abs format (unit mm)*
G04 Created by KiCad (PCBNEW (6.0.11)) date 2023-06-06 08:43:50*
%MOMM*%
%LPD*%
G01*
G04 APERTURE LIST*
G04 Aperture macros list*
%AMRoundRect*
0 Rectangle with rounded corners*
0 $1 Rounding radius*
0 $2 $3 $4 $5 $6 $7 $8 $9 X,Y pos of 4 corners*
0 Add a 4 corners polygon primitive as box body*
4,1,4,$2,$3,$4,$5,$6,$7,$8,$9,$2,$3,0*
0 Add four circle primitives for the rounded corners*
1,1,$1+$1,$2,$3*
1,1,$1+$1,$4,$5*
1,1,$1+$1,$6,$7*
1,1,$1+$1,$8,$9*
0 Add four rect primitives between the rounded corners*
20,1,$1+$1,$2,$3,$4,$5,0*
20,1,$1+$1,$4,$5,$6,$7,0*
20,1,$1+$1,$6,$7,$8,$9,0*
20,1,$1+$1,$8,$9,$2,$3,0*%
G04 Aperture macros list end*
%TA.AperFunction,ComponentPad*%
%ADD10R,1.700000X1.700000*%
%TD*%
%TA.AperFunction,ComponentPad*%
%ADD11O,1.700000X1.700000*%
%TD*%
%TA.AperFunction,ComponentPad*%
%ADD12C,4.064000*%
%TD*%
%TA.AperFunction,ConnectorPad*%
%ADD13R,1.780000X7.620000*%
%TD*%
%TA.AperFunction,ComponentPad*%
%ADD14RoundRect,0.249999X0.525001X0.525001X-0.525001X0.525001X-0.525001X-0.525001X0.525001X-0.525001X0*%
%TD*%
%TA.AperFunction,ComponentPad*%
%ADD15C,1.550000*%
%TD*%
%TA.AperFunction,ViaPad*%
%ADD16C,0.800000*%
%TD*%
%TA.AperFunction,Conductor*%
%ADD17C,0.350000*%
%TD*%
%TA.AperFunction,Conductor*%
%ADD18C,0.200000*%
%TD*%
%TA.AperFunction,Conductor*%
%ADD19C,0.300000*%
%TD*%
G04 APERTURE END LIST*
D10*
%TO.P,J4,1,Pin_1*%
%TO.N,/MEMCS16*%
X123317000Y-131650000D03*
D11*
%TO.P,J4,2,Pin_2*%
%TO.N,/IOCS16*%
X120777000Y-131650000D03*
%TO.P,J4,3,Pin_3*%
%TO.N,/IRQ10*%
X118237000Y-131650000D03*
%TO.P,J4,4,Pin_4*%
%TO.N,/IRQ11*%
X115697000Y-131650000D03*
%TO.P,J4,5,Pin_5*%
%TO.N,/IRQ12*%
X113157000Y-131650000D03*
%TO.P,J4,6,Pin_6*%
%TO.N,/IRQ15*%
X110617000Y-131650000D03*
%TO.P,J4,7,Pin_7*%
%TO.N,/IRQ14*%
X108077000Y-131650000D03*
%TO.P,J4,8,Pin_8*%
%TO.N,Net-(J1-Pad70)*%
X105537000Y-131650000D03*
%TO.P,J4,9,Pin_9*%
%TO.N,Net-(J1-Pad71)*%
X102997000Y-131650000D03*
%TO.P,J4,10,Pin_10*%
%TO.N,Net-(J1-Pad72)*%
X100457000Y-131650000D03*
%TO.P,J4,11,Pin_11*%
%TO.N,Net-(J1-Pad73)*%
X97917000Y-131650000D03*
%TO.P,J4,12,Pin_12*%
%TO.N,Net-(J1-Pad74)*%
X95377000Y-131650000D03*
%TO.P,J4,13,Pin_13*%
%TO.N,Net-(J1-Pad75)*%
X92837000Y-131650000D03*
%TO.P,J4,14,Pin_14*%
%TO.N,Net-(J1-Pad76)*%
X90297000Y-131650000D03*
%TO.P,J4,15,Pin_15*%
%TO.N,Net-(J1-Pad77)*%
X87757000Y-131650000D03*
%TO.P,J4,16,Pin_16*%
%TO.N,/+5V*%
X85217000Y-131650000D03*
%TO.P,J4,17,Pin_17*%
%TO.N,/MASTER*%
X82677000Y-131650000D03*
%TO.P,J4,18,Pin_18*%
%TO.N,/GND*%
X80137000Y-131650000D03*
%TD*%
D12*
%TO.P,MNT1,1*%
%TO.N,/GND*%
X231521000Y-81921000D03*
X231521000Y-81921000D03*
%TD*%
%TO.P,MNT2,1*%
%TO.N,/GND*%
X231521000Y-138436000D03*
X231521000Y-138436000D03*
%TD*%
D10*
%TO.P,J2,1,Pin_1*%
%TO.N,/GND*%
X209677000Y-131650000D03*
D11*
%TO.P,J2,2,Pin_2*%
%TO.N,/RESET*%
X207137000Y-131650000D03*
%TO.P,J2,3,Pin_3*%
%TO.N,/+5V*%
X204597000Y-131650000D03*
%TO.P,J2,4,Pin_4*%
%TO.N,/IRQ2*%
X202057000Y-131650000D03*
%TO.P,J2,5,Pin_5*%
%TO.N,/-5V*%
X199517000Y-131650000D03*
%TO.P,J2,6,Pin_6*%
%TO.N,/DRQ2*%
X196977000Y-131650000D03*
%TO.P,J2,7,Pin_7*%
%TO.N,/-12V*%
X194437000Y-131650000D03*
%TO.P,J2,8,Pin_8*%
%TO.N,unconnected-(J2-Pad8)*%
X191897000Y-131650000D03*
%TO.P,J2,9,Pin_9*%
%TO.N,/+12V*%
X189357000Y-131650000D03*
%TO.P,J2,10,Pin_10*%
%TO.N,/GND*%
X186817000Y-131650000D03*
%TO.P,J2,11,Pin_11*%
%TO.N,/MEMW*%
X184277000Y-131650000D03*
%TO.P,J2,12,Pin_12*%
%TO.N,/MEMR*%
X181737000Y-131650000D03*
%TO.P,J2,13,Pin_13*%
%TO.N,/IOW*%
X179197000Y-131650000D03*
%TO.P,J2,14,Pin_14*%
%TO.N,/IOR*%
X176657000Y-131650000D03*
%TO.P,J2,15,Pin_15*%
%TO.N,/DACK3*%
X174117000Y-131650000D03*
%TO.P,J2,16,Pin_16*%
%TO.N,/DRQ3*%
X171577000Y-131650000D03*
%TO.P,J2,17,Pin_17*%
%TO.N,/DACK1*%
X169037000Y-131650000D03*
%TO.P,J2,18,Pin_18*%
%TO.N,/DRQ1*%
X166497000Y-131650000D03*
%TO.P,J2,19,Pin_19*%
%TO.N,/REFR*%
X163957000Y-131650000D03*
%TO.P,J2,20,Pin_20*%
%TO.N,/CLK*%
X161417000Y-131650000D03*
%TO.P,J2,21,Pin_21*%
%TO.N,/IRQ7*%
X158877000Y-131650000D03*
%TO.P,J2,22,Pin_22*%
%TO.N,/IRQ6*%
X156337000Y-131650000D03*
%TO.P,J2,23,Pin_23*%
%TO.N,/IRQ5*%
X153797000Y-131650000D03*
%TO.P,J2,24,Pin_24*%
%TO.N,/IRQ4*%
X151257000Y-131650000D03*
%TO.P,J2,25,Pin_25*%
%TO.N,/IRQ3*%
X148717000Y-131650000D03*
%TO.P,J2,26,Pin_26*%
%TO.N,/DACK2*%
X146177000Y-131650000D03*
%TO.P,J2,27,Pin_27*%
%TO.N,/TC*%
X143637000Y-131650000D03*
%TO.P,J2,28,Pin_28*%
%TO.N,/ALE*%
X141097000Y-131650000D03*
%TO.P,J2,29,Pin_29*%
%TO.N,/+5V*%
X138557000Y-131650000D03*
%TO.P,J2,30,Pin_30*%
%TO.N,/OSC*%
X136017000Y-131650000D03*
%TO.P,J2,31,Pin_31*%
%TO.N,/GND*%
X133477000Y-131650000D03*
%TD*%
D13*
%TO.P,J1,1,GND*%
%TO.N,/GND*%
X209677000Y-147580000D03*
%TO.P,J1,2,RESET*%
%TO.N,/RESET*%
X207137000Y-147580000D03*
%TO.P,J1,3,+5V*%
%TO.N,/+5V*%
X204597000Y-147580000D03*
%TO.P,J1,4,IRQ2*%
%TO.N,/IRQ2*%
X202057000Y-147580000D03*
%TO.P,J1,5,-5V*%
%TO.N,/-5V*%
X199517000Y-147580000D03*
%TO.P,J1,6,DRQ2*%
%TO.N,/DRQ2*%
X196977000Y-147580000D03*
%TO.P,J1,7,-12V*%
%TO.N,/-12V*%
X194437000Y-147580000D03*
%TO.P,J1,8,UNUSED*%
%TO.N,unconnected-(J1-Pad8)*%
X191897000Y-147580000D03*
%TO.P,J1,9,+12V*%
%TO.N,/+12V*%
X189357000Y-147580000D03*
%TO.P,J1,10,GND*%
%TO.N,/GND*%
X186817000Y-147580000D03*
%TO.P,J1,11,~{SMEMW}*%
%TO.N,/MEMW*%
X184277000Y-147580000D03*
%TO.P,J1,12,~{SMEMR}*%
%TO.N,/MEMR*%
X181737000Y-147580000D03*
%TO.P,J1,13,~{IOW}*%
%TO.N,/IOW*%
X179197000Y-147580000D03*
%TO.P,J1,14,~{IOR}*%
%TO.N,/IOR*%
X176657000Y-147580000D03*
%TO.P,J1,15,~{DACK3}*%
%TO.N,/DACK3*%
X174117000Y-147580000D03*
%TO.P,J1,16,DRQ3*%
%TO.N,/DRQ3*%
X171577000Y-147580000D03*
%TO.P,J1,17,~{DACK1}*%
%TO.N,/DACK1*%
X169037000Y-147580000D03*
%TO.P,J1,18,DRQ1*%
%TO.N,/DRQ1*%
X166497000Y-147580000D03*
%TO.P,J1,19,~{REFRESH}*%
%TO.N,/REFR*%
X163957000Y-147580000D03*
%TO.P,J1,20,CLK*%
%TO.N,/CLK*%
X161417000Y-147580000D03*
%TO.P,J1,21,IRQ7*%
%TO.N,/IRQ7*%
X158877000Y-147580000D03*
%TO.P,J1,22,IRQ6*%
%TO.N,/IRQ6*%
X156337000Y-147580000D03*
%TO.P,J1,23,IRQ5*%
%TO.N,/IRQ5*%
X153797000Y-147580000D03*
%TO.P,J1,24,IRQ4*%
%TO.N,/IRQ4*%
X151257000Y-147580000D03*
%TO.P,J1,25,IRQ3*%
%TO.N,/IRQ3*%
X148717000Y-147580000D03*
%TO.P,J1,26,~{DACK2}*%
%TO.N,/DACK2*%
X146177000Y-147580000D03*
%TO.P,J1,27,TC*%
%TO.N,/TC*%
X143637000Y-147580000D03*
%TO.P,J1,28,ALE*%
%TO.N,/ALE*%
X141097000Y-147580000D03*
%TO.P,J1,29,VCC*%
%TO.N,/+5V*%
X138557000Y-147580000D03*
%TO.P,J1,30,OSC*%
%TO.N,/OSC*%
X136017000Y-147580000D03*
%TO.P,J1,31,GND*%
%TO.N,/GND*%
X133477000Y-147580000D03*
%TO.P,J1,63,~{MEMCS16}*%
%TO.N,/MEMCS16*%
X123317000Y-147580000D03*
%TO.P,J1,64,~{IOCS16}*%
%TO.N,/IOCS16*%
X120777000Y-147580000D03*
%TO.P,J1,65,IRQ10*%
%TO.N,/IRQ10*%
X118237000Y-147580000D03*
%TO.P,J1,66,IRQ11*%
%TO.N,/IRQ11*%
X115697000Y-147580000D03*
%TO.P,J1,67,IRQ12*%
%TO.N,/IRQ12*%
X113157000Y-147580000D03*
%TO.P,J1,68,IRQ15*%
%TO.N,/IRQ15*%
X110617000Y-147580000D03*
%TO.P,J1,69,IRQ14*%
%TO.N,/IRQ14*%
X108077000Y-147580000D03*
%TO.P,J1,70,~{DACK0}*%
%TO.N,Net-(J1-Pad70)*%
X105537000Y-147580000D03*
%TO.P,J1,71,DRQ0*%
%TO.N,Net-(J1-Pad71)*%
X102997000Y-147580000D03*
%TO.P,J1,72,~{DACK5}*%
%TO.N,Net-(J1-Pad72)*%
X100457000Y-147580000D03*
%TO.P,J1,73,DRQ5*%
%TO.N,Net-(J1-Pad73)*%
X97917000Y-147580000D03*
%TO.P,J1,74,~{DACK6}*%
%TO.N,Net-(J1-Pad74)*%
X95377000Y-147580000D03*
%TO.P,J1,75,DRQ6*%
%TO.N,Net-(J1-Pad75)*%
X92837000Y-147580000D03*
%TO.P,J1,76,~{DACK7}*%
%TO.N,Net-(J1-Pad76)*%
X90297000Y-147580000D03*
%TO.P,J1,77,DRQ7*%
%TO.N,Net-(J1-Pad77)*%
X87757000Y-147580000D03*
%TO.P,J1,78,+5V*%
%TO.N,/+5V*%
X85217000Y-147580000D03*
%TO.P,J1,79,MASTER*%
%TO.N,/MASTER*%
X82677000Y-147580000D03*
%TO.P,J1,80,GND*%
%TO.N,/GND*%
X80137000Y-147580000D03*
%TD*%
D10*
%TO.P,J3,1,Pin_1*%
%TO.N,/IOCHK*%
X209677000Y-134190000D03*
D11*
%TO.P,J3,2,Pin_2*%
%TO.N,/DB7*%
X207137000Y-134190000D03*
%TO.P,J3,3,Pin_3*%
%TO.N,/DB6*%
X204597000Y-134190000D03*
%TO.P,J3,4,Pin_4*%
%TO.N,/DB5*%
X202057000Y-134190000D03*
%TO.P,J3,5,Pin_5*%
%TO.N,/DB4*%
X199517000Y-134190000D03*
%TO.P,J3,6,Pin_6*%
%TO.N,/DB3*%
X196977000Y-134190000D03*
%TO.P,J3,7,Pin_7*%
%TO.N,/DB2*%
X194437000Y-134190000D03*
%TO.P,J3,8,Pin_8*%
%TO.N,/DB1*%
X191897000Y-134190000D03*
%TO.P,J3,9,Pin_9*%
%TO.N,/DB0*%
X189357000Y-134190000D03*
%TO.P,J3,10,Pin_10*%
%TO.N,/IORDY*%
X186817000Y-134190000D03*
%TO.P,J3,11,Pin_11*%
%TO.N,/AEN*%
X184277000Y-134190000D03*
%TO.P,J3,12,Pin_12*%
%TO.N,/BA19*%
X181737000Y-134190000D03*
%TO.P,J3,13,Pin_13*%
%TO.N,/BA18*%
X179197000Y-134190000D03*
%TO.P,J3,14,Pin_14*%
%TO.N,/BA17*%
X176657000Y-134190000D03*
%TO.P,J3,15,Pin_15*%
%TO.N,/BA16*%
X174117000Y-134190000D03*
%TO.P,J3,16,Pin_16*%
%TO.N,/BA15*%
X171577000Y-134190000D03*
%TO.P,J3,17,Pin_17*%
%TO.N,/BA14*%
X169037000Y-134190000D03*
%TO.P,J3,18,Pin_18*%
%TO.N,/BA13*%
X166497000Y-134190000D03*
%TO.P,J3,19,Pin_19*%
%TO.N,/BA12*%
X163957000Y-134190000D03*
%TO.P,J3,20,Pin_20*%
%TO.N,/BA11*%
X161417000Y-134190000D03*
%TO.P,J3,21,Pin_21*%
%TO.N,/BA10*%
X158877000Y-134190000D03*
%TO.P,J3,22,Pin_22*%
%TO.N,/BA9*%
X156337000Y-134190000D03*
%TO.P,J3,23,Pin_23*%
%TO.N,/BA8*%
X153797000Y-134190000D03*
%TO.P,J3,24,Pin_24*%
%TO.N,/BA7*%
X151257000Y-134190000D03*
%TO.P,J3,25,Pin_25*%
%TO.N,/BA6*%
X148717000Y-134190000D03*
%TO.P,J3,26,Pin_26*%
%TO.N,/BA5*%
X146177000Y-134190000D03*
%TO.P,J3,27,Pin_27*%
%TO.N,/BA4*%
X143637000Y-134190000D03*
%TO.P,J3,28,Pin_28*%
%TO.N,/BA3*%
X141097000Y-134190000D03*
%TO.P,J3,29,Pin_29*%
%TO.N,/BA2*%
X138557000Y-134190000D03*
%TO.P,J3,30,Pin_30*%
%TO.N,/BA1*%
X136017000Y-134190000D03*
%TO.P,J3,31,Pin_31*%
%TO.N,/BA0*%
X133477000Y-134190000D03*
%TD*%
D10*
%TO.P,J5,1,Pin_1*%
%TO.N,/BHE*%
X123317000Y-134190000D03*
D11*
%TO.P,J5,2,Pin_2*%
%TO.N,/LA23*%
X120777000Y-134190000D03*
%TO.P,J5,3,Pin_3*%
%TO.N,/LA22*%
X118237000Y-134190000D03*
%TO.P,J5,4,Pin_4*%
%TO.N,/LA21*%
X115697000Y-134190000D03*
%TO.P,J5,5,Pin_5*%
%TO.N,/LA20*%
X113157000Y-134190000D03*
%TO.P,J5,6,Pin_6*%
%TO.N,/LA19*%
X110617000Y-134190000D03*
%TO.P,J5,7,Pin_7*%
%TO.N,/LA18*%
X108077000Y-134190000D03*
%TO.P,J5,8,Pin_8*%
%TO.N,/LA17*%
X105537000Y-134190000D03*
%TO.P,J5,9,Pin_9*%
%TO.N,/MEMR2*%
X102997000Y-134190000D03*
%TO.P,J5,10,Pin_10*%
%TO.N,/MEMW2*%
X100457000Y-134190000D03*
%TO.P,J5,11,Pin_11*%
%TO.N,/DB8*%
X97917000Y-134190000D03*
%TO.P,J5,12,Pin_12*%
%TO.N,/DB9*%
X95377000Y-134190000D03*
%TO.P,J5,13,Pin_13*%
%TO.N,/DB10*%
X92837000Y-134190000D03*
%TO.P,J5,14,Pin_14*%
%TO.N,/DB11*%
X90297000Y-134190000D03*
%TO.P,J5,15,Pin_15*%
%TO.N,/DB12*%
X87757000Y-134190000D03*
%TO.P,J5,16,Pin_16*%
%TO.N,/DB13*%
X85217000Y-134190000D03*
%TO.P,J5,17,Pin_17*%
%TO.N,/DB14*%
X82677000Y-134190000D03*
%TO.P,J5,18,Pin_18*%
%TO.N,/DB15*%
X80137000Y-134190000D03*
%TD*%
D14*
%TO.P,U1,a1,GND*%
%TO.N,/GND*%
X209677000Y-46742000D03*
D15*
%TO.P,U1,a2,RESET*%
%TO.N,/RESET*%
X207137000Y-46742000D03*
%TO.P,U1,a3,+5V*%
%TO.N,/+5V*%
X204597000Y-46742000D03*
%TO.P,U1,a4,IRQ2*%
%TO.N,/IRQ2*%
X202057000Y-46742000D03*
%TO.P,U1,a5,-5V*%
%TO.N,/-5V*%
X199517000Y-46742000D03*
%TO.P,U1,a6,DRQ2*%
%TO.N,/DRQ2*%
X196977000Y-46742000D03*
%TO.P,U1,a7,-12V*%
%TO.N,/-12V*%
X194437000Y-46742000D03*
%TO.P,U1,a8,UNUSED*%
%TO.N,unconnected-(U1-Pada8)*%
X191897000Y-46742000D03*
%TO.P,U1,a9,+12V*%
%TO.N,/+12V*%
X189357000Y-46742000D03*
%TO.P,U1,a10,GND*%
%TO.N,/GND*%
X186817000Y-46742000D03*
%TO.P,U1,a11,~{MEMW}*%
%TO.N,/MEMW*%
X184277000Y-46742000D03*
%TO.P,U1,a12,~{MEMR}*%
%TO.N,/MEMR*%
X181737000Y-46742000D03*
%TO.P,U1,a13,~{IOW}*%
%TO.N,/IOW*%
X179197000Y-46742000D03*
%TO.P,U1,a14,~{IOR}*%
%TO.N,/IOR*%
X176657000Y-46742000D03*
%TO.P,U1,a15,~{DACK3}*%
%TO.N,/DACK3*%
X174117000Y-46742000D03*
%TO.P,U1,a16,DRQ3*%
%TO.N,/DRQ3*%
X171577000Y-46742000D03*
%TO.P,U1,a17,~{DACK1}*%
%TO.N,/DACK1*%
X169037000Y-46742000D03*
%TO.P,U1,a18,DRQ1*%
%TO.N,/DRQ1*%
X166497000Y-46742000D03*
%TO.P,U1,a19,~{DACK0}*%
%TO.N,/REFR*%
X163957000Y-46742000D03*
%TO.P,U1,a20,CLK*%
%TO.N,/CLK*%
X161417000Y-46742000D03*
%TO.P,U1,a21,IRQ7*%
%TO.N,/IRQ7*%
X158877000Y-46742000D03*
%TO.P,U1,a22,IRQ6*%
%TO.N,/IRQ6*%
X156337000Y-46742000D03*
%TO.P,U1,a23,IRQ5*%
%TO.N,/IRQ5*%
X153797000Y-46742000D03*
%TO.P,U1,a24,IRQ4*%
%TO.N,/IRQ4*%
X151257000Y-46742000D03*
%TO.P,U1,a25,IRQ3*%
%TO.N,/IRQ3*%
X148717000Y-46742000D03*
%TO.P,U1,a26,~{DACK2}*%
%TO.N,/DACK2*%
X146177000Y-46742000D03*
%TO.P,U1,a27,TC*%
%TO.N,/TC*%
X143637000Y-46742000D03*
%TO.P,U1,a28,ALE*%
%TO.N,/ALE*%
X141097000Y-46742000D03*
%TO.P,U1,a29,VCC*%
%TO.N,/+5V*%
X138557000Y-46742000D03*
%TO.P,U1,a30,OSC*%
%TO.N,/OSC*%
X136017000Y-46742000D03*
%TO.P,U1,a31,GND*%
%TO.N,/GND*%
X133477000Y-46742000D03*
%TO.P,U1,a32,GND*%
X130937000Y-46742000D03*
%TO.P,U1,b1,~{IOCS16}*%
%TO.N,/IOCS16*%
X209677000Y-49282000D03*
%TO.P,U1,b2,DB8*%
%TO.N,/DB8*%
X207137000Y-49282000D03*
%TO.P,U1,b3,DB9*%
%TO.N,/DB9*%
X204597000Y-49282000D03*
%TO.P,U1,b4,DB10*%
%TO.N,/DB10*%
X202057000Y-49282000D03*
%TO.P,U1,b5,DB11*%
%TO.N,/DB11*%
X199517000Y-49282000D03*
%TO.P,U1,b6,DB12*%
%TO.N,/DB12*%
X196977000Y-49282000D03*
%TO.P,U1,b7,DB13*%
%TO.N,/DB13*%
X194437000Y-49282000D03*
%TO.P,U1,b8,DB14*%
%TO.N,/DB14*%
X191897000Y-49282000D03*
%TO.P,U1,b9,DB15*%
%TO.N,/DB15*%
X189357000Y-49282000D03*
%TO.P,U1,b10,UNUSED*%
%TO.N,unconnected-(U1-Padb10)*%
X186817000Y-49282000D03*
%TO.P,U1,b11,UNUSED*%
%TO.N,unconnected-(U1-Padb11)*%
X184277000Y-49282000D03*
%TO.P,U1,b12,UNUSED*%
%TO.N,unconnected-(U1-Padb12)*%
X181737000Y-49282000D03*
%TO.P,U1,b13,UNUSED*%
%TO.N,unconnected-(U1-Padb13)*%
X179197000Y-49282000D03*
%TO.P,U1,b14,UNUSED*%
%TO.N,unconnected-(U1-Padb14)*%
X176657000Y-49282000D03*
%TO.P,U1,b15,UNUSED*%
%TO.N,unconnected-(U1-Padb15)*%
X174117000Y-49282000D03*
%TO.P,U1,b16,UNUSED*%
%TO.N,unconnected-(U1-Padb16)*%
X171577000Y-49282000D03*
%TO.P,U1,b17,UNUSED*%
%TO.N,unconnected-(U1-Padb17)*%
X169037000Y-49282000D03*
%TO.P,U1,b18,UNUSED*%
%TO.N,unconnected-(U1-Padb18)*%
X166497000Y-49282000D03*
%TO.P,U1,b19,DRQ0*%
%TO.N,unconnected-(U1-Padb19)*%
X163957000Y-49282000D03*
%TO.P,U1,b20,UNUSED*%
%TO.N,unconnected-(U1-Padb20)*%
X161417000Y-49282000D03*
%TO.P,U1,b21,IRQ10*%
%TO.N,/IRQ10*%
X158877000Y-49282000D03*
%TO.P,U1,b22,IRQ11*%
%TO.N,/IRQ11*%
X156337000Y-49282000D03*
%TO.P,U1,b23,IRQ12*%
%TO.N,/IRQ12*%
X153797000Y-49282000D03*
%TO.P,U1,b24,IRQ15*%
%TO.N,/IRQ15*%
X151257000Y-49282000D03*
%TO.P,U1,b25,IRQ14*%
%TO.N,/IRQ14*%
X148717000Y-49282000D03*
%TO.P,U1,b26,~{MASTER}*%
%TO.N,/MASTER*%
X146177000Y-49282000D03*
%TO.P,U1,b27,UNUSED*%
%TO.N,unconnected-(U1-Padb27)*%
X143637000Y-49282000D03*
%TO.P,U1,b28,UNUSED*%
%TO.N,unconnected-(U1-Padb28)*%
X141097000Y-49282000D03*
%TO.P,U1,b29,UNUSED*%
%TO.N,unconnected-(U1-Padb29)*%
X138557000Y-49282000D03*
%TO.P,U1,b30,+5V*%
%TO.N,/+5V*%
X136017000Y-49282000D03*
%TO.P,U1,b31,UNUSED*%
%TO.N,unconnected-(U1-Padb31)*%
X133477000Y-49282000D03*
%TO.P,U1,b32,~{MEMCS16}*%
%TO.N,/MEMCS16*%
X130937000Y-49282000D03*
%TO.P,U1,c1,~{IOCHCK}*%
%TO.N,/IOCHK*%
X209677000Y-51822000D03*
%TO.P,U1,c2,DB7*%
%TO.N,/DB7*%
X207137000Y-51822000D03*
%TO.P,U1,c3,DB6*%
%TO.N,/DB6*%
X204597000Y-51822000D03*
%TO.P,U1,c4,DB5*%
%TO.N,/DB5*%
X202057000Y-51822000D03*
%TO.P,U1,c5,DB4*%
%TO.N,/DB4*%
X199517000Y-51822000D03*
%TO.P,U1,c6,DB3*%
%TO.N,/DB3*%
X196977000Y-51822000D03*
%TO.P,U1,c7,DB2*%
%TO.N,/DB2*%
X194437000Y-51822000D03*
%TO.P,U1,c8,DB1*%
%TO.N,/DB1*%
X191897000Y-51822000D03*
%TO.P,U1,c9,DB0*%
%TO.N,/DB0*%
X189357000Y-51822000D03*
%TO.P,U1,c10,IOCHRDY*%
%TO.N,/IORDY*%
X186817000Y-51822000D03*
%TO.P,U1,c11,AEN*%
%TO.N,/AEN*%
X184277000Y-51822000D03*
%TO.P,U1,c12,BA19*%
%TO.N,/BA19*%
X181737000Y-51822000D03*
%TO.P,U1,c13,BA18*%
%TO.N,/BA18*%
X179197000Y-51822000D03*
%TO.P,U1,c14,BA17*%
%TO.N,/BA17*%
X176657000Y-51822000D03*
%TO.P,U1,c15,BA16*%
%TO.N,/BA16*%
X174117000Y-51822000D03*
%TO.P,U1,c16,BA15*%
%TO.N,/BA15*%
X171577000Y-51822000D03*
%TO.P,U1,c17,BA14*%
%TO.N,/BA14*%
X169037000Y-51822000D03*
%TO.P,U1,c18,BA13*%
%TO.N,/BA13*%
X166497000Y-51822000D03*
%TO.P,U1,c19,BA12*%
%TO.N,/BA12*%
X163957000Y-51822000D03*
%TO.P,U1,c20,BA11*%
%TO.N,/BA11*%
X161417000Y-51822000D03*
%TO.P,U1,c21,BA10*%
%TO.N,/BA10*%
X158877000Y-51822000D03*
%TO.P,U1,c22,BA09*%
%TO.N,/BA9*%
X156337000Y-51822000D03*
%TO.P,U1,c23,BA08*%
%TO.N,/BA8*%
X153797000Y-51822000D03*
%TO.P,U1,c24,BA07*%
%TO.N,/BA7*%
X151257000Y-51822000D03*
%TO.P,U1,c25,BA06*%
%TO.N,/BA6*%
X148717000Y-51822000D03*
%TO.P,U1,c26,BA05*%
%TO.N,/BA5*%
X146177000Y-51822000D03*
%TO.P,U1,c27,BA04*%
%TO.N,/BA4*%
X143637000Y-51822000D03*
%TO.P,U1,c28,BA03*%
%TO.N,/BA3*%
X141097000Y-51822000D03*
%TO.P,U1,c29,BA02*%
%TO.N,/BA2*%
X138557000Y-51822000D03*
%TO.P,U1,c30,BA01*%
%TO.N,/BA1*%
X136017000Y-51822000D03*
%TO.P,U1,c31,BA00*%
%TO.N,/BA0*%
X133477000Y-51822000D03*
%TO.P,U1,c32,~{BHE}*%
%TO.N,/BHE*%
X130937000Y-51822000D03*
%TD*%
D16*
%TO.N,/GND*%
X94107000Y-127381000D03*
X107315000Y-107950000D03*
X98933000Y-122555000D03*
X107315000Y-111887000D03*
%TO.N,/+5V*%
X106426000Y-124206000D03*
X139827000Y-118745000D03*
%TO.N,/IOCHK*%
X209677000Y-114300000D03*
X209677000Y-121412000D03*
%TO.N,/DB7*%
X207137000Y-121412000D03*
X207137000Y-114300000D03*
%TO.N,/DB6*%
X204597000Y-114300000D03*
X204597000Y-121412000D03*
%TO.N,/DB5*%
X202057000Y-114300000D03*
X202057000Y-121412000D03*
%TO.N,/DB4*%
X199517000Y-114300000D03*
X199517000Y-121412000D03*
%TO.N,/DB3*%
X196977000Y-110744000D03*
X196977000Y-121412000D03*
%TO.N,/DB2*%
X194437000Y-121412000D03*
X194437000Y-110744000D03*
%TO.N,/DB1*%
X191897000Y-110744000D03*
X191897000Y-121412000D03*
%TO.N,/DB0*%
X189357000Y-110744000D03*
X189357000Y-121412000D03*
%TO.N,/IORDY*%
X186817000Y-121412000D03*
X186817000Y-110744000D03*
%TO.N,/AEN*%
X184277000Y-121412000D03*
X184277000Y-110744000D03*
%TO.N,/BA19*%
X181737000Y-121412000D03*
X181737000Y-110744000D03*
%TO.N,/BA18*%
X179197000Y-110744000D03*
X179197000Y-121412000D03*
%TO.N,/BA17*%
X176657000Y-121412000D03*
X176657000Y-110744000D03*
%TO.N,/BA16*%
X174117000Y-121412000D03*
X174117000Y-110744000D03*
%TO.N,/BA15*%
X171577000Y-110744000D03*
X171577000Y-121412000D03*
%TO.N,/BA14*%
X169037000Y-121412000D03*
X169037000Y-110744000D03*
%TO.N,/BA13*%
X166497000Y-121412000D03*
X166497000Y-110744000D03*
%TO.N,/BA12*%
X163957000Y-121412000D03*
X163957000Y-110744000D03*
%TO.N,/BA11*%
X161417000Y-110744000D03*
X161417000Y-121412000D03*
%TO.N,/BA10*%
X158877000Y-110744000D03*
X158877000Y-121412000D03*
%TO.N,/BA9*%
X156337000Y-121412000D03*
X156337000Y-110744000D03*
%TO.N,/BA8*%
X153797000Y-110744000D03*
X153797000Y-121412000D03*
%TO.N,/BA7*%
X151257000Y-110744000D03*
X151257000Y-121412000D03*
%TO.N,/BA6*%
X148717000Y-108585000D03*
X148717000Y-121412000D03*
%TO.N,/BA5*%
X146177000Y-108585000D03*
X146177000Y-121412000D03*
%TO.N,/BA4*%
X143637000Y-121412000D03*
X143637000Y-108585000D03*
%TO.N,/BA3*%
X141097000Y-121412000D03*
X141097000Y-108585000D03*
%TO.N,/BA2*%
X138557000Y-121412000D03*
X138557000Y-108585000D03*
%TO.N,/BA1*%
X136017000Y-121412000D03*
X136017000Y-108585000D03*
%TO.N,/BA0*%
X133477000Y-108585000D03*
X133477000Y-121412000D03*
%TO.N,/MEMCS16*%
X125095000Y-109855000D03*
%TO.N,/IOCS16*%
X120777000Y-117666500D03*
%TO.N,/IRQ10*%
X118237000Y-113157000D03*
%TO.N,/IRQ11*%
X115697000Y-112395000D03*
%TO.N,/IRQ12*%
X114554000Y-111887000D03*
%TO.N,/IRQ15*%
X113411000Y-111252000D03*
%TO.N,/IRQ14*%
X112522000Y-110617000D03*
%TO.N,/MASTER*%
X111760000Y-109855000D03*
%TO.N,/BHE*%
X127762000Y-109728000D03*
X127762000Y-133477000D03*
%TD*%
D17*
%TO.N,/GND*%
X81362000Y-132875000D02*
X80137000Y-131650000D01*
X209677000Y-143383000D02*
X210902000Y-142158000D01*
X133477000Y-147580000D02*
X133477000Y-143383000D01*
X134702000Y-132875000D02*
X133477000Y-131650000D01*
X186817000Y-147580000D02*
X186817000Y-143383000D01*
X133477000Y-143383000D02*
X134702000Y-142158000D01*
X209677000Y-147580000D02*
X209677000Y-143383000D01*
X134702000Y-142158000D02*
X134702000Y-132875000D01*
X188468000Y-129999000D02*
X188207000Y-129738000D01*
X186817000Y-143383000D02*
X188042000Y-142158000D01*
X210902000Y-132875000D02*
X209677000Y-131650000D01*
X188042000Y-132875000D02*
X186817000Y-131650000D01*
X186817000Y-131650000D02*
X188468000Y-129999000D01*
X80137000Y-143383000D02*
X81362000Y-142158000D01*
X188042000Y-142158000D02*
X188042000Y-132875000D01*
X188207000Y-48132000D02*
X186817000Y-46742000D01*
X188207000Y-129738000D02*
X188207000Y-48132000D01*
X81362000Y-142158000D02*
X81362000Y-132875000D01*
X210902000Y-142158000D02*
X210902000Y-132875000D01*
X80137000Y-147580000D02*
X80137000Y-143383000D01*
D18*
%TO.N,/RESET*%
X208602000Y-130185000D02*
X208602000Y-48207000D01*
X207137000Y-131650000D02*
X208602000Y-130185000D01*
X208407000Y-132920000D02*
X207137000Y-131650000D01*
X208407000Y-142240000D02*
X208407000Y-132920000D01*
X207137000Y-143510000D02*
X208407000Y-142240000D01*
X208602000Y-48207000D02*
X207137000Y-46742000D01*
X207137000Y-147580000D02*
X207137000Y-143510000D01*
%TO.N,/+5V*%
X205672000Y-130575000D02*
X204597000Y-131650000D01*
D17*
X204597000Y-147580000D02*
X204597000Y-143383000D01*
X86442000Y-132875000D02*
X85217000Y-131650000D01*
D19*
X139827000Y-118745000D02*
X139827000Y-130380000D01*
D17*
X85217000Y-147580000D02*
X85217000Y-143383000D01*
X92661000Y-124206000D02*
X106426000Y-124206000D01*
X86442000Y-142158000D02*
X86442000Y-132875000D01*
D18*
X205672000Y-47817000D02*
X205672000Y-130575000D01*
D17*
X138557000Y-143383000D02*
X139782000Y-142158000D01*
X204597000Y-143383000D02*
X205822000Y-142158000D01*
X138557000Y-147580000D02*
X138557000Y-143383000D01*
X205822000Y-142158000D02*
X205822000Y-132875000D01*
D19*
X139827000Y-48012000D02*
X139827000Y-118745000D01*
D17*
X139782000Y-142158000D02*
X139782000Y-132875000D01*
X139782000Y-132875000D02*
X138557000Y-131650000D01*
X205822000Y-132875000D02*
X204597000Y-131650000D01*
X85217000Y-143383000D02*
X86442000Y-142158000D01*
D19*
X139827000Y-130380000D02*
X138557000Y-131650000D01*
D18*
X204597000Y-46742000D02*
X205672000Y-47817000D01*
D17*
X85217000Y-131650000D02*
X92661000Y-124206000D01*
D19*
X138557000Y-46742000D02*
X139827000Y-48012000D01*
D18*
%TO.N,/IRQ2*%
X202057000Y-147580000D02*
X202057000Y-143510000D01*
X202057000Y-131650000D02*
X203200000Y-130507000D01*
X203327000Y-132920000D02*
X202057000Y-131650000D01*
X202057000Y-143510000D02*
X203327000Y-142240000D01*
X203327000Y-142240000D02*
X203327000Y-132920000D01*
X203200000Y-130507000D02*
X203200000Y-47885000D01*
X203200000Y-47885000D02*
X202057000Y-46742000D01*
%TO.N,/-5V*%
X200592000Y-47817000D02*
X200592000Y-130575000D01*
D17*
X200742000Y-132875000D02*
X199517000Y-131650000D01*
X199517000Y-147580000D02*
X199517000Y-143383000D01*
D18*
X199517000Y-46742000D02*
X200592000Y-47817000D01*
X200592000Y-130575000D02*
X199517000Y-131650000D01*
D17*
X199517000Y-143383000D02*
X200742000Y-142158000D01*
X200742000Y-142158000D02*
X200742000Y-132875000D01*
D18*
%TO.N,/DRQ2*%
X198247000Y-132920000D02*
X196977000Y-131650000D01*
X196977000Y-147580000D02*
X196977000Y-143510000D01*
X198052000Y-47817000D02*
X198052000Y-130575000D01*
X196977000Y-143510000D02*
X198247000Y-142240000D01*
X196977000Y-46742000D02*
X198052000Y-47817000D01*
X198052000Y-130575000D02*
X196977000Y-131650000D01*
X198247000Y-142240000D02*
X198247000Y-132920000D01*
D17*
%TO.N,/-12V*%
X195587000Y-47892000D02*
X194437000Y-46742000D01*
X195662000Y-132875000D02*
X194437000Y-131650000D01*
X194437000Y-143383000D02*
X195662000Y-142158000D01*
X195662000Y-142158000D02*
X195662000Y-132875000D01*
X195587000Y-130500000D02*
X195587000Y-47892000D01*
X194437000Y-131650000D02*
X195587000Y-130500000D01*
X194437000Y-147580000D02*
X194437000Y-143383000D01*
%TO.N,/+12V*%
X189357000Y-147580000D02*
X189357000Y-143383000D01*
D19*
X190482000Y-47867000D02*
X190482000Y-130525000D01*
X190482000Y-130525000D02*
X189357000Y-131650000D01*
D17*
X189357000Y-143383000D02*
X190582000Y-142158000D01*
D19*
X189357000Y-46742000D02*
X190482000Y-47867000D01*
D17*
X190582000Y-142158000D02*
X190582000Y-132875000D01*
X190582000Y-132875000D02*
X189357000Y-131650000D01*
D18*
%TO.N,/MEMW*%
X185420000Y-47885000D02*
X185420000Y-130507000D01*
X185420000Y-130507000D02*
X184277000Y-131650000D01*
X184277000Y-143510000D02*
X185547000Y-142240000D01*
X185547000Y-132920000D02*
X184277000Y-131650000D01*
X184277000Y-147580000D02*
X184277000Y-143510000D01*
X185547000Y-142240000D02*
X185547000Y-132920000D01*
X184277000Y-46742000D02*
X185420000Y-47885000D01*
%TO.N,/MEMR*%
X183007000Y-142240000D02*
X183007000Y-132920000D01*
X181737000Y-143510000D02*
X183007000Y-142240000D01*
X182812000Y-47817000D02*
X182812000Y-130575000D01*
X181737000Y-46742000D02*
X182812000Y-47817000D01*
X181737000Y-147580000D02*
X181737000Y-143510000D01*
X183007000Y-132920000D02*
X181737000Y-131650000D01*
X182812000Y-130575000D02*
X181737000Y-131650000D01*
%TO.N,/IOW*%
X180272000Y-47817000D02*
X180272000Y-130575000D01*
X179197000Y-46742000D02*
X180272000Y-47817000D01*
X180467000Y-142240000D02*
X180467000Y-132920000D01*
X180272000Y-130575000D02*
X179197000Y-131650000D01*
X179197000Y-147580000D02*
X179197000Y-143510000D01*
X179197000Y-143510000D02*
X180467000Y-142240000D01*
X180467000Y-132920000D02*
X179197000Y-131650000D01*
%TO.N,/IOR*%
X177732000Y-130575000D02*
X176657000Y-131650000D01*
X177927000Y-142240000D02*
X177927000Y-132920000D01*
X176657000Y-143510000D02*
X177927000Y-142240000D01*
X176657000Y-46742000D02*
X177732000Y-47817000D01*
X177927000Y-132920000D02*
X176657000Y-131650000D01*
X177732000Y-47817000D02*
X177732000Y-130575000D01*
X176657000Y-147580000D02*
X176657000Y-143510000D01*
%TO.N,/DACK3*%
X175387000Y-142240000D02*
X175387000Y-132920000D01*
X174117000Y-147580000D02*
X174117000Y-143510000D01*
X174117000Y-46742000D02*
X175582000Y-48207000D01*
X175387000Y-132920000D02*
X174117000Y-131650000D01*
X175582000Y-48207000D02*
X175582000Y-130185000D01*
X175582000Y-130185000D02*
X174117000Y-131650000D01*
X174117000Y-143510000D02*
X175387000Y-142240000D01*
%TO.N,/DRQ3*%
X172847000Y-142240000D02*
X172847000Y-132920000D01*
X171577000Y-147580000D02*
X171577000Y-143510000D01*
X171577000Y-46742000D02*
X172652000Y-47817000D01*
X171577000Y-143510000D02*
X172847000Y-142240000D01*
X172847000Y-132920000D02*
X171577000Y-131650000D01*
X172652000Y-47817000D02*
X172652000Y-130575000D01*
X172652000Y-130575000D02*
X171577000Y-131650000D01*
%TO.N,/DACK1*%
X170502000Y-48207000D02*
X170502000Y-130185000D01*
X170502000Y-130185000D02*
X169037000Y-131650000D01*
X169037000Y-143510000D02*
X170307000Y-142240000D01*
X170307000Y-132920000D02*
X169037000Y-131650000D01*
X169037000Y-46742000D02*
X170502000Y-48207000D01*
X169037000Y-147580000D02*
X169037000Y-143510000D01*
X170307000Y-142240000D02*
X170307000Y-132920000D01*
%TO.N,/DRQ1*%
X167767000Y-142240000D02*
X167767000Y-132920000D01*
X167572000Y-130575000D02*
X166497000Y-131650000D01*
X166497000Y-46742000D02*
X167572000Y-47817000D01*
X167572000Y-47817000D02*
X167572000Y-130575000D01*
X166497000Y-147580000D02*
X166497000Y-143510000D01*
X167767000Y-132920000D02*
X166497000Y-131650000D01*
X166497000Y-143510000D02*
X167767000Y-142240000D01*
%TO.N,/REFR*%
X165422000Y-130185000D02*
X163957000Y-131650000D01*
X165422000Y-48207000D02*
X165422000Y-130185000D01*
X165227000Y-142240000D02*
X165227000Y-132920000D01*
X165227000Y-132920000D02*
X163957000Y-131650000D01*
X163957000Y-46742000D02*
X165422000Y-48207000D01*
X163957000Y-143510000D02*
X165227000Y-142240000D01*
X163957000Y-147580000D02*
X163957000Y-143510000D01*
%TO.N,/CLK*%
X162882000Y-48207000D02*
X162882000Y-130185000D01*
X162882000Y-130185000D02*
X161417000Y-131650000D01*
X162687000Y-142240000D02*
X162687000Y-132920000D01*
X161417000Y-46742000D02*
X162882000Y-48207000D01*
X161417000Y-147580000D02*
X161417000Y-143510000D01*
X161417000Y-143510000D02*
X162687000Y-142240000D01*
X162687000Y-132920000D02*
X161417000Y-131650000D01*
%TO.N,/IRQ7*%
X160342000Y-48207000D02*
X160342000Y-130185000D01*
X160147000Y-142240000D02*
X160147000Y-132920000D01*
X158877000Y-143510000D02*
X160147000Y-142240000D01*
X158877000Y-147580000D02*
X158877000Y-143510000D01*
X160342000Y-130185000D02*
X158877000Y-131650000D01*
X158877000Y-46742000D02*
X160342000Y-48207000D01*
X160147000Y-132920000D02*
X158877000Y-131650000D01*
%TO.N,/IRQ6*%
X157607000Y-142367000D02*
X157607000Y-132920000D01*
X157727000Y-130260000D02*
X156337000Y-131650000D01*
X156337000Y-147580000D02*
X156337000Y-143637000D01*
X157727000Y-48132000D02*
X157727000Y-130260000D01*
X157607000Y-132920000D02*
X156337000Y-131650000D01*
X156337000Y-46742000D02*
X157727000Y-48132000D01*
X156337000Y-143637000D02*
X157607000Y-142367000D01*
%TO.N,/IRQ5*%
X153797000Y-143510000D02*
X154947000Y-142360000D01*
X155262000Y-130185000D02*
X153797000Y-131650000D01*
X154947000Y-132800000D02*
X153797000Y-131650000D01*
X153797000Y-46742000D02*
X155262000Y-48207000D01*
X154947000Y-142360000D02*
X154947000Y-132800000D01*
X153797000Y-147580000D02*
X153797000Y-143510000D01*
X155262000Y-48207000D02*
X155262000Y-130185000D01*
%TO.N,/IRQ4*%
X152527000Y-142240000D02*
X152527000Y-132920000D01*
X151257000Y-143510000D02*
X152527000Y-142240000D01*
X151257000Y-147580000D02*
X151257000Y-143510000D01*
X152527000Y-132920000D02*
X151257000Y-131650000D01*
X152332000Y-130575000D02*
X151257000Y-131650000D01*
X151257000Y-46742000D02*
X152332000Y-47817000D01*
X152332000Y-47817000D02*
X152332000Y-130575000D01*
%TO.N,/IRQ3*%
X148717000Y-147580000D02*
X148717000Y-143510000D01*
X150182000Y-48207000D02*
X150182000Y-130185000D01*
X149987000Y-142240000D02*
X149987000Y-132920000D01*
X148717000Y-143510000D02*
X149987000Y-142240000D01*
X149987000Y-132920000D02*
X148717000Y-131650000D01*
X148717000Y-46742000D02*
X150182000Y-48207000D01*
X150182000Y-130185000D02*
X148717000Y-131650000D01*
%TO.N,/DACK2*%
X147252000Y-130575000D02*
X146177000Y-131650000D01*
X147252000Y-47817000D02*
X147252000Y-130575000D01*
X146177000Y-143510000D02*
X147447000Y-142240000D01*
X147447000Y-142240000D02*
X147447000Y-132920000D01*
X147447000Y-132920000D02*
X146177000Y-131650000D01*
X146177000Y-147580000D02*
X146177000Y-143510000D01*
X146177000Y-46742000D02*
X147252000Y-47817000D01*
%TO.N,/TC*%
X144712000Y-47817000D02*
X143637000Y-46742000D01*
X144712000Y-130575000D02*
X144712000Y-47817000D01*
X143637000Y-147580000D02*
X143637000Y-143510000D01*
X143637000Y-131650000D02*
X144712000Y-130575000D01*
X144907000Y-142240000D02*
X144907000Y-132920000D01*
X143637000Y-143510000D02*
X144907000Y-142240000D01*
X144907000Y-132920000D02*
X143637000Y-131650000D01*
%TO.N,/ALE*%
X141097000Y-46742000D02*
X142487000Y-48132000D01*
X142487000Y-48132000D02*
X142487000Y-130260000D01*
X141097000Y-143510000D02*
X142367000Y-142240000D01*
X142487000Y-130260000D02*
X141097000Y-131650000D01*
X142367000Y-142240000D02*
X142367000Y-132920000D01*
X142367000Y-132920000D02*
X141097000Y-131650000D01*
X141097000Y-147580000D02*
X141097000Y-143510000D01*
%TO.N,/OSC*%
X136017000Y-143510000D02*
X137287000Y-142240000D01*
X136017000Y-131650000D02*
X137092000Y-130575000D01*
X137287000Y-142240000D02*
X137287000Y-132920000D01*
X137092000Y-130575000D02*
X137092000Y-47817000D01*
X137287000Y-132920000D02*
X136017000Y-131650000D01*
X136017000Y-147580000D02*
X136017000Y-143510000D01*
X137092000Y-47817000D02*
X136017000Y-46742000D01*
%TO.N,/IOCHK*%
X209677000Y-121412000D02*
X209677000Y-114300000D01*
%TO.N,/DB7*%
X207137000Y-114300000D02*
X207137000Y-121412000D01*
%TO.N,/DB6*%
X204597000Y-121412000D02*
X204597000Y-114300000D01*
%TO.N,/DB5*%
X202057000Y-121412000D02*
X202057000Y-114300000D01*
%TO.N,/DB4*%
X199517000Y-121412000D02*
X199517000Y-114300000D01*
%TO.N,/DB3*%
X196977000Y-121412000D02*
X196977000Y-110744000D01*
%TO.N,/DB2*%
X194437000Y-121412000D02*
X194437000Y-110744000D01*
%TO.N,/DB1*%
X191897000Y-121412000D02*
X191897000Y-110744000D01*
%TO.N,/DB0*%
X189357000Y-121412000D02*
X189357000Y-110744000D01*
%TO.N,/IORDY*%
X186817000Y-121412000D02*
X186817000Y-110744000D01*
%TO.N,/AEN*%
X184277000Y-121412000D02*
X184277000Y-110744000D01*
%TO.N,/BA19*%
X181737000Y-121412000D02*
X181737000Y-110744000D01*
%TO.N,/BA18*%
X179197000Y-121412000D02*
X179197000Y-110744000D01*
%TO.N,/BA17*%
X176657000Y-121412000D02*
X176657000Y-110744000D01*
%TO.N,/BA16*%
X174117000Y-121412000D02*
X174117000Y-110871000D01*
X174117000Y-110871000D02*
X174117000Y-110744000D01*
%TO.N,/BA15*%
X171577000Y-121412000D02*
X171577000Y-110744000D01*
%TO.N,/BA14*%
X169037000Y-121412000D02*
X169037000Y-110744000D01*
%TO.N,/BA13*%
X166497000Y-121412000D02*
X166497000Y-110744000D01*
%TO.N,/BA12*%
X163957000Y-121412000D02*
X163957000Y-110744000D01*
%TO.N,/BA11*%
X161417000Y-121412000D02*
X161417000Y-110744000D01*
%TO.N,/BA10*%
X158877000Y-121412000D02*
X158877000Y-110744000D01*
%TO.N,/BA9*%
X156337000Y-121412000D02*
X156337000Y-110744000D01*
%TO.N,/BA8*%
X153797000Y-121412000D02*
X153797000Y-110744000D01*
%TO.N,/BA7*%
X151257000Y-121412000D02*
X151257000Y-110744000D01*
%TO.N,/BA6*%
X148717000Y-121412000D02*
X148717000Y-108585000D01*
%TO.N,/BA5*%
X146177000Y-121412000D02*
X146177000Y-108585000D01*
%TO.N,/BA4*%
X143637000Y-121412000D02*
X143637000Y-108585000D01*
%TO.N,/BA3*%
X141097000Y-121412000D02*
X141097000Y-108585000D01*
%TO.N,/BA2*%
X138557000Y-121285000D02*
X138557000Y-108585000D01*
%TO.N,/BA1*%
X136017000Y-121285000D02*
X136017000Y-108585000D01*
%TO.N,/BA0*%
X133477000Y-121412000D02*
X133477000Y-108585000D01*
%TO.N,/MEMCS16*%
X123317000Y-111633000D02*
X125095000Y-109855000D01*
X123317000Y-131650000D02*
X123317000Y-111633000D01*
X123317000Y-147580000D02*
X123317000Y-143637000D01*
X124714000Y-142240000D02*
X124714000Y-133047000D01*
X124714000Y-133047000D02*
X123317000Y-131650000D01*
X123317000Y-143637000D02*
X124714000Y-142240000D01*
%TO.N,/IOCS16*%
X122047000Y-142240000D02*
X122047000Y-132920000D01*
X120777000Y-143510000D02*
X122047000Y-142240000D01*
X120777000Y-147580000D02*
X120777000Y-143510000D01*
X122047000Y-132920000D02*
X120777000Y-131650000D01*
X120777000Y-131650000D02*
X120777000Y-117666500D01*
%TO.N,/IRQ10*%
X118237000Y-131650000D02*
X118237000Y-113157000D01*
X119507000Y-132920000D02*
X118237000Y-131650000D01*
X119507000Y-142240000D02*
X119507000Y-132920000D01*
X118237000Y-143510000D02*
X119507000Y-142240000D01*
X118237000Y-147580000D02*
X118237000Y-143510000D01*
%TO.N,/IRQ11*%
X115697000Y-143510000D02*
X116967000Y-142240000D01*
X115697000Y-147580000D02*
X115697000Y-143510000D01*
X116967000Y-132920000D02*
X115697000Y-131650000D01*
X116967000Y-142240000D02*
X116967000Y-132920000D01*
X115697000Y-131650000D02*
X115697000Y-112395000D01*
%TO.N,/IRQ12*%
X114427000Y-142240000D02*
X114427000Y-132920000D01*
X113157000Y-113284000D02*
X114554000Y-111887000D01*
X114427000Y-132920000D02*
X113157000Y-131650000D01*
X113157000Y-143510000D02*
X114427000Y-142240000D01*
X113157000Y-147580000D02*
X113157000Y-143510000D01*
X113157000Y-131650000D02*
X113157000Y-113284000D01*
%TO.N,/IRQ15*%
X112007000Y-133040000D02*
X110617000Y-131650000D01*
X110617000Y-143510000D02*
X112007000Y-142120000D01*
X110617000Y-114046000D02*
X113411000Y-111252000D01*
X110617000Y-147580000D02*
X110617000Y-143510000D01*
X110617000Y-131650000D02*
X110617000Y-114046000D01*
X112007000Y-142120000D02*
X112007000Y-133040000D01*
%TO.N,/IRQ14*%
X108077000Y-115062000D02*
X112522000Y-110617000D01*
X108077000Y-143510000D02*
X109347000Y-142240000D01*
X109347000Y-142240000D02*
X109347000Y-132920000D01*
X108077000Y-131650000D02*
X108077000Y-115062000D01*
X109347000Y-132920000D02*
X108077000Y-131650000D01*
X108077000Y-147580000D02*
X108077000Y-143510000D01*
%TO.N,Net-(J1-Pad70)*%
X106807000Y-142240000D02*
X106807000Y-132920000D01*
X105537000Y-143510000D02*
X106807000Y-142240000D01*
X106807000Y-132920000D02*
X105537000Y-131650000D01*
X105537000Y-147580000D02*
X105537000Y-143510000D01*
%TO.N,Net-(J1-Pad71)*%
X104267000Y-142240000D02*
X104267000Y-132920000D01*
X104267000Y-132920000D02*
X102997000Y-131650000D01*
X102997000Y-147580000D02*
X102997000Y-143510000D01*
X102997000Y-143510000D02*
X104267000Y-142240000D01*
%TO.N,Net-(J1-Pad72)*%
X101607000Y-132800000D02*
X100457000Y-131650000D01*
X100457000Y-147580000D02*
X100457000Y-143383000D01*
X101607000Y-142233000D02*
X101607000Y-132800000D01*
X100457000Y-143383000D02*
X101607000Y-142233000D01*
%TO.N,Net-(J1-Pad73)*%
X99187000Y-132920000D02*
X97917000Y-131650000D01*
X97917000Y-143510000D02*
X99187000Y-142240000D01*
X99187000Y-142240000D02*
X99187000Y-132920000D01*
X97917000Y-147580000D02*
X97917000Y-143510000D01*
%TO.N,Net-(J1-Pad74)*%
X96647000Y-132920000D02*
X95377000Y-131650000D01*
X95377000Y-143510000D02*
X96647000Y-142240000D01*
X96647000Y-142240000D02*
X96647000Y-132920000D01*
X95377000Y-147580000D02*
X95377000Y-143510000D01*
%TO.N,Net-(J1-Pad75)*%
X92837000Y-143510000D02*
X94107000Y-142240000D01*
X94107000Y-132920000D02*
X92837000Y-131650000D01*
X94107000Y-142240000D02*
X94107000Y-132920000D01*
X92837000Y-147580000D02*
X92837000Y-143510000D01*
%TO.N,Net-(J1-Pad76)*%
X91567000Y-132920000D02*
X90297000Y-131650000D01*
X91567000Y-142240000D02*
X91567000Y-132920000D01*
X90297000Y-143510000D02*
X91567000Y-142240000D01*
X90297000Y-147580000D02*
X90297000Y-143510000D01*
%TO.N,Net-(J1-Pad77)*%
X87757000Y-143510000D02*
X89027000Y-142240000D01*
X89027000Y-142240000D02*
X89027000Y-132920000D01*
X89027000Y-132920000D02*
X87757000Y-131650000D01*
X87757000Y-147580000D02*
X87757000Y-143510000D01*
%TO.N,/MASTER*%
X82677000Y-143383000D02*
X83827000Y-142233000D01*
X88138000Y-126189000D02*
X104472000Y-109855000D01*
X82677000Y-147580000D02*
X82677000Y-143383000D01*
X82677000Y-131650000D02*
X88138000Y-126189000D01*
X83827000Y-142233000D02*
X83827000Y-132800000D01*
X104472000Y-109855000D02*
X111760000Y-109855000D01*
X83827000Y-132800000D02*
X82677000Y-131650000D01*
%TO.N,/BHE*%
X127762000Y-133477000D02*
X127762000Y-113030000D01*
X127762000Y-113030000D02*
X127762000Y-109728000D01*
%TD*%
%TA.AperFunction,Conductor*%
%TO.N,/GND*%
G36*
X124895998Y-42311002D02*
G01*
X124942491Y-42364658D01*
X124952595Y-42434932D01*
X124923101Y-42499512D01*
X124887709Y-42527888D01*
X124818332Y-42565322D01*
X124598085Y-42727999D01*
X124402955Y-42920087D01*
X124400256Y-42923624D01*
X124400253Y-42923627D01*
X124370074Y-42963172D01*
X124236838Y-43137753D01*
X124103048Y-43376653D01*
X124004254Y-43632021D01*
X124003251Y-43636346D01*
X124003250Y-43636351D01*
X123989685Y-43694873D01*
X123942426Y-43898761D01*
X123918800Y-44171552D01*
X123933846Y-44444951D01*
X123987264Y-44713502D01*
X124077989Y-44971847D01*
X124080042Y-44975798D01*
X124080044Y-44975804D01*
X124108834Y-45031227D01*
X124204209Y-45214832D01*
X124206792Y-45218447D01*
X124206796Y-45218453D01*
X124243481Y-45269788D01*
X124363407Y-45437608D01*
X124397347Y-45473186D01*
X124541311Y-45624099D01*
X124552406Y-45635730D01*
X124555902Y-45638486D01*
X124681871Y-45737791D01*
X124767436Y-45805245D01*
X124771278Y-45807477D01*
X124771283Y-45807480D01*
X125000351Y-45940534D01*
X125000357Y-45940537D01*
X125004205Y-45942772D01*
X125072023Y-45970241D01*
X125253857Y-46043892D01*
X125253865Y-46043895D01*
X125257989Y-46045565D01*
X125333843Y-46064407D01*
X125519401Y-46110500D01*
X125519405Y-46110501D01*
X125523726Y-46111574D01*
X125757247Y-46135500D01*
X125926754Y-46135500D01*
X126130128Y-46121100D01*
X126134483Y-46120162D01*
X126134486Y-46120162D01*
X126393460Y-46064407D01*
X126393462Y-46064407D01*
X126397807Y-46063471D01*
X126654695Y-45968700D01*
X126756385Y-45913831D01*
X126891752Y-45840791D01*
X126895668Y-45838678D01*
X127032258Y-45737791D01*
X127112329Y-45678650D01*
X127112332Y-45678647D01*
X127115915Y-45676001D01*
X127119028Y-45672937D01*
X130233526Y-45672937D01*
X130240595Y-45686385D01*
X130924188Y-46369978D01*
X130938132Y-46377592D01*
X130939965Y-46377461D01*
X130946580Y-46373210D01*
X131634127Y-45685663D01*
X131640557Y-45673888D01*
X131639821Y-45672937D01*
X132773526Y-45672937D01*
X132780595Y-45686385D01*
X133464188Y-46369978D01*
X133478132Y-46377592D01*
X133479965Y-46377461D01*
X133486580Y-46373210D01*
X134174127Y-45685663D01*
X134180557Y-45673888D01*
X134171261Y-45661873D01*
X134125459Y-45629802D01*
X134115964Y-45624319D01*
X133922470Y-45534092D01*
X133912178Y-45530346D01*
X133705957Y-45475089D01*
X133695162Y-45473186D01*
X133482475Y-45454578D01*
X133471525Y-45454578D01*
X133258838Y-45473186D01*
X133248043Y-45475089D01*
X133041822Y-45530346D01*
X133031530Y-45534092D01*
X132838037Y-45624319D01*
X132828541Y-45629802D01*
X132781901Y-45662460D01*
X132773526Y-45672937D01*
X131639821Y-45672937D01*
X131631261Y-45661873D01*
X131585459Y-45629802D01*
X131575964Y-45624319D01*
X131382470Y-45534092D01*
X131372178Y-45530346D01*
X131165957Y-45475089D01*
X131155162Y-45473186D01*
X130942475Y-45454578D01*
X130931525Y-45454578D01*
X130718838Y-45473186D01*
X130708043Y-45475089D01*
X130501822Y-45530346D01*
X130491530Y-45534092D01*
X130298037Y-45624319D01*
X130288541Y-45629802D01*
X130241901Y-45662460D01*
X130233526Y-45672937D01*
X127119028Y-45672937D01*
X127311045Y-45483913D01*
X127316233Y-45477115D01*
X127474460Y-45269788D01*
X127474462Y-45269784D01*
X127477162Y-45266247D01*
X127610952Y-45027347D01*
X127709746Y-44771979D01*
X127722325Y-44717713D01*
X127770568Y-44509577D01*
X127771574Y-44505239D01*
X127795200Y-44232448D01*
X127780154Y-43959049D01*
X127726736Y-43690498D01*
X127636011Y-43432153D01*
X127609336Y-43380800D01*
X127511843Y-43193118D01*
X127511842Y-43193116D01*
X127509791Y-43189168D01*
X127507208Y-43185553D01*
X127507204Y-43185547D01*
X127353181Y-42970014D01*
X127350593Y-42966392D01*
X127161594Y-42768270D01*
X126946564Y-42598755D01*
X126889005Y-42565322D01*
X126821229Y-42525954D01*
X126772370Y-42474443D01*
X126759116Y-42404695D01*
X126785676Y-42338853D01*
X126843615Y-42297822D01*
X126884514Y-42291000D01*
X213727877Y-42291000D01*
X213795998Y-42311002D01*
X213842491Y-42364658D01*
X213852595Y-42434932D01*
X213823101Y-42499512D01*
X213787709Y-42527888D01*
X213718332Y-42565322D01*
X213498085Y-42727999D01*
X213302955Y-42920087D01*
X213300256Y-42923624D01*
X213300253Y-42923627D01*
X213270074Y-42963172D01*
X213136838Y-43137753D01*
X213003048Y-43376653D01*
X212904254Y-43632021D01*
X212903251Y-43636346D01*
X212903250Y-43636351D01*
X212889685Y-43694873D01*
X212842426Y-43898761D01*
X212818800Y-44171552D01*
X212833846Y-44444951D01*
X212887264Y-44713502D01*
X212977989Y-44971847D01*
X212980042Y-44975798D01*
X212980044Y-44975804D01*
X213008834Y-45031227D01*
X213104209Y-45214832D01*
X213106792Y-45218447D01*
X213106796Y-45218453D01*
X213143481Y-45269788D01*
X213263407Y-45437608D01*
X213297347Y-45473186D01*
X213441311Y-45624099D01*
X213452406Y-45635730D01*
X213455902Y-45638486D01*
X213581871Y-45737791D01*
X213667436Y-45805245D01*
X213671278Y-45807477D01*
X213671283Y-45807480D01*
X213900351Y-45940534D01*
X213900357Y-45940537D01*
X213904205Y-45942772D01*
X213972023Y-45970241D01*
X214153857Y-46043892D01*
X214153865Y-46043895D01*
X214157989Y-46045565D01*
X214233843Y-46064407D01*
X214419401Y-46110500D01*
X214419405Y-46110501D01*
X214423726Y-46111574D01*
X214657247Y-46135500D01*
X214826754Y-46135500D01*
X215030128Y-46121100D01*
X215034483Y-46120162D01*
X215034486Y-46120162D01*
X215293460Y-46064407D01*
X215293462Y-46064407D01*
X215297807Y-46063471D01*
X215554695Y-45968700D01*
X215656385Y-45913831D01*
X215791752Y-45840791D01*
X215795668Y-45838678D01*
X215932258Y-45737791D01*
X216012329Y-45678650D01*
X216012332Y-45678647D01*
X216015915Y-45676001D01*
X216211045Y-45483913D01*
X216216233Y-45477115D01*
X216374460Y-45269788D01*
X216374462Y-45269784D01*
X216377162Y-45266247D01*
X216510952Y-45027347D01*
X216609746Y-44771979D01*
X216622325Y-44717713D01*
X216670568Y-44509577D01*
X216671574Y-44505239D01*
X216695200Y-44232448D01*
X216680154Y-43959049D01*
X216626736Y-43690498D01*
X216536011Y-43432153D01*
X216509336Y-43380800D01*
X216411843Y-43193118D01*
X216411842Y-43193116D01*
X216409791Y-43189168D01*
X216407208Y-43185553D01*
X216407204Y-43185547D01*
X216253181Y-42970014D01*
X216250593Y-42966392D01*
X216061594Y-42768270D01*
X215846564Y-42598755D01*
X215789005Y-42565322D01*
X215721229Y-42525954D01*
X215672370Y-42474443D01*
X215659116Y-42404695D01*
X215685676Y-42338853D01*
X215743615Y-42297822D01*
X215784514Y-42291000D01*
X235078160Y-42291000D01*
X235146281Y-42311002D01*
X235192774Y-42364658D01*
X235204160Y-42416839D01*
X235330839Y-141859839D01*
X235310924Y-141927986D01*
X235257327Y-141974547D01*
X235204839Y-141986000D01*
X209141500Y-141986000D01*
X209073379Y-141965998D01*
X209026886Y-141912342D01*
X209015500Y-141860000D01*
X209015500Y-140404896D01*
X229916812Y-140404896D01*
X229925641Y-140416516D01*
X230154101Y-140582502D01*
X230160782Y-140586742D01*
X230433920Y-140736902D01*
X230441055Y-140740259D01*
X230730862Y-140855002D01*
X230738387Y-140857447D01*
X231040271Y-140934957D01*
X231048042Y-140936440D01*
X231357266Y-140975503D01*
X231365156Y-140976000D01*
X231676844Y-140976000D01*
X231684734Y-140975503D01*
X231993958Y-140936440D01*
X232001729Y-140934957D01*
X232303613Y-140857447D01*
X232311138Y-140855002D01*
X232600945Y-140740259D01*
X232608080Y-140736902D01*
X232881218Y-140586742D01*
X232887899Y-140582502D01*
X233116732Y-140416246D01*
X233125155Y-140405323D01*
X233118251Y-140392462D01*
X231533810Y-138808020D01*
X231519869Y-138800408D01*
X231518034Y-138800539D01*
X231511420Y-138804790D01*
X229923425Y-140392786D01*
X229916812Y-140404896D01*
X209015500Y-140404896D01*
X209015500Y-138439958D01*
X228976227Y-138439958D01*
X228995797Y-138751013D01*
X228996790Y-138758874D01*
X229055191Y-139065020D01*
X229057162Y-139072697D01*
X229153472Y-139369112D01*
X229156387Y-139376475D01*
X229289092Y-139658488D01*
X229292904Y-139665421D01*
X229459908Y-139928576D01*
X229464562Y-139934982D01*
X229542767Y-140029515D01*
X229555286Y-140037971D01*
X229566024Y-140031765D01*
X231148980Y-138448810D01*
X231155357Y-138437131D01*
X231885408Y-138437131D01*
X231885539Y-138438966D01*
X231889790Y-138445580D01*
X233474873Y-140030662D01*
X233488135Y-140037904D01*
X233498239Y-140030716D01*
X233577438Y-139934982D01*
X233582092Y-139928576D01*
X233749096Y-139665421D01*
X233752908Y-139658488D01*
X233885613Y-139376475D01*
X233888528Y-139369112D01*
X233984838Y-139072697D01*
X233986809Y-139065020D01*
X234045210Y-138758874D01*
X234046203Y-138751013D01*
X234065773Y-138439958D01*
X234065773Y-138432042D01*
X234046203Y-138120987D01*
X234045210Y-138113126D01*
X233986809Y-137806980D01*
X233984838Y-137799303D01*
X233888528Y-137502888D01*
X233885613Y-137495525D01*
X233752908Y-137213512D01*
X233749096Y-137206579D01*
X233582092Y-136943424D01*
X233577438Y-136937018D01*
X233499233Y-136842485D01*
X233486714Y-136834029D01*
X233475976Y-136840235D01*
X231893020Y-138423190D01*
X231885408Y-138437131D01*
X231155357Y-138437131D01*
X231156592Y-138434869D01*
X231156461Y-138433034D01*
X231152210Y-138426420D01*
X229567127Y-136841338D01*
X229553865Y-136834096D01*
X229543761Y-136841284D01*
X229464562Y-136937018D01*
X229459908Y-136943424D01*
X229292904Y-137206579D01*
X229289092Y-137213512D01*
X229156387Y-137495525D01*
X229153472Y-137502888D01*
X229057162Y-137799303D01*
X229055191Y-137806980D01*
X228996790Y-138113126D01*
X228995797Y-138120987D01*
X228976227Y-138432042D01*
X228976227Y-138439958D01*
X209015500Y-138439958D01*
X209015500Y-136466677D01*
X229916845Y-136466677D01*
X229923749Y-136479538D01*
X231508190Y-138063980D01*
X231522131Y-138071592D01*
X231523966Y-138071461D01*
X231530580Y-138067210D01*
X233118575Y-136479214D01*
X233125188Y-136467104D01*
X233116359Y-136455484D01*
X232887899Y-136289498D01*
X232881218Y-136285258D01*
X232608080Y-136135098D01*
X232600945Y-136131741D01*
X232311138Y-136016998D01*
X232303613Y-136014553D01*
X232001729Y-135937043D01*
X231993958Y-135935560D01*
X231684734Y-135896497D01*
X231676844Y-135896000D01*
X231365156Y-135896000D01*
X231357266Y-135896497D01*
X231048042Y-135935560D01*
X231040271Y-135937043D01*
X230738387Y-136014553D01*
X230730862Y-136016998D01*
X230441055Y-136131741D01*
X230433920Y-136135098D01*
X230160782Y-136285258D01*
X230154101Y-136289498D01*
X229925268Y-136455754D01*
X229916845Y-136466677D01*
X209015500Y-136466677D01*
X209015500Y-135674500D01*
X209035502Y-135606379D01*
X209089158Y-135559886D01*
X209141500Y-135548500D01*
X210575134Y-135548500D01*
X210637316Y-135541745D01*
X210773705Y-135490615D01*
X210890261Y-135403261D01*
X210977615Y-135286705D01*
X211028745Y-135150316D01*
X211035500Y-135088134D01*
X211035500Y-133291866D01*
X211028745Y-133229684D01*
X210977615Y-133093295D01*
X210904058Y-132995148D01*
X210879210Y-132928642D01*
X210894263Y-132859259D01*
X210904058Y-132844018D01*
X210971786Y-132753649D01*
X210980324Y-132738054D01*
X211025478Y-132617606D01*
X211029105Y-132602351D01*
X211034631Y-132551486D01*
X211035000Y-132544672D01*
X211035000Y-131922115D01*
X211030525Y-131906876D01*
X211029135Y-131905671D01*
X211021452Y-131904000D01*
X209549000Y-131904000D01*
X209480879Y-131883998D01*
X209434386Y-131830342D01*
X209423000Y-131778000D01*
X209423000Y-131377885D01*
X209931000Y-131377885D01*
X209935475Y-131393124D01*
X209936865Y-131394329D01*
X209944548Y-131396000D01*
X211016884Y-131396000D01*
X211032123Y-131391525D01*
X211033328Y-131390135D01*
X211034999Y-131382452D01*
X211034999Y-130755331D01*
X211034629Y-130748510D01*
X211029105Y-130697648D01*
X211025479Y-130682396D01*
X210980324Y-130561946D01*
X210971786Y-130546351D01*
X210895285Y-130444276D01*
X210882724Y-130431715D01*
X210780649Y-130355214D01*
X210765054Y-130346676D01*
X210644606Y-130301522D01*
X210629351Y-130297895D01*
X210578486Y-130292369D01*
X210571672Y-130292000D01*
X209949115Y-130292000D01*
X209933876Y-130296475D01*
X209932671Y-130297865D01*
X209931000Y-130305548D01*
X209931000Y-131377885D01*
X209423000Y-131377885D01*
X209423000Y-130310116D01*
X209418525Y-130294877D01*
X209417135Y-130293672D01*
X209409452Y-130292001D01*
X209340336Y-130292001D01*
X209272215Y-130271999D01*
X209225722Y-130218343D01*
X209215414Y-130182447D01*
X209211578Y-130153310D01*
X209210500Y-130136864D01*
X209210500Y-122392801D01*
X209230502Y-122324680D01*
X209284158Y-122278187D01*
X209354432Y-122268083D01*
X209382375Y-122276144D01*
X209382400Y-122276068D01*
X209384665Y-122276804D01*
X209387747Y-122277693D01*
X209394712Y-122280794D01*
X209477391Y-122298368D01*
X209575056Y-122319128D01*
X209575061Y-122319128D01*
X209581513Y-122320500D01*
X209772487Y-122320500D01*
X209778939Y-122319128D01*
X209778944Y-122319128D01*
X209876609Y-122298368D01*
X209959288Y-122280794D01*
X209966253Y-122277693D01*
X210127722Y-122205803D01*
X210127724Y-122205802D01*
X210133752Y-122203118D01*
X210143500Y-122196036D01*
X210214796Y-122144236D01*
X210288253Y-122090866D01*
X210293842Y-122084659D01*
X210411621Y-121953852D01*
X210411622Y-121953851D01*
X210416040Y-121948944D01*
X210511527Y-121783556D01*
X210570542Y-121601928D01*
X210590504Y-121412000D01*
X210570542Y-121222072D01*
X210511527Y-121040444D01*
X210416040Y-120875056D01*
X210411621Y-120870148D01*
X210317864Y-120766020D01*
X210287146Y-120702013D01*
X210285500Y-120681710D01*
X210285500Y-115030290D01*
X210305502Y-114962169D01*
X210317864Y-114945980D01*
X210411621Y-114841852D01*
X210411622Y-114841851D01*
X210416040Y-114836944D01*
X210511527Y-114671556D01*
X210570542Y-114489928D01*
X210590504Y-114300000D01*
X210582067Y-114219730D01*
X210571232Y-114116635D01*
X210571232Y-114116633D01*
X210570542Y-114110072D01*
X210511527Y-113928444D01*
X210416040Y-113763056D01*
X210299288Y-113633389D01*
X210292675Y-113626045D01*
X210292674Y-113626044D01*
X210288253Y-113621134D01*
X210160831Y-113528556D01*
X210139094Y-113512763D01*
X210139093Y-113512762D01*
X210133752Y-113508882D01*
X210127724Y-113506198D01*
X210127722Y-113506197D01*
X209965319Y-113433891D01*
X209965318Y-113433891D01*
X209959288Y-113431206D01*
X209865887Y-113411353D01*
X209778944Y-113392872D01*
X209778939Y-113392872D01*
X209772487Y-113391500D01*
X209581513Y-113391500D01*
X209575061Y-113392872D01*
X209575056Y-113392872D01*
X209488113Y-113411353D01*
X209394712Y-113431206D01*
X209388682Y-113433891D01*
X209388681Y-113433891D01*
X209387747Y-113434307D01*
X209387158Y-113434386D01*
X209382400Y-113435932D01*
X209382117Y-113435062D01*
X209317380Y-113443740D01*
X209253083Y-113413632D01*
X209215271Y-113353543D01*
X209210500Y-113319199D01*
X209210500Y-83889896D01*
X229916812Y-83889896D01*
X229925641Y-83901516D01*
X230154101Y-84067502D01*
X230160782Y-84071742D01*
X230433920Y-84221902D01*
X230441055Y-84225259D01*
X230730862Y-84340002D01*
X230738387Y-84342447D01*
X231040271Y-84419957D01*
X231048042Y-84421440D01*
X231357266Y-84460503D01*
X231365156Y-84461000D01*
X231676844Y-84461000D01*
X231684734Y-84460503D01*
X231993958Y-84421440D01*
X232001729Y-84419957D01*
X232303613Y-84342447D01*
X232311138Y-84340002D01*
X232600945Y-84225259D01*
X232608080Y-84221902D01*
X232881218Y-84071742D01*
X232887899Y-84067502D01*
X233116732Y-83901246D01*
X233125155Y-83890323D01*
X233118251Y-83877462D01*
X231533810Y-82293020D01*
X231519869Y-82285408D01*
X231518034Y-82285539D01*
X231511420Y-82289790D01*
X229923425Y-83877786D01*
X229916812Y-83889896D01*
X209210500Y-83889896D01*
X209210500Y-81924958D01*
X228976227Y-81924958D01*
X228995797Y-82236013D01*
X228996790Y-82243874D01*
X229055191Y-82550020D01*
X229057162Y-82557697D01*
X229153472Y-82854112D01*
X229156387Y-82861475D01*
X229289092Y-83143488D01*
X229292904Y-83150421D01*
X229459908Y-83413576D01*
X229464562Y-83419982D01*
X229542767Y-83514515D01*
X229555286Y-83522971D01*
X229566024Y-83516765D01*
X231148980Y-81933810D01*
X231155357Y-81922131D01*
X231885408Y-81922131D01*
X231885539Y-81923966D01*
X231889790Y-81930580D01*
X233474873Y-83515662D01*
X233488135Y-83522904D01*
X233498239Y-83515716D01*
X233577438Y-83419982D01*
X233582092Y-83413576D01*
X233749096Y-83150421D01*
X233752908Y-83143488D01*
X233885613Y-82861475D01*
X233888528Y-82854112D01*
X233984838Y-82557697D01*
X233986809Y-82550020D01*
X234045210Y-82243874D01*
X234046203Y-82236013D01*
X234065773Y-81924958D01*
X234065773Y-81917042D01*
X234046203Y-81605987D01*
X234045210Y-81598126D01*
X233986809Y-81291980D01*
X233984838Y-81284303D01*
X233888528Y-80987888D01*
X233885613Y-80980525D01*
X233752908Y-80698512D01*
X233749096Y-80691579D01*
X233582092Y-80428424D01*
X233577438Y-80422018D01*
X233499233Y-80327485D01*
X233486714Y-80319029D01*
X233475976Y-80325235D01*
X231893020Y-81908190D01*
X231885408Y-81922131D01*
X231155357Y-81922131D01*
X231156592Y-81919869D01*
X231156461Y-81918034D01*
X231152210Y-81911420D01*
X229567127Y-80326338D01*
X229553865Y-80319096D01*
X229543761Y-80326284D01*
X229464562Y-80422018D01*
X229459908Y-80428424D01*
X229292904Y-80691579D01*
X229289092Y-80698512D01*
X229156387Y-80980525D01*
X229153472Y-80987888D01*
X229057162Y-81284303D01*
X229055191Y-81291980D01*
X228996790Y-81598126D01*
X228995797Y-81605987D01*
X228976227Y-81917042D01*
X228976227Y-81924958D01*
X209210500Y-81924958D01*
X209210500Y-79951677D01*
X229916845Y-79951677D01*
X229923749Y-79964538D01*
X231508190Y-81548980D01*
X231522131Y-81556592D01*
X231523966Y-81556461D01*
X231530580Y-81552210D01*
X233118575Y-79964214D01*
X233125188Y-79952104D01*
X233116359Y-79940484D01*
X232887899Y-79774498D01*
X232881218Y-79770258D01*
X232608080Y-79620098D01*
X232600945Y-79616741D01*
X232311138Y-79501998D01*
X232303613Y-79499553D01*
X232001729Y-79422043D01*
X231993958Y-79420560D01*
X231684734Y-79381497D01*
X231676844Y-79381000D01*
X231365156Y-79381000D01*
X231357266Y-79381497D01*
X231048042Y-79420560D01*
X231040271Y-79422043D01*
X230738387Y-79499553D01*
X230730862Y-79501998D01*
X230441055Y-79616741D01*
X230433920Y-79620098D01*
X230160782Y-79770258D01*
X230154101Y-79774498D01*
X229925268Y-79940754D01*
X229916845Y-79951677D01*
X209210500Y-79951677D01*
X209210500Y-53189986D01*
X209230502Y-53121865D01*
X209284158Y-53075372D01*
X209354432Y-53065268D01*
X209369110Y-53068279D01*
X209441773Y-53087748D01*
X209453271Y-53090829D01*
X209677000Y-53110403D01*
X209900729Y-53090829D01*
X209906042Y-53089405D01*
X209906044Y-53089405D01*
X210112350Y-53034126D01*
X210112352Y-53034125D01*
X210117660Y-53032703D01*
X210122646Y-53030378D01*
X210316215Y-52940116D01*
X210316220Y-52940113D01*
X210321202Y-52937790D01*
X210433499Y-52859158D01*
X210500658Y-52812133D01*
X210500660Y-52812131D01*
X210505169Y-52808974D01*
X210663974Y-52650169D01*
X210792790Y-52466201D01*
X210795113Y-52461219D01*
X210795116Y-52461214D01*
X210885380Y-52267642D01*
X210885381Y-52267641D01*
X210887703Y-52262660D01*
X210945829Y-52045729D01*
X210965403Y-51822000D01*
X210945829Y-51598271D01*
X210887703Y-51381340D01*
X210832805Y-51263611D01*
X210795116Y-51182786D01*
X210795113Y-51182781D01*
X210792790Y-51177799D01*
X210663974Y-50993831D01*
X210505169Y-50835026D01*
X210458501Y-50802348D01*
X210383500Y-50749832D01*
X210321202Y-50706210D01*
X210316220Y-50703887D01*
X210316215Y-50703884D01*
X210235389Y-50666195D01*
X210182104Y-50619278D01*
X210162643Y-50551001D01*
X210183185Y-50483041D01*
X210235389Y-50437805D01*
X210316215Y-50400116D01*
X210316220Y-50400113D01*
X210321202Y-50397790D01*
X210433499Y-50319158D01*
X210500658Y-50272133D01*
X210500660Y-50272131D01*
X210505169Y-50268974D01*
X210663974Y-50110169D01*
X210792790Y-49926201D01*
X210795113Y-49921219D01*
X210795116Y-49921214D01*
X210885380Y-49727642D01*
X210885381Y-49727641D01*
X210887703Y-49722660D01*
X210945829Y-49505729D01*
X210965403Y-49282000D01*
X210945829Y-49058271D01*
X210887703Y-48841340D01*
X210832805Y-48723611D01*
X210795116Y-48642786D01*
X210795113Y-48642781D01*
X210792790Y-48637799D01*
X210663974Y-48453831D01*
X210505169Y-48295026D01*
X210390892Y-48215008D01*
X210346565Y-48159552D01*
X210339256Y-48088933D01*
X210371287Y-48025572D01*
X210423288Y-47992272D01*
X210518785Y-47960412D01*
X210531964Y-47954238D01*
X210669810Y-47868937D01*
X210681209Y-47859901D01*
X210795738Y-47745172D01*
X210804750Y-47733761D01*
X210889816Y-47595758D01*
X210895963Y-47582577D01*
X210947138Y-47428291D01*
X210950005Y-47414915D01*
X210959672Y-47320563D01*
X210960000Y-47314147D01*
X210960000Y-47014115D01*
X210955525Y-46998876D01*
X210954135Y-46997671D01*
X210946452Y-46996000D01*
X209549000Y-46996000D01*
X209480879Y-46975998D01*
X209434386Y-46922342D01*
X209423000Y-46870000D01*
X209423000Y-46469885D01*
X209931000Y-46469885D01*
X209935475Y-46485124D01*
X209936865Y-46486329D01*
X209944548Y-46488000D01*
X210941885Y-46488000D01*
X210957124Y-46483525D01*
X210958329Y-46482135D01*
X210960000Y-46474452D01*
X210960000Y-46169902D01*
X210959663Y-46163387D01*
X210949744Y-46067795D01*
X210946850Y-46054396D01*
X210895412Y-45900215D01*
X210889238Y-45887036D01*
X210803937Y-45749190D01*
X210794901Y-45737791D01*
X210680172Y-45623262D01*
X210668761Y-45614250D01*
X210530758Y-45529184D01*
X210517577Y-45523037D01*
X210363291Y-45471862D01*
X210349915Y-45468995D01*
X210255563Y-45459328D01*
X210249146Y-45459000D01*
X209949115Y-45459000D01*
X209933876Y-45463475D01*
X209932671Y-45464865D01*
X209931000Y-45472548D01*
X209931000Y-46469885D01*
X209423000Y-46469885D01*
X209423000Y-45477115D01*
X209418525Y-45461876D01*
X209417135Y-45460671D01*
X209409452Y-45459000D01*
X209104902Y-45459000D01*
X209098387Y-45459337D01*
X209002795Y-45469256D01*
X208989396Y-45472150D01*
X208835215Y-45523588D01*
X208822036Y-45529762D01*
X208684190Y-45615063D01*
X208672791Y-45624099D01*
X208558262Y-45738828D01*
X208549250Y-45750239D01*
X208464184Y-45888242D01*
X208458037Y-45901423D01*
X208426820Y-45995537D01*
X208386389Y-46053897D01*
X208320824Y-46081133D01*
X208250943Y-46068599D01*
X208204014Y-46028140D01*
X208127133Y-45918342D01*
X208127131Y-45918339D01*
X208123974Y-45913831D01*
X207965169Y-45755026D01*
X207956835Y-45749190D01*
X207866109Y-45685663D01*
X207781202Y-45626210D01*
X207776220Y-45623887D01*
X207776215Y-45623884D01*
X207582642Y-45533620D01*
X207582641Y-45533620D01*
X207577660Y-45531297D01*
X207572352Y-45529875D01*
X207572350Y-45529874D01*
X207366044Y-45474595D01*
X207366042Y-45474595D01*
X207360729Y-45473171D01*
X207137000Y-45453597D01*
X206913271Y-45473171D01*
X206907958Y-45474595D01*
X206907956Y-45474595D01*
X206701650Y-45529874D01*
X206701648Y-45529875D01*
X206696340Y-45531297D01*
X206691359Y-45533619D01*
X206691358Y-45533620D01*
X206497786Y-45623884D01*
X206497781Y-45623887D01*
X206492799Y-45626210D01*
X206488292Y-45629366D01*
X206488290Y-45629367D01*
X206313342Y-45751867D01*
X206313339Y-45751869D01*
X206308831Y-45755026D01*
X206150026Y-45913831D01*
X206146869Y-45918339D01*
X206146867Y-45918342D01*
X206024367Y-46093290D01*
X206021210Y-46097799D01*
X206018887Y-46102781D01*
X206018884Y-46102786D01*
X205981195Y-46183611D01*
X205934277Y-46236896D01*
X205866000Y-46256357D01*
X205798040Y-46235815D01*
X205752805Y-46183611D01*
X205715116Y-46102786D01*
X205715113Y-46102781D01*
X205712790Y-46097799D01*
X205709633Y-46093290D01*
X205587133Y-45918342D01*
X205587131Y-45918339D01*
X205583974Y-45913831D01*
X205425169Y-45755026D01*
X205416835Y-45749190D01*
X205326109Y-45685663D01*
X205241202Y-45626210D01*
X205236220Y-45623887D01*
X205236215Y-45623884D01*
X205042642Y-45533620D01*
X205042641Y-45533620D01*
X205037660Y-45531297D01*
X205032352Y-45529875D01*
X205032350Y-45529874D01*
X204826044Y-45474595D01*
X204826042Y-45474595D01*
X204820729Y-45473171D01*
X204597000Y-45453597D01*
X204373271Y-45473171D01*
X204367958Y-45474595D01*
X204367956Y-45474595D01*
X204161650Y-45529874D01*
X204161648Y-45529875D01*
X204156340Y-45531297D01*
X204151359Y-45533619D01*
X204151358Y-45533620D01*
X203957786Y-45623884D01*
X203957781Y-45623887D01*
X203952799Y-45626210D01*
X203948292Y-45629366D01*
X203948290Y-45629367D01*
X203773342Y-45751867D01*
X203773339Y-45751869D01*
X203768831Y-45755026D01*
X203610026Y-45913831D01*
X203606869Y-45918339D01*
X203606867Y-45918342D01*
X203484367Y-46093290D01*
X203481210Y-46097799D01*
X203478887Y-46102781D01*
X203478884Y-46102786D01*
X203441195Y-46183611D01*
X203394277Y-46236896D01*
X203326000Y-46256357D01*
X203258040Y-46235815D01*
X203212805Y-46183611D01*
X203175116Y-46102786D01*
X203175113Y-46102781D01*
X203172790Y-46097799D01*
X203169633Y-46093290D01*
X203047133Y-45918342D01*
X203047131Y-45918339D01*
X203043974Y-45913831D01*
X202885169Y-45755026D01*
X202876835Y-45749190D01*
X202786109Y-45685663D01*
X202701202Y-45626210D01*
X202696220Y-45623887D01*
X202696215Y-45623884D01*
X202502642Y-45533620D01*
X202502641Y-45533620D01*
X202497660Y-45531297D01*
X202492352Y-45529875D01*
X202492350Y-45529874D01*
X202286044Y-45474595D01*
X202286042Y-45474595D01*
X202280729Y-45473171D01*
X202057000Y-45453597D01*
X201833271Y-45473171D01*
X201827958Y-45474595D01*
X201827956Y-45474595D01*
X201621650Y-45529874D01*
X201621648Y-45529875D01*
X201616340Y-45531297D01*
X201611359Y-45533619D01*
X201611358Y-45533620D01*
X201417786Y-45623884D01*
X201417781Y-45623887D01*
X201412799Y-45626210D01*
X201408292Y-45629366D01*
X201408290Y-45629367D01*
X201233342Y-45751867D01*
X201233339Y-45751869D01*
X201228831Y-45755026D01*
X201070026Y-45913831D01*
X201066869Y-45918339D01*
X201066867Y-45918342D01*
X200944367Y-46093290D01*
X200941210Y-46097799D01*
X200938887Y-46102781D01*
X200938884Y-46102786D01*
X200901195Y-46183611D01*
X200854277Y-46236896D01*
X200786000Y-46256357D01*
X200718040Y-46235815D01*
X200672805Y-46183611D01*
X200635116Y-46102786D01*
X200635113Y-46102781D01*
X200632790Y-46097799D01*
X200629633Y-46093290D01*
X200507133Y-45918342D01*
X200507131Y-45918339D01*
X200503974Y-45913831D01*
X200345169Y-45755026D01*
X200336835Y-45749190D01*
X200246109Y-45685663D01*
X200161202Y-45626210D01*
X200156220Y-45623887D01*
X200156215Y-45623884D01*
X199962642Y-45533620D01*
X199962641Y-45533620D01*
X199957660Y-45531297D01*
X199952352Y-45529875D01*
X199952350Y-45529874D01*
X199746044Y-45474595D01*
X199746042Y-45474595D01*
X199740729Y-45473171D01*
X199517000Y-45453597D01*
X199293271Y-45473171D01*
X199287958Y-45474595D01*
X199287956Y-45474595D01*
X199081650Y-45529874D01*
X199081648Y-45529875D01*
X199076340Y-45531297D01*
X199071359Y-45533619D01*
X199071358Y-45533620D01*
X198877786Y-45623884D01*
X198877781Y-45623887D01*
X198872799Y-45626210D01*
X198868292Y-45629366D01*
X198868290Y-45629367D01*
X198693342Y-45751867D01*
X198693339Y-45751869D01*
X198688831Y-45755026D01*
X198530026Y-45913831D01*
X198526869Y-45918339D01*
X198526867Y-45918342D01*
X198404367Y-46093290D01*
X198401210Y-46097799D01*
X198398887Y-46102781D01*
X198398884Y-46102786D01*
X198361195Y-46183611D01*
X198314277Y-46236896D01*
X198246000Y-46256357D01*
X198178040Y-46235815D01*
X198132805Y-46183611D01*
X198095116Y-46102786D01*
X198095113Y-46102781D01*
X198092790Y-46097799D01*
X198089633Y-46093290D01*
X197967133Y-45918342D01*
X197967131Y-45918339D01*
X197963974Y-45913831D01*
X197805169Y-45755026D01*
X197796835Y-45749190D01*
X197706109Y-45685663D01*
X197621202Y-45626210D01*
X197616220Y-45623887D01*
X197616215Y-45623884D01*
X197422642Y-45533620D01*
X197422641Y-45533620D01*
X197417660Y-45531297D01*
X197412352Y-45529875D01*
X197412350Y-45529874D01*
X197206044Y-45474595D01*
X197206042Y-45474595D01*
X197200729Y-45473171D01*
X196977000Y-45453597D01*
X196753271Y-45473171D01*
X196747958Y-45474595D01*
X196747956Y-45474595D01*
X196541650Y-45529874D01*
X196541648Y-45529875D01*
X196536340Y-45531297D01*
X196531359Y-45533619D01*
X196531358Y-45533620D01*
X196337786Y-45623884D01*
X196337781Y-45623887D01*
X196332799Y-45626210D01*
X196328292Y-45629366D01*
X196328290Y-45629367D01*
X196153342Y-45751867D01*
X196153339Y-45751869D01*
X196148831Y-45755026D01*
X195990026Y-45913831D01*
X195986869Y-45918339D01*
X195986867Y-45918342D01*
X195864367Y-46093290D01*
X195861210Y-46097799D01*
X195858887Y-46102781D01*
X195858884Y-46102786D01*
X195821195Y-46183611D01*
X195774277Y-46236896D01*
X195706000Y-46256357D01*
X195638040Y-46235815D01*
X195592805Y-46183611D01*
X195555116Y-46102786D01*
X195555113Y-46102781D01*
X195552790Y-46097799D01*
X195549633Y-46093290D01*
X195427133Y-45918342D01*
X195427131Y-45918339D01*
X195423974Y-45913831D01*
X195265169Y-45755026D01*
X195256835Y-45749190D01*
X195166109Y-45685663D01*
X195081202Y-45626210D01*
X195076220Y-45623887D01*
X195076215Y-45623884D01*
X194882642Y-45533620D01*
X194882641Y-45533620D01*
X194877660Y-45531297D01*
X194872352Y-45529875D01*
X194872350Y-45529874D01*
X194666044Y-45474595D01*
X194666042Y-45474595D01*
X194660729Y-45473171D01*
X194437000Y-45453597D01*
X194213271Y-45473171D01*
X194207958Y-45474595D01*
X194207956Y-45474595D01*
X194001650Y-45529874D01*
X194001648Y-45529875D01*
X193996340Y-45531297D01*
X193991359Y-45533619D01*
X193991358Y-45533620D01*
X193797786Y-45623884D01*
X193797781Y-45623887D01*
X193792799Y-45626210D01*
X193788292Y-45629366D01*
X193788290Y-45629367D01*
X193613342Y-45751867D01*
X193613339Y-45751869D01*
X193608831Y-45755026D01*
X193450026Y-45913831D01*
X193446869Y-45918339D01*
X193446867Y-45918342D01*
X193324367Y-46093290D01*
X193321210Y-46097799D01*
X193318887Y-46102781D01*
X193318884Y-46102786D01*
X193281195Y-46183611D01*
X193234277Y-46236896D01*
X193166000Y-46256357D01*
X193098040Y-46235815D01*
X193052805Y-46183611D01*
X193015116Y-46102786D01*
X193015113Y-46102781D01*
X193012790Y-46097799D01*
X193009633Y-46093290D01*
X192887133Y-45918342D01*
X192887131Y-45918339D01*
X192883974Y-45913831D01*
X192725169Y-45755026D01*
X192716835Y-45749190D01*
X192626109Y-45685663D01*
X192541202Y-45626210D01*
X192536220Y-45623887D01*
X192536215Y-45623884D01*
X192342642Y-45533620D01*
X192342641Y-45533620D01*
X192337660Y-45531297D01*
X192332352Y-45529875D01*
X192332350Y-45529874D01*
X192126044Y-45474595D01*
X192126042Y-45474595D01*
X192120729Y-45473171D01*
X191897000Y-45453597D01*
X191673271Y-45473171D01*
X191667958Y-45474595D01*
X191667956Y-45474595D01*
X191461650Y-45529874D01*
X191461648Y-45529875D01*
X191456340Y-45531297D01*
X191451359Y-45533619D01*
X191451358Y-45533620D01*
X191257786Y-45623884D01*
X191257781Y-45623887D01*
X191252799Y-45626210D01*
X191248292Y-45629366D01*
X191248290Y-45629367D01*
X191073342Y-45751867D01*
X191073339Y-45751869D01*
X191068831Y-45755026D01*
X190910026Y-45913831D01*
X190906869Y-45918339D01*
X190906867Y-45918342D01*
X190784367Y-46093290D01*
X190781210Y-46097799D01*
X190778887Y-46102781D01*
X190778884Y-46102786D01*
X190741195Y-46183611D01*
X190694277Y-46236896D01*
X190626000Y-46256357D01*
X190558040Y-46235815D01*
X190512805Y-46183611D01*
X190475116Y-46102786D01*
X190475113Y-46102781D01*
X190472790Y-46097799D01*
X190469633Y-46093290D01*
X190347133Y-45918342D01*
X190347131Y-45918339D01*
X190343974Y-45913831D01*
X190185169Y-45755026D01*
X190176835Y-45749190D01*
X190086109Y-45685663D01*
X190001202Y-45626210D01*
X189996220Y-45623887D01*
X189996215Y-45623884D01*
X189802642Y-45533620D01*
X189802641Y-45533620D01*
X189797660Y-45531297D01*
X189792352Y-45529875D01*
X189792350Y-45529874D01*
X189586044Y-45474595D01*
X189586042Y-45474595D01*
X189580729Y-45473171D01*
X189357000Y-45453597D01*
X189133271Y-45473171D01*
X189127958Y-45474595D01*
X189127956Y-45474595D01*
X188921650Y-45529874D01*
X188921648Y-45529875D01*
X188916340Y-45531297D01*
X188911359Y-45533619D01*
X188911358Y-45533620D01*
X188717786Y-45623884D01*
X188717781Y-45623887D01*
X188712799Y-45626210D01*
X188708292Y-45629366D01*
X188708290Y-45629367D01*
X188533342Y-45751867D01*
X188533339Y-45751869D01*
X188528831Y-45755026D01*
X188370026Y-45913831D01*
X188366869Y-45918339D01*
X188366867Y-45918342D01*
X188244367Y-46093290D01*
X188241210Y-46097799D01*
X188238887Y-46102781D01*
X188238884Y-46102786D01*
X188200919Y-46184203D01*
X188154002Y-46237488D01*
X188085724Y-46256949D01*
X188017764Y-46236407D01*
X187972529Y-46184203D01*
X187934681Y-46103037D01*
X187929198Y-46093541D01*
X187896540Y-46046901D01*
X187886063Y-46038526D01*
X187872615Y-46045595D01*
X187189022Y-46729188D01*
X187181408Y-46743132D01*
X187181539Y-46744965D01*
X187185790Y-46751580D01*
X187873337Y-47439127D01*
X187885112Y-47445557D01*
X187897127Y-47436261D01*
X187929198Y-47390459D01*
X187934681Y-47380963D01*
X187972529Y-47299797D01*
X188019447Y-47246512D01*
X188087724Y-47227051D01*
X188155684Y-47247593D01*
X188200919Y-47299797D01*
X188238884Y-47381214D01*
X188238887Y-47381219D01*
X188241210Y-47386201D01*
X188244366Y-47390708D01*
X188244367Y-47390710D01*
X188282772Y-47445557D01*
X188370026Y-47570169D01*
X188528831Y-47728974D01*
X188533340Y-47732131D01*
X188533342Y-47732133D01*
X188591725Y-47773013D01*
X188712798Y-47857790D01*
X188717780Y-47860113D01*
X188717785Y-47860116D01*
X188798611Y-47897805D01*
X188851896Y-47944722D01*
X188871357Y-48012999D01*
X188850815Y-48080959D01*
X188798611Y-48126195D01*
X188717786Y-48163884D01*
X188717781Y-48163887D01*
X188712799Y-48166210D01*
X188708292Y-48169366D01*
X188708290Y-48169367D01*
X188533342Y-48291867D01*
X188533339Y-48291869D01*
X188528831Y-48295026D01*
X188370026Y-48453831D01*
X188241210Y-48637799D01*
X188238887Y-48642781D01*
X188238884Y-48642786D01*
X188201195Y-48723611D01*
X188154277Y-48776896D01*
X188086000Y-48796357D01*
X188018040Y-48775815D01*
X187972805Y-48723611D01*
X187935116Y-48642786D01*
X187935113Y-48642781D01*
X187932790Y-48637799D01*
X187803974Y-48453831D01*
X187645169Y-48295026D01*
X187461202Y-48166210D01*
X187456220Y-48163887D01*
X187456215Y-48163884D01*
X187374797Y-48125919D01*
X187321512Y-48079002D01*
X187302051Y-48010725D01*
X187322593Y-47942765D01*
X187374797Y-47897529D01*
X187455964Y-47859681D01*
X187465459Y-47854198D01*
X187512099Y-47821540D01*
X187520474Y-47811063D01*
X187513406Y-47797616D01*
X185760663Y-46044873D01*
X185748888Y-46038443D01*
X185736873Y-46047739D01*
X185704802Y-46093541D01*
X185699319Y-46103037D01*
X185661471Y-46184203D01*
X185614553Y-46237488D01*
X185546276Y-46256949D01*
X185478316Y-46236407D01*
X185433081Y-46184203D01*
X185395116Y-46102786D01*
X185395113Y-46102781D01*
X185392790Y-46097799D01*
X185389633Y-46093290D01*
X185267133Y-45918342D01*
X185267131Y-45918339D01*
X185263974Y-45913831D01*
X185105169Y-45755026D01*
X185096835Y-45749190D01*
X185006109Y-45685663D01*
X184987935Y-45672937D01*
X186113526Y-45672937D01*
X186120595Y-45686385D01*
X186804188Y-46369978D01*
X186818132Y-46377592D01*
X186819965Y-46377461D01*
X186826580Y-46373210D01*
X187514127Y-45685663D01*
X187520557Y-45673888D01*
X187511261Y-45661873D01*
X187465459Y-45629802D01*
X187455964Y-45624319D01*
X187262470Y-45534092D01*
X187252178Y-45530346D01*
X187045957Y-45475089D01*
X187035162Y-45473186D01*
X186822475Y-45454578D01*
X186811525Y-45454578D01*
X186598838Y-45473186D01*
X186588043Y-45475089D01*
X186381822Y-45530346D01*
X186371530Y-45534092D01*
X186178037Y-45624319D01*
X186168541Y-45629802D01*
X186121901Y-45662460D01*
X186113526Y-45672937D01*
X184987935Y-45672937D01*
X184921202Y-45626210D01*
X184916220Y-45623887D01*
X184916215Y-45623884D01*
X184722642Y-45533620D01*
X184722641Y-45533620D01*
X184717660Y-45531297D01*
X184712352Y-45529875D01*
X184712350Y-45529874D01*
X184506044Y-45474595D01*
X184506042Y-45474595D01*
X184500729Y-45473171D01*
X184277000Y-45453597D01*
X184053271Y-45473171D01*
X184047958Y-45474595D01*
X184047956Y-45474595D01*
X183841650Y-45529874D01*
X183841648Y-45529875D01*
X183836340Y-45531297D01*
X183831359Y-45533619D01*
X183831358Y-45533620D01*
X183637786Y-45623884D01*
X183637781Y-45623887D01*
X183632799Y-45626210D01*
X183628292Y-45629366D01*
X183628290Y-45629367D01*
X183453342Y-45751867D01*
X183453339Y-45751869D01*
X183448831Y-45755026D01*
X183290026Y-45913831D01*
X183286869Y-45918339D01*
X183286867Y-45918342D01*
X183164367Y-46093290D01*
X183161210Y-46097799D01*
X183158887Y-46102781D01*
X183158884Y-46102786D01*
X183121195Y-46183611D01*
X183074277Y-46236896D01*
X183006000Y-46256357D01*
X182938040Y-46235815D01*
X182892805Y-46183611D01*
X182855116Y-46102786D01*
X182855113Y-46102781D01*
X182852790Y-46097799D01*
X182849633Y-46093290D01*
X182727133Y-45918342D01*
X182727131Y-45918339D01*
X182723974Y-45913831D01*
X182565169Y-45755026D01*
X182556835Y-45749190D01*
X182466109Y-45685663D01*
X182381202Y-45626210D01*
X182376220Y-45623887D01*
X182376215Y-45623884D01*
X182182642Y-45533620D01*
X182182641Y-45533620D01*
X182177660Y-45531297D01*
X182172352Y-45529875D01*
X182172350Y-45529874D01*
X181966044Y-45474595D01*
X181966042Y-45474595D01*
X181960729Y-45473171D01*
X181737000Y-45453597D01*
X181513271Y-45473171D01*
X181507958Y-45474595D01*
X181507956Y-45474595D01*
X181301650Y-45529874D01*
X181301648Y-45529875D01*
X181296340Y-45531297D01*
X181291359Y-45533619D01*
X181291358Y-45533620D01*
X181097786Y-45623884D01*
X181097781Y-45623887D01*
X181092799Y-45626210D01*
X181088292Y-45629366D01*
X181088290Y-45629367D01*
X180913342Y-45751867D01*
X180913339Y-45751869D01*
X180908831Y-45755026D01*
X180750026Y-45913831D01*
X180746869Y-45918339D01*
X180746867Y-45918342D01*
X180624367Y-46093290D01*
X180621210Y-46097799D01*
X180618887Y-46102781D01*
X180618884Y-46102786D01*
X180581195Y-46183611D01*
X180534277Y-46236896D01*
X180466000Y-46256357D01*
X180398040Y-46235815D01*
X180352805Y-46183611D01*
X180315116Y-46102786D01*
X180315113Y-46102781D01*
X180312790Y-46097799D01*
X180309633Y-46093290D01*
X180187133Y-45918342D01*
X180187131Y-45918339D01*
X180183974Y-45913831D01*
X180025169Y-45755026D01*
X180016835Y-45749190D01*
X179926109Y-45685663D01*
X179841202Y-45626210D01*
X179836220Y-45623887D01*
X179836215Y-45623884D01*
X179642642Y-45533620D01*
X179642641Y-45533620D01*
X179637660Y-45531297D01*
X179632352Y-45529875D01*
X179632350Y-45529874D01*
X179426044Y-45474595D01*
X179426042Y-45474595D01*
X179420729Y-45473171D01*
X179197000Y-45453597D01*
X178973271Y-45473171D01*
X178967958Y-45474595D01*
X178967956Y-45474595D01*
X178761650Y-45529874D01*
X178761648Y-45529875D01*
X178756340Y-45531297D01*
X178751359Y-45533619D01*
X178751358Y-45533620D01*
X178557786Y-45623884D01*
X178557781Y-45623887D01*
X178552799Y-45626210D01*
X178548292Y-45629366D01*
X178548290Y-45629367D01*
X178373342Y-45751867D01*
X178373339Y-45751869D01*
X178368831Y-45755026D01*
X178210026Y-45913831D01*
X178206869Y-45918339D01*
X178206867Y-45918342D01*
X178084367Y-46093290D01*
X178081210Y-46097799D01*
X178078887Y-46102781D01*
X178078884Y-46102786D01*
X178041195Y-46183611D01*
X177994277Y-46236896D01*
X177926000Y-46256357D01*
X177858040Y-46235815D01*
X177812805Y-46183611D01*
X177775116Y-46102786D01*
X177775113Y-46102781D01*
X177772790Y-46097799D01*
X177769633Y-46093290D01*
X177647133Y-45918342D01*
X177647131Y-45918339D01*
X177643974Y-45913831D01*
X177485169Y-45755026D01*
X177476835Y-45749190D01*
X177386109Y-45685663D01*
X177301202Y-45626210D01*
X177296220Y-45623887D01*
X177296215Y-45623884D01*
X177102642Y-45533620D01*
X177102641Y-45533620D01*
X177097660Y-45531297D01*
X177092352Y-45529875D01*
X177092350Y-45529874D01*
X176886044Y-45474595D01*
X176886042Y-45474595D01*
X176880729Y-45473171D01*
X176657000Y-45453597D01*
X176433271Y-45473171D01*
X176427958Y-45474595D01*
X176427956Y-45474595D01*
X176221650Y-45529874D01*
X176221648Y-45529875D01*
X176216340Y-45531297D01*
X176211359Y-45533619D01*
X176211358Y-45533620D01*
X176017786Y-45623884D01*
X176017781Y-45623887D01*
X176012799Y-45626210D01*
X176008292Y-45629366D01*
X176008290Y-45629367D01*
X175833342Y-45751867D01*
X175833339Y-45751869D01*
X175828831Y-45755026D01*
X175670026Y-45913831D01*
X175666869Y-45918339D01*
X175666867Y-45918342D01*
X175544367Y-46093290D01*
X175541210Y-46097799D01*
X175538887Y-46102781D01*
X175538884Y-46102786D01*
X175501195Y-46183611D01*
X175454277Y-46236896D01*
X175386000Y-46256357D01*
X175318040Y-46235815D01*
X175272805Y-46183611D01*
X175235116Y-46102786D01*
X175235113Y-46102781D01*
X175232790Y-46097799D01*
X175229633Y-46093290D01*
X175107133Y-45918342D01*
X175107131Y-45918339D01*
X175103974Y-45913831D01*
X174945169Y-45755026D01*
X174936835Y-45749190D01*
X174846109Y-45685663D01*
X174761202Y-45626210D01*
X174756220Y-45623887D01*
X174756215Y-45623884D01*
X174562642Y-45533620D01*
X174562641Y-45533620D01*
X174557660Y-45531297D01*
X174552352Y-45529875D01*
X174552350Y-45529874D01*
X174346044Y-45474595D01*
X174346042Y-45474595D01*
X174340729Y-45473171D01*
X174117000Y-45453597D01*
X173893271Y-45473171D01*
X173887958Y-45474595D01*
X173887956Y-45474595D01*
X173681650Y-45529874D01*
X173681648Y-45529875D01*
X173676340Y-45531297D01*
X173671359Y-45533619D01*
X173671358Y-45533620D01*
X173477786Y-45623884D01*
X173477781Y-45623887D01*
X173472799Y-45626210D01*
X173468292Y-45629366D01*
X173468290Y-45629367D01*
X173293342Y-45751867D01*
X173293339Y-45751869D01*
X173288831Y-45755026D01*
X173130026Y-45913831D01*
X173126869Y-45918339D01*
X173126867Y-45918342D01*
X173004367Y-46093290D01*
X173001210Y-46097799D01*
X172998887Y-46102781D01*
X172998884Y-46102786D01*
X172961195Y-46183611D01*
X172914277Y-46236896D01*
X172846000Y-46256357D01*
X172778040Y-46235815D01*
X172732805Y-46183611D01*
X172695116Y-46102786D01*
X172695113Y-46102781D01*
X172692790Y-46097799D01*
X172689633Y-46093290D01*
X172567133Y-45918342D01*
X172567131Y-45918339D01*
X172563974Y-45913831D01*
X172405169Y-45755026D01*
X172396835Y-45749190D01*
X172306109Y-45685663D01*
X172221202Y-45626210D01*
X172216220Y-45623887D01*
X172216215Y-45623884D01*
X172022642Y-45533620D01*
X172022641Y-45533620D01*
X172017660Y-45531297D01*
X172012352Y-45529875D01*
X172012350Y-45529874D01*
X171806044Y-45474595D01*
X171806042Y-45474595D01*
X171800729Y-45473171D01*
X171577000Y-45453597D01*
X171353271Y-45473171D01*
X171347958Y-45474595D01*
X171347956Y-45474595D01*
X171141650Y-45529874D01*
X171141648Y-45529875D01*
X171136340Y-45531297D01*
X171131359Y-45533619D01*
X171131358Y-45533620D01*
X170937786Y-45623884D01*
X170937781Y-45623887D01*
X170932799Y-45626210D01*
X170928292Y-45629366D01*
X170928290Y-45629367D01*
X170753342Y-45751867D01*
X170753339Y-45751869D01*
X170748831Y-45755026D01*
X170590026Y-45913831D01*
X170586869Y-45918339D01*
X170586867Y-45918342D01*
X170464367Y-46093290D01*
X170461210Y-46097799D01*
X170458887Y-46102781D01*
X170458884Y-46102786D01*
X170421195Y-46183611D01*
X170374277Y-46236896D01*
X170306000Y-46256357D01*
X170238040Y-46235815D01*
X170192805Y-46183611D01*
X170155116Y-46102786D01*
X170155113Y-46102781D01*
X170152790Y-46097799D01*
X170149633Y-46093290D01*
X170027133Y-45918342D01*
X170027131Y-45918339D01*
X170023974Y-45913831D01*
X169865169Y-45755026D01*
X169856835Y-45749190D01*
X169766109Y-45685663D01*
X169681202Y-45626210D01*
X169676220Y-45623887D01*
X169676215Y-45623884D01*
X169482642Y-45533620D01*
X169482641Y-45533620D01*
X169477660Y-45531297D01*
X169472352Y-45529875D01*
X169472350Y-45529874D01*
X169266044Y-45474595D01*
X169266042Y-45474595D01*
X169260729Y-45473171D01*
X169037000Y-45453597D01*
X168813271Y-45473171D01*
X168807958Y-45474595D01*
X168807956Y-45474595D01*
X168601650Y-45529874D01*
X168601648Y-45529875D01*
X168596340Y-45531297D01*
X168591359Y-45533619D01*
X168591358Y-45533620D01*
X168397786Y-45623884D01*
X168397781Y-45623887D01*
X168392799Y-45626210D01*
X168388292Y-45629366D01*
X168388290Y-45629367D01*
X168213342Y-45751867D01*
X168213339Y-45751869D01*
X168208831Y-45755026D01*
X168050026Y-45913831D01*
X168046869Y-45918339D01*
X168046867Y-45918342D01*
X167924367Y-46093290D01*
X167921210Y-46097799D01*
X167918887Y-46102781D01*
X167918884Y-46102786D01*
X167881195Y-46183611D01*
X167834277Y-46236896D01*
X167766000Y-46256357D01*
X167698040Y-46235815D01*
X167652805Y-46183611D01*
X167615116Y-46102786D01*
X167615113Y-46102781D01*
X167612790Y-46097799D01*
X167609633Y-46093290D01*
X167487133Y-45918342D01*
X167487131Y-45918339D01*
X167483974Y-45913831D01*
X167325169Y-45755026D01*
X167316835Y-45749190D01*
X167226109Y-45685663D01*
X167141202Y-45626210D01*
X167136220Y-45623887D01*
X167136215Y-45623884D01*
X166942642Y-45533620D01*
X166942641Y-45533620D01*
X166937660Y-45531297D01*
X166932352Y-45529875D01*
X166932350Y-45529874D01*
X166726044Y-45474595D01*
X166726042Y-45474595D01*
X166720729Y-45473171D01*
X166497000Y-45453597D01*
X166273271Y-45473171D01*
X166267958Y-45474595D01*
X166267956Y-45474595D01*
X166061650Y-45529874D01*
X166061648Y-45529875D01*
X166056340Y-45531297D01*
X166051359Y-45533619D01*
X166051358Y-45533620D01*
X165857786Y-45623884D01*
X165857781Y-45623887D01*
X165852799Y-45626210D01*
X165848292Y-45629366D01*
X165848290Y-45629367D01*
X165673342Y-45751867D01*
X165673339Y-45751869D01*
X165668831Y-45755026D01*
X165510026Y-45913831D01*
X165506869Y-45918339D01*
X165506867Y-45918342D01*
X165384367Y-46093290D01*
X165381210Y-46097799D01*
X165378887Y-46102781D01*
X165378884Y-46102786D01*
X165341195Y-46183611D01*
X165294277Y-46236896D01*
X165226000Y-46256357D01*
X165158040Y-46235815D01*
X165112805Y-46183611D01*
X165075116Y-46102786D01*
X165075113Y-46102781D01*
X165072790Y-46097799D01*
X165069633Y-46093290D01*
X164947133Y-45918342D01*
X164947131Y-45918339D01*
X164943974Y-45913831D01*
X164785169Y-45755026D01*
X164776835Y-45749190D01*
X164686109Y-45685663D01*
X164601202Y-45626210D01*
X164596220Y-45623887D01*
X164596215Y-45623884D01*
X164402642Y-45533620D01*
X164402641Y-45533620D01*
X164397660Y-45531297D01*
X164392352Y-45529875D01*
X164392350Y-45529874D01*
X164186044Y-45474595D01*
X164186042Y-45474595D01*
X164180729Y-45473171D01*
X163957000Y-45453597D01*
X163733271Y-45473171D01*
X163727958Y-45474595D01*
X163727956Y-45474595D01*
X163521650Y-45529874D01*
X163521648Y-45529875D01*
X163516340Y-45531297D01*
X163511359Y-45533619D01*
X163511358Y-45533620D01*
X163317786Y-45623884D01*
X163317781Y-45623887D01*
X163312799Y-45626210D01*
X163308292Y-45629366D01*
X163308290Y-45629367D01*
X163133342Y-45751867D01*
X163133339Y-45751869D01*
X163128831Y-45755026D01*
X162970026Y-45913831D01*
X162966869Y-45918339D01*
X162966867Y-45918342D01*
X162844367Y-46093290D01*
X162841210Y-46097799D01*
X162838887Y-46102781D01*
X162838884Y-46102786D01*
X162801195Y-46183611D01*
X162754277Y-46236896D01*
X162686000Y-46256357D01*
X162618040Y-46235815D01*
X162572805Y-46183611D01*
X162535116Y-46102786D01*
X162535113Y-46102781D01*
X162532790Y-46097799D01*
X162529633Y-46093290D01*
X162407133Y-45918342D01*
X162407131Y-45918339D01*
X162403974Y-45913831D01*
X162245169Y-45755026D01*
X162236835Y-45749190D01*
X162146109Y-45685663D01*
X162061202Y-45626210D01*
X162056220Y-45623887D01*
X162056215Y-45623884D01*
X161862642Y-45533620D01*
X161862641Y-45533620D01*
X161857660Y-45531297D01*
X161852352Y-45529875D01*
X161852350Y-45529874D01*
X161646044Y-45474595D01*
X161646042Y-45474595D01*
X161640729Y-45473171D01*
X161417000Y-45453597D01*
X161193271Y-45473171D01*
X161187958Y-45474595D01*
X161187956Y-45474595D01*
X160981650Y-45529874D01*
X160981648Y-45529875D01*
X160976340Y-45531297D01*
X160971359Y-45533619D01*
X160971358Y-45533620D01*
X160777786Y-45623884D01*
X160777781Y-45623887D01*
X160772799Y-45626210D01*
X160768292Y-45629366D01*
X160768290Y-45629367D01*
X160593342Y-45751867D01*
X160593339Y-45751869D01*
X160588831Y-45755026D01*
X160430026Y-45913831D01*
X160426869Y-45918339D01*
X160426867Y-45918342D01*
X160304367Y-46093290D01*
X160301210Y-46097799D01*
X160298887Y-46102781D01*
X160298884Y-46102786D01*
X160261195Y-46183611D01*
X160214277Y-46236896D01*
X160146000Y-46256357D01*
X160078040Y-46235815D01*
X160032805Y-46183611D01*
X159995116Y-46102786D01*
X159995113Y-46102781D01*
X159992790Y-46097799D01*
X159989633Y-46093290D01*
X159867133Y-45918342D01*
X159867131Y-45918339D01*
X159863974Y-45913831D01*
X159705169Y-45755026D01*
X159696835Y-45749190D01*
X159606109Y-45685663D01*
X159521202Y-45626210D01*
X159516220Y-45623887D01*
X159516215Y-45623884D01*
X159322642Y-45533620D01*
X159322641Y-45533620D01*
X159317660Y-45531297D01*
X159312352Y-45529875D01*
X159312350Y-45529874D01*
X159106044Y-45474595D01*
X159106042Y-45474595D01*
X159100729Y-45473171D01*
X158877000Y-45453597D01*
X158653271Y-45473171D01*
X158647958Y-45474595D01*
X158647956Y-45474595D01*
X158441650Y-45529874D01*
X158441648Y-45529875D01*
X158436340Y-45531297D01*
X158431359Y-45533619D01*
X158431358Y-45533620D01*
X158237786Y-45623884D01*
X158237781Y-45623887D01*
X158232799Y-45626210D01*
X158228292Y-45629366D01*
X158228290Y-45629367D01*
X158053342Y-45751867D01*
X158053339Y-45751869D01*
X158048831Y-45755026D01*
X157890026Y-45913831D01*
X157886869Y-45918339D01*
X157886867Y-45918342D01*
X157764367Y-46093290D01*
X157761210Y-46097799D01*
X157758887Y-46102781D01*
X157758884Y-46102786D01*
X157721195Y-46183611D01*
X157674277Y-46236896D01*
X157606000Y-46256357D01*
X157538040Y-46235815D01*
X157492805Y-46183611D01*
X157455116Y-46102786D01*
X157455113Y-46102781D01*
X157452790Y-46097799D01*
X157449633Y-46093290D01*
X157327133Y-45918342D01*
X157327131Y-45918339D01*
X157323974Y-45913831D01*
X157165169Y-45755026D01*
X157156835Y-45749190D01*
X157066109Y-45685663D01*
X156981202Y-45626210D01*
X156976220Y-45623887D01*
X156976215Y-45623884D01*
X156782642Y-45533620D01*
X156782641Y-45533620D01*
X156777660Y-45531297D01*
X156772352Y-45529875D01*
X156772350Y-45529874D01*
X156566044Y-45474595D01*
X156566042Y-45474595D01*
X156560729Y-45473171D01*
X156337000Y-45453597D01*
X156113271Y-45473171D01*
X156107958Y-45474595D01*
X156107956Y-45474595D01*
X155901650Y-45529874D01*
X155901648Y-45529875D01*
X155896340Y-45531297D01*
X155891359Y-45533619D01*
X155891358Y-45533620D01*
X155697786Y-45623884D01*
X155697781Y-45623887D01*
X155692799Y-45626210D01*
X155688292Y-45629366D01*
X155688290Y-45629367D01*
X155513342Y-45751867D01*
X155513339Y-45751869D01*
X155508831Y-45755026D01*
X155350026Y-45913831D01*
X155346869Y-45918339D01*
X155346867Y-45918342D01*
X155224367Y-46093290D01*
X155221210Y-46097799D01*
X155218887Y-46102781D01*
X155218884Y-46102786D01*
X155181195Y-46183611D01*
X155134277Y-46236896D01*
X155066000Y-46256357D01*
X154998040Y-46235815D01*
X154952805Y-46183611D01*
X154915116Y-46102786D01*
X154915113Y-46102781D01*
X154912790Y-46097799D01*
X154909633Y-46093290D01*
X154787133Y-45918342D01*
X154787131Y-45918339D01*
X154783974Y-45913831D01*
X154625169Y-45755026D01*
X154616835Y-45749190D01*
X154526109Y-45685663D01*
X154441202Y-45626210D01*
X154436220Y-45623887D01*
X154436215Y-45623884D01*
X154242642Y-45533620D01*
X154242641Y-45533620D01*
X154237660Y-45531297D01*
X154232352Y-45529875D01*
X154232350Y-45529874D01*
X154026044Y-45474595D01*
X154026042Y-45474595D01*
X154020729Y-45473171D01*
X153797000Y-45453597D01*
X153573271Y-45473171D01*
X153567958Y-45474595D01*
X153567956Y-45474595D01*
X153361650Y-45529874D01*
X153361648Y-45529875D01*
X153356340Y-45531297D01*
X153351359Y-45533619D01*
X153351358Y-45533620D01*
X153157786Y-45623884D01*
X153157781Y-45623887D01*
X153152799Y-45626210D01*
X153148292Y-45629366D01*
X153148290Y-45629367D01*
X152973342Y-45751867D01*
X152973339Y-45751869D01*
X152968831Y-45755026D01*
X152810026Y-45913831D01*
X152806869Y-45918339D01*
X152806867Y-45918342D01*
X152684367Y-46093290D01*
X152681210Y-46097799D01*
X152678887Y-46102781D01*
X152678884Y-46102786D01*
X152641195Y-46183611D01*
X152594277Y-46236896D01*
X152526000Y-46256357D01*
X152458040Y-46235815D01*
X152412805Y-46183611D01*
X152375116Y-46102786D01*
X152375113Y-46102781D01*
X152372790Y-46097799D01*
X152369633Y-46093290D01*
X152247133Y-45918342D01*
X152247131Y-45918339D01*
X152243974Y-45913831D01*
X152085169Y-45755026D01*
X152076835Y-45749190D01*
X151986109Y-45685663D01*
X151901202Y-45626210D01*
X151896220Y-45623887D01*
X151896215Y-45623884D01*
X151702642Y-45533620D01*
X151702641Y-45533620D01*
X151697660Y-45531297D01*
X151692352Y-45529875D01*
X151692350Y-45529874D01*
X151486044Y-45474595D01*
X151486042Y-45474595D01*
X151480729Y-45473171D01*
X151257000Y-45453597D01*
X151033271Y-45473171D01*
X151027958Y-45474595D01*
X151027956Y-45474595D01*
X150821650Y-45529874D01*
X150821648Y-45529875D01*
X150816340Y-45531297D01*
X150811359Y-45533619D01*
X150811358Y-45533620D01*
X150617786Y-45623884D01*
X150617781Y-45623887D01*
X150612799Y-45626210D01*
X150608292Y-45629366D01*
X150608290Y-45629367D01*
X150433342Y-45751867D01*
X150433339Y-45751869D01*
X150428831Y-45755026D01*
X150270026Y-45913831D01*
X150266869Y-45918339D01*
X150266867Y-45918342D01*
X150144367Y-46093290D01*
X150141210Y-46097799D01*
X150138887Y-46102781D01*
X150138884Y-46102786D01*
X150101195Y-46183611D01*
X150054277Y-46236896D01*
X149986000Y-46256357D01*
X149918040Y-46235815D01*
X149872805Y-46183611D01*
X149835116Y-46102786D01*
X149835113Y-46102781D01*
X149832790Y-46097799D01*
X149829633Y-46093290D01*
X149707133Y-45918342D01*
X149707131Y-45918339D01*
X149703974Y-45913831D01*
X149545169Y-45755026D01*
X149536835Y-45749190D01*
X149446109Y-45685663D01*
X149361202Y-45626210D01*
X149356220Y-45623887D01*
X149356215Y-45623884D01*
X149162642Y-45533620D01*
X149162641Y-45533620D01*
X149157660Y-45531297D01*
X149152352Y-45529875D01*
X149152350Y-45529874D01*
X148946044Y-45474595D01*
X148946042Y-45474595D01*
X148940729Y-45473171D01*
X148717000Y-45453597D01*
X148493271Y-45473171D01*
X148487958Y-45474595D01*
X148487956Y-45474595D01*
X148281650Y-45529874D01*
X148281648Y-45529875D01*
X148276340Y-45531297D01*
X148271359Y-45533619D01*
X148271358Y-45533620D01*
X148077786Y-45623884D01*
X148077781Y-45623887D01*
X148072799Y-45626210D01*
X148068292Y-45629366D01*
X148068290Y-45629367D01*
X147893342Y-45751867D01*
X147893339Y-45751869D01*
X147888831Y-45755026D01*
X147730026Y-45913831D01*
X147726869Y-45918339D01*
X147726867Y-45918342D01*
X147604367Y-46093290D01*
X147601210Y-46097799D01*
X147598887Y-46102781D01*
X147598884Y-46102786D01*
X147561195Y-46183611D01*
X147514277Y-46236896D01*
X147446000Y-46256357D01*
X147378040Y-46235815D01*
X147332805Y-46183611D01*
X147295116Y-46102786D01*
X147295113Y-46102781D01*
X147292790Y-46097799D01*
X147289633Y-46093290D01*
X147167133Y-45918342D01*
X147167131Y-45918339D01*
X147163974Y-45913831D01*
X147005169Y-45755026D01*
X146996835Y-45749190D01*
X146906109Y-45685663D01*
X146821202Y-45626210D01*
X146816220Y-45623887D01*
X146816215Y-45623884D01*
X146622642Y-45533620D01*
X146622641Y-45533620D01*
X146617660Y-45531297D01*
X146612352Y-45529875D01*
X146612350Y-45529874D01*
X146406044Y-45474595D01*
X146406042Y-45474595D01*
X146400729Y-45473171D01*
X146177000Y-45453597D01*
X145953271Y-45473171D01*
X145947958Y-45474595D01*
X145947956Y-45474595D01*
X145741650Y-45529874D01*
X145741648Y-45529875D01*
X145736340Y-45531297D01*
X145731359Y-45533619D01*
X145731358Y-45533620D01*
X145537786Y-45623884D01*
X145537781Y-45623887D01*
X145532799Y-45626210D01*
X145528292Y-45629366D01*
X145528290Y-45629367D01*
X145353342Y-45751867D01*
X145353339Y-45751869D01*
X145348831Y-45755026D01*
X145190026Y-45913831D01*
X145186869Y-45918339D01*
X145186867Y-45918342D01*
X145064367Y-46093290D01*
X145061210Y-46097799D01*
X145058887Y-46102781D01*
X145058884Y-46102786D01*
X145021195Y-46183611D01*
X144974277Y-46236896D01*
X144906000Y-46256357D01*
X144838040Y-46235815D01*
X144792805Y-46183611D01*
X144755116Y-46102786D01*
X144755113Y-46102781D01*
X144752790Y-46097799D01*
X144749633Y-46093290D01*
X144627133Y-45918342D01*
X144627131Y-45918339D01*
X144623974Y-45913831D01*
X144465169Y-45755026D01*
X144456835Y-45749190D01*
X144366109Y-45685663D01*
X144281202Y-45626210D01*
X144276220Y-45623887D01*
X144276215Y-45623884D01*
X144082642Y-45533620D01*
X144082641Y-45533620D01*
X144077660Y-45531297D01*
X144072352Y-45529875D01*
X144072350Y-45529874D01*
X143866044Y-45474595D01*
X143866042Y-45474595D01*
X143860729Y-45473171D01*
X143637000Y-45453597D01*
X143413271Y-45473171D01*
X143407958Y-45474595D01*
X143407956Y-45474595D01*
X143201650Y-45529874D01*
X143201648Y-45529875D01*
X143196340Y-45531297D01*
X143191359Y-45533619D01*
X143191358Y-45533620D01*
X142997786Y-45623884D01*
X142997781Y-45623887D01*
X142992799Y-45626210D01*
X142988292Y-45629366D01*
X142988290Y-45629367D01*
X142813342Y-45751867D01*
X142813339Y-45751869D01*
X142808831Y-45755026D01*
X142650026Y-45913831D01*
X142646869Y-45918339D01*
X142646867Y-45918342D01*
X142524367Y-46093290D01*
X142521210Y-46097799D01*
X142518887Y-46102781D01*
X142518884Y-46102786D01*
X142481195Y-46183611D01*
X142434277Y-46236896D01*
X142366000Y-46256357D01*
X142298040Y-46235815D01*
X142252805Y-46183611D01*
X142215116Y-46102786D01*
X142215113Y-46102781D01*
X142212790Y-46097799D01*
X142209633Y-46093290D01*
X142087133Y-45918342D01*
X142087131Y-45918339D01*
X142083974Y-45913831D01*
X141925169Y-45755026D01*
X141916835Y-45749190D01*
X141826109Y-45685663D01*
X141741202Y-45626210D01*
X141736220Y-45623887D01*
X141736215Y-45623884D01*
X141542642Y-45533620D01*
X141542641Y-45533620D01*
X141537660Y-45531297D01*
X141532352Y-45529875D01*
X141532350Y-45529874D01*
X141326044Y-45474595D01*
X141326042Y-45474595D01*
X141320729Y-45473171D01*
X141097000Y-45453597D01*
X140873271Y-45473171D01*
X140867958Y-45474595D01*
X140867956Y-45474595D01*
X140661650Y-45529874D01*
X140661648Y-45529875D01*
X140656340Y-45531297D01*
X140651359Y-45533619D01*
X140651358Y-45533620D01*
X140457786Y-45623884D01*
X140457781Y-45623887D01*
X140452799Y-45626210D01*
X140448292Y-45629366D01*
X140448290Y-45629367D01*
X140273342Y-45751867D01*
X140273339Y-45751869D01*
X140268831Y-45755026D01*
X140110026Y-45913831D01*
X140106869Y-45918339D01*
X140106867Y-45918342D01*
X139984367Y-46093290D01*
X139981210Y-46097799D01*
X139978887Y-46102781D01*
X139978884Y-46102786D01*
X139941195Y-46183611D01*
X139894277Y-46236896D01*
X139826000Y-46256357D01*
X139758040Y-46235815D01*
X139712805Y-46183611D01*
X139675116Y-46102786D01*
X139675113Y-46102781D01*
X139672790Y-46097799D01*
X139669633Y-46093290D01*
X139547133Y-45918342D01*
X139547131Y-45918339D01*
X139543974Y-45913831D01*
X139385169Y-45755026D01*
X139376835Y-45749190D01*
X139286109Y-45685663D01*
X139201202Y-45626210D01*
X139196220Y-45623887D01*
X139196215Y-45623884D01*
X139002642Y-45533620D01*
X139002641Y-45533620D01*
X138997660Y-45531297D01*
X138992352Y-45529875D01*
X138992350Y-45529874D01*
X138786044Y-45474595D01*
X138786042Y-45474595D01*
X138780729Y-45473171D01*
X138557000Y-45453597D01*
X138333271Y-45473171D01*
X138327958Y-45474595D01*
X138327956Y-45474595D01*
X138121650Y-45529874D01*
X138121648Y-45529875D01*
X138116340Y-45531297D01*
X138111359Y-45533619D01*
X138111358Y-45533620D01*
X137917786Y-45623884D01*
X137917781Y-45623887D01*
X137912799Y-45626210D01*
X137908292Y-45629366D01*
X137908290Y-45629367D01*
X137733342Y-45751867D01*
X137733339Y-45751869D01*
X137728831Y-45755026D01*
X137570026Y-45913831D01*
X137566869Y-45918339D01*
X137566867Y-45918342D01*
X137444367Y-46093290D01*
X137441210Y-46097799D01*
X137438887Y-46102781D01*
X137438884Y-46102786D01*
X137401195Y-46183611D01*
X137354277Y-46236896D01*
X137286000Y-46256357D01*
X137218040Y-46235815D01*
X137172805Y-46183611D01*
X137135116Y-46102786D01*
X137135113Y-46102781D01*
X137132790Y-46097799D01*
X137129633Y-46093290D01*
X137007133Y-45918342D01*
X137007131Y-45918339D01*
X137003974Y-45913831D01*
X136845169Y-45755026D01*
X136836835Y-45749190D01*
X136746109Y-45685663D01*
X136661202Y-45626210D01*
X136656220Y-45623887D01*
X136656215Y-45623884D01*
X136462642Y-45533620D01*
X136462641Y-45533620D01*
X136457660Y-45531297D01*
X136452352Y-45529875D01*
X136452350Y-45529874D01*
X136246044Y-45474595D01*
X136246042Y-45474595D01*
X136240729Y-45473171D01*
X136017000Y-45453597D01*
X135793271Y-45473171D01*
X135787958Y-45474595D01*
X135787956Y-45474595D01*
X135581650Y-45529874D01*
X135581648Y-45529875D01*
X135576340Y-45531297D01*
X135571359Y-45533619D01*
X135571358Y-45533620D01*
X135377786Y-45623884D01*
X135377781Y-45623887D01*
X135372799Y-45626210D01*
X135368292Y-45629366D01*
X135368290Y-45629367D01*
X135193342Y-45751867D01*
X135193339Y-45751869D01*
X135188831Y-45755026D01*
X135030026Y-45913831D01*
X135026869Y-45918339D01*
X135026867Y-45918342D01*
X134904367Y-46093290D01*
X134901210Y-46097799D01*
X134898887Y-46102781D01*
X134898884Y-46102786D01*
X134860919Y-46184203D01*
X134814002Y-46237488D01*
X134745724Y-46256949D01*
X134677764Y-46236407D01*
X134632529Y-46184203D01*
X134594681Y-46103037D01*
X134589198Y-46093541D01*
X134556540Y-46046901D01*
X134546063Y-46038526D01*
X134532615Y-46045595D01*
X133849022Y-46729188D01*
X133841408Y-46743132D01*
X133841539Y-46744965D01*
X133845790Y-46751580D01*
X134533337Y-47439127D01*
X134545112Y-47445557D01*
X134557127Y-47436261D01*
X134589198Y-47390459D01*
X134594681Y-47380963D01*
X134632529Y-47299797D01*
X134679447Y-47246512D01*
X134747724Y-47227051D01*
X134815684Y-47247593D01*
X134860919Y-47299797D01*
X134898884Y-47381214D01*
X134898887Y-47381219D01*
X134901210Y-47386201D01*
X134904366Y-47390708D01*
X134904367Y-47390710D01*
X134942772Y-47445557D01*
X135030026Y-47570169D01*
X135188831Y-47728974D01*
X135193340Y-47732131D01*
X135193342Y-47732133D01*
X135251725Y-47773013D01*
X135372798Y-47857790D01*
X135377780Y-47860113D01*
X135377785Y-47860116D01*
X135458611Y-47897805D01*
X135511896Y-47944722D01*
X135531357Y-48012999D01*
X135510815Y-48080959D01*
X135458611Y-48126195D01*
X135377786Y-48163884D01*
X135377781Y-48163887D01*
X135372799Y-48166210D01*
X135368292Y-48169366D01*
X135368290Y-48169367D01*
X135193342Y-48291867D01*
X135193339Y-48291869D01*
X135188831Y-48295026D01*
X135030026Y-48453831D01*
X134901210Y-48637799D01*
X134898887Y-48642781D01*
X134898884Y-48642786D01*
X134861195Y-48723611D01*
X134814277Y-48776896D01*
X134746000Y-48796357D01*
X134678040Y-48775815D01*
X134632805Y-48723611D01*
X134595116Y-48642786D01*
X134595113Y-48642781D01*
X134592790Y-48637799D01*
X134463974Y-48453831D01*
X134305169Y-48295026D01*
X134121202Y-48166210D01*
X134116220Y-48163887D01*
X134116215Y-48163884D01*
X134034797Y-48125919D01*
X133981512Y-48079002D01*
X133962051Y-48010725D01*
X133982593Y-47942765D01*
X134034797Y-47897529D01*
X134115964Y-47859681D01*
X134125459Y-47854198D01*
X134172099Y-47821540D01*
X134180474Y-47811063D01*
X134173406Y-47797616D01*
X133489812Y-47114022D01*
X133475868Y-47106408D01*
X133474035Y-47106539D01*
X133467420Y-47110790D01*
X132779873Y-47798337D01*
X132773443Y-47810112D01*
X132782739Y-47822127D01*
X132828541Y-47854198D01*
X132838036Y-47859681D01*
X132919203Y-47897529D01*
X132972488Y-47944446D01*
X132991949Y-48012723D01*
X132971407Y-48080683D01*
X132919203Y-48125919D01*
X132837786Y-48163884D01*
X132837781Y-48163887D01*
X132832799Y-48166210D01*
X132828292Y-48169366D01*
X132828290Y-48169367D01*
X132653342Y-48291867D01*
X132653339Y-48291869D01*
X132648831Y-48295026D01*
X132490026Y-48453831D01*
X132361210Y-48637799D01*
X132358887Y-48642781D01*
X132358884Y-48642786D01*
X132321195Y-48723611D01*
X132274277Y-48776896D01*
X132206000Y-48796357D01*
X132138040Y-48775815D01*
X132092805Y-48723611D01*
X132055116Y-48642786D01*
X132055113Y-48642781D01*
X132052790Y-48637799D01*
X131923974Y-48453831D01*
X131765169Y-48295026D01*
X131581202Y-48166210D01*
X131576220Y-48163887D01*
X131576215Y-48163884D01*
X131494797Y-48125919D01*
X131441512Y-48079002D01*
X131422051Y-48010725D01*
X131442593Y-47942765D01*
X131494797Y-47897529D01*
X131575964Y-47859681D01*
X131585459Y-47854198D01*
X131632099Y-47821540D01*
X131640474Y-47811063D01*
X131633406Y-47797616D01*
X130949812Y-47114022D01*
X130935868Y-47106408D01*
X130934035Y-47106539D01*
X130927420Y-47110790D01*
X130239873Y-47798337D01*
X130233443Y-47810112D01*
X130242739Y-47822127D01*
X130288541Y-47854198D01*
X130298036Y-47859681D01*
X130379203Y-47897529D01*
X130432488Y-47944446D01*
X130451949Y-48012723D01*
X130431407Y-48080683D01*
X130379203Y-48125919D01*
X130297786Y-48163884D01*
X130297781Y-48163887D01*
X130292799Y-48166210D01*
X130288292Y-48169366D01*
X130288290Y-48169367D01*
X130113342Y-48291867D01*
X130113339Y-48291869D01*
X130108831Y-48295026D01*
X129950026Y-48453831D01*
X129821210Y-48637799D01*
X129818887Y-48642781D01*
X129818884Y-48642786D01*
X129781195Y-48723611D01*
X129726297Y-48841340D01*
X129668171Y-49058271D01*
X129648597Y-49282000D01*
X129668171Y-49505729D01*
X129726297Y-49722660D01*
X129728619Y-49727641D01*
X129728620Y-49727642D01*
X129818884Y-49921214D01*
X129818887Y-49921219D01*
X129821210Y-49926201D01*
X129950026Y-50110169D01*
X130108831Y-50268974D01*
X130113340Y-50272131D01*
X130113342Y-50272133D01*
X130180501Y-50319158D01*
X130292798Y-50397790D01*
X130297780Y-50400113D01*
X130297785Y-50400116D01*
X130378611Y-50437805D01*
X130431896Y-50484722D01*
X130451357Y-50552999D01*
X130430815Y-50620959D01*
X130378611Y-50666195D01*
X130297786Y-50703884D01*
X130297781Y-50703887D01*
X130292799Y-50706210D01*
X130288292Y-50709366D01*
X130288290Y-50709367D01*
X130113342Y-50831867D01*
X130113339Y-50831869D01*
X130108831Y-50835026D01*
X129950026Y-50993831D01*
X129821210Y-51177799D01*
X129818887Y-51182781D01*
X129818884Y-51182786D01*
X129781195Y-51263611D01*
X129726297Y-51381340D01*
X129668171Y-51598271D01*
X129648597Y-51822000D01*
X129668171Y-52045729D01*
X129726297Y-52262660D01*
X129728619Y-52267641D01*
X129728620Y-52267642D01*
X129818884Y-52461214D01*
X129818887Y-52461219D01*
X129821210Y-52466201D01*
X129950026Y-52650169D01*
X130108831Y-52808974D01*
X130113340Y-52812131D01*
X130113342Y-52812133D01*
X130180501Y-52859158D01*
X130292798Y-52937790D01*
X130297780Y-52940113D01*
X130297785Y-52940116D01*
X130491354Y-53030378D01*
X130496340Y-53032703D01*
X130501648Y-53034125D01*
X130501650Y-53034126D01*
X130707956Y-53089405D01*
X130707958Y-53089405D01*
X130713271Y-53090829D01*
X130937000Y-53110403D01*
X131160729Y-53090829D01*
X131166042Y-53089405D01*
X131166044Y-53089405D01*
X131372350Y-53034126D01*
X131372352Y-53034125D01*
X131377660Y-53032703D01*
X131382646Y-53030378D01*
X131576215Y-52940116D01*
X131576220Y-52940113D01*
X131581202Y-52937790D01*
X131693499Y-52859158D01*
X131760658Y-52812133D01*
X131760660Y-52812131D01*
X131765169Y-52808974D01*
X131923974Y-52650169D01*
X132052790Y-52466201D01*
X132055113Y-52461219D01*
X132055116Y-52461214D01*
X132092805Y-52380389D01*
X132139723Y-52327104D01*
X132208000Y-52307643D01*
X132275960Y-52328185D01*
X132321195Y-52380389D01*
X132358884Y-52461214D01*
X132358887Y-52461219D01*
X132361210Y-52466201D01*
X132490026Y-52650169D01*
X132648831Y-52808974D01*
X132653340Y-52812131D01*
X132653342Y-52812133D01*
X132720501Y-52859158D01*
X132832798Y-52937790D01*
X132837780Y-52940113D01*
X132837785Y-52940116D01*
X133031354Y-53030378D01*
X133036340Y-53032703D01*
X133041648Y-53034125D01*
X133041650Y-53034126D01*
X133247956Y-53089405D01*
X133247958Y-53089405D01*
X133253271Y-53090829D01*
X133477000Y-53110403D01*
X133700729Y-53090829D01*
X133706042Y-53089405D01*
X133706044Y-53089405D01*
X133912350Y-53034126D01*
X133912352Y-53034125D01*
X133917660Y-53032703D01*
X133922646Y-53030378D01*
X134116215Y-52940116D01*
X134116220Y-52940113D01*
X134121202Y-52937790D01*
X134233499Y-52859158D01*
X134300658Y-52812133D01*
X134300660Y-52812131D01*
X134305169Y-52808974D01*
X134463974Y-52650169D01*
X134592790Y-52466201D01*
X134595113Y-52461219D01*
X134595116Y-52461214D01*
X134632805Y-52380389D01*
X134679723Y-52327104D01*
X134748000Y-52307643D01*
X134815960Y-52328185D01*
X134861195Y-52380389D01*
X134898884Y-52461214D01*
X134898887Y-52461219D01*
X134901210Y-52466201D01*
X135030026Y-52650169D01*
X135188831Y-52808974D01*
X135193340Y-52812131D01*
X135193342Y-52812133D01*
X135260501Y-52859158D01*
X135372798Y-52937790D01*
X135377780Y-52940113D01*
X135377785Y-52940116D01*
X135571354Y-53030378D01*
X135576340Y-53032703D01*
X135581648Y-53034125D01*
X135581650Y-53034126D01*
X135787956Y-53089405D01*
X135787958Y-53089405D01*
X135793271Y-53090829D01*
X136017000Y-53110403D01*
X136240729Y-53090829D01*
X136252227Y-53087748D01*
X136324890Y-53068279D01*
X136395866Y-53069969D01*
X136454662Y-53109764D01*
X136482609Y-53175028D01*
X136483500Y-53189986D01*
X136483500Y-107604199D01*
X136463498Y-107672320D01*
X136409842Y-107718813D01*
X136339568Y-107728917D01*
X136311625Y-107720856D01*
X136311600Y-107720932D01*
X136309335Y-107720196D01*
X136306253Y-107719307D01*
X136305319Y-107718891D01*
X136305318Y-107718891D01*
X136299288Y-107716206D01*
X136205888Y-107696353D01*
X136118944Y-107677872D01*
X136118939Y-107677872D01*
X136112487Y-107676500D01*
X135921513Y-107676500D01*
X135915061Y-107677872D01*
X135915056Y-107677872D01*
X135828112Y-107696353D01*
X135734712Y-107716206D01*
X135728682Y-107718891D01*
X135728681Y-107718891D01*
X135566278Y-107791197D01*
X135566276Y-107791198D01*
X135560248Y-107793882D01*
X135554907Y-107797762D01*
X135554906Y-107797763D01*
X135504843Y-107834136D01*
X135405747Y-107906134D01*
X135401326Y-107911044D01*
X135401325Y-107911045D01*
X135394713Y-107918389D01*
X135277960Y-108048056D01*
X135182473Y-108213444D01*
X135123458Y-108395072D01*
X135103496Y-108585000D01*
X135123458Y-108774928D01*
X135182473Y-108956556D01*
X135277960Y-109121944D01*
X135282378Y-109126851D01*
X135282379Y-109126852D01*
X135376136Y-109230980D01*
X135406854Y-109294987D01*
X135408500Y-109315290D01*
X135408500Y-120681710D01*
X135388498Y-120749831D01*
X135376136Y-120766020D01*
X135282379Y-120870148D01*
X135277960Y-120875056D01*
X135182473Y-121040444D01*
X135123458Y-121222072D01*
X135103496Y-121412000D01*
X135123458Y-121601928D01*
X135182473Y-121783556D01*
X135277960Y-121948944D01*
X135282378Y-121953851D01*
X135282379Y-121953852D01*
X135400158Y-122084659D01*
X135405747Y-122090866D01*
X135479204Y-122144236D01*
X135550501Y-122196036D01*
X135560248Y-122203118D01*
X135566276Y-122205802D01*
X135566278Y-122205803D01*
X135727747Y-122277693D01*
X135734712Y-122280794D01*
X135817391Y-122298368D01*
X135915056Y-122319128D01*
X135915061Y-122319128D01*
X135921513Y-122320500D01*
X136112487Y-122320500D01*
X136118939Y-122319128D01*
X136118944Y-122319128D01*
X136216609Y-122298368D01*
X136299288Y-122280794D01*
X136306253Y-122277693D01*
X136306842Y-122277614D01*
X136311600Y-122276068D01*
X136311883Y-122276938D01*
X136376620Y-122268260D01*
X136440917Y-122298368D01*
X136478729Y-122358457D01*
X136483500Y-122392801D01*
X136483500Y-130202712D01*
X136463498Y-130270833D01*
X136409842Y-130317326D01*
X136335404Y-130326759D01*
X136150373Y-130293800D01*
X136150367Y-130293799D01*
X136145284Y-130292894D01*
X136071452Y-130291992D01*
X135927081Y-130290228D01*
X135927079Y-130290228D01*
X135921911Y-130290165D01*
X135701091Y-130323955D01*
X135488756Y-130393357D01*
X135290607Y-130496507D01*
X135286474Y-130499610D01*
X135286471Y-130499612D01*
X135120353Y-130624337D01*
X135111965Y-130630635D01*
X135086541Y-130657240D01*
X135018280Y-130728671D01*
X134957629Y-130792138D01*
X134954720Y-130796403D01*
X134954714Y-130796411D01*
X134942800Y-130813876D01*
X134850204Y-130949618D01*
X134849898Y-130950066D01*
X134794987Y-130995069D01*
X134724462Y-131003240D01*
X134660715Y-130971986D01*
X134640018Y-130947502D01*
X134559426Y-130822926D01*
X134553136Y-130814757D01*
X134409806Y-130657240D01*
X134402273Y-130650215D01*
X134235139Y-130518222D01*
X134226552Y-130512517D01*
X134040117Y-130409599D01*
X134030705Y-130405369D01*
X133829959Y-130334280D01*
X133819988Y-130331646D01*
X133748837Y-130318972D01*
X133735540Y-130320432D01*
X133731000Y-130334989D01*
X133731000Y-131778000D01*
X133710998Y-131846121D01*
X133657342Y-131892614D01*
X133605000Y-131904000D01*
X132160225Y-131904000D01*
X132146694Y-131907973D01*
X132145257Y-131917966D01*
X132175565Y-132052446D01*
X132178645Y-132062275D01*
X132258770Y-132259603D01*
X132263413Y-132268794D01*
X132374694Y-132450388D01*
X132380777Y-132458699D01*
X132520213Y-132619667D01*
X132527580Y-132626883D01*
X132691434Y-132762916D01*
X132699881Y-132768831D01*
X132768969Y-132809203D01*
X132817693Y-132860842D01*
X132830764Y-132930625D01*
X132804033Y-132996396D01*
X132763584Y-133029752D01*
X132750607Y-133036507D01*
X132746474Y-133039610D01*
X132746471Y-133039612D01*
X132576100Y-133167530D01*
X132571965Y-133170635D01*
X132568393Y-133174373D01*
X132466695Y-133280794D01*
X132417629Y-133332138D01*
X132291743Y-133516680D01*
X132197688Y-133719305D01*
X132137989Y-133934570D01*
X132114251Y-134156695D01*
X132127110Y-134379715D01*
X132128247Y-134384761D01*
X132128248Y-134384767D01*
X132152304Y-134491508D01*
X132176222Y-134597639D01*
X132260266Y-134804616D01*
X132311942Y-134888944D01*
X132374291Y-134990688D01*
X132376987Y-134995088D01*
X132523250Y-135163938D01*
X132695126Y-135306632D01*
X132888000Y-135419338D01*
X133096692Y-135499030D01*
X133101760Y-135500061D01*
X133101763Y-135500062D01*
X133189819Y-135517977D01*
X133315597Y-135543567D01*
X133320772Y-135543757D01*
X133320774Y-135543757D01*
X133533673Y-135551564D01*
X133533677Y-135551564D01*
X133538837Y-135551753D01*
X133543957Y-135551097D01*
X133543959Y-135551097D01*
X133755288Y-135524025D01*
X133755289Y-135524025D01*
X133760416Y-135523368D01*
X133821773Y-135504960D01*
X133969429Y-135460661D01*
X133969434Y-135460659D01*
X133974384Y-135459174D01*
X134174994Y-135360896D01*
X134356860Y-135231173D01*
X134515096Y-135073489D01*
X134574594Y-134990689D01*
X134645453Y-134892077D01*
X134646776Y-134893028D01*
X134693645Y-134849857D01*
X134763580Y-134837625D01*
X134829026Y-134865144D01*
X134856875Y-134896994D01*
X134916987Y-134995088D01*
X135063250Y-135163938D01*
X135235126Y-135306632D01*
X135428000Y-135419338D01*
X135636692Y-135499030D01*
X135641760Y-135500061D01*
X135641763Y-135500062D01*
X135729819Y-135517977D01*
X135855597Y-135543567D01*
X135860772Y-135543757D01*
X135860774Y-135543757D01*
X136073673Y-135551564D01*
X136073677Y-135551564D01*
X136078837Y-135551753D01*
X136083957Y-135551097D01*
X136083959Y-135551097D01*
X136295288Y-135524025D01*
X136295289Y-135524025D01*
X136300416Y-135523368D01*
X136399081Y-135493767D01*
X136514384Y-135459174D01*
X136514950Y-135461059D01*
X136577233Y-135455563D01*
X136640102Y-135488548D01*
X136675158Y-135550286D01*
X136678500Y-135579112D01*
X136678500Y-141860000D01*
X136658498Y-141928121D01*
X136604842Y-141974614D01*
X136552500Y-141986000D01*
X125448500Y-141986000D01*
X125380379Y-141965998D01*
X125333886Y-141912342D01*
X125322500Y-141860000D01*
X125322500Y-133477000D01*
X126848496Y-133477000D01*
X126868458Y-133666928D01*
X126927473Y-133848556D01*
X127022960Y-134013944D01*
X127150747Y-134155866D01*
X127305248Y-134268118D01*
X127311276Y-134270802D01*
X127311278Y-134270803D01*
X127473681Y-134343109D01*
X127479712Y-134345794D01*
X127573113Y-134365647D01*
X127660056Y-134384128D01*
X127660061Y-134384128D01*
X127666513Y-134385500D01*
X127857487Y-134385500D01*
X127863939Y-134384128D01*
X127863944Y-134384128D01*
X127950887Y-134365647D01*
X128044288Y-134345794D01*
X128050319Y-134343109D01*
X128212722Y-134270803D01*
X128212724Y-134270802D01*
X128218752Y-134268118D01*
X128373253Y-134155866D01*
X128501040Y-134013944D01*
X128596527Y-133848556D01*
X128655542Y-133666928D01*
X128675504Y-133477000D01*
X128663026Y-133358277D01*
X128656232Y-133293635D01*
X128656232Y-133293633D01*
X128655542Y-133287072D01*
X128596527Y-133105444D01*
X128501040Y-132940056D01*
X128447435Y-132880521D01*
X128402864Y-132831020D01*
X128372146Y-132767013D01*
X128370500Y-132746710D01*
X128370500Y-131384183D01*
X132141389Y-131384183D01*
X132142912Y-131392607D01*
X132155292Y-131396000D01*
X133204885Y-131396000D01*
X133220124Y-131391525D01*
X133221329Y-131390135D01*
X133223000Y-131382452D01*
X133223000Y-130333102D01*
X133219082Y-130319758D01*
X133204806Y-130317771D01*
X133166324Y-130323660D01*
X133156288Y-130326051D01*
X132953868Y-130392212D01*
X132944359Y-130396209D01*
X132755463Y-130494542D01*
X132746738Y-130500036D01*
X132576433Y-130627905D01*
X132568726Y-130634748D01*
X132421590Y-130788717D01*
X132415104Y-130796727D01*
X132295098Y-130972649D01*
X132290000Y-130981623D01*
X132200338Y-131174783D01*
X132196775Y-131184470D01*
X132141389Y-131384183D01*
X128370500Y-131384183D01*
X128370500Y-121412000D01*
X132563496Y-121412000D01*
X132583458Y-121601928D01*
X132642473Y-121783556D01*
X132737960Y-121948944D01*
X132742378Y-121953851D01*
X132742379Y-121953852D01*
X132860158Y-122084659D01*
X132865747Y-122090866D01*
X132939204Y-122144236D01*
X133010501Y-122196036D01*
X133020248Y-122203118D01*
X133026276Y-122205802D01*
X133026278Y-122205803D01*
X133187747Y-122277693D01*
X133194712Y-122280794D01*
X133277391Y-122298368D01*
X133375056Y-122319128D01*
X133375061Y-122319128D01*
X133381513Y-122320500D01*
X133572487Y-122320500D01*
X133578939Y-122319128D01*
X133578944Y-122319128D01*
X133676609Y-122298368D01*
X133759288Y-122280794D01*
X133766253Y-122277693D01*
X133927722Y-122205803D01*
X133927724Y-122205802D01*
X133933752Y-122203118D01*
X133943500Y-122196036D01*
X134014796Y-122144236D01*
X134088253Y-122090866D01*
X134093842Y-122084659D01*
X134211621Y-121953852D01*
X134211622Y-121953851D01*
X134216040Y-121948944D01*
X134311527Y-121783556D01*
X134370542Y-121601928D01*
X134390504Y-121412000D01*
X134370542Y-121222072D01*
X134311527Y-121040444D01*
X134216040Y-120875056D01*
X134211621Y-120870148D01*
X134117864Y-120766020D01*
X134087146Y-120702013D01*
X134085500Y-120681710D01*
X134085500Y-109315290D01*
X134105502Y-109247169D01*
X134117864Y-109230980D01*
X134211621Y-109126852D01*
X134211622Y-109126851D01*
X134216040Y-109121944D01*
X134311527Y-108956556D01*
X134370542Y-108774928D01*
X134390504Y-108585000D01*
X134370542Y-108395072D01*
X134311527Y-108213444D01*
X134216040Y-108048056D01*
X134099288Y-107918389D01*
X134092675Y-107911045D01*
X134092674Y-107911044D01*
X134088253Y-107906134D01*
X133989157Y-107834136D01*
X133939094Y-107797763D01*
X133939093Y-107797762D01*
X133933752Y-107793882D01*
X133927724Y-107791198D01*
X133927722Y-107791197D01*
X133765319Y-107718891D01*
X133765318Y-107718891D01*
X133759288Y-107716206D01*
X133665888Y-107696353D01*
X133578944Y-107677872D01*
X133578939Y-107677872D01*
X133572487Y-107676500D01*
X133381513Y-107676500D01*
X133375061Y-107677872D01*
X133375056Y-107677872D01*
X133288112Y-107696353D01*
X133194712Y-107716206D01*
X133188682Y-107718891D01*
X133188681Y-107718891D01*
X133026278Y-107791197D01*
X133026276Y-107791198D01*
X133020248Y-107793882D01*
X133014907Y-107797762D01*
X133014906Y-107797763D01*
X132964843Y-107834136D01*
X132865747Y-107906134D01*
X132861326Y-107911044D01*
X132861325Y-107911045D01*
X132854713Y-107918389D01*
X132737960Y-108048056D01*
X132642473Y-108213444D01*
X132583458Y-108395072D01*
X132563496Y-108585000D01*
X132583458Y-108774928D01*
X132642473Y-108956556D01*
X132737960Y-109121944D01*
X132742378Y-109126851D01*
X132742379Y-109126852D01*
X132836136Y-109230980D01*
X132866854Y-109294987D01*
X132868500Y-109315290D01*
X132868500Y-120681710D01*
X132848498Y-120749831D01*
X132836136Y-120766020D01*
X132742379Y-120870148D01*
X132737960Y-120875056D01*
X132642473Y-121040444D01*
X132583458Y-121222072D01*
X132563496Y-121412000D01*
X128370500Y-121412000D01*
X128370500Y-110458290D01*
X128390502Y-110390169D01*
X128402864Y-110373980D01*
X128496621Y-110269852D01*
X128496622Y-110269851D01*
X128501040Y-110264944D01*
X128578478Y-110130818D01*
X128593223Y-110105279D01*
X128593224Y-110105278D01*
X128596527Y-110099556D01*
X128655542Y-109917928D01*
X128657120Y-109902919D01*
X128674814Y-109734565D01*
X128675504Y-109728000D01*
X128655542Y-109538072D01*
X128596527Y-109356444D01*
X128580569Y-109328803D01*
X128544232Y-109265866D01*
X128501040Y-109191056D01*
X128373253Y-109049134D01*
X128245831Y-108956556D01*
X128224094Y-108940763D01*
X128224093Y-108940762D01*
X128218752Y-108936882D01*
X128212724Y-108934198D01*
X128212722Y-108934197D01*
X128050319Y-108861891D01*
X128050318Y-108861891D01*
X128044288Y-108859206D01*
X127950888Y-108839353D01*
X127863944Y-108820872D01*
X127863939Y-108820872D01*
X127857487Y-108819500D01*
X127666513Y-108819500D01*
X127660061Y-108820872D01*
X127660056Y-108820872D01*
X127573113Y-108839353D01*
X127479712Y-108859206D01*
X127473682Y-108861891D01*
X127473681Y-108861891D01*
X127311278Y-108934197D01*
X127311276Y-108934198D01*
X127305248Y-108936882D01*
X127299907Y-108940762D01*
X127299906Y-108940763D01*
X127278169Y-108956556D01*
X127150747Y-109049134D01*
X127022960Y-109191056D01*
X126979768Y-109265866D01*
X126943432Y-109328803D01*
X126927473Y-109356444D01*
X126868458Y-109538072D01*
X126848496Y-109728000D01*
X126849186Y-109734565D01*
X126866881Y-109902919D01*
X126868458Y-109917928D01*
X126927473Y-110099556D01*
X126930776Y-110105278D01*
X126930777Y-110105279D01*
X126945522Y-110130818D01*
X127022960Y-110264944D01*
X127027378Y-110269851D01*
X127027379Y-110269852D01*
X127121136Y-110373980D01*
X127151854Y-110437987D01*
X127153500Y-110458290D01*
X127153500Y-132746710D01*
X127133498Y-132814831D01*
X127121136Y-132831020D01*
X127076565Y-132880521D01*
X127022960Y-132940056D01*
X126927473Y-133105444D01*
X126868458Y-133287072D01*
X126867768Y-133293633D01*
X126867768Y-133293635D01*
X126860974Y-133358277D01*
X126848496Y-133477000D01*
X125322500Y-133477000D01*
X125322500Y-133095136D01*
X125323578Y-133078690D01*
X125326672Y-133055188D01*
X125327750Y-133047000D01*
X125322500Y-133007122D01*
X125322500Y-133007115D01*
X125306838Y-132888150D01*
X125245524Y-132740125D01*
X125196316Y-132675996D01*
X125172477Y-132644928D01*
X125172474Y-132644925D01*
X125147987Y-132613013D01*
X125141432Y-132607983D01*
X125122621Y-132593548D01*
X125110230Y-132582681D01*
X124712405Y-132184856D01*
X124678379Y-132122544D01*
X124675500Y-132095761D01*
X124675500Y-130751866D01*
X124668745Y-130689684D01*
X124617615Y-130553295D01*
X124530261Y-130436739D01*
X124413705Y-130349385D01*
X124277316Y-130298255D01*
X124215134Y-130291500D01*
X124051500Y-130291500D01*
X123983379Y-130271498D01*
X123936886Y-130217842D01*
X123925500Y-130165500D01*
X123925500Y-111937239D01*
X123945502Y-111869118D01*
X123962405Y-111848144D01*
X125010144Y-110800405D01*
X125072456Y-110766379D01*
X125099239Y-110763500D01*
X125190487Y-110763500D01*
X125196939Y-110762128D01*
X125196944Y-110762128D01*
X125313832Y-110737282D01*
X125377288Y-110723794D01*
X125384071Y-110720774D01*
X125545722Y-110648803D01*
X125545724Y-110648802D01*
X125551752Y-110646118D01*
X125706253Y-110533866D01*
X125732074Y-110505189D01*
X125829621Y-110396852D01*
X125829622Y-110396851D01*
X125834040Y-110391944D01*
X125929527Y-110226556D01*
X125988542Y-110044928D01*
X125992280Y-110009369D01*
X126007814Y-109861565D01*
X126008504Y-109855000D01*
X126006599Y-109836872D01*
X125989232Y-109671635D01*
X125989232Y-109671633D01*
X125988542Y-109665072D01*
X125929527Y-109483444D01*
X125915282Y-109458770D01*
X125837341Y-109323774D01*
X125834040Y-109318056D01*
X125785001Y-109263592D01*
X125710675Y-109181045D01*
X125710674Y-109181044D01*
X125706253Y-109176134D01*
X125551752Y-109063882D01*
X125545724Y-109061198D01*
X125545722Y-109061197D01*
X125383319Y-108988891D01*
X125383318Y-108988891D01*
X125377288Y-108986206D01*
X125264721Y-108962279D01*
X125196944Y-108947872D01*
X125196939Y-108947872D01*
X125190487Y-108946500D01*
X124999513Y-108946500D01*
X124993061Y-108947872D01*
X124993056Y-108947872D01*
X124925279Y-108962279D01*
X124812712Y-108986206D01*
X124806682Y-108988891D01*
X124806681Y-108988891D01*
X124644278Y-109061197D01*
X124644276Y-109061198D01*
X124638248Y-109063882D01*
X124483747Y-109176134D01*
X124479326Y-109181044D01*
X124479325Y-109181045D01*
X124405000Y-109263592D01*
X124355960Y-109318056D01*
X124352659Y-109323774D01*
X124274719Y-109458770D01*
X124260473Y-109483444D01*
X124201458Y-109665072D01*
X124200768Y-109671633D01*
X124200768Y-109671635D01*
X124183401Y-109836872D01*
X124181496Y-109855000D01*
X124181684Y-109856786D01*
X124162184Y-109923196D01*
X124145281Y-109944170D01*
X122920766Y-111168685D01*
X122908375Y-111179552D01*
X122883013Y-111199013D01*
X122858526Y-111230925D01*
X122858523Y-111230928D01*
X122785476Y-111326124D01*
X122728433Y-111463838D01*
X122724162Y-111474150D01*
X122723085Y-111482334D01*
X122723084Y-111482336D01*
X122717489Y-111524834D01*
X122708500Y-111593115D01*
X122708500Y-111593120D01*
X122703250Y-111633000D01*
X122704328Y-111641188D01*
X122707422Y-111664690D01*
X122708500Y-111681136D01*
X122708500Y-130165500D01*
X122688498Y-130233621D01*
X122634842Y-130280114D01*
X122582500Y-130291500D01*
X122418866Y-130291500D01*
X122356684Y-130298255D01*
X122220295Y-130349385D01*
X122103739Y-130436739D01*
X122016385Y-130553295D01*
X122013233Y-130561703D01*
X121971919Y-130671907D01*
X121929277Y-130728671D01*
X121862716Y-130753371D01*
X121793367Y-130738163D01*
X121760743Y-130712476D01*
X121710151Y-130656875D01*
X121710142Y-130656866D01*
X121706670Y-130653051D01*
X121702619Y-130649852D01*
X121702615Y-130649848D01*
X121535414Y-130517800D01*
X121535410Y-130517798D01*
X121531359Y-130514598D01*
X121450607Y-130470021D01*
X121400636Y-130419588D01*
X121385500Y-130359712D01*
X121385500Y-118396790D01*
X121405502Y-118328669D01*
X121417864Y-118312480D01*
X121511621Y-118208352D01*
X121511622Y-118208351D01*
X121516040Y-118203444D01*
X121611527Y-118038056D01*
X121670542Y-117856428D01*
X121690504Y-117666500D01*
X121682335Y-117588779D01*
X121671232Y-117483135D01*
X121671232Y-117483133D01*
X121670542Y-117476572D01*
X121611527Y-117294944D01*
X121516040Y-117129556D01*
X121388253Y-116987634D01*
X121233752Y-116875382D01*
X121227724Y-116872698D01*
X121227722Y-116872697D01*
X121065319Y-116800391D01*
X121065318Y-116800391D01*
X121059288Y-116797706D01*
X120965888Y-116777853D01*
X120878944Y-116759372D01*
X120878939Y-116759372D01*
X120872487Y-116758000D01*
X120681513Y-116758000D01*
X120675061Y-116759372D01*
X120675056Y-116759372D01*
X120588112Y-116777853D01*
X120494712Y-116797706D01*
X120488682Y-116800391D01*
X120488681Y-116800391D01*
X120326278Y-116872697D01*
X120326276Y-116872698D01*
X120320248Y-116875382D01*
X120165747Y-116987634D01*
X120037960Y-117129556D01*
X119942473Y-117294944D01*
X119883458Y-117476572D01*
X119882768Y-117483133D01*
X119882768Y-117483135D01*
X119871665Y-117588779D01*
X119863496Y-117666500D01*
X119883458Y-117856428D01*
X119942473Y-118038056D01*
X120037960Y-118203444D01*
X120042378Y-118208351D01*
X120042379Y-118208352D01*
X120136136Y-118312480D01*
X120166854Y-118376487D01*
X120168500Y-118396790D01*
X120168500Y-130358678D01*
X120148498Y-130426799D01*
X120100683Y-130470439D01*
X120050607Y-130496507D01*
X120046474Y-130499610D01*
X120046471Y-130499612D01*
X119880353Y-130624337D01*
X119871965Y-130630635D01*
X119846541Y-130657240D01*
X119778280Y-130728671D01*
X119717629Y-130792138D01*
X119610201Y-130949621D01*
X119555293Y-130994621D01*
X119484768Y-131002792D01*
X119421021Y-130971538D01*
X119400324Y-130947054D01*
X119319822Y-130822617D01*
X119319820Y-130822614D01*
X119317014Y-130818277D01*
X119166670Y-130653051D01*
X119162619Y-130649852D01*
X119162615Y-130649848D01*
X118995414Y-130517800D01*
X118995410Y-130517798D01*
X118991359Y-130514598D01*
X118910607Y-130470021D01*
X118860636Y-130419588D01*
X118845500Y-130359712D01*
X118845500Y-113887290D01*
X118865502Y-113819169D01*
X118877864Y-113802980D01*
X118971621Y-113698852D01*
X118971622Y-113698851D01*
X118976040Y-113693944D01*
X119071527Y-113528556D01*
X119130542Y-113346928D01*
X119132965Y-113323880D01*
X119149814Y-113163565D01*
X119150504Y-113157000D01*
X119147171Y-113125290D01*
X119131232Y-112973635D01*
X119131232Y-112973633D01*
X119130542Y-112967072D01*
X119071527Y-112785444D01*
X118976040Y-112620056D01*
X118950064Y-112591206D01*
X118852675Y-112483045D01*
X118852674Y-112483044D01*
X118848253Y-112478134D01*
X118733829Y-112395000D01*
X118699094Y-112369763D01*
X118699093Y-112369762D01*
X118693752Y-112365882D01*
X118687724Y-112363198D01*
X118687722Y-112363197D01*
X118525319Y-112290891D01*
X118525318Y-112290891D01*
X118519288Y-112288206D01*
X118425888Y-112268353D01*
X118338944Y-112249872D01*
X118338939Y-112249872D01*
X118332487Y-112248500D01*
X118141513Y-112248500D01*
X118135061Y-112249872D01*
X118135056Y-112249872D01*
X118048112Y-112268353D01*
X117954712Y-112288206D01*
X117948682Y-112290891D01*
X117948681Y-112290891D01*
X117786278Y-112363197D01*
X117786276Y-112363198D01*
X117780248Y-112365882D01*
X117774907Y-112369762D01*
X117774906Y-112369763D01*
X117740171Y-112395000D01*
X117625747Y-112478134D01*
X117621326Y-112483044D01*
X117621325Y-112483045D01*
X117523937Y-112591206D01*
X117497960Y-112620056D01*
X117402473Y-112785444D01*
X117343458Y-112967072D01*
X117342768Y-112973633D01*
X117342768Y-112973635D01*
X117326829Y-113125290D01*
X117323496Y-113157000D01*
X117324186Y-113163565D01*
X117341036Y-113323880D01*
X117343458Y-113346928D01*
X117402473Y-113528556D01*
X117497960Y-113693944D01*
X117502378Y-113698851D01*
X117502379Y-113698852D01*
X117596136Y-113802980D01*
X117626854Y-113866987D01*
X117628500Y-113887290D01*
X117628500Y-130358678D01*
X117608498Y-130426799D01*
X117560683Y-130470439D01*
X117510607Y-130496507D01*
X117506474Y-130499610D01*
X117506471Y-130499612D01*
X117340353Y-130624337D01*
X117331965Y-130630635D01*
X117306541Y-130657240D01*
X117238280Y-130728671D01*
X117177629Y-130792138D01*
X117070201Y-130949621D01*
X117015293Y-130994621D01*
X116944768Y-131002792D01*
X116881021Y-130971538D01*
X116860324Y-130947054D01*
X116779822Y-130822617D01*
X116779820Y-130822614D01*
X116777014Y-130818277D01*
X116626670Y-130653051D01*
X116622619Y-130649852D01*
X116622615Y-130649848D01*
X116455414Y-130517800D01*
X116455410Y-130517798D01*
X116451359Y-130514598D01*
X116370607Y-130470021D01*
X116320636Y-130419588D01*
X116305500Y-130359712D01*
X116305500Y-113125290D01*
X116325502Y-113057169D01*
X116337864Y-113040980D01*
X116431621Y-112936852D01*
X116431622Y-112936851D01*
X116436040Y-112931944D01*
X116531527Y-112766556D01*
X116590542Y-112584928D01*
X116602175Y-112474251D01*
X116609814Y-112401565D01*
X116610504Y-112395000D01*
X116599280Y-112288206D01*
X116591232Y-112211635D01*
X116591232Y-112211633D01*
X116590542Y-112205072D01*
X116531527Y-112023444D01*
X116436040Y-111858056D01*
X116308253Y-111716134D01*
X116153752Y-111603882D01*
X116147724Y-111601198D01*
X116147722Y-111601197D01*
X115985319Y-111528891D01*
X115985318Y-111528891D01*
X115979288Y-111526206D01*
X115882119Y-111505552D01*
X115798944Y-111487872D01*
X115798939Y-111487872D01*
X115792487Y-111486500D01*
X115601513Y-111486500D01*
X115595061Y-111487872D01*
X115595056Y-111487872D01*
X115486467Y-111510954D01*
X115415676Y-111505552D01*
X115359044Y-111462735D01*
X115351151Y-111450707D01*
X115296341Y-111355774D01*
X115293040Y-111350056D01*
X115185771Y-111230921D01*
X115169675Y-111213045D01*
X115169674Y-111213044D01*
X115165253Y-111208134D01*
X115037831Y-111115556D01*
X115016094Y-111099763D01*
X115016093Y-111099762D01*
X115010752Y-111095882D01*
X115004724Y-111093198D01*
X115004722Y-111093197D01*
X114842319Y-111020891D01*
X114842318Y-111020891D01*
X114836288Y-111018206D01*
X114742887Y-110998353D01*
X114655944Y-110979872D01*
X114655939Y-110979872D01*
X114649487Y-110978500D01*
X114458513Y-110978500D01*
X114452053Y-110979873D01*
X114452054Y-110979873D01*
X114400059Y-110990924D01*
X114329268Y-110985521D01*
X114272636Y-110942704D01*
X114254030Y-110906613D01*
X114247569Y-110886727D01*
X114247567Y-110886723D01*
X114245527Y-110880444D01*
X114150040Y-110715056D01*
X114090388Y-110648805D01*
X114026675Y-110578045D01*
X114026674Y-110578044D01*
X114022253Y-110573134D01*
X113867752Y-110460882D01*
X113861724Y-110458198D01*
X113861722Y-110458197D01*
X113699319Y-110385891D01*
X113699318Y-110385891D01*
X113693288Y-110383206D01*
X113599887Y-110363353D01*
X113512944Y-110344872D01*
X113512939Y-110344872D01*
X113506487Y-110343500D01*
X113479932Y-110343500D01*
X113411811Y-110323498D01*
X113365318Y-110269842D01*
X113360099Y-110256438D01*
X113358567Y-110251723D01*
X113356527Y-110245444D01*
X113261040Y-110080056D01*
X113239684Y-110056337D01*
X113137675Y-109943045D01*
X113137674Y-109943044D01*
X113133253Y-109938134D01*
X113018829Y-109855000D01*
X112984094Y-109829763D01*
X112984093Y-109829762D01*
X112978752Y-109825882D01*
X112972724Y-109823198D01*
X112972722Y-109823197D01*
X112810319Y-109750891D01*
X112810318Y-109750891D01*
X112804288Y-109748206D01*
X112742529Y-109735079D01*
X112680057Y-109701351D01*
X112648894Y-109650768D01*
X112596569Y-109489729D01*
X112594527Y-109483444D01*
X112580282Y-109458770D01*
X112502341Y-109323774D01*
X112499040Y-109318056D01*
X112450001Y-109263592D01*
X112375675Y-109181045D01*
X112375674Y-109181044D01*
X112371253Y-109176134D01*
X112216752Y-109063882D01*
X112210724Y-109061198D01*
X112210722Y-109061197D01*
X112048319Y-108988891D01*
X112048318Y-108988891D01*
X112042288Y-108986206D01*
X111929721Y-108962279D01*
X111861944Y-108947872D01*
X111861939Y-108947872D01*
X111855487Y-108946500D01*
X111664513Y-108946500D01*
X111658061Y-108947872D01*
X111658056Y-108947872D01*
X111590279Y-108962279D01*
X111477712Y-108986206D01*
X111471682Y-108988891D01*
X111471681Y-108988891D01*
X111309278Y-109061197D01*
X111309276Y-109061198D01*
X111303248Y-109063882D01*
X111297907Y-109067762D01*
X111297906Y-109067763D01*
X111170329Y-109160454D01*
X111148747Y-109176134D01*
X111144334Y-109181036D01*
X111144332Y-109181037D01*
X111122926Y-109204811D01*
X111062480Y-109242050D01*
X111029290Y-109246500D01*
X104520136Y-109246500D01*
X104503690Y-109245422D01*
X104480188Y-109242328D01*
X104472000Y-109241250D01*
X104463812Y-109242328D01*
X104432129Y-109246499D01*
X104432120Y-109246500D01*
X104432115Y-109246500D01*
X104313150Y-109262162D01*
X104165125Y-109323476D01*
X104165123Y-109323477D01*
X104165124Y-109323477D01*
X104069928Y-109396523D01*
X104069925Y-109396526D01*
X104038013Y-109421013D01*
X104032983Y-109427568D01*
X104018548Y-109446379D01*
X104007681Y-109458770D01*
X83162048Y-130304403D01*
X83099736Y-130338429D01*
X83035287Y-130334358D01*
X83035087Y-130335116D01*
X83031256Y-130334104D01*
X83030895Y-130334081D01*
X83030089Y-130333796D01*
X83025212Y-130332069D01*
X83020123Y-130331162D01*
X83020121Y-130331162D01*
X82810373Y-130293800D01*
X82810367Y-130293799D01*
X82805284Y-130292894D01*
X82731452Y-130291992D01*
X82587081Y-130290228D01*
X82587079Y-130290228D01*
X82581911Y-130290165D01*
X82361091Y-130323955D01*
X82148756Y-130393357D01*
X81950607Y-130496507D01*
X81946474Y-130499610D01*
X81946471Y-130499612D01*
X81780353Y-130624337D01*
X81771965Y-130630635D01*
X81746541Y-130657240D01*
X81678280Y-130728671D01*
X81617629Y-130792138D01*
X81614720Y-130796403D01*
X81614714Y-130796411D01*
X81602800Y-130813876D01*
X81510204Y-130949618D01*
X81509898Y-130950066D01*
X81454987Y-130995069D01*
X81384462Y-131003240D01*
X81320715Y-130971986D01*
X81300018Y-130947502D01*
X81219426Y-130822926D01*
X81213136Y-130814757D01*
X81069806Y-130657240D01*
X81062273Y-130650215D01*
X80895139Y-130518222D01*
X80886552Y-130512517D01*
X80700117Y-130409599D01*
X80690705Y-130405369D01*
X80489959Y-130334280D01*
X80479988Y-130331646D01*
X80408837Y-130318972D01*
X80395540Y-130320432D01*
X80391000Y-130334989D01*
X80391000Y-131778000D01*
X80370998Y-131846121D01*
X80317342Y-131892614D01*
X80265000Y-131904000D01*
X78820225Y-131904000D01*
X78806694Y-131907973D01*
X78805257Y-131917966D01*
X78835565Y-132052446D01*
X78838645Y-132062275D01*
X78918770Y-132259603D01*
X78923413Y-132268794D01*
X79034694Y-132450388D01*
X79040777Y-132458699D01*
X79180213Y-132619667D01*
X79187580Y-132626883D01*
X79351434Y-132762916D01*
X79359881Y-132768831D01*
X79428969Y-132809203D01*
X79477693Y-132860842D01*
X79490764Y-132930625D01*
X79464033Y-132996396D01*
X79423584Y-133029752D01*
X79410607Y-133036507D01*
X79406474Y-133039610D01*
X79406471Y-133039612D01*
X79236100Y-133167530D01*
X79231965Y-133170635D01*
X79228393Y-133174373D01*
X79126695Y-133280794D01*
X79077629Y-133332138D01*
X78951743Y-133516680D01*
X78857688Y-133719305D01*
X78797989Y-133934570D01*
X78774251Y-134156695D01*
X78787110Y-134379715D01*
X78788247Y-134384761D01*
X78788248Y-134384767D01*
X78812304Y-134491508D01*
X78836222Y-134597639D01*
X78920266Y-134804616D01*
X78971942Y-134888944D01*
X79034291Y-134990688D01*
X79036987Y-134995088D01*
X79183250Y-135163938D01*
X79355126Y-135306632D01*
X79548000Y-135419338D01*
X79756692Y-135499030D01*
X79761760Y-135500061D01*
X79761763Y-135500062D01*
X79849819Y-135517977D01*
X79975597Y-135543567D01*
X79980772Y-135543757D01*
X79980774Y-135543757D01*
X80193673Y-135551564D01*
X80193677Y-135551564D01*
X80198837Y-135551753D01*
X80203957Y-135551097D01*
X80203959Y-135551097D01*
X80415288Y-135524025D01*
X80415289Y-135524025D01*
X80420416Y-135523368D01*
X80481773Y-135504960D01*
X80629429Y-135460661D01*
X80629434Y-135460659D01*
X80634384Y-135459174D01*
X80834994Y-135360896D01*
X81016860Y-135231173D01*
X81175096Y-135073489D01*
X81234594Y-134990689D01*
X81305453Y-134892077D01*
X81306776Y-134893028D01*
X81353645Y-134849857D01*
X81423580Y-134837625D01*
X81489026Y-134865144D01*
X81516875Y-134896994D01*
X81576987Y-134995088D01*
X81723250Y-135163938D01*
X81895126Y-135306632D01*
X82088000Y-135419338D01*
X82296692Y-135499030D01*
X82301760Y-135500061D01*
X82301763Y-135500062D01*
X82389819Y-135517977D01*
X82515597Y-135543567D01*
X82520772Y-135543757D01*
X82520774Y-135543757D01*
X82733673Y-135551564D01*
X82733677Y-135551564D01*
X82738837Y-135551753D01*
X82743957Y-135551097D01*
X82743959Y-135551097D01*
X82955288Y-135524025D01*
X82955289Y-135524025D01*
X82960416Y-135523368D01*
X82965367Y-135521883D01*
X82965370Y-135521882D01*
X83056293Y-135494604D01*
X83127288Y-135494188D01*
X83187239Y-135532220D01*
X83217110Y-135596627D01*
X83218500Y-135615290D01*
X83218500Y-141860000D01*
X83198498Y-141928121D01*
X83144842Y-141974614D01*
X83092500Y-141986000D01*
X78231000Y-141986000D01*
X78162879Y-141965998D01*
X78116386Y-141912342D01*
X78105000Y-141860000D01*
X78105000Y-131384183D01*
X78801389Y-131384183D01*
X78802912Y-131392607D01*
X78815292Y-131396000D01*
X79864885Y-131396000D01*
X79880124Y-131391525D01*
X79881329Y-131390135D01*
X79883000Y-131382452D01*
X79883000Y-130333102D01*
X79879082Y-130319758D01*
X79864806Y-130317771D01*
X79826324Y-130323660D01*
X79816288Y-130326051D01*
X79613868Y-130392212D01*
X79604359Y-130396209D01*
X79415463Y-130494542D01*
X79406738Y-130500036D01*
X79236433Y-130627905D01*
X79228726Y-130634748D01*
X79081590Y-130788717D01*
X79075104Y-130796727D01*
X78955098Y-130972649D01*
X78950000Y-130981623D01*
X78860338Y-131174783D01*
X78856775Y-131184470D01*
X78801389Y-131384183D01*
X78105000Y-131384183D01*
X78105000Y-117764035D01*
X78123084Y-117698995D01*
X120885111Y-46747475D01*
X129649578Y-46747475D01*
X129668186Y-46960162D01*
X129670089Y-46970957D01*
X129725346Y-47177178D01*
X129729092Y-47187470D01*
X129819319Y-47380963D01*
X129824802Y-47390459D01*
X129857460Y-47437099D01*
X129867937Y-47445474D01*
X129881385Y-47438405D01*
X130564978Y-46754812D01*
X130571356Y-46743132D01*
X131301408Y-46743132D01*
X131301539Y-46744965D01*
X131305790Y-46751580D01*
X131993337Y-47439127D01*
X132005112Y-47445557D01*
X132017127Y-47436261D01*
X132049198Y-47390459D01*
X132054681Y-47380963D01*
X132092805Y-47299205D01*
X132139722Y-47245920D01*
X132208000Y-47226459D01*
X132275960Y-47247001D01*
X132321195Y-47299205D01*
X132359319Y-47380963D01*
X132364802Y-47390459D01*
X132397460Y-47437099D01*
X132407937Y-47445474D01*
X132421385Y-47438405D01*
X133104978Y-46754812D01*
X133112592Y-46740868D01*
X133112461Y-46739035D01*
X133108210Y-46732420D01*
X132420663Y-46044873D01*
X132408888Y-46038443D01*
X132396873Y-46047739D01*
X132364802Y-46093541D01*
X132359319Y-46103037D01*
X132321195Y-46184795D01*
X132274278Y-46238080D01*
X132206000Y-46257541D01*
X132138040Y-46236999D01*
X132092805Y-46184795D01*
X132054681Y-46103037D01*
X132049198Y-46093541D01*
X132016540Y-46046901D01*
X132006063Y-46038526D01*
X131992615Y-46045595D01*
X131309022Y-46729188D01*
X131301408Y-46743132D01*
X130571356Y-46743132D01*
X130572592Y-46740868D01*
X130572461Y-46739035D01*
X130568210Y-46732420D01*
X129880663Y-46044873D01*
X129868888Y-46038443D01*
X129856873Y-46047739D01*
X129824802Y-46093541D01*
X129819319Y-46103037D01*
X129729092Y-46296530D01*
X129725346Y-46306822D01*
X129670089Y-46513043D01*
X129668186Y-46523838D01*
X129649578Y-46736525D01*
X129649578Y-46747475D01*
X120885111Y-46747475D01*
X123534260Y-42351960D01*
X123586555Y-42303941D01*
X123642176Y-42291000D01*
X124827877Y-42291000D01*
X124895998Y-42311002D01*
G37*
%TD.AperFunction*%
%TA.AperFunction,Conductor*%
G36*
X134828751Y-132324678D02*
G01*
X134856579Y-132356511D01*
X134916987Y-132455088D01*
X135063250Y-132623938D01*
X135235126Y-132766632D01*
X135292229Y-132800000D01*
X135308445Y-132809476D01*
X135357169Y-132861114D01*
X135370240Y-132930897D01*
X135343509Y-132996669D01*
X135303055Y-133030027D01*
X135290607Y-133036507D01*
X135286474Y-133039610D01*
X135286471Y-133039612D01*
X135116100Y-133167530D01*
X135111965Y-133170635D01*
X135108393Y-133174373D01*
X135006695Y-133280794D01*
X134957629Y-133332138D01*
X134850201Y-133489621D01*
X134795293Y-133534621D01*
X134724768Y-133542792D01*
X134661021Y-133511538D01*
X134640324Y-133487054D01*
X134559822Y-133362617D01*
X134559820Y-133362614D01*
X134557014Y-133358277D01*
X134406670Y-133193051D01*
X134402619Y-133189852D01*
X134402615Y-133189848D01*
X134235414Y-133057800D01*
X134235410Y-133057798D01*
X134231359Y-133054598D01*
X134189569Y-133031529D01*
X134139598Y-132981097D01*
X134124826Y-132911654D01*
X134149942Y-132845248D01*
X134177294Y-132818641D01*
X134352328Y-132693792D01*
X134360200Y-132687139D01*
X134511052Y-132536812D01*
X134517730Y-132528965D01*
X134645022Y-132351819D01*
X134646279Y-132352722D01*
X134693373Y-132309362D01*
X134763311Y-132297145D01*
X134828751Y-132324678D01*
G37*
%TD.AperFunction*%
%TA.AperFunction,Conductor*%
G36*
X188168751Y-132324678D02*
G01*
X188196579Y-132356511D01*
X188256987Y-132455088D01*
X188403250Y-132623938D01*
X188575126Y-132766632D01*
X188632229Y-132800000D01*
X188648445Y-132809476D01*
X188697169Y-132861114D01*
X188710240Y-132930897D01*
X188683509Y-132996669D01*
X188643055Y-133030027D01*
X188630607Y-133036507D01*
X188626474Y-133039610D01*
X188626471Y-133039612D01*
X188456100Y-133167530D01*
X188451965Y-133170635D01*
X188448393Y-133174373D01*
X188346695Y-133280794D01*
X188297629Y-133332138D01*
X188190201Y-133489621D01*
X188135293Y-133534621D01*
X188064768Y-133542792D01*
X188001021Y-133511538D01*
X187980324Y-133487054D01*
X187899822Y-133362617D01*
X187899820Y-133362614D01*
X187897014Y-133358277D01*
X187746670Y-133193051D01*
X187742619Y-133189852D01*
X187742615Y-133189848D01*
X187575414Y-133057800D01*
X187575410Y-133057798D01*
X187571359Y-133054598D01*
X187529569Y-133031529D01*
X187479598Y-132981097D01*
X187464826Y-132911654D01*
X187489942Y-132845248D01*
X187517294Y-132818641D01*
X187692328Y-132693792D01*
X187700200Y-132687139D01*
X187851052Y-132536812D01*
X187857730Y-132528965D01*
X187985022Y-132351819D01*
X187986279Y-132352722D01*
X188033373Y-132309362D01*
X188103311Y-132297145D01*
X188168751Y-132324678D01*
G37*
%TD.AperFunction*%
%TA.AperFunction,Conductor*%
G36*
X81488751Y-132324678D02*
G01*
X81516579Y-132356511D01*
X81576987Y-132455088D01*
X81723250Y-132623938D01*
X81895126Y-132766632D01*
X81952229Y-132800000D01*
X81968445Y-132809476D01*
X82017169Y-132861114D01*
X82030240Y-132930897D01*
X82003509Y-132996669D01*
X81963055Y-133030027D01*
X81950607Y-133036507D01*
X81946474Y-133039610D01*
X81946471Y-133039612D01*
X81776100Y-133167530D01*
X81771965Y-133170635D01*
X81768393Y-133174373D01*
X81666695Y-133280794D01*
X81617629Y-133332138D01*
X81510201Y-133489621D01*
X81455293Y-133534621D01*
X81384768Y-133542792D01*
X81321021Y-133511538D01*
X81300324Y-133487054D01*
X81219822Y-133362617D01*
X81219820Y-133362614D01*
X81217014Y-133358277D01*
X81066670Y-133193051D01*
X81062619Y-133189852D01*
X81062615Y-133189848D01*
X80895414Y-133057800D01*
X80895410Y-133057798D01*
X80891359Y-133054598D01*
X80849569Y-133031529D01*
X80799598Y-132981097D01*
X80784826Y-132911654D01*
X80809942Y-132845248D01*
X80837294Y-132818641D01*
X81012328Y-132693792D01*
X81020200Y-132687139D01*
X81171052Y-132536812D01*
X81177730Y-132528965D01*
X81305022Y-132351819D01*
X81306279Y-132352722D01*
X81353373Y-132309362D01*
X81423311Y-132297145D01*
X81488751Y-132324678D01*
G37*
%TD.AperFunction*%
%TA.AperFunction,Conductor*%
G36*
X188155960Y-52328185D02*
G01*
X188201195Y-52380389D01*
X188238884Y-52461214D01*
X188238887Y-52461219D01*
X188241210Y-52466201D01*
X188370026Y-52650169D01*
X188528831Y-52808974D01*
X188533340Y-52812131D01*
X188533342Y-52812133D01*
X188600501Y-52859158D01*
X188712798Y-52937790D01*
X188717780Y-52940113D01*
X188717785Y-52940116D01*
X188911354Y-53030378D01*
X188916340Y-53032703D01*
X188921648Y-53034125D01*
X188921650Y-53034126D01*
X189127956Y-53089405D01*
X189127958Y-53089405D01*
X189133271Y-53090829D01*
X189357000Y-53110403D01*
X189580729Y-53090829D01*
X189592227Y-53087748D01*
X189664890Y-53068279D01*
X189735866Y-53069969D01*
X189794662Y-53109764D01*
X189822609Y-53175028D01*
X189823500Y-53189986D01*
X189823500Y-109763199D01*
X189803498Y-109831320D01*
X189749842Y-109877813D01*
X189679568Y-109887917D01*
X189651625Y-109879856D01*
X189651600Y-109879932D01*
X189649335Y-109879196D01*
X189646253Y-109878307D01*
X189645319Y-109877891D01*
X189645318Y-109877891D01*
X189639288Y-109875206D01*
X189544227Y-109855000D01*
X189458944Y-109836872D01*
X189458939Y-109836872D01*
X189452487Y-109835500D01*
X189261513Y-109835500D01*
X189255061Y-109836872D01*
X189255056Y-109836872D01*
X189169773Y-109855000D01*
X189074712Y-109875206D01*
X189068682Y-109877891D01*
X189068681Y-109877891D01*
X188906278Y-109950197D01*
X188906276Y-109950198D01*
X188900248Y-109952882D01*
X188894907Y-109956762D01*
X188894906Y-109956763D01*
X188850561Y-109988982D01*
X188745747Y-110065134D01*
X188741326Y-110070044D01*
X188741325Y-110070045D01*
X188734713Y-110077389D01*
X188617960Y-110207056D01*
X188522473Y-110372444D01*
X188463458Y-110554072D01*
X188462768Y-110560633D01*
X188462768Y-110560635D01*
X188444202Y-110737282D01*
X188443496Y-110744000D01*
X188444186Y-110750565D01*
X188445546Y-110763500D01*
X188463458Y-110933928D01*
X188522473Y-111115556D01*
X188617960Y-111280944D01*
X188622378Y-111285851D01*
X188622379Y-111285852D01*
X188716136Y-111389980D01*
X188746854Y-111453987D01*
X188748500Y-111474290D01*
X188748500Y-120681710D01*
X188728498Y-120749831D01*
X188716136Y-120766020D01*
X188622379Y-120870148D01*
X188617960Y-120875056D01*
X188522473Y-121040444D01*
X188463458Y-121222072D01*
X188443496Y-121412000D01*
X188463458Y-121601928D01*
X188522473Y-121783556D01*
X188617960Y-121948944D01*
X188622378Y-121953851D01*
X188622379Y-121953852D01*
X188740158Y-122084659D01*
X188745747Y-122090866D01*
X188819204Y-122144236D01*
X188890501Y-122196036D01*
X188900248Y-122203118D01*
X188906276Y-122205802D01*
X188906278Y-122205803D01*
X189067747Y-122277693D01*
X189074712Y-122280794D01*
X189157391Y-122298368D01*
X189255056Y-122319128D01*
X189255061Y-122319128D01*
X189261513Y-122320500D01*
X189452487Y-122320500D01*
X189458939Y-122319128D01*
X189458944Y-122319128D01*
X189556609Y-122298368D01*
X189639288Y-122280794D01*
X189646253Y-122277693D01*
X189646842Y-122277614D01*
X189651600Y-122276068D01*
X189651883Y-122276938D01*
X189716620Y-122268260D01*
X189780917Y-122298368D01*
X189818729Y-122358457D01*
X189823500Y-122392801D01*
X189823500Y-130200051D01*
X189803498Y-130268172D01*
X189786595Y-130289146D01*
X189784336Y-130291405D01*
X189722024Y-130325431D01*
X189673145Y-130326357D01*
X189490373Y-130293800D01*
X189490367Y-130293799D01*
X189485284Y-130292894D01*
X189411452Y-130291992D01*
X189267081Y-130290228D01*
X189267079Y-130290228D01*
X189261911Y-130290165D01*
X189041091Y-130323955D01*
X188828756Y-130393357D01*
X188630607Y-130496507D01*
X188626474Y-130499610D01*
X188626471Y-130499612D01*
X188460353Y-130624337D01*
X188451965Y-130630635D01*
X188426541Y-130657240D01*
X188358280Y-130728671D01*
X188297629Y-130792138D01*
X188294720Y-130796403D01*
X188294714Y-130796411D01*
X188282800Y-130813876D01*
X188190204Y-130949618D01*
X188189898Y-130950066D01*
X188134987Y-130995069D01*
X188064462Y-131003240D01*
X188000715Y-130971986D01*
X187980018Y-130947502D01*
X187899426Y-130822926D01*
X187893136Y-130814757D01*
X187749806Y-130657240D01*
X187742273Y-130650215D01*
X187575139Y-130518222D01*
X187566552Y-130512517D01*
X187380117Y-130409599D01*
X187370705Y-130405369D01*
X187169959Y-130334280D01*
X187159988Y-130331646D01*
X187088837Y-130318972D01*
X187075540Y-130320432D01*
X187071000Y-130334989D01*
X187071000Y-131778000D01*
X187050998Y-131846121D01*
X186997342Y-131892614D01*
X186945000Y-131904000D01*
X186689000Y-131904000D01*
X186620879Y-131883998D01*
X186574386Y-131830342D01*
X186563000Y-131778000D01*
X186563000Y-130333102D01*
X186559082Y-130319758D01*
X186544806Y-130317771D01*
X186506324Y-130323660D01*
X186496288Y-130326051D01*
X186293868Y-130392212D01*
X186284364Y-130396207D01*
X186212681Y-130433523D01*
X186143021Y-130447236D01*
X186077006Y-130421111D01*
X186035594Y-130363443D01*
X186028500Y-130321760D01*
X186028500Y-122209377D01*
X186048502Y-122141256D01*
X186102158Y-122094763D01*
X186172432Y-122084659D01*
X186228560Y-122107440D01*
X186279204Y-122144236D01*
X186350501Y-122196036D01*
X186360248Y-122203118D01*
X186366276Y-122205802D01*
X186366278Y-122205803D01*
X186527747Y-122277693D01*
X186534712Y-122280794D01*
X186617391Y-122298368D01*
X186715056Y-122319128D01*
X186715061Y-122319128D01*
X186721513Y-122320500D01*
X186912487Y-122320500D01*
X186918939Y-122319128D01*
X186918944Y-122319128D01*
X187016609Y-122298368D01*
X187099288Y-122280794D01*
X187106253Y-122277693D01*
X187267722Y-122205803D01*
X187267724Y-122205802D01*
X187273752Y-122203118D01*
X187283500Y-122196036D01*
X187354796Y-122144236D01*
X187428253Y-122090866D01*
X187433842Y-122084659D01*
X187551621Y-121953852D01*
X187551622Y-121953851D01*
X187556040Y-121948944D01*
X187651527Y-121783556D01*
X187710542Y-121601928D01*
X187730504Y-121412000D01*
X187710542Y-121222072D01*
X187651527Y-121040444D01*
X187556040Y-120875056D01*
X187551621Y-120870148D01*
X187457864Y-120766020D01*
X187427146Y-120702013D01*
X187425500Y-120681710D01*
X187425500Y-111474290D01*
X187445502Y-111406169D01*
X187457864Y-111389980D01*
X187551621Y-111285852D01*
X187551622Y-111285851D01*
X187556040Y-111280944D01*
X187651527Y-111115556D01*
X187710542Y-110933928D01*
X187728455Y-110763500D01*
X187729814Y-110750565D01*
X187730504Y-110744000D01*
X187729798Y-110737282D01*
X187711232Y-110560635D01*
X187711232Y-110560633D01*
X187710542Y-110554072D01*
X187651527Y-110372444D01*
X187556040Y-110207056D01*
X187439288Y-110077389D01*
X187432675Y-110070045D01*
X187432674Y-110070044D01*
X187428253Y-110065134D01*
X187323439Y-109988982D01*
X187279094Y-109956763D01*
X187279093Y-109956762D01*
X187273752Y-109952882D01*
X187267724Y-109950198D01*
X187267722Y-109950197D01*
X187105319Y-109877891D01*
X187105318Y-109877891D01*
X187099288Y-109875206D01*
X187004227Y-109855000D01*
X186918944Y-109836872D01*
X186918939Y-109836872D01*
X186912487Y-109835500D01*
X186721513Y-109835500D01*
X186715061Y-109836872D01*
X186715056Y-109836872D01*
X186629773Y-109855000D01*
X186534712Y-109875206D01*
X186528682Y-109877891D01*
X186528681Y-109877891D01*
X186366278Y-109950197D01*
X186366276Y-109950198D01*
X186360248Y-109952882D01*
X186354907Y-109956762D01*
X186354906Y-109956763D01*
X186319933Y-109982173D01*
X186228560Y-110048559D01*
X186161694Y-110072417D01*
X186092542Y-110056337D01*
X186043062Y-110005424D01*
X186028500Y-109946623D01*
X186028500Y-53068283D01*
X186048502Y-53000162D01*
X186102158Y-52953669D01*
X186172432Y-52943565D01*
X186207748Y-52954087D01*
X186324804Y-53008672D01*
X186360338Y-53025241D01*
X186376340Y-53032703D01*
X186381648Y-53034125D01*
X186381650Y-53034126D01*
X186587956Y-53089405D01*
X186587958Y-53089405D01*
X186593271Y-53090829D01*
X186817000Y-53110403D01*
X187040729Y-53090829D01*
X187046042Y-53089405D01*
X187046044Y-53089405D01*
X187252350Y-53034126D01*
X187252352Y-53034125D01*
X187257660Y-53032703D01*
X187262646Y-53030378D01*
X187456215Y-52940116D01*
X187456220Y-52940113D01*
X187461202Y-52937790D01*
X187573499Y-52859158D01*
X187640658Y-52812133D01*
X187640660Y-52812131D01*
X187645169Y-52808974D01*
X187803974Y-52650169D01*
X187932790Y-52466201D01*
X187935113Y-52461219D01*
X187935116Y-52461214D01*
X187972805Y-52380389D01*
X188019723Y-52327104D01*
X188088000Y-52307643D01*
X188155960Y-52328185D01*
G37*
%TD.AperFunction*%
%TA.AperFunction,Conductor*%
G36*
X107420388Y-124588531D02*
G01*
X107461570Y-124646363D01*
X107468500Y-124687574D01*
X107468500Y-130358678D01*
X107448498Y-130426799D01*
X107400683Y-130470439D01*
X107350607Y-130496507D01*
X107346474Y-130499610D01*
X107346471Y-130499612D01*
X107180353Y-130624337D01*
X107171965Y-130630635D01*
X107146541Y-130657240D01*
X107078280Y-130728671D01*
X107017629Y-130792138D01*
X106910201Y-130949621D01*
X106855293Y-130994621D01*
X106784768Y-131002792D01*
X106721021Y-130971538D01*
X106700324Y-130947054D01*
X106619822Y-130822617D01*
X106619820Y-130822614D01*
X106617014Y-130818277D01*
X106466670Y-130653051D01*
X106462619Y-130649852D01*
X106462615Y-130649848D01*
X106295414Y-130517800D01*
X106295410Y-130517798D01*
X106291359Y-130514598D01*
X106255028Y-130494542D01*
X106211370Y-130470442D01*
X106095789Y-130406638D01*
X106090920Y-130404914D01*
X106090916Y-130404912D01*
X105890087Y-130333795D01*
X105890083Y-130333794D01*
X105885212Y-130332069D01*
X105880119Y-130331162D01*
X105880116Y-130331161D01*
X105670373Y-130293800D01*
X105670367Y-130293799D01*
X105665284Y-130292894D01*
X105591452Y-130291992D01*
X105447081Y-130290228D01*
X105447079Y-130290228D01*
X105441911Y-130290165D01*
X105221091Y-130323955D01*
X105008756Y-130393357D01*
X104810607Y-130496507D01*
X104806474Y-130499610D01*
X104806471Y-130499612D01*
X104640353Y-130624337D01*
X104631965Y-130630635D01*
X104606541Y-130657240D01*
X104538280Y-130728671D01*
X104477629Y-130792138D01*
X104370201Y-130949621D01*
X104315293Y-130994621D01*
X104244768Y-131002792D01*
X104181021Y-130971538D01*
X104160324Y-130947054D01*
X104079822Y-130822617D01*
X104079820Y-130822614D01*
X104077014Y-130818277D01*
X103926670Y-130653051D01*
X103922619Y-130649852D01*
X103922615Y-130649848D01*
X103755414Y-130517800D01*
X103755410Y-130517798D01*
X103751359Y-130514598D01*
X103715028Y-130494542D01*
X103671370Y-130470442D01*
X103555789Y-130406638D01*
X103550920Y-130404914D01*
X103550916Y-130404912D01*
X103350087Y-130333795D01*
X103350083Y-130333794D01*
X103345212Y-130332069D01*
X103340119Y-130331162D01*
X103340116Y-130331161D01*
X103130373Y-130293800D01*
X103130367Y-130293799D01*
X103125284Y-130292894D01*
X103051452Y-130291992D01*
X102907081Y-130290228D01*
X102907079Y-130290228D01*
X102901911Y-130290165D01*
X102681091Y-130323955D01*
X102468756Y-130393357D01*
X102270607Y-130496507D01*
X102266474Y-130499610D01*
X102266471Y-130499612D01*
X102100353Y-130624337D01*
X102091965Y-130630635D01*
X102066541Y-130657240D01*
X101998280Y-130728671D01*
X101937629Y-130792138D01*
X101830201Y-130949621D01*
X101775293Y-130994621D01*
X101704768Y-131002792D01*
X101641021Y-130971538D01*
X101620324Y-130947054D01*
X101539822Y-130822617D01*
X101539820Y-130822614D01*
X101537014Y-130818277D01*
X101386670Y-130653051D01*
X101382619Y-130649852D01*
X101382615Y-130649848D01*
X101215414Y-130517800D01*
X101215410Y-130517798D01*
X101211359Y-130514598D01*
X101175028Y-130494542D01*
X101131370Y-130470442D01*
X101015789Y-130406638D01*
X101010920Y-130404914D01*
X101010916Y-130404912D01*
X100810087Y-130333795D01*
X100810083Y-130333794D01*
X100805212Y-130332069D01*
X100800119Y-130331162D01*
X100800116Y-130331161D01*
X100590373Y-130293800D01*
X100590367Y-130293799D01*
X100585284Y-130292894D01*
X100511452Y-130291992D01*
X100367081Y-130290228D01*
X100367079Y-130290228D01*
X100361911Y-130290165D01*
X100141091Y-130323955D01*
X99928756Y-130393357D01*
X99730607Y-130496507D01*
X99726474Y-130499610D01*
X99726471Y-130499612D01*
X99560353Y-130624337D01*
X99551965Y-130630635D01*
X99526541Y-130657240D01*
X99458280Y-130728671D01*
X99397629Y-130792138D01*
X99290201Y-130949621D01*
X99235293Y-130994621D01*
X99164768Y-131002792D01*
X99101021Y-130971538D01*
X99080324Y-130947054D01*
X98999822Y-130822617D01*
X98999820Y-130822614D01*
X98997014Y-130818277D01*
X98846670Y-130653051D01*
X98842619Y-130649852D01*
X98842615Y-130649848D01*
X98675414Y-130517800D01*
X98675410Y-130517798D01*
X98671359Y-130514598D01*
X98635028Y-130494542D01*
X98591370Y-130470442D01*
X98475789Y-130406638D01*
X98470920Y-130404914D01*
X98470916Y-130404912D01*
X98270087Y-130333795D01*
X98270083Y-130333794D01*
X98265212Y-130332069D01*
X98260119Y-130331162D01*
X98260116Y-130331161D01*
X98050373Y-130293800D01*
X98050367Y-130293799D01*
X98045284Y-130292894D01*
X97971452Y-130291992D01*
X97827081Y-130290228D01*
X97827079Y-130290228D01*
X97821911Y-130290165D01*
X97601091Y-130323955D01*
X97388756Y-130393357D01*
X97190607Y-130496507D01*
X97186474Y-130499610D01*
X97186471Y-130499612D01*
X97020353Y-130624337D01*
X97011965Y-130630635D01*
X96986541Y-130657240D01*
X96918280Y-130728671D01*
X96857629Y-130792138D01*
X96750201Y-130949621D01*
X96695293Y-130994621D01*
X96624768Y-131002792D01*
X96561021Y-130971538D01*
X96540324Y-130947054D01*
X96459822Y-130822617D01*
X96459820Y-130822614D01*
X96457014Y-130818277D01*
X96306670Y-130653051D01*
X96302619Y-130649852D01*
X96302615Y-130649848D01*
X96135414Y-130517800D01*
X96135410Y-130517798D01*
X96131359Y-130514598D01*
X96095028Y-130494542D01*
X96051370Y-130470442D01*
X95935789Y-130406638D01*
X95930920Y-130404914D01*
X95930916Y-130404912D01*
X95730087Y-130333795D01*
X95730083Y-130333794D01*
X95725212Y-130332069D01*
X95720119Y-130331162D01*
X95720116Y-130331161D01*
X95510373Y-130293800D01*
X95510367Y-130293799D01*
X95505284Y-130292894D01*
X95431452Y-130291992D01*
X95287081Y-130290228D01*
X95287079Y-130290228D01*
X95281911Y-130290165D01*
X95061091Y-130323955D01*
X94848756Y-130393357D01*
X94650607Y-130496507D01*
X94646474Y-130499610D01*
X94646471Y-130499612D01*
X94480353Y-130624337D01*
X94471965Y-130630635D01*
X94446541Y-130657240D01*
X94378280Y-130728671D01*
X94317629Y-130792138D01*
X94210201Y-130949621D01*
X94155293Y-130994621D01*
X94084768Y-131002792D01*
X94021021Y-130971538D01*
X94000324Y-130947054D01*
X93919822Y-130822617D01*
X93919820Y-130822614D01*
X93917014Y-130818277D01*
X93766670Y-130653051D01*
X93762619Y-130649852D01*
X93762615Y-130649848D01*
X93595414Y-130517800D01*
X93595410Y-130517798D01*
X93591359Y-130514598D01*
X93555028Y-130494542D01*
X93511370Y-130470442D01*
X93395789Y-130406638D01*
X93390920Y-130404914D01*
X93390916Y-130404912D01*
X93190087Y-130333795D01*
X93190083Y-130333794D01*
X93185212Y-130332069D01*
X93180119Y-130331162D01*
X93180116Y-130331161D01*
X92970373Y-130293800D01*
X92970367Y-130293799D01*
X92965284Y-130292894D01*
X92891452Y-130291992D01*
X92747081Y-130290228D01*
X92747079Y-130290228D01*
X92741911Y-130290165D01*
X92521091Y-130323955D01*
X92308756Y-130393357D01*
X92110607Y-130496507D01*
X92106474Y-130499610D01*
X92106471Y-130499612D01*
X91940353Y-130624337D01*
X91931965Y-130630635D01*
X91906541Y-130657240D01*
X91838280Y-130728671D01*
X91777629Y-130792138D01*
X91670201Y-130949621D01*
X91615293Y-130994621D01*
X91544768Y-131002792D01*
X91481021Y-130971538D01*
X91460324Y-130947054D01*
X91379822Y-130822617D01*
X91379820Y-130822614D01*
X91377014Y-130818277D01*
X91226670Y-130653051D01*
X91222619Y-130649852D01*
X91222615Y-130649848D01*
X91055414Y-130517800D01*
X91055410Y-130517798D01*
X91051359Y-130514598D01*
X91015028Y-130494542D01*
X90971370Y-130470442D01*
X90855789Y-130406638D01*
X90850920Y-130404914D01*
X90850916Y-130404912D01*
X90650087Y-130333795D01*
X90650083Y-130333794D01*
X90645212Y-130332069D01*
X90640119Y-130331162D01*
X90640116Y-130331161D01*
X90430373Y-130293800D01*
X90430367Y-130293799D01*
X90425284Y-130292894D01*
X90351452Y-130291992D01*
X90207081Y-130290228D01*
X90207079Y-130290228D01*
X90201911Y-130290165D01*
X89981091Y-130323955D01*
X89768756Y-130393357D01*
X89570607Y-130496507D01*
X89566474Y-130499610D01*
X89566471Y-130499612D01*
X89400353Y-130624337D01*
X89391965Y-130630635D01*
X89366541Y-130657240D01*
X89298280Y-130728671D01*
X89237629Y-130792138D01*
X89130201Y-130949621D01*
X89075293Y-130994621D01*
X89004768Y-131002792D01*
X88941021Y-130971538D01*
X88920324Y-130947054D01*
X88839822Y-130822617D01*
X88839820Y-130822614D01*
X88837014Y-130818277D01*
X88686670Y-130653051D01*
X88682619Y-130649852D01*
X88682615Y-130649848D01*
X88515414Y-130517800D01*
X88515410Y-130517798D01*
X88511359Y-130514598D01*
X88475028Y-130494542D01*
X88431370Y-130470442D01*
X88315789Y-130406638D01*
X88310920Y-130404914D01*
X88310916Y-130404912D01*
X88110087Y-130333795D01*
X88110083Y-130333794D01*
X88105212Y-130332069D01*
X88100119Y-130331162D01*
X88100116Y-130331161D01*
X87890373Y-130293800D01*
X87890367Y-130293799D01*
X87885284Y-130292894D01*
X87851336Y-130292479D01*
X87843869Y-130292388D01*
X87775997Y-130271555D01*
X87730163Y-130217335D01*
X87720919Y-130146943D01*
X87751199Y-130082727D01*
X87756313Y-130077302D01*
X92907210Y-124926405D01*
X92969522Y-124892379D01*
X92996305Y-124889500D01*
X105780185Y-124889500D01*
X105848306Y-124909502D01*
X105854246Y-124913564D01*
X105969248Y-124997118D01*
X105975276Y-124999802D01*
X105975278Y-124999803D01*
X106137681Y-125072109D01*
X106143712Y-125074794D01*
X106237112Y-125094647D01*
X106324056Y-125113128D01*
X106324061Y-125113128D01*
X106330513Y-125114500D01*
X106521487Y-125114500D01*
X106527939Y-125113128D01*
X106527944Y-125113128D01*
X106614888Y-125094647D01*
X106708288Y-125074794D01*
X106714319Y-125072109D01*
X106876722Y-124999803D01*
X106876724Y-124999802D01*
X106882752Y-124997118D01*
X107037253Y-124884866D01*
X107165040Y-124742944D01*
X107233381Y-124624574D01*
X107284763Y-124575581D01*
X107354477Y-124562145D01*
X107420388Y-124588531D01*
G37*
%TD.AperFunction*%
%TA.AperFunction,Conductor*%
G36*
X111097411Y-110483502D02*
G01*
X111122926Y-110505189D01*
X111148747Y-110533866D01*
X111167917Y-110547794D01*
X111202795Y-110573134D01*
X111303248Y-110646118D01*
X111309274Y-110648801D01*
X111309281Y-110648805D01*
X111363471Y-110672931D01*
X111417567Y-110718911D01*
X111438217Y-110786838D01*
X111418865Y-110855146D01*
X111401318Y-110877133D01*
X107680766Y-114597685D01*
X107668375Y-114608552D01*
X107643013Y-114628013D01*
X107618526Y-114659925D01*
X107618523Y-114659928D01*
X107545476Y-114755124D01*
X107542318Y-114762748D01*
X107542317Y-114762750D01*
X107533894Y-114783087D01*
X107533893Y-114783089D01*
X107509553Y-114841852D01*
X107484162Y-114903150D01*
X107468500Y-115022115D01*
X107468500Y-115022120D01*
X107463250Y-115062000D01*
X107464328Y-115070188D01*
X107467422Y-115093690D01*
X107468500Y-115110136D01*
X107468500Y-123724426D01*
X107448498Y-123792547D01*
X107394842Y-123839040D01*
X107324568Y-123849144D01*
X107259988Y-123819650D01*
X107233381Y-123787426D01*
X107165040Y-123669056D01*
X107109818Y-123607725D01*
X107041675Y-123532045D01*
X107041674Y-123532044D01*
X107037253Y-123527134D01*
X106882752Y-123414882D01*
X106876724Y-123412198D01*
X106876722Y-123412197D01*
X106714319Y-123339891D01*
X106714318Y-123339891D01*
X106708288Y-123337206D01*
X106614887Y-123317353D01*
X106527944Y-123298872D01*
X106527939Y-123298872D01*
X106521487Y-123297500D01*
X106330513Y-123297500D01*
X106324061Y-123298872D01*
X106324056Y-123298872D01*
X106237113Y-123317353D01*
X106143712Y-123337206D01*
X106137682Y-123339891D01*
X106137681Y-123339891D01*
X105975278Y-123412197D01*
X105975276Y-123412198D01*
X105969248Y-123414882D01*
X105963907Y-123418762D01*
X105963906Y-123418763D01*
X105854246Y-123498436D01*
X105787378Y-123522295D01*
X105780185Y-123522500D01*
X92689056Y-123522500D01*
X92680486Y-123522208D01*
X92679443Y-123522137D01*
X92624966Y-123518423D01*
X92617489Y-123519728D01*
X92617486Y-123519728D01*
X92564342Y-123529003D01*
X92557819Y-123529966D01*
X92504308Y-123536442D01*
X92504307Y-123536442D01*
X92496765Y-123537355D01*
X92489655Y-123540041D01*
X92484752Y-123541246D01*
X92474266Y-123544114D01*
X92469474Y-123545561D01*
X92461996Y-123546866D01*
X92455044Y-123549918D01*
X92455043Y-123549918D01*
X92405659Y-123571595D01*
X92399554Y-123574086D01*
X92349118Y-123593145D01*
X92349115Y-123593147D01*
X92342011Y-123595831D01*
X92335754Y-123600131D01*
X92331286Y-123602467D01*
X92321840Y-123607725D01*
X92317474Y-123610307D01*
X92310515Y-123613362D01*
X92261696Y-123650823D01*
X92256377Y-123654686D01*
X92227150Y-123674774D01*
X92205674Y-123689534D01*
X92200623Y-123695203D01*
X92165768Y-123734323D01*
X92160787Y-123739598D01*
X85614326Y-130286059D01*
X85552014Y-130320085D01*
X85503135Y-130321011D01*
X85350373Y-130293800D01*
X85350367Y-130293799D01*
X85345284Y-130292894D01*
X85199082Y-130291108D01*
X85131212Y-130270275D01*
X85085378Y-130216055D01*
X85076133Y-130145663D01*
X85106413Y-130081448D01*
X85111527Y-130076022D01*
X104687144Y-110500405D01*
X104749456Y-110466379D01*
X104776239Y-110463500D01*
X111029290Y-110463500D01*
X111097411Y-110483502D01*
G37*
%TD.AperFunction*%
%TD*%
M02*
