%TF.GenerationSoftware,KiCad,Pcbnew,(6.0.11)*%
%TF.CreationDate,2023-06-06T08:43:58+02:00*%
%TF.ProjectId,DIN41612-ISA,44494e34-3136-4313-922d-4953412e6b69,rev?*%
%TF.SameCoordinates,Original*%
%TF.FileFunction,Drillmap*%
%TF.FilePolarity,Positive*%
%FSLAX45Y45*%
G04 Gerber Fmt 4.5, Leading zero omitted, Abs format (unit mm)*
G04 Created by KiCad (PCBNEW (6.0.11)) date 2023-06-06 08:43:58*
%MOMM*%
%LPD*%
G01*
G04 APERTURE LIST*
%ADD10C,0.100000*%
%ADD11C,0.200000*%
%ADD12C,0.040000*%
%ADD13C,0.110000*%
%ADD14C,0.300000*%
G04 APERTURE END LIST*
D10*
X23609300Y-14250000D02*
X21247100Y-14250000D01*
X21247100Y-15164400D01*
X13119100Y-15164400D01*
X13119100Y-14377000D01*
X12611100Y-14377000D01*
X12611100Y-15164400D01*
X7734300Y-15164400D01*
X7734300Y-11772900D01*
X12331700Y-4140800D01*
X23609300Y-4140800D01*
X23609300Y-14250000D01*
D11*
D12*
X9390700Y-12718100D02*
X9430700Y-12758100D01*
X9430700Y-12718100D02*
X9390700Y-12758100D01*
X9873300Y-12235500D02*
X9913300Y-12275500D01*
X9913300Y-12235500D02*
X9873300Y-12275500D01*
X10622600Y-12400600D02*
X10662600Y-12440600D01*
X10662600Y-12400600D02*
X10622600Y-12440600D01*
X10711500Y-10775000D02*
X10751500Y-10815000D01*
X10751500Y-10775000D02*
X10711500Y-10815000D01*
X10711500Y-11168700D02*
X10751500Y-11208700D01*
X10751500Y-11168700D02*
X10711500Y-11208700D01*
X11156000Y-10965500D02*
X11196000Y-11005500D01*
X11196000Y-10965500D02*
X11156000Y-11005500D01*
X11232200Y-11041700D02*
X11272200Y-11081700D01*
X11272200Y-11041700D02*
X11232200Y-11081700D01*
X11321100Y-11105200D02*
X11361100Y-11145200D01*
X11361100Y-11105200D02*
X11321100Y-11145200D01*
X11435400Y-11168700D02*
X11475400Y-11208700D01*
X11475400Y-11168700D02*
X11435400Y-11208700D01*
X11549700Y-11219500D02*
X11589700Y-11259500D01*
X11589700Y-11219500D02*
X11549700Y-11259500D01*
X11803700Y-11295700D02*
X11843700Y-11335700D01*
X11843700Y-11295700D02*
X11803700Y-11335700D01*
X12057700Y-11746650D02*
X12097700Y-11786650D01*
X12097700Y-11746650D02*
X12057700Y-11786650D01*
X12489500Y-10965500D02*
X12529500Y-11005500D01*
X12529500Y-10965500D02*
X12489500Y-11005500D01*
X12756200Y-10952800D02*
X12796200Y-10992800D01*
X12796200Y-10952800D02*
X12756200Y-10992800D01*
X12756200Y-13327700D02*
X12796200Y-13367700D01*
X12796200Y-13327700D02*
X12756200Y-13367700D01*
X13327700Y-10838500D02*
X13367700Y-10878500D01*
X13367700Y-10838500D02*
X13327700Y-10878500D01*
X13327700Y-12121200D02*
X13367700Y-12161200D01*
X13367700Y-12121200D02*
X13327700Y-12161200D01*
X13581700Y-10838500D02*
X13621700Y-10878500D01*
X13621700Y-10838500D02*
X13581700Y-10878500D01*
X13581700Y-12121200D02*
X13621700Y-12161200D01*
X13621700Y-12121200D02*
X13581700Y-12161200D01*
X13835700Y-10838500D02*
X13875700Y-10878500D01*
X13875700Y-10838500D02*
X13835700Y-10878500D01*
X13835700Y-12121200D02*
X13875700Y-12161200D01*
X13875700Y-12121200D02*
X13835700Y-12161200D01*
X13962700Y-11854500D02*
X14002700Y-11894500D01*
X14002700Y-11854500D02*
X13962700Y-11894500D01*
X14089700Y-10838500D02*
X14129700Y-10878500D01*
X14129700Y-10838500D02*
X14089700Y-10878500D01*
X14089700Y-12121200D02*
X14129700Y-12161200D01*
X14129700Y-12121200D02*
X14089700Y-12161200D01*
X14343700Y-10838500D02*
X14383700Y-10878500D01*
X14383700Y-10838500D02*
X14343700Y-10878500D01*
X14343700Y-12121200D02*
X14383700Y-12161200D01*
X14383700Y-12121200D02*
X14343700Y-12161200D01*
X14597700Y-10838500D02*
X14637700Y-10878500D01*
X14637700Y-10838500D02*
X14597700Y-10878500D01*
X14597700Y-12121200D02*
X14637700Y-12161200D01*
X14637700Y-12121200D02*
X14597700Y-12161200D01*
X14851700Y-10838500D02*
X14891700Y-10878500D01*
X14891700Y-10838500D02*
X14851700Y-10878500D01*
X14851700Y-12121200D02*
X14891700Y-12161200D01*
X14891700Y-12121200D02*
X14851700Y-12161200D01*
X15105700Y-11054400D02*
X15145700Y-11094400D01*
X15145700Y-11054400D02*
X15105700Y-11094400D01*
X15105700Y-12121200D02*
X15145700Y-12161200D01*
X15145700Y-12121200D02*
X15105700Y-12161200D01*
X15359700Y-11054400D02*
X15399700Y-11094400D01*
X15399700Y-11054400D02*
X15359700Y-11094400D01*
X15359700Y-12121200D02*
X15399700Y-12161200D01*
X15399700Y-12121200D02*
X15359700Y-12161200D01*
X15613700Y-11054400D02*
X15653700Y-11094400D01*
X15653700Y-11054400D02*
X15613700Y-11094400D01*
X15613700Y-12121200D02*
X15653700Y-12161200D01*
X15653700Y-12121200D02*
X15613700Y-12161200D01*
X15867700Y-11054400D02*
X15907700Y-11094400D01*
X15907700Y-11054400D02*
X15867700Y-11094400D01*
X15867700Y-12121200D02*
X15907700Y-12161200D01*
X15907700Y-12121200D02*
X15867700Y-12161200D01*
X16121700Y-11054400D02*
X16161700Y-11094400D01*
X16161700Y-11054400D02*
X16121700Y-11094400D01*
X16121700Y-12121200D02*
X16161700Y-12161200D01*
X16161700Y-12121200D02*
X16121700Y-12161200D01*
X16375700Y-11054400D02*
X16415700Y-11094400D01*
X16415700Y-11054400D02*
X16375700Y-11094400D01*
X16375700Y-12121200D02*
X16415700Y-12161200D01*
X16415700Y-12121200D02*
X16375700Y-12161200D01*
X16629700Y-11054400D02*
X16669700Y-11094400D01*
X16669700Y-11054400D02*
X16629700Y-11094400D01*
X16629700Y-12121200D02*
X16669700Y-12161200D01*
X16669700Y-12121200D02*
X16629700Y-12161200D01*
X16883700Y-11054400D02*
X16923700Y-11094400D01*
X16923700Y-11054400D02*
X16883700Y-11094400D01*
X16883700Y-12121200D02*
X16923700Y-12161200D01*
X16923700Y-12121200D02*
X16883700Y-12161200D01*
X17137700Y-11054400D02*
X17177700Y-11094400D01*
X17177700Y-11054400D02*
X17137700Y-11094400D01*
X17137700Y-12121200D02*
X17177700Y-12161200D01*
X17177700Y-12121200D02*
X17137700Y-12161200D01*
X17391700Y-11054400D02*
X17431700Y-11094400D01*
X17431700Y-11054400D02*
X17391700Y-11094400D01*
X17391700Y-12121200D02*
X17431700Y-12161200D01*
X17431700Y-12121200D02*
X17391700Y-12161200D01*
X17645700Y-11054400D02*
X17685700Y-11094400D01*
X17685700Y-11054400D02*
X17645700Y-11094400D01*
X17645700Y-12121200D02*
X17685700Y-12161200D01*
X17685700Y-12121200D02*
X17645700Y-12161200D01*
X17899700Y-11054400D02*
X17939700Y-11094400D01*
X17939700Y-11054400D02*
X17899700Y-11094400D01*
X17899700Y-12121200D02*
X17939700Y-12161200D01*
X17939700Y-12121200D02*
X17899700Y-12161200D01*
X18153700Y-11054400D02*
X18193700Y-11094400D01*
X18193700Y-11054400D02*
X18153700Y-11094400D01*
X18153700Y-12121200D02*
X18193700Y-12161200D01*
X18193700Y-12121200D02*
X18153700Y-12161200D01*
X18407700Y-11054400D02*
X18447700Y-11094400D01*
X18447700Y-11054400D02*
X18407700Y-11094400D01*
X18407700Y-12121200D02*
X18447700Y-12161200D01*
X18447700Y-12121200D02*
X18407700Y-12161200D01*
X18661700Y-11054400D02*
X18701700Y-11094400D01*
X18701700Y-11054400D02*
X18661700Y-11094400D01*
X18661700Y-12121200D02*
X18701700Y-12161200D01*
X18701700Y-12121200D02*
X18661700Y-12161200D01*
X18915700Y-11054400D02*
X18955700Y-11094400D01*
X18955700Y-11054400D02*
X18915700Y-11094400D01*
X18915700Y-12121200D02*
X18955700Y-12161200D01*
X18955700Y-12121200D02*
X18915700Y-12161200D01*
X19169700Y-11054400D02*
X19209700Y-11094400D01*
X19209700Y-11054400D02*
X19169700Y-11094400D01*
X19169700Y-12121200D02*
X19209700Y-12161200D01*
X19209700Y-12121200D02*
X19169700Y-12161200D01*
X19423700Y-11054400D02*
X19463700Y-11094400D01*
X19463700Y-11054400D02*
X19423700Y-11094400D01*
X19423700Y-12121200D02*
X19463700Y-12161200D01*
X19463700Y-12121200D02*
X19423700Y-12161200D01*
X19677700Y-11054400D02*
X19717700Y-11094400D01*
X19717700Y-11054400D02*
X19677700Y-11094400D01*
X19677700Y-12121200D02*
X19717700Y-12161200D01*
X19717700Y-12121200D02*
X19677700Y-12161200D01*
X19931700Y-11410000D02*
X19971700Y-11450000D01*
X19971700Y-11410000D02*
X19931700Y-11450000D01*
X19931700Y-12121200D02*
X19971700Y-12161200D01*
X19971700Y-12121200D02*
X19931700Y-12161200D01*
X20185700Y-11410000D02*
X20225700Y-11450000D01*
X20225700Y-11410000D02*
X20185700Y-11450000D01*
X20185700Y-12121200D02*
X20225700Y-12161200D01*
X20225700Y-12121200D02*
X20185700Y-12161200D01*
X20439700Y-11410000D02*
X20479700Y-11450000D01*
X20479700Y-11410000D02*
X20439700Y-11450000D01*
X20439700Y-12121200D02*
X20479700Y-12161200D01*
X20479700Y-12121200D02*
X20439700Y-12161200D01*
X20693700Y-11410000D02*
X20733700Y-11450000D01*
X20733700Y-11410000D02*
X20693700Y-11450000D01*
X20693700Y-12121200D02*
X20733700Y-12161200D01*
X20733700Y-12121200D02*
X20693700Y-12161200D01*
X20947700Y-11410000D02*
X20987700Y-11450000D01*
X20987700Y-11410000D02*
X20947700Y-11450000D01*
X20947700Y-12121200D02*
X20987700Y-12161200D01*
X20987700Y-12121200D02*
X20947700Y-12161200D01*
D10*
X8063700Y-13165000D02*
G75*
G03*
X8063700Y-13165000I-50000J0D01*
G01*
X8063700Y-13419000D02*
G75*
G03*
X8063700Y-13419000I-50000J0D01*
G01*
X8317700Y-13165000D02*
G75*
G03*
X8317700Y-13165000I-50000J0D01*
G01*
X8317700Y-13419000D02*
G75*
G03*
X8317700Y-13419000I-50000J0D01*
G01*
X8571700Y-13165000D02*
G75*
G03*
X8571700Y-13165000I-50000J0D01*
G01*
X8571700Y-13419000D02*
G75*
G03*
X8571700Y-13419000I-50000J0D01*
G01*
X8825700Y-13165000D02*
G75*
G03*
X8825700Y-13165000I-50000J0D01*
G01*
X8825700Y-13419000D02*
G75*
G03*
X8825700Y-13419000I-50000J0D01*
G01*
X9079700Y-13165000D02*
G75*
G03*
X9079700Y-13165000I-50000J0D01*
G01*
X9079700Y-13419000D02*
G75*
G03*
X9079700Y-13419000I-50000J0D01*
G01*
X9333700Y-13165000D02*
G75*
G03*
X9333700Y-13165000I-50000J0D01*
G01*
X9333700Y-13419000D02*
G75*
G03*
X9333700Y-13419000I-50000J0D01*
G01*
X9587700Y-13165000D02*
G75*
G03*
X9587700Y-13165000I-50000J0D01*
G01*
X9587700Y-13419000D02*
G75*
G03*
X9587700Y-13419000I-50000J0D01*
G01*
X9841700Y-13165000D02*
G75*
G03*
X9841700Y-13165000I-50000J0D01*
G01*
X9841700Y-13419000D02*
G75*
G03*
X9841700Y-13419000I-50000J0D01*
G01*
X10095700Y-13165000D02*
G75*
G03*
X10095700Y-13165000I-50000J0D01*
G01*
X10095700Y-13419000D02*
G75*
G03*
X10095700Y-13419000I-50000J0D01*
G01*
X10349700Y-13165000D02*
G75*
G03*
X10349700Y-13165000I-50000J0D01*
G01*
X10349700Y-13419000D02*
G75*
G03*
X10349700Y-13419000I-50000J0D01*
G01*
X10603700Y-13165000D02*
G75*
G03*
X10603700Y-13165000I-50000J0D01*
G01*
X10603700Y-13419000D02*
G75*
G03*
X10603700Y-13419000I-50000J0D01*
G01*
X10857700Y-13165000D02*
G75*
G03*
X10857700Y-13165000I-50000J0D01*
G01*
X10857700Y-13419000D02*
G75*
G03*
X10857700Y-13419000I-50000J0D01*
G01*
X11111700Y-13165000D02*
G75*
G03*
X11111700Y-13165000I-50000J0D01*
G01*
X11111700Y-13419000D02*
G75*
G03*
X11111700Y-13419000I-50000J0D01*
G01*
X11365700Y-13165000D02*
G75*
G03*
X11365700Y-13165000I-50000J0D01*
G01*
X11365700Y-13419000D02*
G75*
G03*
X11365700Y-13419000I-50000J0D01*
G01*
X11619700Y-13165000D02*
G75*
G03*
X11619700Y-13165000I-50000J0D01*
G01*
X11619700Y-13419000D02*
G75*
G03*
X11619700Y-13419000I-50000J0D01*
G01*
X11873700Y-13165000D02*
G75*
G03*
X11873700Y-13165000I-50000J0D01*
G01*
X11873700Y-13419000D02*
G75*
G03*
X11873700Y-13419000I-50000J0D01*
G01*
X12127700Y-13165000D02*
G75*
G03*
X12127700Y-13165000I-50000J0D01*
G01*
X12127700Y-13419000D02*
G75*
G03*
X12127700Y-13419000I-50000J0D01*
G01*
X12381700Y-13165000D02*
G75*
G03*
X12381700Y-13165000I-50000J0D01*
G01*
X12381700Y-13419000D02*
G75*
G03*
X12381700Y-13419000I-50000J0D01*
G01*
X13397700Y-13165000D02*
G75*
G03*
X13397700Y-13165000I-50000J0D01*
G01*
X13397700Y-13419000D02*
G75*
G03*
X13397700Y-13419000I-50000J0D01*
G01*
X13651700Y-13165000D02*
G75*
G03*
X13651700Y-13165000I-50000J0D01*
G01*
X13651700Y-13419000D02*
G75*
G03*
X13651700Y-13419000I-50000J0D01*
G01*
X13905700Y-13165000D02*
G75*
G03*
X13905700Y-13165000I-50000J0D01*
G01*
X13905700Y-13419000D02*
G75*
G03*
X13905700Y-13419000I-50000J0D01*
G01*
X14159700Y-13165000D02*
G75*
G03*
X14159700Y-13165000I-50000J0D01*
G01*
X14159700Y-13419000D02*
G75*
G03*
X14159700Y-13419000I-50000J0D01*
G01*
X14413700Y-13165000D02*
G75*
G03*
X14413700Y-13165000I-50000J0D01*
G01*
X14413700Y-13419000D02*
G75*
G03*
X14413700Y-13419000I-50000J0D01*
G01*
X14667700Y-13165000D02*
G75*
G03*
X14667700Y-13165000I-50000J0D01*
G01*
X14667700Y-13419000D02*
G75*
G03*
X14667700Y-13419000I-50000J0D01*
G01*
X14921700Y-13165000D02*
G75*
G03*
X14921700Y-13165000I-50000J0D01*
G01*
X14921700Y-13419000D02*
G75*
G03*
X14921700Y-13419000I-50000J0D01*
G01*
X15175700Y-13165000D02*
G75*
G03*
X15175700Y-13165000I-50000J0D01*
G01*
X15175700Y-13419000D02*
G75*
G03*
X15175700Y-13419000I-50000J0D01*
G01*
X15429700Y-13165000D02*
G75*
G03*
X15429700Y-13165000I-50000J0D01*
G01*
X15429700Y-13419000D02*
G75*
G03*
X15429700Y-13419000I-50000J0D01*
G01*
X15683700Y-13165000D02*
G75*
G03*
X15683700Y-13165000I-50000J0D01*
G01*
X15683700Y-13419000D02*
G75*
G03*
X15683700Y-13419000I-50000J0D01*
G01*
X15937700Y-13165000D02*
G75*
G03*
X15937700Y-13165000I-50000J0D01*
G01*
X15937700Y-13419000D02*
G75*
G03*
X15937700Y-13419000I-50000J0D01*
G01*
X16191700Y-13165000D02*
G75*
G03*
X16191700Y-13165000I-50000J0D01*
G01*
X16191700Y-13419000D02*
G75*
G03*
X16191700Y-13419000I-50000J0D01*
G01*
X16445700Y-13165000D02*
G75*
G03*
X16445700Y-13165000I-50000J0D01*
G01*
X16445700Y-13419000D02*
G75*
G03*
X16445700Y-13419000I-50000J0D01*
G01*
X16699700Y-13165000D02*
G75*
G03*
X16699700Y-13165000I-50000J0D01*
G01*
X16699700Y-13419000D02*
G75*
G03*
X16699700Y-13419000I-50000J0D01*
G01*
X16953700Y-13165000D02*
G75*
G03*
X16953700Y-13165000I-50000J0D01*
G01*
X16953700Y-13419000D02*
G75*
G03*
X16953700Y-13419000I-50000J0D01*
G01*
X17207700Y-13165000D02*
G75*
G03*
X17207700Y-13165000I-50000J0D01*
G01*
X17207700Y-13419000D02*
G75*
G03*
X17207700Y-13419000I-50000J0D01*
G01*
X17461700Y-13165000D02*
G75*
G03*
X17461700Y-13165000I-50000J0D01*
G01*
X17461700Y-13419000D02*
G75*
G03*
X17461700Y-13419000I-50000J0D01*
G01*
X17715700Y-13165000D02*
G75*
G03*
X17715700Y-13165000I-50000J0D01*
G01*
X17715700Y-13419000D02*
G75*
G03*
X17715700Y-13419000I-50000J0D01*
G01*
X17969700Y-13165000D02*
G75*
G03*
X17969700Y-13165000I-50000J0D01*
G01*
X17969700Y-13419000D02*
G75*
G03*
X17969700Y-13419000I-50000J0D01*
G01*
X18223700Y-13165000D02*
G75*
G03*
X18223700Y-13165000I-50000J0D01*
G01*
X18223700Y-13419000D02*
G75*
G03*
X18223700Y-13419000I-50000J0D01*
G01*
X18477700Y-13165000D02*
G75*
G03*
X18477700Y-13165000I-50000J0D01*
G01*
X18477700Y-13419000D02*
G75*
G03*
X18477700Y-13419000I-50000J0D01*
G01*
X18731700Y-13165000D02*
G75*
G03*
X18731700Y-13165000I-50000J0D01*
G01*
X18731700Y-13419000D02*
G75*
G03*
X18731700Y-13419000I-50000J0D01*
G01*
X18985700Y-13165000D02*
G75*
G03*
X18985700Y-13165000I-50000J0D01*
G01*
X18985700Y-13419000D02*
G75*
G03*
X18985700Y-13419000I-50000J0D01*
G01*
X19239700Y-13165000D02*
G75*
G03*
X19239700Y-13165000I-50000J0D01*
G01*
X19239700Y-13419000D02*
G75*
G03*
X19239700Y-13419000I-50000J0D01*
G01*
X19493700Y-13165000D02*
G75*
G03*
X19493700Y-13165000I-50000J0D01*
G01*
X19493700Y-13419000D02*
G75*
G03*
X19493700Y-13419000I-50000J0D01*
G01*
X19747700Y-13165000D02*
G75*
G03*
X19747700Y-13165000I-50000J0D01*
G01*
X19747700Y-13419000D02*
G75*
G03*
X19747700Y-13419000I-50000J0D01*
G01*
X20001700Y-13165000D02*
G75*
G03*
X20001700Y-13165000I-50000J0D01*
G01*
X20001700Y-13419000D02*
G75*
G03*
X20001700Y-13419000I-50000J0D01*
G01*
X20255700Y-13165000D02*
G75*
G03*
X20255700Y-13165000I-50000J0D01*
G01*
X20255700Y-13419000D02*
G75*
G03*
X20255700Y-13419000I-50000J0D01*
G01*
X20509700Y-13165000D02*
G75*
G03*
X20509700Y-13165000I-50000J0D01*
G01*
X20509700Y-13419000D02*
G75*
G03*
X20509700Y-13419000I-50000J0D01*
G01*
X20763700Y-13165000D02*
G75*
G03*
X20763700Y-13165000I-50000J0D01*
G01*
X20763700Y-13419000D02*
G75*
G03*
X20763700Y-13419000I-50000J0D01*
G01*
X21017700Y-13165000D02*
G75*
G03*
X21017700Y-13165000I-50000J0D01*
G01*
X21017700Y-13419000D02*
G75*
G03*
X21017700Y-13419000I-50000J0D01*
G01*
D13*
X13093700Y-4619200D02*
X13093700Y-4729200D01*
X13038700Y-4674200D02*
X13148700Y-4674200D01*
X13093700Y-4873200D02*
X13093700Y-4983200D01*
X13038700Y-4928200D02*
X13148700Y-4928200D01*
X13093700Y-5127200D02*
X13093700Y-5237200D01*
X13038700Y-5182200D02*
X13148700Y-5182200D01*
X13347700Y-4619200D02*
X13347700Y-4729200D01*
X13292700Y-4674200D02*
X13402700Y-4674200D01*
X13347700Y-4873200D02*
X13347700Y-4983200D01*
X13292700Y-4928200D02*
X13402700Y-4928200D01*
X13347700Y-5127200D02*
X13347700Y-5237200D01*
X13292700Y-5182200D02*
X13402700Y-5182200D01*
X13601700Y-4619200D02*
X13601700Y-4729200D01*
X13546700Y-4674200D02*
X13656700Y-4674200D01*
X13601700Y-4873200D02*
X13601700Y-4983200D01*
X13546700Y-4928200D02*
X13656700Y-4928200D01*
X13601700Y-5127200D02*
X13601700Y-5237200D01*
X13546700Y-5182200D02*
X13656700Y-5182200D01*
X13855700Y-4619200D02*
X13855700Y-4729200D01*
X13800700Y-4674200D02*
X13910700Y-4674200D01*
X13855700Y-4873200D02*
X13855700Y-4983200D01*
X13800700Y-4928200D02*
X13910700Y-4928200D01*
X13855700Y-5127200D02*
X13855700Y-5237200D01*
X13800700Y-5182200D02*
X13910700Y-5182200D01*
X14109700Y-4619200D02*
X14109700Y-4729200D01*
X14054700Y-4674200D02*
X14164700Y-4674200D01*
X14109700Y-4873200D02*
X14109700Y-4983200D01*
X14054700Y-4928200D02*
X14164700Y-4928200D01*
X14109700Y-5127200D02*
X14109700Y-5237200D01*
X14054700Y-5182200D02*
X14164700Y-5182200D01*
X14363700Y-4619200D02*
X14363700Y-4729200D01*
X14308700Y-4674200D02*
X14418700Y-4674200D01*
X14363700Y-4873200D02*
X14363700Y-4983200D01*
X14308700Y-4928200D02*
X14418700Y-4928200D01*
X14363700Y-5127200D02*
X14363700Y-5237200D01*
X14308700Y-5182200D02*
X14418700Y-5182200D01*
X14617700Y-4619200D02*
X14617700Y-4729200D01*
X14562700Y-4674200D02*
X14672700Y-4674200D01*
X14617700Y-4873200D02*
X14617700Y-4983200D01*
X14562700Y-4928200D02*
X14672700Y-4928200D01*
X14617700Y-5127200D02*
X14617700Y-5237200D01*
X14562700Y-5182200D02*
X14672700Y-5182200D01*
X14871700Y-4619200D02*
X14871700Y-4729200D01*
X14816700Y-4674200D02*
X14926700Y-4674200D01*
X14871700Y-4873200D02*
X14871700Y-4983200D01*
X14816700Y-4928200D02*
X14926700Y-4928200D01*
X14871700Y-5127200D02*
X14871700Y-5237200D01*
X14816700Y-5182200D02*
X14926700Y-5182200D01*
X15125700Y-4619200D02*
X15125700Y-4729200D01*
X15070700Y-4674200D02*
X15180700Y-4674200D01*
X15125700Y-4873200D02*
X15125700Y-4983200D01*
X15070700Y-4928200D02*
X15180700Y-4928200D01*
X15125700Y-5127200D02*
X15125700Y-5237200D01*
X15070700Y-5182200D02*
X15180700Y-5182200D01*
X15379700Y-4619200D02*
X15379700Y-4729200D01*
X15324700Y-4674200D02*
X15434700Y-4674200D01*
X15379700Y-4873200D02*
X15379700Y-4983200D01*
X15324700Y-4928200D02*
X15434700Y-4928200D01*
X15379700Y-5127200D02*
X15379700Y-5237200D01*
X15324700Y-5182200D02*
X15434700Y-5182200D01*
X15633700Y-4619200D02*
X15633700Y-4729200D01*
X15578700Y-4674200D02*
X15688700Y-4674200D01*
X15633700Y-4873200D02*
X15633700Y-4983200D01*
X15578700Y-4928200D02*
X15688700Y-4928200D01*
X15633700Y-5127200D02*
X15633700Y-5237200D01*
X15578700Y-5182200D02*
X15688700Y-5182200D01*
X15887700Y-4619200D02*
X15887700Y-4729200D01*
X15832700Y-4674200D02*
X15942700Y-4674200D01*
X15887700Y-4873200D02*
X15887700Y-4983200D01*
X15832700Y-4928200D02*
X15942700Y-4928200D01*
X15887700Y-5127200D02*
X15887700Y-5237200D01*
X15832700Y-5182200D02*
X15942700Y-5182200D01*
X16141700Y-4619200D02*
X16141700Y-4729200D01*
X16086700Y-4674200D02*
X16196700Y-4674200D01*
X16141700Y-4873200D02*
X16141700Y-4983200D01*
X16086700Y-4928200D02*
X16196700Y-4928200D01*
X16141700Y-5127200D02*
X16141700Y-5237200D01*
X16086700Y-5182200D02*
X16196700Y-5182200D01*
X16395700Y-4619200D02*
X16395700Y-4729200D01*
X16340700Y-4674200D02*
X16450700Y-4674200D01*
X16395700Y-4873200D02*
X16395700Y-4983200D01*
X16340700Y-4928200D02*
X16450700Y-4928200D01*
X16395700Y-5127200D02*
X16395700Y-5237200D01*
X16340700Y-5182200D02*
X16450700Y-5182200D01*
X16649700Y-4619200D02*
X16649700Y-4729200D01*
X16594700Y-4674200D02*
X16704700Y-4674200D01*
X16649700Y-4873200D02*
X16649700Y-4983200D01*
X16594700Y-4928200D02*
X16704700Y-4928200D01*
X16649700Y-5127200D02*
X16649700Y-5237200D01*
X16594700Y-5182200D02*
X16704700Y-5182200D01*
X16903700Y-4619200D02*
X16903700Y-4729200D01*
X16848700Y-4674200D02*
X16958700Y-4674200D01*
X16903700Y-4873200D02*
X16903700Y-4983200D01*
X16848700Y-4928200D02*
X16958700Y-4928200D01*
X16903700Y-5127200D02*
X16903700Y-5237200D01*
X16848700Y-5182200D02*
X16958700Y-5182200D01*
X17157700Y-4619200D02*
X17157700Y-4729200D01*
X17102700Y-4674200D02*
X17212700Y-4674200D01*
X17157700Y-4873200D02*
X17157700Y-4983200D01*
X17102700Y-4928200D02*
X17212700Y-4928200D01*
X17157700Y-5127200D02*
X17157700Y-5237200D01*
X17102700Y-5182200D02*
X17212700Y-5182200D01*
X17411700Y-4619200D02*
X17411700Y-4729200D01*
X17356700Y-4674200D02*
X17466700Y-4674200D01*
X17411700Y-4873200D02*
X17411700Y-4983200D01*
X17356700Y-4928200D02*
X17466700Y-4928200D01*
X17411700Y-5127200D02*
X17411700Y-5237200D01*
X17356700Y-5182200D02*
X17466700Y-5182200D01*
X17665700Y-4619200D02*
X17665700Y-4729200D01*
X17610700Y-4674200D02*
X17720700Y-4674200D01*
X17665700Y-4873200D02*
X17665700Y-4983200D01*
X17610700Y-4928200D02*
X17720700Y-4928200D01*
X17665700Y-5127200D02*
X17665700Y-5237200D01*
X17610700Y-5182200D02*
X17720700Y-5182200D01*
X17919700Y-4619200D02*
X17919700Y-4729200D01*
X17864700Y-4674200D02*
X17974700Y-4674200D01*
X17919700Y-4873200D02*
X17919700Y-4983200D01*
X17864700Y-4928200D02*
X17974700Y-4928200D01*
X17919700Y-5127200D02*
X17919700Y-5237200D01*
X17864700Y-5182200D02*
X17974700Y-5182200D01*
X18173700Y-4619200D02*
X18173700Y-4729200D01*
X18118700Y-4674200D02*
X18228700Y-4674200D01*
X18173700Y-4873200D02*
X18173700Y-4983200D01*
X18118700Y-4928200D02*
X18228700Y-4928200D01*
X18173700Y-5127200D02*
X18173700Y-5237200D01*
X18118700Y-5182200D02*
X18228700Y-5182200D01*
X18427700Y-4619200D02*
X18427700Y-4729200D01*
X18372700Y-4674200D02*
X18482700Y-4674200D01*
X18427700Y-4873200D02*
X18427700Y-4983200D01*
X18372700Y-4928200D02*
X18482700Y-4928200D01*
X18427700Y-5127200D02*
X18427700Y-5237200D01*
X18372700Y-5182200D02*
X18482700Y-5182200D01*
X18681700Y-4619200D02*
X18681700Y-4729200D01*
X18626700Y-4674200D02*
X18736700Y-4674200D01*
X18681700Y-4873200D02*
X18681700Y-4983200D01*
X18626700Y-4928200D02*
X18736700Y-4928200D01*
X18681700Y-5127200D02*
X18681700Y-5237200D01*
X18626700Y-5182200D02*
X18736700Y-5182200D01*
X18935700Y-4619200D02*
X18935700Y-4729200D01*
X18880700Y-4674200D02*
X18990700Y-4674200D01*
X18935700Y-4873200D02*
X18935700Y-4983200D01*
X18880700Y-4928200D02*
X18990700Y-4928200D01*
X18935700Y-5127200D02*
X18935700Y-5237200D01*
X18880700Y-5182200D02*
X18990700Y-5182200D01*
X19189700Y-4619200D02*
X19189700Y-4729200D01*
X19134700Y-4674200D02*
X19244700Y-4674200D01*
X19189700Y-4873200D02*
X19189700Y-4983200D01*
X19134700Y-4928200D02*
X19244700Y-4928200D01*
X19189700Y-5127200D02*
X19189700Y-5237200D01*
X19134700Y-5182200D02*
X19244700Y-5182200D01*
X19443700Y-4619200D02*
X19443700Y-4729200D01*
X19388700Y-4674200D02*
X19498700Y-4674200D01*
X19443700Y-4873200D02*
X19443700Y-4983200D01*
X19388700Y-4928200D02*
X19498700Y-4928200D01*
X19443700Y-5127200D02*
X19443700Y-5237200D01*
X19388700Y-5182200D02*
X19498700Y-5182200D01*
X19697700Y-4619200D02*
X19697700Y-4729200D01*
X19642700Y-4674200D02*
X19752700Y-4674200D01*
X19697700Y-4873200D02*
X19697700Y-4983200D01*
X19642700Y-4928200D02*
X19752700Y-4928200D01*
X19697700Y-5127200D02*
X19697700Y-5237200D01*
X19642700Y-5182200D02*
X19752700Y-5182200D01*
X19951700Y-4619200D02*
X19951700Y-4729200D01*
X19896700Y-4674200D02*
X20006700Y-4674200D01*
X19951700Y-4873200D02*
X19951700Y-4983200D01*
X19896700Y-4928200D02*
X20006700Y-4928200D01*
X19951700Y-5127200D02*
X19951700Y-5237200D01*
X19896700Y-5182200D02*
X20006700Y-5182200D01*
X20205700Y-4619200D02*
X20205700Y-4729200D01*
X20150700Y-4674200D02*
X20260700Y-4674200D01*
X20205700Y-4873200D02*
X20205700Y-4983200D01*
X20150700Y-4928200D02*
X20260700Y-4928200D01*
X20205700Y-5127200D02*
X20205700Y-5237200D01*
X20150700Y-5182200D02*
X20260700Y-5182200D01*
X20459700Y-4619200D02*
X20459700Y-4729200D01*
X20404700Y-4674200D02*
X20514700Y-4674200D01*
X20459700Y-4873200D02*
X20459700Y-4983200D01*
X20404700Y-4928200D02*
X20514700Y-4928200D01*
X20459700Y-5127200D02*
X20459700Y-5237200D01*
X20404700Y-5182200D02*
X20514700Y-5182200D01*
X20713700Y-4619200D02*
X20713700Y-4729200D01*
X20658700Y-4674200D02*
X20768700Y-4674200D01*
X20713700Y-4873200D02*
X20713700Y-4983200D01*
X20658700Y-4928200D02*
X20768700Y-4928200D01*
X20713700Y-5127200D02*
X20713700Y-5237200D01*
X20658700Y-5182200D02*
X20768700Y-5182200D01*
X20967700Y-4619200D02*
X20967700Y-4729200D01*
X20912700Y-4674200D02*
X21022700Y-4674200D01*
X20967700Y-4873200D02*
X20967700Y-4983200D01*
X20912700Y-4928200D02*
X21022700Y-4928200D01*
X20967700Y-5127200D02*
X20967700Y-5237200D01*
X20912700Y-5182200D02*
X21022700Y-5182200D01*
D14*
X23258167Y-8298167D02*
X23258167Y-8086033D01*
X23046033Y-8086033D01*
X23046033Y-8298167D01*
X23258167Y-8298167D01*
X23258167Y-8298167D02*
X23258167Y-8086033D01*
X23046033Y-8086033D01*
X23046033Y-8298167D01*
X23258167Y-8298167D01*
X23258167Y-13949667D02*
X23258167Y-13737533D01*
X23046033Y-13737533D01*
X23046033Y-13949667D01*
X23258167Y-13949667D01*
X23258167Y-13949667D02*
X23258167Y-13737533D01*
X23046033Y-13737533D01*
X23046033Y-13949667D01*
X23258167Y-13949667D01*
D11*
X7986919Y-15479876D02*
X7986919Y-15279876D01*
X8034538Y-15279876D01*
X8063109Y-15289400D01*
X8082157Y-15308448D01*
X8091681Y-15327495D01*
X8101205Y-15365590D01*
X8101205Y-15394162D01*
X8091681Y-15432257D01*
X8082157Y-15451305D01*
X8063109Y-15470352D01*
X8034538Y-15479876D01*
X7986919Y-15479876D01*
X8186919Y-15479876D02*
X8186919Y-15346543D01*
X8186919Y-15384638D02*
X8196443Y-15365590D01*
X8205967Y-15356067D01*
X8225014Y-15346543D01*
X8244062Y-15346543D01*
X8310728Y-15479876D02*
X8310728Y-15346543D01*
X8310728Y-15279876D02*
X8301205Y-15289400D01*
X8310728Y-15298924D01*
X8320252Y-15289400D01*
X8310728Y-15279876D01*
X8310728Y-15298924D01*
X8434538Y-15479876D02*
X8415490Y-15470352D01*
X8405967Y-15451305D01*
X8405967Y-15279876D01*
X8539300Y-15479876D02*
X8520252Y-15470352D01*
X8510729Y-15451305D01*
X8510729Y-15279876D01*
X8767871Y-15479876D02*
X8767871Y-15279876D01*
X8834538Y-15422733D01*
X8901205Y-15279876D01*
X8901205Y-15479876D01*
X9082157Y-15479876D02*
X9082157Y-15375114D01*
X9072633Y-15356067D01*
X9053586Y-15346543D01*
X9015490Y-15346543D01*
X8996443Y-15356067D01*
X9082157Y-15470352D02*
X9063110Y-15479876D01*
X9015490Y-15479876D01*
X8996443Y-15470352D01*
X8986919Y-15451305D01*
X8986919Y-15432257D01*
X8996443Y-15413209D01*
X9015490Y-15403686D01*
X9063110Y-15403686D01*
X9082157Y-15394162D01*
X9177395Y-15346543D02*
X9177395Y-15546543D01*
X9177395Y-15356067D02*
X9196443Y-15346543D01*
X9234538Y-15346543D01*
X9253586Y-15356067D01*
X9263110Y-15365590D01*
X9272633Y-15384638D01*
X9272633Y-15441781D01*
X9263110Y-15460828D01*
X9253586Y-15470352D01*
X9234538Y-15479876D01*
X9196443Y-15479876D01*
X9177395Y-15470352D01*
X9358348Y-15460828D02*
X9367871Y-15470352D01*
X9358348Y-15479876D01*
X9348824Y-15470352D01*
X9358348Y-15460828D01*
X9358348Y-15479876D01*
X9358348Y-15356067D02*
X9367871Y-15365590D01*
X9358348Y-15375114D01*
X9348824Y-15365590D01*
X9358348Y-15356067D01*
X9358348Y-15375114D01*
D12*
X7689300Y-15789400D02*
X7729300Y-15829400D01*
X7729300Y-15789400D02*
X7689300Y-15829400D01*
D11*
X8025014Y-15699876D02*
X8044062Y-15699876D01*
X8063109Y-15709400D01*
X8072633Y-15718924D01*
X8082157Y-15737971D01*
X8091681Y-15776067D01*
X8091681Y-15823686D01*
X8082157Y-15861781D01*
X8072633Y-15880828D01*
X8063109Y-15890352D01*
X8044062Y-15899876D01*
X8025014Y-15899876D01*
X8005967Y-15890352D01*
X7996443Y-15880828D01*
X7986919Y-15861781D01*
X7977395Y-15823686D01*
X7977395Y-15776067D01*
X7986919Y-15737971D01*
X7996443Y-15718924D01*
X8005967Y-15709400D01*
X8025014Y-15699876D01*
X8177395Y-15880828D02*
X8186919Y-15890352D01*
X8177395Y-15899876D01*
X8167871Y-15890352D01*
X8177395Y-15880828D01*
X8177395Y-15899876D01*
X8358348Y-15766543D02*
X8358348Y-15899876D01*
X8310728Y-15690352D02*
X8263109Y-15833209D01*
X8386919Y-15833209D01*
X8501205Y-15699876D02*
X8520252Y-15699876D01*
X8539300Y-15709400D01*
X8548824Y-15718924D01*
X8558348Y-15737971D01*
X8567871Y-15776067D01*
X8567871Y-15823686D01*
X8558348Y-15861781D01*
X8548824Y-15880828D01*
X8539300Y-15890352D01*
X8520252Y-15899876D01*
X8501205Y-15899876D01*
X8482157Y-15890352D01*
X8472633Y-15880828D01*
X8463110Y-15861781D01*
X8453586Y-15823686D01*
X8453586Y-15776067D01*
X8463110Y-15737971D01*
X8472633Y-15718924D01*
X8482157Y-15709400D01*
X8501205Y-15699876D01*
X8691681Y-15699876D02*
X8710729Y-15699876D01*
X8729776Y-15709400D01*
X8739300Y-15718924D01*
X8748824Y-15737971D01*
X8758348Y-15776067D01*
X8758348Y-15823686D01*
X8748824Y-15861781D01*
X8739300Y-15880828D01*
X8729776Y-15890352D01*
X8710729Y-15899876D01*
X8691681Y-15899876D01*
X8672633Y-15890352D01*
X8663110Y-15880828D01*
X8653586Y-15861781D01*
X8644062Y-15823686D01*
X8644062Y-15776067D01*
X8653586Y-15737971D01*
X8663110Y-15718924D01*
X8672633Y-15709400D01*
X8691681Y-15699876D01*
X8844062Y-15899876D02*
X8844062Y-15766543D01*
X8844062Y-15785590D02*
X8853586Y-15776067D01*
X8872633Y-15766543D01*
X8901205Y-15766543D01*
X8920252Y-15776067D01*
X8929776Y-15795114D01*
X8929776Y-15899876D01*
X8929776Y-15795114D02*
X8939300Y-15776067D01*
X8958348Y-15766543D01*
X8986919Y-15766543D01*
X9005967Y-15776067D01*
X9015490Y-15795114D01*
X9015490Y-15899876D01*
X9110729Y-15899876D02*
X9110729Y-15766543D01*
X9110729Y-15785590D02*
X9120252Y-15776067D01*
X9139300Y-15766543D01*
X9167871Y-15766543D01*
X9186919Y-15776067D01*
X9196443Y-15795114D01*
X9196443Y-15899876D01*
X9196443Y-15795114D02*
X9205967Y-15776067D01*
X9225014Y-15766543D01*
X9253586Y-15766543D01*
X9272633Y-15776067D01*
X9282157Y-15795114D01*
X9282157Y-15899876D01*
X9672633Y-15690352D02*
X9501205Y-15947495D01*
X9929776Y-15699876D02*
X9948824Y-15699876D01*
X9967871Y-15709400D01*
X9977395Y-15718924D01*
X9986919Y-15737971D01*
X9996443Y-15776067D01*
X9996443Y-15823686D01*
X9986919Y-15861781D01*
X9977395Y-15880828D01*
X9967871Y-15890352D01*
X9948824Y-15899876D01*
X9929776Y-15899876D01*
X9910729Y-15890352D01*
X9901205Y-15880828D01*
X9891681Y-15861781D01*
X9882157Y-15823686D01*
X9882157Y-15776067D01*
X9891681Y-15737971D01*
X9901205Y-15718924D01*
X9910729Y-15709400D01*
X9929776Y-15699876D01*
X10082157Y-15880828D02*
X10091681Y-15890352D01*
X10082157Y-15899876D01*
X10072633Y-15890352D01*
X10082157Y-15880828D01*
X10082157Y-15899876D01*
X10215490Y-15699876D02*
X10234538Y-15699876D01*
X10253586Y-15709400D01*
X10263110Y-15718924D01*
X10272633Y-15737971D01*
X10282157Y-15776067D01*
X10282157Y-15823686D01*
X10272633Y-15861781D01*
X10263110Y-15880828D01*
X10253586Y-15890352D01*
X10234538Y-15899876D01*
X10215490Y-15899876D01*
X10196443Y-15890352D01*
X10186919Y-15880828D01*
X10177395Y-15861781D01*
X10167871Y-15823686D01*
X10167871Y-15776067D01*
X10177395Y-15737971D01*
X10186919Y-15718924D01*
X10196443Y-15709400D01*
X10215490Y-15699876D01*
X10472633Y-15899876D02*
X10358348Y-15899876D01*
X10415490Y-15899876D02*
X10415490Y-15699876D01*
X10396443Y-15728448D01*
X10377395Y-15747495D01*
X10358348Y-15757019D01*
X10653586Y-15699876D02*
X10558348Y-15699876D01*
X10548824Y-15795114D01*
X10558348Y-15785590D01*
X10577395Y-15776067D01*
X10625014Y-15776067D01*
X10644062Y-15785590D01*
X10653586Y-15795114D01*
X10663110Y-15814162D01*
X10663110Y-15861781D01*
X10653586Y-15880828D01*
X10644062Y-15890352D01*
X10625014Y-15899876D01*
X10577395Y-15899876D01*
X10558348Y-15890352D01*
X10548824Y-15880828D01*
X10729776Y-15699876D02*
X10863110Y-15699876D01*
X10777395Y-15899876D01*
X10929776Y-15699876D02*
X10929776Y-15737971D01*
X11005967Y-15699876D02*
X11005967Y-15737971D01*
X11301205Y-15976067D02*
X11291681Y-15966543D01*
X11272633Y-15937971D01*
X11263109Y-15918924D01*
X11253586Y-15890352D01*
X11244062Y-15842733D01*
X11244062Y-15804638D01*
X11253586Y-15757019D01*
X11263109Y-15728448D01*
X11272633Y-15709400D01*
X11291681Y-15680828D01*
X11301205Y-15671305D01*
X11358348Y-15699876D02*
X11491681Y-15699876D01*
X11405967Y-15899876D01*
X11596443Y-15785590D02*
X11577395Y-15776067D01*
X11567871Y-15766543D01*
X11558348Y-15747495D01*
X11558348Y-15737971D01*
X11567871Y-15718924D01*
X11577395Y-15709400D01*
X11596443Y-15699876D01*
X11634538Y-15699876D01*
X11653586Y-15709400D01*
X11663109Y-15718924D01*
X11672633Y-15737971D01*
X11672633Y-15747495D01*
X11663109Y-15766543D01*
X11653586Y-15776067D01*
X11634538Y-15785590D01*
X11596443Y-15785590D01*
X11577395Y-15795114D01*
X11567871Y-15804638D01*
X11558348Y-15823686D01*
X11558348Y-15861781D01*
X11567871Y-15880828D01*
X11577395Y-15890352D01*
X11596443Y-15899876D01*
X11634538Y-15899876D01*
X11653586Y-15890352D01*
X11663109Y-15880828D01*
X11672633Y-15861781D01*
X11672633Y-15823686D01*
X11663109Y-15804638D01*
X11653586Y-15795114D01*
X11634538Y-15785590D01*
X11910728Y-15899876D02*
X11910728Y-15699876D01*
X11996443Y-15899876D02*
X11996443Y-15795114D01*
X11986919Y-15776067D01*
X11967871Y-15766543D01*
X11939300Y-15766543D01*
X11920252Y-15776067D01*
X11910728Y-15785590D01*
X12120252Y-15899876D02*
X12101205Y-15890352D01*
X12091681Y-15880828D01*
X12082157Y-15861781D01*
X12082157Y-15804638D01*
X12091681Y-15785590D01*
X12101205Y-15776067D01*
X12120252Y-15766543D01*
X12148824Y-15766543D01*
X12167871Y-15776067D01*
X12177395Y-15785590D01*
X12186919Y-15804638D01*
X12186919Y-15861781D01*
X12177395Y-15880828D01*
X12167871Y-15890352D01*
X12148824Y-15899876D01*
X12120252Y-15899876D01*
X12301205Y-15899876D02*
X12282157Y-15890352D01*
X12272633Y-15871305D01*
X12272633Y-15699876D01*
X12453586Y-15890352D02*
X12434538Y-15899876D01*
X12396443Y-15899876D01*
X12377395Y-15890352D01*
X12367871Y-15871305D01*
X12367871Y-15795114D01*
X12377395Y-15776067D01*
X12396443Y-15766543D01*
X12434538Y-15766543D01*
X12453586Y-15776067D01*
X12463109Y-15795114D01*
X12463109Y-15814162D01*
X12367871Y-15833209D01*
X12539300Y-15890352D02*
X12558348Y-15899876D01*
X12596443Y-15899876D01*
X12615490Y-15890352D01*
X12625014Y-15871305D01*
X12625014Y-15861781D01*
X12615490Y-15842733D01*
X12596443Y-15833209D01*
X12567871Y-15833209D01*
X12548824Y-15823686D01*
X12539300Y-15804638D01*
X12539300Y-15795114D01*
X12548824Y-15776067D01*
X12567871Y-15766543D01*
X12596443Y-15766543D01*
X12615490Y-15776067D01*
X12691681Y-15976067D02*
X12701205Y-15966543D01*
X12720252Y-15937971D01*
X12729776Y-15918924D01*
X12739300Y-15890352D01*
X12748824Y-15842733D01*
X12748824Y-15804638D01*
X12739300Y-15757019D01*
X12729776Y-15728448D01*
X12720252Y-15709400D01*
X12701205Y-15680828D01*
X12691681Y-15671305D01*
D10*
X7729300Y-16073400D02*
G75*
G03*
X7729300Y-16073400I-50000J0D01*
G01*
D11*
X8091681Y-16163876D02*
X7977395Y-16163876D01*
X8034538Y-16163876D02*
X8034538Y-15963876D01*
X8015490Y-15992448D01*
X7996443Y-16011495D01*
X7977395Y-16021019D01*
X8177395Y-16144828D02*
X8186919Y-16154352D01*
X8177395Y-16163876D01*
X8167871Y-16154352D01*
X8177395Y-16144828D01*
X8177395Y-16163876D01*
X8310728Y-15963876D02*
X8329776Y-15963876D01*
X8348824Y-15973400D01*
X8358348Y-15982924D01*
X8367871Y-16001971D01*
X8377395Y-16040067D01*
X8377395Y-16087686D01*
X8367871Y-16125781D01*
X8358348Y-16144828D01*
X8348824Y-16154352D01*
X8329776Y-16163876D01*
X8310728Y-16163876D01*
X8291681Y-16154352D01*
X8282157Y-16144828D01*
X8272633Y-16125781D01*
X8263109Y-16087686D01*
X8263109Y-16040067D01*
X8272633Y-16001971D01*
X8282157Y-15982924D01*
X8291681Y-15973400D01*
X8310728Y-15963876D01*
X8501205Y-15963876D02*
X8520252Y-15963876D01*
X8539300Y-15973400D01*
X8548824Y-15982924D01*
X8558348Y-16001971D01*
X8567871Y-16040067D01*
X8567871Y-16087686D01*
X8558348Y-16125781D01*
X8548824Y-16144828D01*
X8539300Y-16154352D01*
X8520252Y-16163876D01*
X8501205Y-16163876D01*
X8482157Y-16154352D01*
X8472633Y-16144828D01*
X8463110Y-16125781D01*
X8453586Y-16087686D01*
X8453586Y-16040067D01*
X8463110Y-16001971D01*
X8472633Y-15982924D01*
X8482157Y-15973400D01*
X8501205Y-15963876D01*
X8691681Y-15963876D02*
X8710729Y-15963876D01*
X8729776Y-15973400D01*
X8739300Y-15982924D01*
X8748824Y-16001971D01*
X8758348Y-16040067D01*
X8758348Y-16087686D01*
X8748824Y-16125781D01*
X8739300Y-16144828D01*
X8729776Y-16154352D01*
X8710729Y-16163876D01*
X8691681Y-16163876D01*
X8672633Y-16154352D01*
X8663110Y-16144828D01*
X8653586Y-16125781D01*
X8644062Y-16087686D01*
X8644062Y-16040067D01*
X8653586Y-16001971D01*
X8663110Y-15982924D01*
X8672633Y-15973400D01*
X8691681Y-15963876D01*
X8844062Y-16163876D02*
X8844062Y-16030543D01*
X8844062Y-16049590D02*
X8853586Y-16040067D01*
X8872633Y-16030543D01*
X8901205Y-16030543D01*
X8920252Y-16040067D01*
X8929776Y-16059114D01*
X8929776Y-16163876D01*
X8929776Y-16059114D02*
X8939300Y-16040067D01*
X8958348Y-16030543D01*
X8986919Y-16030543D01*
X9005967Y-16040067D01*
X9015490Y-16059114D01*
X9015490Y-16163876D01*
X9110729Y-16163876D02*
X9110729Y-16030543D01*
X9110729Y-16049590D02*
X9120252Y-16040067D01*
X9139300Y-16030543D01*
X9167871Y-16030543D01*
X9186919Y-16040067D01*
X9196443Y-16059114D01*
X9196443Y-16163876D01*
X9196443Y-16059114D02*
X9205967Y-16040067D01*
X9225014Y-16030543D01*
X9253586Y-16030543D01*
X9272633Y-16040067D01*
X9282157Y-16059114D01*
X9282157Y-16163876D01*
X9672633Y-15954352D02*
X9501205Y-16211495D01*
X9929776Y-15963876D02*
X9948824Y-15963876D01*
X9967871Y-15973400D01*
X9977395Y-15982924D01*
X9986919Y-16001971D01*
X9996443Y-16040067D01*
X9996443Y-16087686D01*
X9986919Y-16125781D01*
X9977395Y-16144828D01*
X9967871Y-16154352D01*
X9948824Y-16163876D01*
X9929776Y-16163876D01*
X9910729Y-16154352D01*
X9901205Y-16144828D01*
X9891681Y-16125781D01*
X9882157Y-16087686D01*
X9882157Y-16040067D01*
X9891681Y-16001971D01*
X9901205Y-15982924D01*
X9910729Y-15973400D01*
X9929776Y-15963876D01*
X10082157Y-16144828D02*
X10091681Y-16154352D01*
X10082157Y-16163876D01*
X10072633Y-16154352D01*
X10082157Y-16144828D01*
X10082157Y-16163876D01*
X10215490Y-15963876D02*
X10234538Y-15963876D01*
X10253586Y-15973400D01*
X10263110Y-15982924D01*
X10272633Y-16001971D01*
X10282157Y-16040067D01*
X10282157Y-16087686D01*
X10272633Y-16125781D01*
X10263110Y-16144828D01*
X10253586Y-16154352D01*
X10234538Y-16163876D01*
X10215490Y-16163876D01*
X10196443Y-16154352D01*
X10186919Y-16144828D01*
X10177395Y-16125781D01*
X10167871Y-16087686D01*
X10167871Y-16040067D01*
X10177395Y-16001971D01*
X10186919Y-15982924D01*
X10196443Y-15973400D01*
X10215490Y-15963876D01*
X10348824Y-15963876D02*
X10472633Y-15963876D01*
X10405967Y-16040067D01*
X10434538Y-16040067D01*
X10453586Y-16049590D01*
X10463110Y-16059114D01*
X10472633Y-16078162D01*
X10472633Y-16125781D01*
X10463110Y-16144828D01*
X10453586Y-16154352D01*
X10434538Y-16163876D01*
X10377395Y-16163876D01*
X10358348Y-16154352D01*
X10348824Y-16144828D01*
X10567871Y-16163876D02*
X10605967Y-16163876D01*
X10625014Y-16154352D01*
X10634538Y-16144828D01*
X10653586Y-16116257D01*
X10663110Y-16078162D01*
X10663110Y-16001971D01*
X10653586Y-15982924D01*
X10644062Y-15973400D01*
X10625014Y-15963876D01*
X10586919Y-15963876D01*
X10567871Y-15973400D01*
X10558348Y-15982924D01*
X10548824Y-16001971D01*
X10548824Y-16049590D01*
X10558348Y-16068638D01*
X10567871Y-16078162D01*
X10586919Y-16087686D01*
X10625014Y-16087686D01*
X10644062Y-16078162D01*
X10653586Y-16068638D01*
X10663110Y-16049590D01*
X10834538Y-16030543D02*
X10834538Y-16163876D01*
X10786919Y-15954352D02*
X10739300Y-16097209D01*
X10863110Y-16097209D01*
X10929776Y-15963876D02*
X10929776Y-16001971D01*
X11005967Y-15963876D02*
X11005967Y-16001971D01*
X11301205Y-16240067D02*
X11291681Y-16230543D01*
X11272633Y-16201971D01*
X11263109Y-16182924D01*
X11253586Y-16154352D01*
X11244062Y-16106733D01*
X11244062Y-16068638D01*
X11253586Y-16021019D01*
X11263109Y-15992448D01*
X11272633Y-15973400D01*
X11291681Y-15944828D01*
X11301205Y-15935305D01*
X11386919Y-16163876D02*
X11425014Y-16163876D01*
X11444062Y-16154352D01*
X11453586Y-16144828D01*
X11472633Y-16116257D01*
X11482157Y-16078162D01*
X11482157Y-16001971D01*
X11472633Y-15982924D01*
X11463109Y-15973400D01*
X11444062Y-15963876D01*
X11405967Y-15963876D01*
X11386919Y-15973400D01*
X11377395Y-15982924D01*
X11367871Y-16001971D01*
X11367871Y-16049590D01*
X11377395Y-16068638D01*
X11386919Y-16078162D01*
X11405967Y-16087686D01*
X11444062Y-16087686D01*
X11463109Y-16078162D01*
X11472633Y-16068638D01*
X11482157Y-16049590D01*
X11596443Y-16049590D02*
X11577395Y-16040067D01*
X11567871Y-16030543D01*
X11558348Y-16011495D01*
X11558348Y-16001971D01*
X11567871Y-15982924D01*
X11577395Y-15973400D01*
X11596443Y-15963876D01*
X11634538Y-15963876D01*
X11653586Y-15973400D01*
X11663109Y-15982924D01*
X11672633Y-16001971D01*
X11672633Y-16011495D01*
X11663109Y-16030543D01*
X11653586Y-16040067D01*
X11634538Y-16049590D01*
X11596443Y-16049590D01*
X11577395Y-16059114D01*
X11567871Y-16068638D01*
X11558348Y-16087686D01*
X11558348Y-16125781D01*
X11567871Y-16144828D01*
X11577395Y-16154352D01*
X11596443Y-16163876D01*
X11634538Y-16163876D01*
X11653586Y-16154352D01*
X11663109Y-16144828D01*
X11672633Y-16125781D01*
X11672633Y-16087686D01*
X11663109Y-16068638D01*
X11653586Y-16059114D01*
X11634538Y-16049590D01*
X11910728Y-16163876D02*
X11910728Y-15963876D01*
X11996443Y-16163876D02*
X11996443Y-16059114D01*
X11986919Y-16040067D01*
X11967871Y-16030543D01*
X11939300Y-16030543D01*
X11920252Y-16040067D01*
X11910728Y-16049590D01*
X12120252Y-16163876D02*
X12101205Y-16154352D01*
X12091681Y-16144828D01*
X12082157Y-16125781D01*
X12082157Y-16068638D01*
X12091681Y-16049590D01*
X12101205Y-16040067D01*
X12120252Y-16030543D01*
X12148824Y-16030543D01*
X12167871Y-16040067D01*
X12177395Y-16049590D01*
X12186919Y-16068638D01*
X12186919Y-16125781D01*
X12177395Y-16144828D01*
X12167871Y-16154352D01*
X12148824Y-16163876D01*
X12120252Y-16163876D01*
X12301205Y-16163876D02*
X12282157Y-16154352D01*
X12272633Y-16135305D01*
X12272633Y-15963876D01*
X12453586Y-16154352D02*
X12434538Y-16163876D01*
X12396443Y-16163876D01*
X12377395Y-16154352D01*
X12367871Y-16135305D01*
X12367871Y-16059114D01*
X12377395Y-16040067D01*
X12396443Y-16030543D01*
X12434538Y-16030543D01*
X12453586Y-16040067D01*
X12463109Y-16059114D01*
X12463109Y-16078162D01*
X12367871Y-16097209D01*
X12539300Y-16154352D02*
X12558348Y-16163876D01*
X12596443Y-16163876D01*
X12615490Y-16154352D01*
X12625014Y-16135305D01*
X12625014Y-16125781D01*
X12615490Y-16106733D01*
X12596443Y-16097209D01*
X12567871Y-16097209D01*
X12548824Y-16087686D01*
X12539300Y-16068638D01*
X12539300Y-16059114D01*
X12548824Y-16040067D01*
X12567871Y-16030543D01*
X12596443Y-16030543D01*
X12615490Y-16040067D01*
X12691681Y-16240067D02*
X12701205Y-16230543D01*
X12720252Y-16201971D01*
X12729776Y-16182924D01*
X12739300Y-16154352D01*
X12748824Y-16106733D01*
X12748824Y-16068638D01*
X12739300Y-16021019D01*
X12729776Y-15992448D01*
X12720252Y-15973400D01*
X12701205Y-15944828D01*
X12691681Y-15935305D01*
D13*
X7674300Y-16282400D02*
X7674300Y-16392400D01*
X7619300Y-16337400D02*
X7729300Y-16337400D01*
D11*
X8091681Y-16427876D02*
X7977395Y-16427876D01*
X8034538Y-16427876D02*
X8034538Y-16227876D01*
X8015490Y-16256448D01*
X7996443Y-16275495D01*
X7977395Y-16285019D01*
X8177395Y-16408828D02*
X8186919Y-16418352D01*
X8177395Y-16427876D01*
X8167871Y-16418352D01*
X8177395Y-16408828D01*
X8177395Y-16427876D01*
X8377395Y-16427876D02*
X8263109Y-16427876D01*
X8320252Y-16427876D02*
X8320252Y-16227876D01*
X8301205Y-16256448D01*
X8282157Y-16275495D01*
X8263109Y-16285019D01*
X8501205Y-16227876D02*
X8520252Y-16227876D01*
X8539300Y-16237400D01*
X8548824Y-16246924D01*
X8558348Y-16265971D01*
X8567871Y-16304067D01*
X8567871Y-16351686D01*
X8558348Y-16389781D01*
X8548824Y-16408828D01*
X8539300Y-16418352D01*
X8520252Y-16427876D01*
X8501205Y-16427876D01*
X8482157Y-16418352D01*
X8472633Y-16408828D01*
X8463110Y-16389781D01*
X8453586Y-16351686D01*
X8453586Y-16304067D01*
X8463110Y-16265971D01*
X8472633Y-16246924D01*
X8482157Y-16237400D01*
X8501205Y-16227876D01*
X8691681Y-16227876D02*
X8710729Y-16227876D01*
X8729776Y-16237400D01*
X8739300Y-16246924D01*
X8748824Y-16265971D01*
X8758348Y-16304067D01*
X8758348Y-16351686D01*
X8748824Y-16389781D01*
X8739300Y-16408828D01*
X8729776Y-16418352D01*
X8710729Y-16427876D01*
X8691681Y-16427876D01*
X8672633Y-16418352D01*
X8663110Y-16408828D01*
X8653586Y-16389781D01*
X8644062Y-16351686D01*
X8644062Y-16304067D01*
X8653586Y-16265971D01*
X8663110Y-16246924D01*
X8672633Y-16237400D01*
X8691681Y-16227876D01*
X8844062Y-16427876D02*
X8844062Y-16294543D01*
X8844062Y-16313590D02*
X8853586Y-16304067D01*
X8872633Y-16294543D01*
X8901205Y-16294543D01*
X8920252Y-16304067D01*
X8929776Y-16323114D01*
X8929776Y-16427876D01*
X8929776Y-16323114D02*
X8939300Y-16304067D01*
X8958348Y-16294543D01*
X8986919Y-16294543D01*
X9005967Y-16304067D01*
X9015490Y-16323114D01*
X9015490Y-16427876D01*
X9110729Y-16427876D02*
X9110729Y-16294543D01*
X9110729Y-16313590D02*
X9120252Y-16304067D01*
X9139300Y-16294543D01*
X9167871Y-16294543D01*
X9186919Y-16304067D01*
X9196443Y-16323114D01*
X9196443Y-16427876D01*
X9196443Y-16323114D02*
X9205967Y-16304067D01*
X9225014Y-16294543D01*
X9253586Y-16294543D01*
X9272633Y-16304067D01*
X9282157Y-16323114D01*
X9282157Y-16427876D01*
X9672633Y-16218352D02*
X9501205Y-16475495D01*
X9929776Y-16227876D02*
X9948824Y-16227876D01*
X9967871Y-16237400D01*
X9977395Y-16246924D01*
X9986919Y-16265971D01*
X9996443Y-16304067D01*
X9996443Y-16351686D01*
X9986919Y-16389781D01*
X9977395Y-16408828D01*
X9967871Y-16418352D01*
X9948824Y-16427876D01*
X9929776Y-16427876D01*
X9910729Y-16418352D01*
X9901205Y-16408828D01*
X9891681Y-16389781D01*
X9882157Y-16351686D01*
X9882157Y-16304067D01*
X9891681Y-16265971D01*
X9901205Y-16246924D01*
X9910729Y-16237400D01*
X9929776Y-16227876D01*
X10082157Y-16408828D02*
X10091681Y-16418352D01*
X10082157Y-16427876D01*
X10072633Y-16418352D01*
X10082157Y-16408828D01*
X10082157Y-16427876D01*
X10215490Y-16227876D02*
X10234538Y-16227876D01*
X10253586Y-16237400D01*
X10263110Y-16246924D01*
X10272633Y-16265971D01*
X10282157Y-16304067D01*
X10282157Y-16351686D01*
X10272633Y-16389781D01*
X10263110Y-16408828D01*
X10253586Y-16418352D01*
X10234538Y-16427876D01*
X10215490Y-16427876D01*
X10196443Y-16418352D01*
X10186919Y-16408828D01*
X10177395Y-16389781D01*
X10167871Y-16351686D01*
X10167871Y-16304067D01*
X10177395Y-16265971D01*
X10186919Y-16246924D01*
X10196443Y-16237400D01*
X10215490Y-16227876D01*
X10453586Y-16294543D02*
X10453586Y-16427876D01*
X10405967Y-16218352D02*
X10358348Y-16361209D01*
X10482157Y-16361209D01*
X10539300Y-16227876D02*
X10663110Y-16227876D01*
X10596443Y-16304067D01*
X10625014Y-16304067D01*
X10644062Y-16313590D01*
X10653586Y-16323114D01*
X10663110Y-16342162D01*
X10663110Y-16389781D01*
X10653586Y-16408828D01*
X10644062Y-16418352D01*
X10625014Y-16427876D01*
X10567871Y-16427876D01*
X10548824Y-16418352D01*
X10539300Y-16408828D01*
X10729776Y-16227876D02*
X10853586Y-16227876D01*
X10786919Y-16304067D01*
X10815490Y-16304067D01*
X10834538Y-16313590D01*
X10844062Y-16323114D01*
X10853586Y-16342162D01*
X10853586Y-16389781D01*
X10844062Y-16408828D01*
X10834538Y-16418352D01*
X10815490Y-16427876D01*
X10758348Y-16427876D01*
X10739300Y-16418352D01*
X10729776Y-16408828D01*
X10929776Y-16227876D02*
X10929776Y-16265971D01*
X11005967Y-16227876D02*
X11005967Y-16265971D01*
X11301205Y-16504067D02*
X11291681Y-16494543D01*
X11272633Y-16465971D01*
X11263109Y-16446924D01*
X11253586Y-16418352D01*
X11244062Y-16370733D01*
X11244062Y-16332638D01*
X11253586Y-16285019D01*
X11263109Y-16256448D01*
X11272633Y-16237400D01*
X11291681Y-16208828D01*
X11301205Y-16199305D01*
X11386919Y-16427876D02*
X11425014Y-16427876D01*
X11444062Y-16418352D01*
X11453586Y-16408828D01*
X11472633Y-16380257D01*
X11482157Y-16342162D01*
X11482157Y-16265971D01*
X11472633Y-16246924D01*
X11463109Y-16237400D01*
X11444062Y-16227876D01*
X11405967Y-16227876D01*
X11386919Y-16237400D01*
X11377395Y-16246924D01*
X11367871Y-16265971D01*
X11367871Y-16313590D01*
X11377395Y-16332638D01*
X11386919Y-16342162D01*
X11405967Y-16351686D01*
X11444062Y-16351686D01*
X11463109Y-16342162D01*
X11472633Y-16332638D01*
X11482157Y-16313590D01*
X11653586Y-16227876D02*
X11615490Y-16227876D01*
X11596443Y-16237400D01*
X11586919Y-16246924D01*
X11567871Y-16275495D01*
X11558348Y-16313590D01*
X11558348Y-16389781D01*
X11567871Y-16408828D01*
X11577395Y-16418352D01*
X11596443Y-16427876D01*
X11634538Y-16427876D01*
X11653586Y-16418352D01*
X11663109Y-16408828D01*
X11672633Y-16389781D01*
X11672633Y-16342162D01*
X11663109Y-16323114D01*
X11653586Y-16313590D01*
X11634538Y-16304067D01*
X11596443Y-16304067D01*
X11577395Y-16313590D01*
X11567871Y-16323114D01*
X11558348Y-16342162D01*
X11910728Y-16427876D02*
X11910728Y-16227876D01*
X11996443Y-16427876D02*
X11996443Y-16323114D01*
X11986919Y-16304067D01*
X11967871Y-16294543D01*
X11939300Y-16294543D01*
X11920252Y-16304067D01*
X11910728Y-16313590D01*
X12120252Y-16427876D02*
X12101205Y-16418352D01*
X12091681Y-16408828D01*
X12082157Y-16389781D01*
X12082157Y-16332638D01*
X12091681Y-16313590D01*
X12101205Y-16304067D01*
X12120252Y-16294543D01*
X12148824Y-16294543D01*
X12167871Y-16304067D01*
X12177395Y-16313590D01*
X12186919Y-16332638D01*
X12186919Y-16389781D01*
X12177395Y-16408828D01*
X12167871Y-16418352D01*
X12148824Y-16427876D01*
X12120252Y-16427876D01*
X12301205Y-16427876D02*
X12282157Y-16418352D01*
X12272633Y-16399305D01*
X12272633Y-16227876D01*
X12453586Y-16418352D02*
X12434538Y-16427876D01*
X12396443Y-16427876D01*
X12377395Y-16418352D01*
X12367871Y-16399305D01*
X12367871Y-16323114D01*
X12377395Y-16304067D01*
X12396443Y-16294543D01*
X12434538Y-16294543D01*
X12453586Y-16304067D01*
X12463109Y-16323114D01*
X12463109Y-16342162D01*
X12367871Y-16361209D01*
X12539300Y-16418352D02*
X12558348Y-16427876D01*
X12596443Y-16427876D01*
X12615490Y-16418352D01*
X12625014Y-16399305D01*
X12625014Y-16389781D01*
X12615490Y-16370733D01*
X12596443Y-16361209D01*
X12567871Y-16361209D01*
X12548824Y-16351686D01*
X12539300Y-16332638D01*
X12539300Y-16323114D01*
X12548824Y-16304067D01*
X12567871Y-16294543D01*
X12596443Y-16294543D01*
X12615490Y-16304067D01*
X12691681Y-16504067D02*
X12701205Y-16494543D01*
X12720252Y-16465971D01*
X12729776Y-16446924D01*
X12739300Y-16418352D01*
X12748824Y-16370733D01*
X12748824Y-16332638D01*
X12739300Y-16285019D01*
X12729776Y-16256448D01*
X12720252Y-16237400D01*
X12701205Y-16208828D01*
X12691681Y-16199305D01*
X7700011Y-16672111D02*
X7700011Y-16530689D01*
X7558589Y-16530689D01*
X7558589Y-16672111D01*
X7700011Y-16672111D01*
X7967871Y-16491876D02*
X8091681Y-16491876D01*
X8025014Y-16568067D01*
X8053586Y-16568067D01*
X8072633Y-16577590D01*
X8082157Y-16587114D01*
X8091681Y-16606162D01*
X8091681Y-16653781D01*
X8082157Y-16672828D01*
X8072633Y-16682352D01*
X8053586Y-16691876D01*
X7996443Y-16691876D01*
X7977395Y-16682352D01*
X7967871Y-16672828D01*
X8177395Y-16672828D02*
X8186919Y-16682352D01*
X8177395Y-16691876D01*
X8167871Y-16682352D01*
X8177395Y-16672828D01*
X8177395Y-16691876D01*
X8310728Y-16491876D02*
X8329776Y-16491876D01*
X8348824Y-16501400D01*
X8358348Y-16510924D01*
X8367871Y-16529971D01*
X8377395Y-16568067D01*
X8377395Y-16615686D01*
X8367871Y-16653781D01*
X8358348Y-16672828D01*
X8348824Y-16682352D01*
X8329776Y-16691876D01*
X8310728Y-16691876D01*
X8291681Y-16682352D01*
X8282157Y-16672828D01*
X8272633Y-16653781D01*
X8263109Y-16615686D01*
X8263109Y-16568067D01*
X8272633Y-16529971D01*
X8282157Y-16510924D01*
X8291681Y-16501400D01*
X8310728Y-16491876D01*
X8501205Y-16491876D02*
X8520252Y-16491876D01*
X8539300Y-16501400D01*
X8548824Y-16510924D01*
X8558348Y-16529971D01*
X8567871Y-16568067D01*
X8567871Y-16615686D01*
X8558348Y-16653781D01*
X8548824Y-16672828D01*
X8539300Y-16682352D01*
X8520252Y-16691876D01*
X8501205Y-16691876D01*
X8482157Y-16682352D01*
X8472633Y-16672828D01*
X8463110Y-16653781D01*
X8453586Y-16615686D01*
X8453586Y-16568067D01*
X8463110Y-16529971D01*
X8472633Y-16510924D01*
X8482157Y-16501400D01*
X8501205Y-16491876D01*
X8691681Y-16491876D02*
X8710729Y-16491876D01*
X8729776Y-16501400D01*
X8739300Y-16510924D01*
X8748824Y-16529971D01*
X8758348Y-16568067D01*
X8758348Y-16615686D01*
X8748824Y-16653781D01*
X8739300Y-16672828D01*
X8729776Y-16682352D01*
X8710729Y-16691876D01*
X8691681Y-16691876D01*
X8672633Y-16682352D01*
X8663110Y-16672828D01*
X8653586Y-16653781D01*
X8644062Y-16615686D01*
X8644062Y-16568067D01*
X8653586Y-16529971D01*
X8663110Y-16510924D01*
X8672633Y-16501400D01*
X8691681Y-16491876D01*
X8844062Y-16691876D02*
X8844062Y-16558543D01*
X8844062Y-16577590D02*
X8853586Y-16568067D01*
X8872633Y-16558543D01*
X8901205Y-16558543D01*
X8920252Y-16568067D01*
X8929776Y-16587114D01*
X8929776Y-16691876D01*
X8929776Y-16587114D02*
X8939300Y-16568067D01*
X8958348Y-16558543D01*
X8986919Y-16558543D01*
X9005967Y-16568067D01*
X9015490Y-16587114D01*
X9015490Y-16691876D01*
X9110729Y-16691876D02*
X9110729Y-16558543D01*
X9110729Y-16577590D02*
X9120252Y-16568067D01*
X9139300Y-16558543D01*
X9167871Y-16558543D01*
X9186919Y-16568067D01*
X9196443Y-16587114D01*
X9196443Y-16691876D01*
X9196443Y-16587114D02*
X9205967Y-16568067D01*
X9225014Y-16558543D01*
X9253586Y-16558543D01*
X9272633Y-16568067D01*
X9282157Y-16587114D01*
X9282157Y-16691876D01*
X9672633Y-16482352D02*
X9501205Y-16739495D01*
X9929776Y-16491876D02*
X9948824Y-16491876D01*
X9967871Y-16501400D01*
X9977395Y-16510924D01*
X9986919Y-16529971D01*
X9996443Y-16568067D01*
X9996443Y-16615686D01*
X9986919Y-16653781D01*
X9977395Y-16672828D01*
X9967871Y-16682352D01*
X9948824Y-16691876D01*
X9929776Y-16691876D01*
X9910729Y-16682352D01*
X9901205Y-16672828D01*
X9891681Y-16653781D01*
X9882157Y-16615686D01*
X9882157Y-16568067D01*
X9891681Y-16529971D01*
X9901205Y-16510924D01*
X9910729Y-16501400D01*
X9929776Y-16491876D01*
X10082157Y-16672828D02*
X10091681Y-16682352D01*
X10082157Y-16691876D01*
X10072633Y-16682352D01*
X10082157Y-16672828D01*
X10082157Y-16691876D01*
X10282157Y-16691876D02*
X10167871Y-16691876D01*
X10225014Y-16691876D02*
X10225014Y-16491876D01*
X10205967Y-16520448D01*
X10186919Y-16539495D01*
X10167871Y-16549019D01*
X10472633Y-16691876D02*
X10358348Y-16691876D01*
X10415490Y-16691876D02*
X10415490Y-16491876D01*
X10396443Y-16520448D01*
X10377395Y-16539495D01*
X10358348Y-16549019D01*
X10586919Y-16577590D02*
X10567871Y-16568067D01*
X10558348Y-16558543D01*
X10548824Y-16539495D01*
X10548824Y-16529971D01*
X10558348Y-16510924D01*
X10567871Y-16501400D01*
X10586919Y-16491876D01*
X10625014Y-16491876D01*
X10644062Y-16501400D01*
X10653586Y-16510924D01*
X10663110Y-16529971D01*
X10663110Y-16539495D01*
X10653586Y-16558543D01*
X10644062Y-16568067D01*
X10625014Y-16577590D01*
X10586919Y-16577590D01*
X10567871Y-16587114D01*
X10558348Y-16596638D01*
X10548824Y-16615686D01*
X10548824Y-16653781D01*
X10558348Y-16672828D01*
X10567871Y-16682352D01*
X10586919Y-16691876D01*
X10625014Y-16691876D01*
X10644062Y-16682352D01*
X10653586Y-16672828D01*
X10663110Y-16653781D01*
X10663110Y-16615686D01*
X10653586Y-16596638D01*
X10644062Y-16587114D01*
X10625014Y-16577590D01*
X10853586Y-16691876D02*
X10739300Y-16691876D01*
X10796443Y-16691876D02*
X10796443Y-16491876D01*
X10777395Y-16520448D01*
X10758348Y-16539495D01*
X10739300Y-16549019D01*
X10929776Y-16491876D02*
X10929776Y-16529971D01*
X11005967Y-16491876D02*
X11005967Y-16529971D01*
X11301205Y-16768067D02*
X11291681Y-16758543D01*
X11272633Y-16729971D01*
X11263109Y-16710924D01*
X11253586Y-16682352D01*
X11244062Y-16634733D01*
X11244062Y-16596638D01*
X11253586Y-16549019D01*
X11263109Y-16520448D01*
X11272633Y-16501400D01*
X11291681Y-16472828D01*
X11301205Y-16463305D01*
X11463109Y-16558543D02*
X11463109Y-16691876D01*
X11415490Y-16482352D02*
X11367871Y-16625209D01*
X11491681Y-16625209D01*
X11720252Y-16691876D02*
X11720252Y-16491876D01*
X11805967Y-16691876D02*
X11805967Y-16587114D01*
X11796443Y-16568067D01*
X11777395Y-16558543D01*
X11748824Y-16558543D01*
X11729776Y-16568067D01*
X11720252Y-16577590D01*
X11929776Y-16691876D02*
X11910728Y-16682352D01*
X11901205Y-16672828D01*
X11891681Y-16653781D01*
X11891681Y-16596638D01*
X11901205Y-16577590D01*
X11910728Y-16568067D01*
X11929776Y-16558543D01*
X11958348Y-16558543D01*
X11977395Y-16568067D01*
X11986919Y-16577590D01*
X11996443Y-16596638D01*
X11996443Y-16653781D01*
X11986919Y-16672828D01*
X11977395Y-16682352D01*
X11958348Y-16691876D01*
X11929776Y-16691876D01*
X12110728Y-16691876D02*
X12091681Y-16682352D01*
X12082157Y-16663305D01*
X12082157Y-16491876D01*
X12263109Y-16682352D02*
X12244062Y-16691876D01*
X12205967Y-16691876D01*
X12186919Y-16682352D01*
X12177395Y-16663305D01*
X12177395Y-16587114D01*
X12186919Y-16568067D01*
X12205967Y-16558543D01*
X12244062Y-16558543D01*
X12263109Y-16568067D01*
X12272633Y-16587114D01*
X12272633Y-16606162D01*
X12177395Y-16625209D01*
X12348824Y-16682352D02*
X12367871Y-16691876D01*
X12405967Y-16691876D01*
X12425014Y-16682352D01*
X12434538Y-16663305D01*
X12434538Y-16653781D01*
X12425014Y-16634733D01*
X12405967Y-16625209D01*
X12377395Y-16625209D01*
X12358348Y-16615686D01*
X12348824Y-16596638D01*
X12348824Y-16587114D01*
X12358348Y-16568067D01*
X12377395Y-16558543D01*
X12405967Y-16558543D01*
X12425014Y-16568067D01*
X12501205Y-16768067D02*
X12510728Y-16758543D01*
X12529776Y-16729971D01*
X12539300Y-16710924D01*
X12548824Y-16682352D01*
X12558348Y-16634733D01*
X12558348Y-16596638D01*
X12548824Y-16549019D01*
X12539300Y-16520448D01*
X12529776Y-16501400D01*
X12510728Y-16472828D01*
X12501205Y-16463305D01*
M02*
